<?xml version="1.0" encoding="UTF-8"?>
<svg id="Layer_2" data-name="Layer 2" xmlns="http://www.w3.org/2000/svg" xmlns:xlink="http://www.w3.org/1999/xlink" viewBox="0 0 1300 515">
  <defs>
    <style>
      .cls-1 {
        fill: #999;
      }

      .cls-1, .cls-2, .cls-3 {
        stroke-width: 0px;
      }

      .cls-2 {
        fill: url(#Arrows);
      }

      .cls-3 {
        fill: none;
      }
    </style>
    <pattern id="Arrows" x="0" y="0" width="1200" height="1200" patternTransform="translate(-6611.21 -7400.38) scale(.24)" patternUnits="userSpaceOnUse" viewBox="0 0 1200 1200">
      <g>
        <rect class="cls-3" width="1200" height="1200"/>
        <polygon class="cls-1" points="10.46 3.53 25.89 3.53 23.58 0 6.32 0 6.32 31.89 0 31.89 0 36.04 10.46 36.04 10.46 3.53"/>
        <polygon class="cls-1" points="189.54 3.53 189.54 36.04 210.46 36.04 210.46 3.53 225.89 3.53 223.58 0 206.32 0 206.32 31.89 193.68 31.89 193.68 0 176.42 0 174.11 3.53 189.54 3.53"/>
        <polygon class="cls-1" points="389.54 3.53 389.54 36.04 410.46 36.04 410.46 3.53 425.89 3.53 423.58 0 406.32 0 406.32 31.89 393.68 31.89 393.68 0 376.42 0 374.11 3.53 389.54 3.53"/>
        <polygon class="cls-1" points="589.54 3.53 589.54 36.04 610.46 36.04 610.46 3.53 625.89 3.53 623.58 0 606.32 0 606.32 31.89 593.68 31.89 593.68 0 576.42 0 574.11 3.53 589.54 3.53"/>
        <polygon class="cls-1" points="789.54 3.53 789.54 36.04 810.46 36.04 810.46 3.53 825.89 3.53 823.58 0 806.32 0 806.32 31.89 793.68 31.89 793.68 0 776.42 0 774.11 3.53 789.54 3.53"/>
        <polygon class="cls-1" points="989.54 3.53 989.54 36.04 1010.46 36.04 1010.46 3.53 1025.89 3.53 1023.58 0 1006.32 0 1006.32 31.89 993.68 31.89 993.68 0 976.42 0 974.11 3.53 989.54 3.53"/>
        <polygon class="cls-1" points="1193.68 31.89 1193.68 0 1176.42 0 1174.11 3.53 1189.54 3.53 1189.54 36.04 1200 36.04 1200 31.89 1193.68 31.89"/>
        <path class="cls-1" d="m125.89,103.53h-15.42v32.5h-20.93v-32.5h-15.42l25.89-39.57,25.89,39.57Zm-7.67-4.15l-18.22-27.85-18.22,27.85h11.9v32.5h12.63v-32.5h11.9Z"/>
        <path class="cls-1" d="m325.89,103.53h-15.42v32.5h-20.93v-32.5h-15.42l25.89-39.57,25.89,39.57Zm-7.67-4.15l-18.22-27.85-18.22,27.85h11.9v32.5h12.63v-32.5h11.9Z"/>
        <path class="cls-1" d="m525.89,103.53h-15.42v32.5h-20.93v-32.5h-15.42l25.89-39.57,25.89,39.57Zm-7.67-4.15l-18.22-27.85-18.22,27.85h11.9v32.5h12.63v-32.5h11.9Z"/>
        <path class="cls-1" d="m725.89,103.53h-15.42v32.5h-20.93v-32.5h-15.42l25.89-39.57,25.89,39.57Zm-7.67-4.15l-18.22-27.85-18.22,27.85h11.9v32.5h12.63v-32.5h11.9Z"/>
        <path class="cls-1" d="m925.89,103.53h-15.42v32.5h-20.93v-32.5h-15.42l25.89-39.57,25.89,39.57Zm-7.67-4.15l-18.22-27.85-18.22,27.85h11.9v32.5h12.63v-32.5h11.9Z"/>
        <path class="cls-1" d="m1125.89,103.53h-15.42v32.5h-20.93v-32.5h-15.42l25.89-39.57,25.89,39.57Zm-7.67-4.15l-18.22-27.85-18.22,27.85h11.9v32.5h12.63v-32.5h11.9Z"/>
        <polygon class="cls-1" points="10.46 203.53 25.89 203.53 0 163.96 0 171.54 18.22 199.39 6.32 199.39 6.32 231.89 0 231.89 0 236.04 10.46 236.04 10.46 203.53"/>
        <path class="cls-1" d="m225.89,203.53h-15.42v32.5h-20.93v-32.5h-15.42l25.89-39.57,25.89,39.57Zm-7.67-4.15l-18.22-27.85-18.22,27.85h11.9v32.5h12.63v-32.5h11.9Z"/>
        <path class="cls-1" d="m425.89,203.53h-15.42v32.5h-20.93v-32.5h-15.42l25.89-39.57,25.89,39.57Zm-7.67-4.15l-18.22-27.85-18.22,27.85h11.9v32.5h12.63v-32.5h11.9Z"/>
        <path class="cls-1" d="m625.89,203.53h-15.42v32.5h-20.93v-32.5h-15.42l25.89-39.57,25.89,39.57Zm-7.67-4.15l-18.22-27.85-18.22,27.85h11.9v32.5h12.63v-32.5h11.9Z"/>
        <path class="cls-1" d="m825.89,203.53h-15.42v32.5h-20.93v-32.5h-15.42l25.89-39.57,25.89,39.57Zm-7.67-4.15l-18.22-27.85-18.22,27.85h11.9v32.5h12.63v-32.5h11.9Z"/>
        <path class="cls-1" d="m1025.89,203.53h-15.42v32.5h-20.93v-32.5h-15.42l25.89-39.57,25.89,39.57Zm-7.67-4.15l-18.22-27.85-18.22,27.85h11.9v32.5h12.63v-32.5h11.9Z"/>
        <polygon class="cls-1" points="1193.68 231.89 1193.68 199.39 1181.78 199.39 1200 171.54 1200 163.96 1174.11 203.53 1189.54 203.53 1189.54 236.04 1200 236.04 1200 231.89 1193.68 231.89"/>
        <path class="cls-1" d="m125.89,303.53h-15.42v32.5h-20.93v-32.5h-15.42l25.89-39.57,25.89,39.57Zm-7.67-4.15l-18.22-27.85-18.22,27.85h11.9v32.5h12.63v-32.5h11.9Z"/>
        <path class="cls-1" d="m325.89,303.53h-15.42v32.5h-20.93v-32.5h-15.42l25.89-39.57,25.89,39.57Zm-7.67-4.15l-18.22-27.85-18.22,27.85h11.9v32.5h12.63v-32.5h11.9Z"/>
        <path class="cls-1" d="m525.89,303.53h-15.42v32.5h-20.93v-32.5h-15.42l25.89-39.57,25.89,39.57Zm-7.67-4.15l-18.22-27.85-18.22,27.85h11.9v32.5h12.63v-32.5h11.9Z"/>
        <path class="cls-1" d="m725.89,303.53h-15.42v32.5h-20.93v-32.5h-15.42l25.89-39.57,25.89,39.57Zm-7.67-4.15l-18.22-27.85-18.22,27.85h11.9v32.5h12.63v-32.5h11.9Z"/>
        <path class="cls-1" d="m925.89,303.53h-15.42v32.5h-20.93v-32.5h-15.42l25.89-39.57,25.89,39.57Zm-7.67-4.15l-18.22-27.85-18.22,27.85h11.9v32.5h12.63v-32.5h11.9Z"/>
        <path class="cls-1" d="m1125.89,303.53h-15.42v32.5h-20.93v-32.5h-15.42l25.89-39.57,25.89,39.57Zm-7.67-4.15l-18.22-27.85-18.22,27.85h11.9v32.5h12.63v-32.5h11.9Z"/>
        <polygon class="cls-1" points="10.46 403.53 25.89 403.53 0 363.96 0 371.54 18.22 399.39 6.32 399.39 6.32 431.89 0 431.89 0 436.04 10.46 436.04 10.46 403.53"/>
        <path class="cls-1" d="m225.89,403.53h-15.42v32.5h-20.93v-32.5h-15.42l25.89-39.57,25.89,39.57Zm-7.67-4.15l-18.22-27.85-18.22,27.85h11.9v32.5h12.63v-32.5h11.9Z"/>
        <path class="cls-1" d="m425.89,403.53h-15.42v32.5h-20.93v-32.5h-15.42l25.89-39.57,25.89,39.57Zm-7.67-4.15l-18.22-27.85-18.22,27.85h11.9v32.5h12.63v-32.5h11.9Z"/>
        <path class="cls-1" d="m625.89,403.53h-15.42v32.5h-20.93v-32.5h-15.42l25.89-39.57,25.89,39.57Zm-7.67-4.15l-18.22-27.85-18.22,27.85h11.9v32.5h12.63v-32.5h11.9Z"/>
        <path class="cls-1" d="m825.89,403.53h-15.42v32.5h-20.93v-32.5h-15.42l25.89-39.57,25.89,39.57Zm-7.67-4.15l-18.22-27.85-18.22,27.85h11.9v32.5h12.63v-32.5h11.9Z"/>
        <path class="cls-1" d="m1025.89,403.53h-15.42v32.5h-20.93v-32.5h-15.42l25.89-39.57,25.89,39.57Zm-7.67-4.15l-18.22-27.85-18.22,27.85h11.9v32.5h12.63v-32.5h11.9Z"/>
        <polygon class="cls-1" points="1193.68 431.89 1193.68 399.39 1181.78 399.39 1200 371.54 1200 363.96 1174.11 403.53 1189.54 403.53 1189.54 436.04 1200 436.04 1200 431.89 1193.68 431.89"/>
        <path class="cls-1" d="m125.89,503.53h-15.42v32.5h-20.93v-32.5h-15.42l25.89-39.57,25.89,39.57Zm-7.67-4.15l-18.22-27.85-18.22,27.85h11.9v32.5h12.63v-32.5h11.9Z"/>
        <path class="cls-1" d="m325.89,503.53h-15.42v32.5h-20.93v-32.5h-15.42l25.89-39.57,25.89,39.57Zm-7.67-4.15l-18.22-27.85-18.22,27.85h11.9v32.5h12.63v-32.5h11.9Z"/>
        <path class="cls-1" d="m525.89,503.53h-15.42v32.5h-20.93v-32.5h-15.42l25.89-39.57,25.89,39.57Zm-7.67-4.15l-18.22-27.85-18.22,27.85h11.9v32.5h12.63v-32.5h11.9Z"/>
        <path class="cls-1" d="m725.89,503.53h-15.42v32.5h-20.93v-32.5h-15.42l25.89-39.57,25.89,39.57Zm-7.67-4.15l-18.22-27.85-18.22,27.85h11.9v32.5h12.63v-32.5h11.9Z"/>
        <path class="cls-1" d="m925.89,503.53h-15.42v32.5h-20.93v-32.5h-15.42l25.89-39.57,25.89,39.57Zm-7.67-4.15l-18.22-27.85-18.22,27.85h11.9v32.5h12.63v-32.5h11.9Z"/>
        <path class="cls-1" d="m1125.89,503.53h-15.42v32.5h-20.93v-32.5h-15.42l25.89-39.57,25.89,39.57Zm-7.67-4.15l-18.22-27.85-18.22,27.85h11.9v32.5h12.63v-32.5h11.9Z"/>
        <polygon class="cls-1" points="10.46 603.53 25.89 603.53 0 563.96 0 571.54 18.22 599.39 6.32 599.39 6.32 631.89 0 631.89 0 636.04 10.46 636.04 10.46 603.53"/>
        <path class="cls-1" d="m225.89,603.53h-15.42v32.5h-20.93v-32.5h-15.42l25.89-39.57,25.89,39.57Zm-7.67-4.15l-18.22-27.85-18.22,27.85h11.9v32.5h12.63v-32.5h11.9Z"/>
        <path class="cls-1" d="m425.89,603.53h-15.42v32.5h-20.93v-32.5h-15.42l25.89-39.57,25.89,39.57Zm-7.67-4.15l-18.22-27.85-18.22,27.85h11.9v32.5h12.63v-32.5h11.9Z"/>
        <path class="cls-1" d="m625.89,603.53h-15.42v32.5h-20.93v-32.5h-15.42l25.89-39.57,25.89,39.57Zm-7.67-4.15l-18.22-27.85-18.22,27.85h11.9v32.5h12.63v-32.5h11.9Z"/>
        <path class="cls-1" d="m825.89,603.53h-15.42v32.5h-20.93v-32.5h-15.42l25.89-39.57,25.89,39.57Zm-7.67-4.15l-18.22-27.85-18.22,27.85h11.9v32.5h12.63v-32.5h11.9Z"/>
        <path class="cls-1" d="m1025.89,603.53h-15.42v32.5h-20.93v-32.5h-15.42l25.89-39.57,25.89,39.57Zm-7.67-4.15l-18.22-27.85-18.22,27.85h11.9v32.5h12.63v-32.5h11.9Z"/>
        <polygon class="cls-1" points="1193.68 631.89 1193.68 599.39 1181.78 599.39 1200 571.54 1200 563.96 1174.11 603.53 1189.54 603.53 1189.54 636.04 1200 636.04 1200 631.89 1193.68 631.89"/>
        <path class="cls-1" d="m125.89,703.53h-15.42v32.5h-20.93v-32.5h-15.42l25.89-39.57,25.89,39.57Zm-7.67-4.15l-18.22-27.85-18.22,27.85h11.9v32.5h12.63v-32.5h11.9Z"/>
        <path class="cls-1" d="m325.89,703.53h-15.42v32.5h-20.93v-32.5h-15.42l25.89-39.57,25.89,39.57Zm-7.67-4.15l-18.22-27.85-18.22,27.85h11.9v32.5h12.63v-32.5h11.9Z"/>
        <path class="cls-1" d="m525.89,703.53h-15.42v32.5h-20.93v-32.5h-15.42l25.89-39.57,25.89,39.57Zm-7.67-4.15l-18.22-27.85-18.22,27.85h11.9v32.5h12.63v-32.5h11.9Z"/>
        <path class="cls-1" d="m725.89,703.53h-15.42v32.5h-20.93v-32.5h-15.42l25.89-39.57,25.89,39.57Zm-7.67-4.15l-18.22-27.85-18.22,27.85h11.9v32.5h12.63v-32.5h11.9Z"/>
        <path class="cls-1" d="m925.89,703.53h-15.42v32.5h-20.93v-32.5h-15.42l25.89-39.57,25.89,39.57Zm-7.67-4.15l-18.22-27.85-18.22,27.85h11.9v32.5h12.63v-32.5h11.9Z"/>
        <path class="cls-1" d="m1125.89,703.53h-15.42v32.5h-20.93v-32.5h-15.42l25.89-39.57,25.89,39.57Zm-7.67-4.15l-18.22-27.85-18.22,27.85h11.9v32.5h12.63v-32.5h11.9Z"/>
        <polygon class="cls-1" points="10.46 803.53 25.89 803.53 0 763.96 0 771.54 18.22 799.39 6.32 799.39 6.32 831.89 0 831.89 0 836.04 10.46 836.04 10.46 803.53"/>
        <path class="cls-1" d="m225.89,803.53h-15.42v32.5h-20.93v-32.5h-15.42l25.89-39.57,25.89,39.57Zm-7.67-4.15l-18.22-27.85-18.22,27.85h11.9v32.5h12.63v-32.5h11.9Z"/>
        <path class="cls-1" d="m425.89,803.53h-15.42v32.5h-20.93v-32.5h-15.42l25.89-39.57,25.89,39.57Zm-7.67-4.15l-18.22-27.85-18.22,27.85h11.9v32.5h12.63v-32.5h11.9Z"/>
        <path class="cls-1" d="m625.89,803.53h-15.42v32.5h-20.93v-32.5h-15.42l25.89-39.57,25.89,39.57Zm-7.67-4.15l-18.22-27.85-18.22,27.85h11.9v32.5h12.63v-32.5h11.9Z"/>
        <path class="cls-1" d="m825.89,803.53h-15.42v32.5h-20.93v-32.5h-15.42l25.89-39.57,25.89,39.57Zm-7.67-4.15l-18.22-27.85-18.22,27.85h11.9v32.5h12.63v-32.5h11.9Z"/>
        <path class="cls-1" d="m1025.89,803.53h-15.42v32.5h-20.93v-32.5h-15.42l25.89-39.57,25.89,39.57Zm-7.67-4.15l-18.22-27.85-18.22,27.85h11.9v32.5h12.63v-32.5h11.9Z"/>
        <polygon class="cls-1" points="1193.68 831.89 1193.68 799.39 1181.78 799.39 1200 771.54 1200 763.96 1174.11 803.53 1189.54 803.53 1189.54 836.04 1200 836.04 1200 831.89 1193.68 831.89"/>
        <path class="cls-1" d="m125.89,903.53h-15.42v32.5h-20.93v-32.5h-15.42l25.89-39.57,25.89,39.57Zm-7.67-4.15l-18.22-27.85-18.22,27.85h11.9v32.5h12.63v-32.5h11.9Z"/>
        <path class="cls-1" d="m325.89,903.53h-15.42v32.5h-20.93v-32.5h-15.42l25.89-39.57,25.89,39.57Zm-7.67-4.15l-18.22-27.85-18.22,27.85h11.9v32.5h12.63v-32.5h11.9Z"/>
        <path class="cls-1" d="m525.89,903.53h-15.42v32.5h-20.93v-32.5h-15.42l25.89-39.57,25.89,39.57Zm-7.67-4.15l-18.22-27.85-18.22,27.85h11.9v32.5h12.63v-32.5h11.9Z"/>
        <path class="cls-1" d="m725.89,903.53h-15.42v32.5h-20.93v-32.5h-15.42l25.89-39.57,25.89,39.57Zm-7.67-4.15l-18.22-27.85-18.22,27.85h11.9v32.5h12.63v-32.5h11.9Z"/>
        <path class="cls-1" d="m925.89,903.53h-15.42v32.5h-20.93v-32.5h-15.42l25.89-39.57,25.89,39.57Zm-7.67-4.15l-18.22-27.85-18.22,27.85h11.9v32.5h12.63v-32.5h11.9Z"/>
        <path class="cls-1" d="m1125.89,903.53h-15.42v32.5h-20.93v-32.5h-15.42l25.89-39.57,25.89,39.57Zm-7.67-4.15l-18.22-27.85-18.22,27.85h11.9v32.5h12.63v-32.5h11.9Z"/>
        <polygon class="cls-1" points="10.46 1003.53 25.89 1003.53 0 963.96 0 971.54 18.22 999.39 6.32 999.39 6.32 1031.89 0 1031.89 0 1036.04 10.46 1036.04 10.46 1003.53"/>
        <path class="cls-1" d="m225.89,1003.53h-15.42v32.5h-20.93v-32.5h-15.42l25.89-39.57,25.89,39.57Zm-7.67-4.15l-18.22-27.85-18.22,27.85h11.9v32.5h12.63v-32.5h11.9Z"/>
        <path class="cls-1" d="m425.89,1003.53h-15.42v32.5h-20.93v-32.5h-15.42l25.89-39.57,25.89,39.57Zm-7.67-4.15l-18.22-27.85-18.22,27.85h11.9v32.5h12.63v-32.5h11.9Z"/>
        <path class="cls-1" d="m625.89,1003.53h-15.42v32.5h-20.93v-32.5h-15.42l25.89-39.57,25.89,39.57Zm-7.67-4.15l-18.22-27.85-18.22,27.85h11.9v32.5h12.63v-32.5h11.9Z"/>
        <path class="cls-1" d="m825.89,1003.53h-15.42v32.5h-20.93v-32.5h-15.42l25.89-39.57,25.89,39.57Zm-7.67-4.15l-18.22-27.85-18.22,27.85h11.9v32.5h12.63v-32.5h11.9Z"/>
        <path class="cls-1" d="m1025.89,1003.53h-15.42v32.5h-20.93v-32.5h-15.42l25.89-39.57,25.89,39.57Zm-7.67-4.15l-18.22-27.85-18.22,27.85h11.9v32.5h12.63v-32.5h11.9Z"/>
        <polygon class="cls-1" points="1193.68 1031.89 1193.68 999.39 1181.78 999.39 1200 971.54 1200 963.96 1174.11 1003.53 1189.54 1003.53 1189.54 1036.04 1200 1036.04 1200 1031.89 1193.68 1031.89"/>
        <path class="cls-1" d="m125.89,1103.53h-15.42v32.5h-20.93v-32.5h-15.42l25.89-39.57,25.89,39.57Zm-7.67-4.15l-18.22-27.85-18.22,27.85h11.9v32.5h12.63v-32.5h11.9Z"/>
        <path class="cls-1" d="m325.89,1103.53h-15.42v32.5h-20.93v-32.5h-15.42l25.89-39.57,25.89,39.57Zm-7.67-4.15l-18.22-27.85-18.22,27.85h11.9v32.5h12.63v-32.5h11.9Z"/>
        <path class="cls-1" d="m525.89,1103.53h-15.42v32.5h-20.93v-32.5h-15.42l25.89-39.57,25.89,39.57Zm-7.67-4.15l-18.22-27.85-18.22,27.85h11.9v32.5h12.63v-32.5h11.9Z"/>
        <path class="cls-1" d="m725.89,1103.53h-15.42v32.5h-20.93v-32.5h-15.42l25.89-39.57,25.89,39.57Zm-7.67-4.15l-18.22-27.85-18.22,27.85h11.9v32.5h12.63v-32.5h11.9Z"/>
        <path class="cls-1" d="m925.89,1103.53h-15.42v32.5h-20.93v-32.5h-15.42l25.89-39.57,25.89,39.57Zm-7.67-4.15l-18.22-27.85-18.22,27.85h11.9v32.5h12.63v-32.5h11.9Z"/>
        <path class="cls-1" d="m1125.89,1103.53h-15.42v32.5h-20.93v-32.5h-15.42l25.89-39.57,25.89,39.57Zm-7.67-4.15l-18.22-27.85-18.22,27.85h11.9v32.5h12.63v-32.5h11.9Z"/>
        <polygon class="cls-1" points="0 1171.54 18.22 1199.39 6.32 1199.39 6.32 1200 23.58 1200 0 1163.96 0 1171.54"/>
        <polygon class="cls-1" points="176.42 1200 193.68 1200 193.68 1199.39 181.78 1199.39 200 1171.54 218.22 1199.39 206.32 1199.39 206.32 1200 223.58 1200 200 1163.96 176.42 1200"/>
        <polygon class="cls-1" points="376.42 1200 393.68 1200 393.68 1199.39 381.78 1199.39 400 1171.54 418.22 1199.39 406.32 1199.39 406.32 1200 423.58 1200 400 1163.96 376.42 1200"/>
        <polygon class="cls-1" points="576.42 1200 593.68 1200 593.68 1199.39 581.78 1199.39 600 1171.54 618.22 1199.39 606.32 1199.39 606.32 1200 623.58 1200 600 1163.96 576.42 1200"/>
        <polygon class="cls-1" points="776.42 1200 793.68 1200 793.68 1199.39 781.78 1199.39 800 1171.54 818.22 1199.39 806.32 1199.39 806.32 1200 823.58 1200 800 1163.96 776.42 1200"/>
        <polygon class="cls-1" points="976.42 1200 993.68 1200 993.68 1199.39 981.78 1199.39 1000 1171.54 1018.22 1199.39 1006.32 1199.39 1006.32 1200 1023.58 1200 1000 1163.96 976.42 1200"/>
        <polygon class="cls-1" points="1193.68 1199.39 1181.78 1199.39 1200 1171.54 1200 1163.96 1176.42 1200 1193.68 1200 1193.68 1199.39"/>
      </g>
    </pattern>
  </defs>
  <g id="Layer_1-2" data-name="Layer 1">
    <rect class="cls-2" width="1300" height="515"/>
  </g>
</svg>