<?xml version="1.0" encoding="UTF-8"?>
<svg id="Layer_2" data-name="Layer 2" xmlns="http://www.w3.org/2000/svg" viewBox="0 0 2753.11 1641.03" preserveAspectRatio="none">
  <defs>
    <style>
      .cls-1 {
        fill: #0f111a;
        stroke-width: 0px;
      }
    </style>
  </defs>
  <g id="Isolation_Mode" data-name="Isolation Mode">
    <g>
      <g>
        <path class="cls-1" d="m11.55,67.25c.75-.96,1.5-1.94,2.27-2.73.76-.86,1.53-1.65,2.32-2.42.77-.79,1.56-1.55,2.36-2.29.79-.75,1.58-1.51,2.38-2.22,3.19-2.93,6.45-5.75,9.72-8.55,6.54-5.59,13.18-11.03,19.85-16.43,13.34-10.79,26.84-21.37,40.37-31.91-12.92,11.27-25.81,22.59-38.5,34.09-6.35,5.75-12.66,11.54-18.84,17.44-3.08,2.96-6.15,5.92-9.11,8.96-.75.75-1.47,1.52-2.19,2.29-.73.76-1.45,1.53-2.13,2.31-.7.77-1.39,1.55-2.01,2.34-.68.79-1.18,1.55-1.72,2.3l-4.77-3.19Z"/>
        <path class="cls-1" d="m5.82,117.75c1.23-1.56,2.4-3.24,3.71-4.63l1.92-2.17c.64-.72,1.32-1.38,1.98-2.07,2.63-2.78,5.37-5.37,8.1-8,2.77-2.56,5.51-5.16,8.34-7.65l4.21-3.77,4.25-3.71c11.35-9.88,22.9-19.48,34.52-28.99C96.1,37.75,119.68,19.18,143.34.71c-23.05,19.22-46.03,38.53-68.64,58.25-11.3,9.86-22.52,19.81-33.49,29.99l-4.11,3.82-4.05,3.87c-2.72,2.56-5.35,5.21-8,7.83-2.59,2.67-5.22,5.31-7.66,8.07-2.5,2.72-4.81,5.56-6.79,8.4l-4.77-3.19Z"/>
        <path class="cls-1" d="m.09,168.26l2.53-3.34,1.27-1.67c.44-.53.9-1.04,1.35-1.56,1.82-2.04,3.56-4.19,5.47-6.11,1.89-1.95,3.73-3.96,5.66-5.86l5.8-5.69c7.83-7.46,15.81-14.73,23.93-21.81,16.22-14.2,32.78-27.96,49.47-41.56,16.68-13.61,33.54-26.98,50.44-40.3,16.9-13.32,33.92-26.49,50.94-39.64-16.73,13.53-33.45,27.07-50.04,40.76-16.6,13.68-33.15,27.43-49.5,41.39-16.36,13.96-32.59,28.06-48.43,42.56-7.94,7.23-15.7,14.63-23.29,22.18l-5.6,5.74c-1.86,1.92-3.61,3.91-5.42,5.87-1.85,1.93-3.44,4.01-5.16,6.02-.42.51-.85,1.01-1.26,1.52l-1.14,1.57-2.27,3.13-4.77-3.19Z"/>
        <path class="cls-1" d="m.36,210.72c8.88-10.69,18.72-20.25,28.65-29.69,9.93-9.45,20.2-18.47,30.48-27.48,20.66-17.9,41.77-35.25,63.05-52.36C165.13,66.99,208.41,33.7,251.9.71c-42.91,33.75-85.6,67.79-127.55,102.7-20.96,17.46-41.73,35.16-62.02,53.36-10.09,9.16-20.17,18.33-29.85,27.87-9.68,9.52-19.28,19.21-27.67,29.68l-4.46-3.61Z"/>
        <path class="cls-1" d="m.29,254.11c11.03-12.68,23.02-24.31,35.14-35.76l9.18-8.49c3.07-2.82,6.21-5.55,9.3-8.34,6.18-5.58,12.5-11,18.8-16.44,25.25-21.69,51.08-42.65,77.14-63.32,26.06-20.65,52.38-40.98,78.81-61.14,26.46-20.13,53.06-40.07,79.73-59.92-26.38,20.23-52.69,40.55-78.85,61.05-26.14,20.53-52.15,41.23-77.89,62.24-25.73,21.02-51.24,42.33-76.11,64.33-6.2,5.51-12.42,11.01-18.5,16.65-3.05,2.81-6.14,5.58-9.14,8.43l-9,8.57c-11.87,11.54-23.61,23.26-34.23,35.83l-4.37-3.72Z"/>
        <path class="cls-1" d="m.42,297.34c26.52-29.4,56.04-55.51,85.93-81.05,29.96-25.47,60.64-50.04,91.6-74.23,30.98-24.17,62.26-47.94,93.72-71.46,31.48-23.49,63.13-46.76,94.88-69.89-31.46,23.51-62.82,47.16-94.01,71.03-31.17,23.9-62.15,48.04-92.81,72.57-30.65,24.54-60.99,49.47-90.58,75.24-29.49,25.82-58.63,52.26-84.41,81.56l-4.33-3.77Z"/>
        <path class="cls-1" d="m6.09,334.44l11.69-12.15,2.92-3.04,3.01-2.94,6.02-5.88,6.02-5.88c1.99-1.98,4.09-3.83,6.14-5.76l12.33-11.44c4.15-3.77,8.36-7.46,12.54-11.2,4.2-3.71,8.34-7.48,12.62-11.1,8.52-7.28,16.95-14.66,25.6-21.77,34.38-28.72,69.56-56.43,105.08-83.67,35.54-27.22,71.42-53.98,107.55-80.39,36.13-26.41,72.46-52.55,108.91-78.52-36.17,26.36-72.21,52.88-108.05,79.67-35.84,26.79-71.42,53.93-106.65,81.51-35.21,27.6-70.06,55.66-104.06,84.69-8.56,7.19-16.89,14.64-25.31,21.99-4.23,3.65-8.32,7.45-12.46,11.2-4.12,3.77-8.29,7.49-12.38,11.29l-12.15,11.52c-2.01,1.93-4.08,3.81-6.04,5.79l-5.92,5.91-5.92,5.91-2.96,2.95-2.86,3.04-11.45,12.16-4.23-3.88Z"/>
        <path class="cls-1" d="m.6,383.91l13.35-14.2,3.34-3.55,3.45-3.43,6.91-6.85,6.91-6.85,1.73-1.71,1.77-1.66,3.55-3.32,14.21-13.28c4.77-4.39,9.65-8.64,14.47-12.97,4.86-4.29,9.62-8.68,14.58-12.85l14.76-12.63c2.47-2.1,4.9-4.23,7.39-6.3l7.48-6.19c39.82-33.11,80.69-64.9,121.98-96.08,41.32-31.16,83.07-61.74,125.14-91.85,42.06-30.13,84.37-59.91,126.82-89.49-42.18,29.96-84.2,60.13-125.97,90.65-41.79,30.5-83.23,61.45-124.24,92.97-40.98,31.55-81.51,63.69-120.95,97.1l-7.41,6.25c-2.47,2.08-4.88,4.24-7.32,6.35l-14.6,12.74c-4.91,4.2-9.61,8.62-14.41,12.94-4.76,4.36-9.6,8.64-14.3,13.06l-14.02,13.35-3.5,3.34-1.75,1.67-1.7,1.72-6.81,6.87-6.81,6.87-3.4,3.44-3.27,3.55-13.1,14.19-4.28-3.82Z"/>
        <path class="cls-1" d="m.45,427.44c39.66-42.98,83.51-81.57,128.49-118.56,45.01-36.98,91.25-72.39,138-107.07,46.77-34.66,94.09-68.56,141.76-101.96,47.66-33.41,95.6-66.4,143.71-99.15-47.84,33.14-95.51,66.52-142.88,100.32-47.38,33.78-94.41,68.06-140.87,103.08-46.44,35.04-92.35,70.8-136.97,108.08-44.58,37.27-88,76.16-126.97,119.08l-4.27-3.83Z"/>
        <path class="cls-1" d="m.45,470.78c11.23-11.75,22.18-23.78,33.99-34.94l8.71-8.51,4.35-4.26c1.47-1.4,2.98-2.75,4.47-4.13l17.93-16.47c5.91-5.56,12.12-10.79,18.21-16.14l18.35-15.97,18.68-15.58,9.34-7.79c1.56-1.29,3.1-2.61,4.68-3.88l4.74-3.81c50.35-40.87,102.14-79.88,154.53-118.01,13.15-9.47,26.23-19.02,39.43-28.42l39.64-28.11,39.85-27.81c13.29-9.25,26.68-18.39,40.01-27.58,53.44-36.64,107.21-72.79,161.16-108.66-53.69,36.27-107.19,72.81-160.34,109.84-13.26,9.3-26.57,18.52-39.8,27.87l-39.64,28.1-39.42,28.39c-13.12,9.49-26.13,19.14-39.2,28.69-52.08,38.5-103.54,77.86-153.5,119.02l-4.7,3.84c-1.56,1.28-3.09,2.61-4.64,3.91l-9.26,7.84-18.52,15.68-18.18,16.06c-6.04,5.38-12.18,10.64-18.03,16.22l-17.74,16.53c-1.47,1.38-2.97,2.74-4.42,4.15l-4.3,4.27-8.6,8.53c-11.67,11.19-22.44,23.21-33.51,34.96l-4.26-3.84Z"/>
        <path class="cls-1" d="m.34,514.22c12.09-13.16,24.52-25.99,37.29-38.46,12.82-12.42,25.81-24.65,39.12-36.52,26.54-23.83,53.85-46.76,81.64-69.07,55.59-44.62,112.86-87.04,170.83-128.43,57.99-41.38,116.76-81.62,175.9-121.31,59.13-39.69,118.69-78.75,178.41-117.55-59.46,39.2-118.75,78.65-177.6,118.74-58.86,40.08-117.35,80.71-175.03,122.45-57.66,41.75-114.6,84.53-169.8,129.44-27.6,22.45-54.69,45.52-80.98,69.45-13.19,11.92-26.05,24.18-38.72,36.63-12.62,12.49-24.89,25.32-36.81,38.47l-4.26-3.85Z"/>
        <path class="cls-1" d="m.35,557.51c26.63-28.99,54.98-56.31,84.35-82.39,29.35-26.12,59.57-51.23,90.33-75.62,61.57-48.74,125.08-94.91,189.39-139.87,64.33-44.94,129.57-88.56,195.19-131.58,65.62-43.01,131.71-85.3,197.95-127.35-65.98,42.45-131.81,85.14-197.16,128.54-65.34,43.41-130.3,87.42-194.33,132.73-64,45.33-127.19,91.86-188.36,140.89-30.56,24.54-60.56,49.78-89.66,75.99-29.13,26.18-57.18,53.55-83.45,82.5l-4.26-3.85Z"/>
        <path class="cls-1" d="m.67,600.44c29.07-31.53,59.98-61.26,92.11-89.55,32.09-28.34,65.18-55.5,98.86-81.87,33.68-26.38,67.99-51.93,102.64-76.98,34.67-25.04,69.7-49.56,104.99-73.7,70.6-48.25,142.17-95.04,214.18-141.14C685.47,91.11,757.97,45.79,830.61.71c-72.38,45.49-144.63,91.21-216.37,137.69-71.74,46.49-143.03,93.68-213.33,142.3-35.14,24.32-70.01,49.02-104.51,74.24-34.49,25.22-68.61,50.94-102.09,77.46-33.48,26.52-66.35,53.81-98.18,82.24-31.88,28.38-62.5,58.16-91.2,89.65l-4.25-3.86Z"/>
        <path class="cls-1" d="m.46,643.94l11.92-12.72c2-2.11,3.96-4.26,5.98-6.34l6.11-6.21c4.08-4.13,8.13-8.3,12.24-12.4l12.49-12.15,6.26-6.06,6.36-5.94,12.73-11.89,12.94-11.66c4.32-3.88,8.6-7.79,13.01-11.57,34.91-30.6,70.96-59.86,107.67-88.23,73.47-56.69,149.51-109.9,226.55-161.51,77.08-51.58,155.24-101.49,233.86-150.65C747.22,97.47,826.35,49.14,905.59,1c-78.99,48.55-157.87,97.29-236.24,146.82-78.35,49.56-156.24,99.86-233.02,151.81-76.74,51.99-152.45,105.55-225.51,162.53-36.51,28.51-72.33,57.9-106.99,88.59-4.38,3.79-8.63,7.71-12.91,11.6l-12.83,11.68-12.62,11.91-6.31,5.95-6.2,6.07-12.37,12.16c-4.07,4.1-8.08,8.27-12.12,12.4l-6.05,6.21c-2,2.08-3.94,4.23-5.91,6.34l-11.79,12.71-4.25-3.86Z"/>
        <path class="cls-1" d="m.02,687.67l12.89-13.75,6.46-6.86,6.62-6.71,13.24-13.4,13.53-13.1,6.77-6.55,6.89-6.41,13.8-12.81c4.61-4.25,9.35-8.38,14.01-12.57l7.02-6.27c2.33-2.1,4.68-4.18,7.07-6.21,37.87-32.94,77.01-64.37,116.9-94.77,79.84-60.75,162.58-117.52,246.42-172.48,83.88-54.92,168.97-107.96,254.52-160.2C811.75,103.39,897.81,52,983.94.71c-85.88,51.7-171.7,103.5-257.02,156.11-85.29,52.65-170.11,106.08-253.69,161.38-83.54,55.34-165.95,112.46-245.38,173.5-39.69,30.54-78.6,62.09-116.21,95.12-2.37,2.04-4.7,4.13-7.02,6.23l-6.97,6.28c-4.63,4.2-9.33,8.34-13.91,12.6l-13.69,12.83-6.84,6.42-6.71,6.55-13.42,13.11-13.11,13.4-6.55,6.7-6.39,6.86-12.76,13.73-4.25-3.86Z"/>
        <path class="cls-1" d="m.46,730.43c36.65-39.72,75.91-76.89,116.7-112.21,40.87-35.24,83.15-68.78,126.28-101.15,43.14-32.37,87.12-63.57,131.64-93.97,44.52-30.4,89.57-60.01,134.96-89.08,90.79-58.12,182.89-114.15,275.45-169.36C878.07,109.48,971.14,55.13,1064.17.71c-92.79,54.83-185.61,109.6-277.95,165.18-92.31,55.61-184.14,112.04-274.64,170.54-45.24,29.26-90.13,59.05-134.48,89.63-44.34,30.58-88.15,61.94-131.07,94.45-42.92,32.52-84.98,66.17-125.58,101.5-40.52,35.4-79.47,72.62-115.75,112.28l-4.24-3.87Z"/>
        <path class="cls-1" d="m1.17,772.88c39.28-42.51,81.49-82.17,125.3-119.85,43.92-37.58,89.46-73.19,135.9-107.53,46.46-34.32,93.86-67.34,141.84-99.46,47.99-32.12,96.56-63.35,145.49-93.98,97.89-61.25,197.18-120.19,296.93-178.3,99.76-58.1,199.98-115.42,300.01-173.04-99.79,58.04-199.77,115.77-299.28,174.28-99.5,58.53-198.53,117.87-296.13,179.5-48.79,30.82-97.2,62.24-145.02,94.53-47.81,32.3-95.03,65.48-141.28,99.94-46.24,34.48-91.54,70.22-135.19,107.88-43.54,37.76-85.43,77.46-124.34,119.91l-4.24-3.87Z"/>
        <path class="cls-1" d="m.46,816.88c41.89-45.4,87-87.67,133.91-127.73,2.89-2.55,5.89-4.98,8.84-7.45l8.89-7.39c5.94-4.92,11.83-9.89,17.81-14.76l18.06-14.45c6.03-4.8,12-9.69,18.13-14.35,24.34-18.93,48.93-37.54,73.88-55.64,49.84-36.3,100.72-71.12,152.24-104.95,51.53-33.82,103.69-66.65,156.25-98.82,105.14-64.31,211.79-126.09,318.85-187.1,107.06-61.01,214.54-121.28,321.63-182.23-106.86,61.36-214.1,122.06-320.92,183.48-106.82,61.42-213.21,123.6-318.06,188.3-52.41,32.36-104.42,65.37-155.78,99.37-51.35,34-102.05,68.99-151.68,105.43-24.84,18.18-49.32,36.85-73.54,55.84-6.11,4.68-12.04,9.58-18.04,14.39l-17.96,14.49c-5.95,4.88-11.81,9.86-17.71,14.79l-8.84,7.41c-2.94,2.48-5.92,4.91-8.79,7.47-46.63,40.13-91.42,82.44-132.93,127.78l-4.24-3.87Z"/>
        <path class="cls-1" d="m0,860.59c44.69-48.48,92.94-93.52,143.18-136.07l4.69-4.02c1.57-1.33,3.17-2.62,4.76-3.93l9.54-7.84,19.08-15.67,19.37-15.31,9.69-7.65c3.24-2.54,6.44-5.13,9.73-7.59l19.65-14.94c6.56-4.97,13.06-10.01,19.73-14.84l19.89-14.62,9.95-7.31,10.05-7.16c53.49-38.35,108.14-75.04,163.48-110.63,55.35-35.58,111.39-70.05,167.86-103.8,112.94-67.49,227.52-132.16,342.39-196.25,114.88-64.09,230.09-127.57,344.64-192.24-114.31,65.09-229.29,128.99-343.93,193.49-114.63,64.5-228.96,129.58-341.62,197.46-56.32,33.94-112.21,68.6-167.39,104.35-55.17,35.76-109.63,72.62-162.91,111.11l-10.01,7.19-9.9,7.33-19.81,14.67c-6.64,4.84-13.11,9.9-19.64,14.88l-19.56,14.99c-3.28,2.47-6.47,5.07-9.69,7.61l-9.64,7.67-19.27,15.35-18.98,15.71-9.49,7.85c-1.58,1.32-3.18,2.6-4.73,3.94l-4.66,4.03c-49.96,42.63-97.88,87.7-142.19,136.11L0,860.59Z"/>
        <path class="cls-1" d="m.47,903.29c47.47-51.43,98.82-99.12,152.35-144.05,3.35-2.81,6.63-5.69,10.03-8.44l10.18-8.25,20.36-16.51c3.37-2.78,6.84-5.44,10.28-8.12l10.35-8.04,20.69-16.09,20.98-15.7,10.49-7.85c3.5-2.61,6.97-5.26,10.53-7.79l21.25-15.33c7.1-5.09,14.12-10.29,21.32-15.24,57.1-40.28,115.46-78.71,174.56-115.92,59.12-37.21,118.99-73.18,179.3-108.39,120.63-70.41,243-137.74,365.51-204.76,122.52-67.01,245.26-133.62,366.97-202.09-121.47,68.89-243.99,135.92-366.28,203.34-122.27,67.44-244.4,135.18-364.75,205.98-60.17,35.4-119.89,71.57-178.83,108.95-58.94,37.39-117.11,75.99-173.99,116.4-7.17,4.96-14.16,10.19-21.23,15.29l-21.16,15.38c-3.55,2.54-7,5.2-10.49,7.81l-10.45,7.87-20.89,15.74-20.6,16.13-10.3,8.06c-3.43,2.69-6.88,5.36-10.23,8.14l-20.26,16.54-10.13,8.27c-3.38,2.75-6.65,5.64-9.98,8.45-53.25,45.01-104.26,92.72-151.35,144.08l-4.24-3.87Z"/>
        <path class="cls-1" d="m.47,946.48c50.27-54.47,104.77-104.85,161.66-152.21l10.63-8.92,10.82-8.69,21.67-17.35c7.17-5.85,14.59-11.38,21.91-17.03l22.03-16.88c3.65-2.85,7.41-5.53,11.13-8.29l11.18-8.22,22.35-16.45c15.1-10.68,30.16-21.44,45.31-32.05,60.79-42.2,122.96-82.35,185.93-121.16,62.98-38.8,126.77-76.25,191.02-112.88,128.52-73.24,258.84-143.2,389.12-213.2C1235.52,143.17,1365.88,73.31,1494.73.71c-128.61,73.02-258.75,143.31-388.82,213.7-130.05,70.42-260.14,140.79-388.37,214.43-64.11,36.83-127.75,74.47-190.56,113.44-62.8,38.98-124.78,79.3-185.35,121.64-15.1,10.65-30.09,21.44-45.14,32.15l-22.26,16.49-11.13,8.25c-3.7,2.76-7.45,5.46-11.08,8.31l-21.93,16.92c-7.29,5.66-14.68,11.21-21.82,17.07l-21.57,17.38-10.77,8.7-10.58,8.94c-56.6,47.42-110.76,97.83-160.64,152.22l-4.24-3.87Z"/>
        <path class="cls-1" d="m.47,989.67c53.09-57.52,110.76-110.62,171.05-160.38,60.32-49.76,123.29-96.19,187.78-140.33,64.51-44.12,130.56-85.91,197.45-126.26,66.91-40.34,134.67-79.21,202.92-117.19,136.53-75.94,274.86-148.5,412.95-221.47C1310.72,151.06,1448.69,77.81,1584.53.71c-135.61,77.51-273.36,151.2-411.24,224.59-137.87,73.4-275.98,146.38-412.23,222.71-68.11,38.18-135.73,77.24-202.47,117.76-66.72,40.53-132.59,82.48-196.87,126.74-64.26,44.27-126.99,90.83-187.01,140.65-59.99,49.82-117.32,102.94-170.01,160.38l-4.24-3.87Z"/>
        <path class="cls-1" d="m.47,1032.85c27.91-30.33,57.08-59.46,87.22-87.53,30.15-28.07,61.25-55.09,93.16-81.12,63.79-52.1,130.44-100.57,198.71-146.53,68.29-45.95,138.24-89.38,209.1-131.2,70.87-41.81,142.67-82.01,214.94-121.31,144.57-78.57,290.99-153.61,436.9-229.59C1386.4,159.57,1531.92,82.75,1674.53.71c-142.37,82.45-287.68,159.71-433.36,236.12-145.69,76.41-291.89,151.87-436.19,230.84-72.14,39.5-143.79,79.89-214.49,121.88-70.69,42-140.44,85.6-208.51,131.68-68.05,46.1-134.45,94.69-197.94,146.85-31.75,26.06-62.7,53.1-92.67,81.17-29.97,28.07-58.95,57.19-86.66,87.47l-4.23-3.87Z"/>
        <path class="cls-1" d="m0,1076.54c58.63-63.74,122.6-122.37,189.75-176.9,67.22-54.48,137.55-105.01,209.63-152.76,72.1-47.75,145.98-92.74,220.83-135.98,74.86-43.23,150.71-84.72,227.03-125.28,152.67-81.09,307.21-158.52,460.89-237.6C1461.79,168.94,1614.76,88.33,1763.88.91c-148.88,87.84-301.64,168.88-455.09,248.39-153.47,79.51-307.8,157.36-460.2,238.86-76.19,40.76-151.89,82.44-226.58,125.85-74.68,43.42-148.37,88.57-220.25,136.46-71.86,47.89-141.92,98.53-208.84,153.07-66.85,54.59-130.47,113.22-188.69,176.88l-4.24-3.87Z"/>
        <path class="cls-1" d="m.47,1119.19c61.44-66.75,128.62-128,199.18-184.86,70.63-56.82,144.66-109.26,220.54-158.71,75.91-49.44,153.72-95.88,232.55-140.44,78.84-44.55,158.72-87.22,239.07-128.95,160.72-83.44,323.3-163.15,484.6-245.38C1537.68,178.62,1697.89,94.02,1853.09.71c-154.95,93.72-314.96,178.76-476.02,261.43-161.1,82.66-323.48,162.8-483.93,246.65-80.22,41.93-159.95,84.8-238.63,129.53-78.66,44.74-156.29,91.34-231.97,140.92-75.65,49.59-149.42,102.14-219.74,159.02-70.25,56.91-137.07,118.16-198.1,184.82l-4.23-3.88Z"/>
        <path class="cls-1" d="m.47,1162.36c64.14-69.69,134.39-133.53,208.27-192.61,36.94-29.55,74.83-57.91,113.44-85.24,38.6-27.34,77.88-53.69,117.69-79.22,79.62-51.05,161.27-98.83,243.99-144.61,82.73-45.77,166.55-89.52,250.82-132.33,168.57-85.6,338.97-167.45,507.62-252.82,84.32-42.68,168.22-86.22,251.17-131.51,82.94-45.3,164.95-92.34,245.31-142.11-80.23,49.97-162.13,97.23-244.97,142.74-82.85,45.51-166.64,89.26-250.87,132.16-168.45,85.81-338.66,168.09-506.97,254.1-84.15,43.01-167.82,86.96-250.38,132.91-82.55,45.95-164.01,93.9-243.4,145.09-39.69,25.6-78.85,52-117.31,79.4-38.47,27.38-76.21,55.78-113,85.36-73.57,59.13-143.45,122.97-207.18,192.56l-4.23-3.88Z"/>
        <path class="cls-1" d="m.47,1205.52c66.93-72.73,140.36-139.24,217.71-200.59,38.68-30.68,78.36-60.1,118.78-88.42,40.44-28.3,81.63-55.52,123.36-81.85,83.48-52.66,169.13-101.78,255.89-148.75,86.77-46.97,174.67-91.79,263.01-135.69,176.7-87.76,355.18-171.84,531.31-260.67,88.07-44.41,175.56-89.98,261.84-137.76,86.28-47.78,171.36-97.78,254.36-151.08-82.87,53.5-167.84,103.71-254.01,151.71-86.18,48-173.58,93.79-261.54,138.41-175.94,89.27-354.23,173.78-530.68,261.96-88.21,44.1-175.98,89.12-262.58,136.27-86.59,47.16-172.05,96.44-255.3,149.24-41.62,26.4-82.68,53.68-122.98,82.03-40.29,28.38-79.81,57.83-118.33,88.54-77.03,61.4-150.09,127.91-216.6,200.54l-4.23-3.88Z"/>
        <path class="cls-1" d="m.47,1248.68c69.61-75.65,146.1-144.73,226.78-208.25,80.71-63.54,165.59-121.63,252.79-175.78,87.22-54.16,176.75-104.49,267.42-152.55,90.69-48.05,182.54-93.83,274.81-138.71,184.56-89.72,370.81-175.9,554.08-268.18,91.63-46.13,182.52-93.78,271.91-144.13,89.38-50.35,177.27-103.41,262.61-160.38-85.2,57.17-172.98,110.44-262.26,161-89.29,50.56-180.08,98.43-271.61,144.78-183.08,92.72-369.15,179.35-553.47,269.48-92.15,45.08-183.87,91.06-274.39,139.3-90.51,48.24-179.84,98.74-266.83,153.03-86.97,54.29-171.56,112.48-251.95,176.07-80.36,63.57-156.47,132.64-225.66,208.19l-4.23-3.88Z"/>
        <path class="cls-1" d="m.47,1291.83c72.24-78.52,151.74-150.12,235.71-215.76,84-65.67,172.44-125.46,263.32-181.07,90.9-55.62,184.27-107.06,278.81-156.13,94.56-49.06,190.32-95.71,286.47-141.5,192.3-91.57,386.19-179.79,576.38-275.65,95.08-47.92,189.23-97.74,281.56-150.8,92.31-53.06,182.81-109.37,270.22-170.21-87.28,61.03-177.65,117.56-269.86,170.83-92.22,53.28-186.28,103.32-281.27,151.46-190.01,96.31-383.73,184.98-575.79,276.96-96.03,46-191.66,92.86-286.05,142.1-94.38,49.25-187.55,100.86-278.21,156.61-90.64,55.74-178.8,115.63-262.47,181.35-83.64,65.69-162.76,137.27-234.58,215.69l-4.23-3.88Z"/>
        <path class="cls-1" d="m.47,1334.98c74.83-81.34,157.28-155.42,244.49-223.12,87.23-67.74,179.19-129.18,273.71-186.15,94.55-56.97,191.69-109.49,290.05-159.48,98.38-49.98,198-97.43,297.96-144.1,199.92-93.3,401.31-183.53,598.19-283.11,98.42-49.78,195.7-101.88,290.78-157.8,95.07-55.91,187.95-115.65,277.18-180.52-89.09,65.07-181.85,125.02-276.82,181.14-94.98,56.13-192.17,108.46-290.5,158.46-196.71,100.02-397.94,190.7-597.63,284.42-99.84,46.88-199.33,94.53-297.54,144.7-98.2,50.17-195.14,102.86-289.46,159.96-94.29,57.1-185.96,118.64-272.85,186.43-86.87,67.75-168.94,141.81-243.34,223.04l-4.23-3.88Z"/>
        <path class="cls-1" d="m.47,1378.13c77.36-84.1,162.71-160.61,253.11-230.33,90.42-69.75,185.84-132.8,283.97-191.04,98.16-58.25,199.03-111.75,301.16-162.59,102.14-50.84,205.56-99.02,309.27-146.51,207.41-94.93,416.17-187.13,619.51-290.57,101.64-51.71,201.91-106.21,299.58-165.11,97.65-58.89,192.71-122.22,283.52-191.26-90.67,69.23-185.6,132.77-283.14,191.88-97.56,59.12-197.74,113.85-299.3,165.78-203.17,103.89-411.77,196.54-618.96,291.9-103.6,47.69-206.89,96.09-308.87,147.11-101.96,51.03-202.65,104.7-300.56,163.08-97.88,58.38-193.01,121.52-283.09,191.32-90.06,69.75-175.02,146.24-251.95,230.23l-4.23-3.88Z"/>
        <path class="cls-1" d="m.47,1421.27c79.85-86.82,168.04-165.72,261.58-237.39,93.56-71.72,192.39-136.31,294.08-195.77,101.71-59.47,206.28-113.87,312.12-165.5,105.86-51.62,213.02-100.48,320.42-148.73,107.41-48.25,215.08-95.89,322.11-144.92,107.03-49.03,213.45-99.45,318.21-153.16,104.75-53.7,207.87-110.71,307.94-172.73,100.06-62,197.08-129.06,289.24-202.35-92.02,73.48-188.91,140.74-288.87,202.96-99.97,62.24-203,119.47-307.66,173.4-104.68,53.94-211.02,104.59-317.97,153.84-106.95,49.26-214.53,97.12-321.83,145.58-107.29,48.47-214.33,97.53-320.03,149.34-105.68,51.81-210.06,106.38-311.52,165.99-101.44,59.59-199.98,124.28-293.19,196.04-93.19,71.71-180.99,150.58-260.41,237.29l-4.23-3.88Z"/>
        <path class="cls-1" d="m.47,1464.41c82.29-89.49,173.28-170.74,269.91-244.33,96.65-73.64,198.86-139.72,304.05-200.33,105.22-60.63,213.44-115.86,322.95-168.21,109.53-52.34,220.38-101.8,331.42-150.78,111.04-48.98,222.29-97.46,332.75-147.7,110.46-50.22,220.15-102.19,327.91-157.98,107.75-55.78,213.57-115.4,315.89-180.66,102.31-65.22,201.09-136.12,294.41-213.72-93.17,77.79-191.82,148.89-294.02,214.33-102.21,65.47-207.95,125.32-315.61,181.32-107.68,56.02-217.3,108.22-327.68,158.67-110.38,50.46-221.55,99.17-332.48,148.36-110.93,49.2-221.66,98.87-331.03,151.39-109.35,52.53-217.37,107.94-322.35,168.7-104.95,60.75-206.86,126.92-303.16,200.59-96.28,73.62-186.87,154.84-268.73,244.22l-4.23-3.88Z"/>
        <path class="cls-1" d="m.47,1507.55c84.69-92.11,178.43-175.68,278.11-251.14,99.69-75.52,205.24-143.03,313.91-204.74,108.7-61.73,220.52-117.73,333.66-170.73,113.16-53,227.65-103.01,342.27-152.68,114.62-49.67,229.38-98.99,343.2-150.44,113.81-51.44,226.7-105,337.34-162.95,110.63-57.93,219.03-120.28,323.43-188.86,104.39-68.55,204.75-143.38,299.06-225.31-94.16,82.11-194.38,157.15-298.67,225.91-104.29,68.8-212.6,131.38-323.15,189.54-110.57,58.18-223.39,111.97-337.12,163.64-113.74,51.67-228.43,101.22-342.94,151.11-114.51,49.89-228.89,100.11-341.88,153.3-112.98,53.19-224.6,109.36-333.05,171.22-108.42,61.84-213.66,129.45-313,205-99.33,75.49-192.66,159.02-276.92,251.02l-4.23-3.88Z"/>
        <path class="cls-1" d="m.43,1560.48c42.4-48.17,87.28-94.14,134.24-137.85,46.96-43.72,95.99-85.18,146.67-124.49,101.37-78.66,209.23-148.64,320.51-212.28,111.32-63.67,226.06-121.08,342.21-175.25,116.18-54.16,233.8-105.09,351.52-155.69,117.73-50.59,235.6-100.86,352.42-153.51,116.8-52.64,232.58-107.67,345.83-167.59,113.24-59.9,223.96-124.73,330.14-196.46,106.18-71.68,207.76-150.32,302.49-236.65-94.57,86.5-196.02,165.34-302.09,237.24-106.07,71.94-216.71,137-329.87,197.14-113.18,60.15-228.89,115.42-345.62,168.29-116.74,52.88-234.54,103.37-352.17,154.18-117.63,50.82-235.13,101.96-351.14,156.31-115.99,54.35-230.53,111.94-341.59,175.73-111.02,63.77-218.56,133.83-319.57,212.51-50.49,39.32-99.33,80.77-146.08,124.46-46.75,43.68-91.41,89.61-133.6,137.7l-4.31-3.79Z"/>
        <path class="cls-1" d="m.39,1614.83c42.3-50.36,87.31-98.44,134.63-144.1,47.31-45.67,96.92-88.94,148.34-129.89,102.87-81.94,212.93-154.49,326.74-220.13,113.86-65.67,231.48-124.52,350.61-179.84,119.16-55.32,239.89-107.13,360.7-158.61,120.82-51.48,241.79-102.63,361.58-156.45,119.78-53.8,238.41-110.28,354.23-172.18,115.8-61.88,228.78-129.24,336.62-204.2,107.83-74.91,210.46-157.49,305.33-248.33-94.71,91.02-197.2,173.8-304.92,248.92-107.73,75.18-220.63,142.77-336.35,204.88-115.74,62.13-234.32,118.84-354.03,172.88-119.72,54.04-240.61,105.43-361.33,157.12-120.72,51.7-241.32,103.72-360.32,159.23-118.97,55.51-236.38,114.53-349.97,180.32-113.55,65.76-223.28,138.39-325.76,220.33-51.24,40.95-100.64,84.2-147.74,129.83-47.1,45.63-91.89,93.64-133.97,143.92l-4.4-3.69Z"/>
      </g>
      <g>
        <path class="cls-1" d="m31.33,1637.46c42.58-50.83,87.95-99.3,135.7-145.31,47.75-46.01,97.86-89.55,149.84-130.72,103.98-82.38,215.33-155.13,330.48-220.87,115.19-65.77,234.19-124.63,354.68-180.01,120.51-55.38,242.56-107.29,364.63-159.07,122.07-51.77,244.21-103.41,365.01-158.02,120.78-54.61,240.27-112.22,356.61-175.72,116.31-63.47,229.47-132.91,336.91-210.44,107.44-77.47,209.06-163.11,302.19-257.3l4.08,4.04c-93.54,94.26-195.55,179.92-303.33,257.34-107.78,77.48-221.24,146.81-337.79,210.14-116.58,63.36-236.25,120.8-357.19,175.21-120.95,54.42-243.2,105.85-365.37,157.4-122.16,51.56-244.28,103.24-364.85,158.39-120.55,55.14-239.6,113.77-354.86,179.3-115.22,65.5-226.65,138.02-330.74,220.18-52.04,41.06-102.21,84.5-150.03,130.42-47.82,45.91-93.28,94.3-135.95,145.05Z"/>
        <path class="cls-1" d="m77.8,1637.46c42.82-49.52,88.35-96.69,136.16-141.42,47.8-44.74,97.87-87.04,149.72-127.02,103.71-80,214.43-150.6,328.72-214.47,114.33-63.89,232.24-121.15,351.52-175.13,119.31-53.98,240.05-104.7,360.75-155.41,120.7-50.71,241.42-101.41,360.76-155.18,119.33-53.76,237.33-110.61,352.14-173.42,114.78-62.78,226.38-131.58,332.17-208.53,105.79-76.89,205.68-162.01,296.96-255.66l4.11,4.01c-91.69,93.74-191.98,178.87-298.12,255.71-106.14,76.91-218.03,145.61-333.06,208.25-115.05,62.67-233.25,119.34-352.73,172.91-119.5,53.58-240.33,104.07-361.13,154.56-120.79,50.5-241.6,100.99-360.97,154.73-119.35,53.75-237.31,110.76-351.71,174.42-114.36,63.63-225.15,134-328.98,213.78-51.9,39.87-102.04,82.07-149.91,126.71-47.88,44.63-93.49,91.72-136.4,141.16Z"/>
        <path class="cls-1" d="m124.86,1637.46c42.67-47.76,87.91-93.22,135.29-136.32,47.38-43.1,96.89-83.85,148.06-122.37,102.37-77.07,211.29-145.14,323.55-206.81,112.3-61.69,227.95-117.07,344.88-169.35,116.96-52.27,235.25-101.46,353.51-150.67,118.25-49.2,236.51-98.41,353.46-150.59,116.93-52.17,232.59-107.32,345.18-168.25,112.57-60.9,222.08-127.65,325.99-202.36,103.91-74.64,202.12-157.33,291.92-248.45l4.09,4.03c-90.22,91.2-188.83,173.91-293.08,248.5-104.26,74.66-214.06,141.3-326.87,202.06-112.84,60.79-228.69,115.77-345.77,167.74-117.1,51.98-235.47,100.98-353.82,149.96-118.34,48.98-236.71,97.94-353.73,149.98-117,52.04-232.7,107.19-345.07,168.64-112.33,61.43-221.33,129.27-323.81,206.12-51.23,38.41-100.8,79.05-148.25,122.06-47.45,43-92.77,88.37-135.53,136.05Z"/>
        <path class="cls-1" d="m172.57,1637.45c42.49-45.99,87.4-89.72,134.32-131.18,46.92-41.46,95.84-80.65,146.31-117.7,100.96-74.14,208.04-139.67,318.23-199.14,110.22-59.49,223.57-112.99,338.12-163.55,114.57-50.56,230.39-98.21,346.16-145.89,115.77-47.68,231.54-95.38,346.06-145.95,114.5-50.56,227.78-104.01,338.14-163.04,110.33-59.01,217.73-123.68,319.73-196.11,102-72.37,198.51-152.6,286.82-241.15l4.06,4.06c-88.73,88.63-185.64,168.87-287.98,241.19-102.35,72.38-210.04,136.94-320.61,195.81-110.59,58.89-224.07,112.16-338.72,162.53-114.67,50.37-230.55,97.87-346.42,145.32-115.86,47.46-231.75,94.88-346.39,145.21-114.61,50.33-228.02,103.6-338.31,162.85-110.25,59.23-217.41,124.53-318.48,198.45-50.53,36.95-99.51,76.03-146.49,117.39-46.99,41.36-91.98,85.01-134.56,130.91Z"/>
        <path class="cls-1" d="m220.96,1637.45c42.33-44.26,86.95-86.32,133.45-126.19,46.5-39.87,94.87-77.54,144.69-113.17,99.66-71.29,205.02-134.35,313.26-191.66,108.28-57.33,219.47-108.99,331.77-157.89,112.33-48.9,225.81-95.04,339.24-141.26,113.43-46.21,226.84-92.48,339.04-141.54,112.19-49.06,223.2-100.91,331.39-158.21,108.16-57.28,213.5-120.06,313.62-190.45,100.1-70.33,194.89-148.36,281.64-234.61l4.04,4.07c-87.17,86.33-182.35,164.37-282.8,234.65-100.45,70.34-206.09,133.01-314.49,190.14-108.43,57.16-219.63,108.83-331.96,157.7-112.35,48.86-225.88,94.92-339.39,140.91-113.52,45.99-227.07,91.91-339.46,140.57-112.37,48.66-223.61,100.09-331.96,157.18-108.31,57.08-213.75,119.91-313.52,190.98-49.87,35.52-98.31,73.09-144.87,112.86-46.57,39.76-91.27,81.74-133.68,125.91Z"/>
        <path class="cls-1" d="m270.11,1637.46c84.09-84.88,176.75-161.05,274.77-229.3,98.04-68.31,201.35-128.81,307.34-183.89,106.02-55.1,214.74-104.84,324.49-151.99,109.77-47.15,220.62-91.7,331.41-136.33,110.79-44.63,221.56-89.32,331.19-136.69,109.61-47.36,218.11-97.4,323.94-152.67,105.8-55.25,208.92-115.8,307.05-183.72,98.12-67.87,191.16-143.21,276.43-226.64l4.01,4.11c-85.69,83.51-179.13,158.85-277.59,226.66-98.47,67.87-201.89,128.3-307.92,183.4-106.06,55.13-214.75,104.99-324.51,152.15-109.78,47.17-220.66,91.65-331.54,136.06-110.88,44.41-221.8,88.73-331.64,135.65-109.82,46.92-218.59,96.43-324.68,151.29-106.06,54.85-209.45,115.12-307.59,183.21-98.13,68.03-190.92,144-275.18,228.71Z"/>
        <path class="cls-1" d="m320.81,1636.74c83.56-81.2,175.09-153.98,271.55-219.26,96.48-65.33,197.82-123.27,301.62-176.12,103.83-52.86,210.15-100.7,317.42-146.1,107.29-45.4,215.57-88.38,323.79-131.46,108.22-43.07,216.41-86.24,323.5-131.97,107.08-45.74,213.11-94.05,316.58-147.41,103.45-53.35,204.35-111.8,300.46-177.42,96.1-65.58,187.33-138.41,271.01-219.21l3.98,4.13c-84.11,80.88-175.73,153.71-272.17,219.23-96.45,65.57-197.64,123.9-301.32,177.1-103.71,53.21-209.91,101.35-317.14,146.89-107.24,45.54-215.54,88.49-323.85,131.34-108.31,42.85-216.66,85.6-324.01,130.77-107.33,45.17-213.71,92.77-317.6,145.4-103.87,52.62-205.29,110.32-301.87,175.44-96.56,65.06-188.23,137.64-271.95,218.67Z"/>
        <path class="cls-1" d="m370.93,1637.46c83.02-77.74,173.47-147.36,268.45-209.86,95.01-62.54,194.5-118.07,296.27-168.81,101.79-50.75,205.87-96.77,310.84-140.51,104.98-43.74,210.88-85.21,316.7-126.81,105.82-41.6,211.61-83.31,316.34-127.52,104.72-44.21,208.42-90.93,309.68-142.54,101.23-51.6,200.03-108.13,294.21-171.67,94.17-63.49,183.62-134.1,265.72-212.54l3.96,4.15c-82.53,78.52-172.38,149.13-266.88,212.56-94.52,63.48-193.6,119.9-295.06,171.34-101.49,51.46-205.38,98-310.24,142.01-104.88,44.01-210.78,85.51-316.69,126.88-105.91,41.37-211.88,82.62-316.92,126.12-105.03,43.51-209.17,89.29-311.03,139.81-101.83,50.51-201.4,105.8-296.51,168.13-95.09,62.28-185.67,131.69-268.85,209.26Z"/>
        <path class="cls-1" d="m422.74,1637.47c82.21-74.01,171.27-140.24,264.45-199.79,93.21-59.58,190.52-112.57,289.91-161.08,99.41-48.52,200.93-92.62,303.25-134.6,102.34-41.98,205.52-81.83,308.62-121.83,103.11-39.99,206.16-80.12,308.24-122.62,102.06-42.51,203.16-87.4,301.95-136.97,98.77-49.56,195.25-103.85,287.35-164.89,92.08-61,179.73-128.84,260.26-204.41l3.92,4.19c-80.96,75.64-169,143.47-261.42,204.41-92.43,60.98-189.2,115.14-288.19,164.55-99.03,49.42-200.31,94.13-302.51,136.44-102.22,42.31-205.38,82.22-308.58,121.99-103.19,39.77-206.44,79.4-308.84,121.14-102.39,41.74-203.96,85.6-303.44,133.89-99.45,48.28-196.84,101.04-290.15,160.4-93.29,59.33-182.47,125.35-264.84,199.18Z"/>
        <path class="cls-1" d="m473.96,1638.91c81.4-70.51,169.11-133.58,260.59-190.35,91.51-56.81,186.77-107.4,283.93-153.81,97.19-46.42,196.3-88.68,296.15-128.98,99.87-40.29,200.51-78.6,301.07-117.07,100.56-38.47,201.07-77.08,300.65-117.98,99.56-40.9,198.22-84.09,294.69-131.78,96.45-47.68,190.73-99.89,280.83-158.66,90.08-58.73,175.93-124.09,254.92-197.03l3.89,4.22c-79.41,73.01-165.66,138.37-256.07,197.02-90.43,58.7-184.99,110.79-281.66,158.31-96.7,47.53-195.53,90.53-295.24,131.23-99.72,40.7-200.34,79.1-300.99,117.34-100.65,38.24-201.36,76.32-301.29,116.38-99.92,40.06-199.09,82.09-296.34,128.28-97.23,46.18-192.56,96.54-284.17,153.12-91.58,56.55-179.41,119.41-260.97,189.74Z"/>
        <path class="cls-1" d="m529.72,1637.46c80.52-66.67,166.75-126.28,256.38-180.04,89.65-53.78,182.68-101.78,277.43-145.92,94.77-44.14,191.27-84.45,288.45-122.94,97.19-38.49,195.07-75.17,292.87-112.04,97.79-36.87,195.53-73.9,292.38-113.13,96.84-39.23,192.82-80.65,286.73-126.38,93.89-45.72,185.74-95.79,273.63-152.17,87.86-56.34,171.72-119.09,248.99-189.24l3.85,4.25c-77.7,70.21-161.94,132.94-250.13,189.21-88.21,56.31-180.34,106.25-274.45,151.81-94.14,45.57-190.3,86.81-287.27,125.84-96.99,39.03-194.83,75.85-292.71,112.49-97.88,36.64-195.83,73.1-293.09,111.35-97.24,38.25-193.8,78.33-288.64,122.24-94.81,43.9-187.92,91.67-277.66,145.23-89.73,53.54-176.08,112.94-256.75,179.42Z"/>
        <path class="cls-1" d="m580.58,1641.03c79.52-63.4,164.28-120.07,252.14-171.25,87.88-51.2,178.85-96.96,271.39-139.12,92.56-42.15,186.71-80.71,281.48-117.58,94.77-36.87,190.18-72.06,285.51-107.44,95.32-35.38,190.58-70.93,285.01-108.58,94.41-37.65,188.02-77.4,279.68-121.28,91.64-43.88,181.35-91.92,267.28-146.08,85.91-54.13,168.01-114.45,243.76-182.05l3.82,4.29c-76.18,67.66-158.67,127.96-244.91,182.02-86.26,54.08-176.24,102-268.1,145.71-91.88,43.72-185.66,83.28-280.22,120.73-94.57,37.44-189.93,72.78-285.34,107.93-95.41,35.15-190.89,70.11-285.73,106.75-94.83,36.64-189.04,74.97-281.66,116.88-92.6,41.92-183.64,87.45-271.62,138.43-87.95,50.96-172.83,107.42-252.51,170.63Z"/>
        <path class="cls-1" d="m641.9,1637.46c78.42-59.3,161.48-112.34,247.27-160.34,85.81-48.02,174.34-91.05,264.25-130.81,89.93-39.76,181.26-76.26,273.13-111.26,91.88-35,184.31-68.49,276.65-102.2,92.34-33.71,184.6-67.64,276.08-103.57,91.46-35.94,182.16-73.88,271.04-115.76,88.85-41.88,175.89-87.73,259.37-139.44,83.46-51.68,163.34-109.3,237.17-173.97l3.78,4.32c-74.26,64.73-154.52,122.32-238.3,173.92-83.81,51.63-171.12,97.35-260.18,139.06-89.09,41.72-179.96,79.47-271.56,115.21-91.61,35.73-183.98,69.44-276.4,102.93-92.43,33.49-184.93,66.75-276.87,101.51-91.93,34.77-183.32,71.03-273.32,110.56-89.98,39.53-178.58,82.33-264.48,130.12-85.88,47.78-169.05,100.6-247.62,159.71Z"/>
        <path class="cls-1" d="m700.33,1637.46c77.19-55.6,158.5-105.35,242.23-150.48,83.75-45.14,169.9-85.7,257.29-123.27,87.4-37.57,176.05-72.17,265.18-105.4,89.13-33.24,178.76-65.11,268.28-97.23,89.52-32.12,178.96-64.47,267.66-98.74,88.69-34.27,176.66-70.46,262.92-110.4,86.24-39.94,170.78-83.66,251.97-133.01,81.17-49.32,158.97-104.33,231-166.2l3.74,4.36c-72.46,61.92-150.65,116.9-232.14,166.14-81.52,49.26-166.32,92.84-252.77,132.62-86.47,39.78-174.61,75.77-263.44,109.84-88.84,34.06-178.38,66.2-267.99,98.09-89.61,31.89-179.3,63.54-268.5,96.54-89.19,33.01-177.89,67.37-265.36,104.71-87.45,37.34-173.68,77.67-257.52,122.58-83.82,44.9-165.24,94.44-242.57,149.85Z"/>
        <path class="cls-1" d="m760.58,1637.46c75.82-51.9,155.27-98.38,236.83-140.64,81.58-42.27,165.28-80.36,250.07-115.75,169.64-70.76,343.46-130.74,516.72-191.76,86.64-30.51,173.2-61.28,259.06-93.87,85.85-32.6,171.03-67.02,254.61-105.01,83.56-37.99,165.54-79.58,244.37-126.54,78.81-46.94,154.46-99.32,224.65-158.36l3.69,4.4c-70.61,59.08-146.64,111.43-225.77,158.28-79.15,46.87-161.39,88.31-245.16,126.14-83.79,37.82-169.14,72.05-255.12,104.45-86,32.39-172.65,62.93-259.38,93.22-173.43,60.57-347.36,120.08-517.12,190.38-84.85,35.15-168.62,73.01-250.29,115.06-81.65,42.04-161.21,88.3-237.16,140Z"/>
        <path class="cls-1" d="m822.88,1637.46c74.3-48.19,151.75-91.41,231.05-130.82,79.31-39.41,160.46-75.04,242.56-108.23,164.25-66.38,332.16-123.06,499.53-180.84,83.69-28.9,167.29-58.06,250.24-88.97,82.94-30.91,165.25-63.56,246.08-99.59,80.8-36.03,160.14-75.47,236.53-120.03,76.37-44.54,149.8-94.28,218.06-150.43l3.64,4.44c-68.69,56.2-142.49,105.89-219.18,150.34-76.71,44.47-156.3,83.76-237.31,119.62-81.03,35.86-163.5,68.32-246.57,99.02-83.08,30.7-166.78,59.65-250.56,88.32-167.53,57.33-335.55,113.53-499.92,179.45-82.16,32.96-163.38,68.35-242.77,107.54-79.38,39.18-156.94,82.18-231.37,130.18Z"/>
        <path class="cls-1" d="m887.53,1637.46c72.61-44.5,147.93-84.47,224.83-121.03,76.91-36.57,155.41-69.73,234.72-100.73,158.66-62,320.5-115.34,481.8-169.86,80.66-27.27,161.21-54.83,241.17-84.04,79.94-29.22,159.3-60.08,237.28-94.15,77.96-34.06,154.56-71.34,228.43-113.48,73.84-42.13,144.95-89.18,211.21-142.41l3.59,4.48c-66.68,53.27-138.16,100.27-212.32,142.3-74.18,42.04-151.03,79.17-229.19,113.07-78.18,33.89-157.7,64.56-237.77,93.57-80.08,29-160.74,56.34-241.48,83.39-161.47,54.07-323.4,106.94-482.19,168.48-79.37,30.77-157.93,63.7-234.93,100.04-76.98,36.33-152.4,76.09-225.13,120.38Z"/>
        <path class="cls-1" d="m954.88,1637.46c70.7-40.79,143.69-77.53,218.01-111.24,74.34-33.71,150.01-64.42,226.38-93.21,152.77-57.6,308.25-107.56,463.21-158.76,77.48-25.61,154.86-51.54,231.68-79.02,76.81-27.5,153.08-56.54,228.08-88.57,74.98-32.05,148.71-67.11,219.93-106.76,71.19-39.64,139.87-83.92,204.03-134.11l3.53,4.52c-64.58,50.21-133.63,94.44-205.13,133.98-71.52,39.55-145.5,74.46-220.68,106.33-75.2,31.86-151.63,60.7-228.56,87.99-76.94,27.28-154.42,52.99-231.98,78.37-155.12,50.75-310.7,100.24-463.6,157.38-76.43,28.56-152.17,59.04-226.59,92.52-74.41,33.48-147.49,70-218.31,110.58Z"/>
        <path class="cls-1" d="m1025.36,1637.46c68.65-37.14,139.21-70.69,210.88-101.6,71.68-30.9,144.48-59.17,217.86-85.78,146.78-53.24,295.83-99.82,444.37-147.74,74.27-23.97,148.42-48.29,222.06-74.08,73.63-25.8,146.75-53.07,218.72-83.14,71.95-30.06,142.75-62.98,211.23-100.22,68.45-37.23,134.59-78.84,196.53-126.07l3.48,4.57c-62.36,47.25-128.87,88.79-197.62,125.92-68.78,37.13-139.81,69.9-211.96,99.78-72.16,29.89-145.44,56.96-219.19,82.55-73.76,25.58-148.02,49.68-222.37,73.43-148.7,47.47-297.86,93.59-444.76,146.36-73.44,26.38-146.3,54.41-218.06,85.09-71.75,30.68-142.4,64-211.16,100.94Z"/>
        <path class="cls-1" d="m1099.51,1637.46c66.34-33.5,134.23-63.87,203.02-91.97,68.8-28.1,138.52-53.92,208.71-78.34,140.4-48.85,282.67-92.01,424.43-136.6,70.88-22.31,141.64-44.98,211.92-69.04,70.27-24.07,140.08-49.53,208.84-77.59,68.74-28.07,136.45-58.73,202.02-93.5,65.55-34.74,129-73.57,188.59-117.71l3.41,4.61c-60.01,44.15-123.81,82.9-189.66,117.53-65.86,34.65-133.81,65.16-202.74,93.04-68.94,27.88-138.9,53.14-209.3,77-70.4,23.85-141.26,46.3-212.22,68.39-141.92,44.14-284.29,86.83-424.81,135.21-70.25,24.19-140.03,49.78-208.91,77.65-68.87,27.87-136.85,58.02-203.29,91.31Z"/>
        <path class="cls-1" d="m1178.04,1637.46c127.66-59.84,260.05-108.99,393.76-153.46,133.76-44.49,269.03-84.21,403.78-125.48,67.37-20.64,134.62-41.68,201.43-64.02,66.8-22.35,133.17-46.02,198.59-72.1,65.39-26.11,129.87-54.56,192.39-86.87,62.5-32.29,123.1-68.38,180.18-109.45l3.35,4.66c-57.49,41.08-118.44,77.08-181.23,109.26-62.81,32.2-127.53,60.48-193.1,86.41-65.6,25.9-132.12,49.36-199.04,71.5-66.93,22.13-134.28,42.95-201.73,63.37-134.91,40.82-270.28,80.08-404.16,124.1-133.83,44.01-266.35,92.69-394.21,152.09Z"/>
        <path class="cls-1" d="m1259.6,1638.43c121.93-52.83,247.51-96.75,374.13-136.91,126.65-40.17,254.46-76.5,381.77-114.39,63.65-18.95,127.19-38.31,190.32-58.89,63.12-20.59,125.85-42.39,187.72-66.43,61.85-24.04,122.86-50.31,182.18-79.99,59.29-29.68,116.91-62.81,171.39-100.54l3.27,4.72c-54.89,37.72-112.85,70.76-172.42,100.31-59.6,29.56-120.83,55.66-182.87,79.51-62.05,23.85-124.93,45.45-188.17,65.82-63.25,20.37-126.87,39.5-190.61,58.23-127.47,37.43-255.39,73.3-382.15,113-126.73,39.69-252.44,83.15-374.56,135.54Z"/>
        <path class="cls-1" d="m1352.14,1637.46c115.29-45.64,233.25-84.19,351.96-119.87,118.73-35.7,238.31-68.46,357.4-102.86,59.54-17.21,118.95-34.85,178-53.62,59.04-18.78,117.73-38.7,175.65-60.63,57.91-21.94,115.07-45.91,170.74-72.96,55.65-27.05,109.83-57.2,161.26-91.53l3.19,4.77c-51.83,34.3-106.34,64.36-162.26,91.27-55.94,26.91-113.32,50.71-171.41,72.46-58.1,21.75-116.93,41.46-176.08,60.03-59.16,18.56-118.67,35.97-178.29,52.96-119.24,33.95-238.93,66.25-357.78,101.48-118.83,35.22-236.91,73.3-352.37,118.49Z"/>
        <path class="cls-1" d="m1450.54,1637.46c107.93-38.81,217.73-72.18,328.04-103.5,110.32-31.34,221.22-60.57,331.63-91.5,55.2-15.48,110.28-31.39,165.02-48.36,54.74-16.97,109.16-34.99,162.91-54.82,53.74-19.84,106.82-41.49,158.62-65.87,51.78-24.39,102.29-51.54,150.43-82.41l3.1,4.83c-48.53,30.83-99.36,57.88-151.4,82.13-52.06,24.25-105.35,45.72-159.27,65.37-53.92,19.64-108.48,37.45-163.34,54.21-54.86,16.75-110.03,32.44-165.31,47.69-110.57,30.47-221.58,59.24-332.01,90.12-110.42,30.86-220.34,63.76-328.43,102.12Z"/>
        <path class="cls-1" d="m1559.28,1637.46c99.59-32.22,200.4-60.52,301.51-87.54,101.12-27.04,202.58-52.73,303.57-80.18,50.49-13.73,100.85-27.93,150.92-43.07,50.07-15.14,99.84-31.26,149.04-48.96,49.19-17.71,97.8-37.03,145.33-58.73,47.51-21.7,93.95-45.8,138.41-73.14l3.01,4.89c-44.83,27.29-91.57,51.27-139.34,72.83-47.78,21.55-96.6,40.69-145.96,58.21-49.36,17.52-99.27,33.42-149.45,48.35-50.18,14.93-100.63,28.9-151.2,42.41-101.14,26.99-202.72,52.22-303.95,78.79-101.22,26.55-202.14,54.39-301.88,86.16Z"/>
        <path class="cls-1" d="m1681.55,1637.46c89.85-25.9,180.42-49.26,271.11-72.02,90.69-22.78,181.55-44.9,271.93-68.81,45.19-11.96,90.25-24.38,135.06-37.65,44.8-13.28,89.37-27.37,133.43-42.87,44.06-15.5,87.64-32.37,130.33-51.24,42.68-18.87,84.48-39.75,124.71-63.33l2.9,4.95c-40.58,23.51-82.67,44.26-125.59,62.97-42.93,18.71-86.71,35.4-130.93,50.7-44.23,15.31-88.92,29.19-133.83,42.25-44.92,13.05-90.08,25.25-135.34,36.98-90.54,23.46-181.51,45.11-272.31,67.43-90.8,22.3-181.47,45.19-271.46,70.63Z"/>
        <path class="cls-1" d="m1834.68,1634.2c77.38-19.58,155.07-37.91,232.75-56.28,77.67-18.39,155.34-36.77,232.56-56.9,77.19-20.17,154-41.99,229.35-68.08,37.66-13.08,74.93-27.25,111.54-42.98,36.59-15.73,72.52-33.01,107.3-52.35l2.79,5.02c-35.1,19.25-71.3,36.39-108.12,51.96-36.83,15.56-74.29,29.55-112.11,42.43-75.67,25.7-152.68,47.07-230.04,66.79-77.38,19.68-155.17,37.6-232.95,55.52-77.78,17.9-155.58,35.76-233.07,54.88Z"/>
        <path class="cls-1" d="m2000.2,1634.17c63.53-14.34,127.14-28.33,190.65-42.75,63.51-14.43,126.92-29.28,189.92-45.7,62.99-16.44,125.61-34.36,187.14-55.5,61.48-21.19,121.94-45.61,179.5-75.72l2.65,5.09c-58.13,29.86-118.98,53.91-180.76,74.7-61.83,20.74-124.66,38.22-187.82,54.21-63.17,15.96-126.71,30.35-190.32,44.32-63.62,13.95-127.33,27.47-190.97,41.35Z"/>
        <path class="cls-1" d="m2196.68,1633.45c47.04-9.95,94.04-20.09,140.9-30.84,46.85-10.76,93.57-22.12,139.96-34.67,46.38-12.57,92.44-26.33,137.78-42.14,45.32-15.82,89.94-33.7,132.99-54.81l2.51,5.16c-43.52,20.81-88.5,38.31-134.1,53.72-45.62,15.4-91.89,28.72-138.44,40.84-46.56,12.11-93.41,23.01-140.38,33.3-46.97,10.29-94.08,19.96-141.21,29.44Z"/>
        <path class="cls-1" d="m2406.7,1634.23c58.32-13.14,116.4-27.45,173.69-44.42,28.64-8.49,57.07-17.67,85.14-27.81,28.07-10.14,55.78-21.25,82.86-33.66l2.36,5.23c-27.46,12.06-55.47,22.77-83.79,32.49-28.32,9.72-56.96,18.46-85.77,26.5-57.64,16.07-115.96,29.45-174.48,41.66Z"/>
        <path class="cls-1" d="m2612.12,1634.76c46.33-13.75,92.13-29.4,136.35-48.56l2.18,5.31c-45.24,17.51-91.69,31.35-138.53,43.25Z"/>
      </g>
    </g>
  </g>
</svg>