<?xml version="1.0" encoding="UTF-8"?>
<svg id="Layer_2" data-name="Layer 2" xmlns="http://www.w3.org/2000/svg" xmlns:xlink="http://www.w3.org/1999/xlink" viewBox="0 0 1300 515">
  <defs>
    <style>
      .cls-1 {
        fill: url(#New_Pattern);
      }

      .cls-1, .cls-2, .cls-3 {
        stroke-width: 0px;
      }

      .cls-2 {
        fill: #999;
      }

      .cls-3 {
        fill: none;
      }
    </style>
    <pattern id="New_Pattern" data-name="New Pattern" x="0" y="0" width="5640.21" height="2820" patternTransform="translate(731.69 728.85) scale(.11)" patternUnits="userSpaceOnUse" viewBox="0 0 5640.21 2820">
      <g>
        <rect class="cls-3" y="0" width="5640.21" height="2820"/>
        <g>
          <g>
            <g>
              <polygon class="cls-2" points="1416.27 282.02 1456.31 241.98 1416.27 282.02 1416.27 282.02"/>
              <polygon class="cls-2" points="1410.05 275.79 1134.25 0 1134.25 0 1410.05 275.8 1410.05 275.79"/>
              <polygon class="cls-2" points="1544.83 423.03 1410.05 288.24 1410.05 288.24 1121.8 0 1121.8 0 1544.83 423.03 1544.83 423.03"/>
              <polygon class="cls-2" points="839.79 0 839.81 .01 839.82 0 839.79 0"/>
              <polygon class="cls-2" points="1410.05 288.24 1403.82 282.02 1406.94 278.91 1410.05 275.8 1134.25 0 1121.8 0 1410.05 288.24 1410.05 288.24"/>
              <polygon class="cls-2" points="1416.27 282.02 1416.27 282.02 1456.31 241.98 1557.28 141.01 1557.28 141.01 1551.05 147.24 1544.83 141.01 1410.05 275.79 1410.05 275.8 1416.27 282.02 1416.27 282.02"/>
              <polygon class="cls-2" points="1698.23 0 1685.78 0 1562.83 123 1551.05 134.79 1416.27 0 1416.28 0 1416.26 0 1403.81 0 1544.83 141.01 1410.05 275.79 1544.83 141.01 1551.05 134.79 1557.26 141 1456.31 241.98 1557.28 141.01 1557.28 141.01 1698.23 0"/>
              <polygon class="cls-2" points="1557.28 141.01 1551.05 134.79 1544.83 141.01 1551.05 147.24 1557.28 141.01"/>
              <polygon class="cls-2" points="1410.05 288.24 1544.83 423.03 1551.05 416.8 1416.27 282.02 1410.05 288.24"/>
              <polygon class="cls-2" points="1410.05 275.8 1406.94 278.91 1403.82 282.02 1410.05 288.24 1416.27 282.02 1410.05 275.8"/>
              <polygon class="cls-2" points="849.14 278.92 1410.05 839.82 1410.05 839.82 711.25 141.02 846.03 6.24 1544.83 705.04 1544.83 705.04 1410.05 570.26 1406.94 567.15 839.81 .01 698.8 141.02 839.81 282.03 846.03 275.8 849.14 278.92"/>
              <polygon class="cls-2" points="1410.05 557.81 1544.83 423.03 1544.83 423.03 1410.05 557.81 1410.05 557.81"/>
              <polygon class="cls-2" points="1557.28 423.03 1416.27 564.03 1980.31 0 1980.3 0 1557.28 423.03 1557.28 423.03"/>
              <polygon class="cls-2" points="1557.28 423.03 1551.05 429.25 1544.83 423.03 1544.83 423.03 1544.83 423.03 1410.05 557.81 1410.05 557.81 1410.05 557.81 1416.27 564.03 1416.27 564.03 1557.28 423.03 1557.28 423.03"/>
              <polygon class="cls-2" points="1967.86 0 1967.85 0 1967.8 0 1583.85 384 1551.05 416.8 1416.27 282.02 1416.27 282.02 1551.05 416.8 1557.28 423.03 1980.3 0 1967.86 0"/>
              <polygon class="cls-2" points="1551.05 429.25 1557.28 423.03 1551.05 416.8 1544.83 423.03 1551.05 429.25"/>
              <polygon class="cls-2" points="1544.83 705.04 1551.06 698.82 1416.27 564.03 1410.05 570.26 1544.83 705.04"/>
              <polygon class="cls-2" points="1406.94 560.92 1403.82 564.03 1410.05 570.26 1416.27 564.03 1410.05 557.81 1406.94 560.92"/>
              <polygon class="cls-2" points="1557.28 987.06 1557.28 987.06 1416.28 1128.06 1557.28 987.06"/>
              <polygon class="cls-2" points="849.15 560.93 1410.05 1121.84 1410.05 1121.83 711.25 423.03 846.03 288.25 1544.83 987.05 1544.83 987.05 1410.05 852.27 1406.94 849.16 839.81 282.03 698.8 423.03 839.81 564.04 846.03 557.82 849.15 560.93"/>
              <polygon class="cls-2" points="1410.05 852.27 1403.83 846.05 1406.94 842.93 1410.05 839.82 849.14 278.92 846.03 275.8 839.81 282.03 1406.94 849.16 1410.05 852.27"/>
              <polygon class="cls-2" points="1544.83 705.04 1544.83 705.04 1410.05 839.82 1410.05 839.82 1544.83 705.04"/>
              <polygon class="cls-2" points="1557.28 705.04 2115.08 147.25 2249.86 282.03 1551.06 980.83 1416.28 846.05 1416.27 846.05 1551.06 980.83 2115.08 416.81 2121.3 423.03 2259.19 285.14 2262.31 282.03 2121.3 141.02 1557.28 705.04 1557.28 705.04"/>
              <polygon class="cls-2" points="1551.05 711.26 1544.83 705.04 1544.83 705.04 1544.83 705.04 1410.05 839.82 1410.05 839.82 1410.05 839.82 1416.27 846.05 1416.28 846.05 1557.28 705.04 1557.28 705.04 1554.17 708.15 1551.05 711.26"/>
              <polygon class="cls-2" points="1551.06 698.82 1554.17 701.93 1557.28 705.04 2121.3 141.02 2115.08 134.8 1551.06 698.82"/>
              <polygon class="cls-2" points="1551.05 711.26 1554.17 708.15 1557.28 705.04 1554.17 701.93 1551.06 698.82 1544.83 705.04 1551.05 711.26"/>
              <polygon class="cls-2" points="1544.83 987.05 1551.06 980.83 1416.27 846.05 1410.05 852.27 1544.83 987.05"/>
              <polygon class="cls-2" points="1406.94 842.93 1403.83 846.05 1410.05 852.27 1416.27 846.05 1410.05 839.82 1406.94 842.93"/>
              <polygon class="cls-2" points="849.15 842.94 1410.05 1403.85 1410.05 1403.85 711.25 705.05 846.03 570.27 1544.83 1269.07 1544.83 1269.07 1410.05 1134.28 1406.94 1131.17 839.81 564.04 698.8 705.05 839.81 846.06 846.03 839.83 849.15 842.94"/>
              <polygon class="cls-2" points="1410.05 1134.28 1403.83 1128.06 1406.94 1124.95 1410.05 1121.84 849.15 560.93 846.03 557.82 839.81 564.04 1406.94 1131.17 1410.05 1134.28"/>
              <polygon class="cls-2" points="1557.28 987.06 2115.08 429.26 2249.86 564.04 1551.06 1262.84 1416.28 1128.06 1416.28 1128.06 1551.06 1262.84 2111.97 701.94 2115.08 698.82 2121.3 705.05 2259.2 567.15 2262.31 564.04 2121.3 423.03 1557.28 987.05 1557.28 987.06"/>
              <polygon class="cls-2" points="1544.83 987.06 1544.83 987.05 1410.05 1121.83 1410.05 1121.84 1544.83 987.06"/>
              <polygon class="cls-2" points="1551.06 993.28 1544.83 987.05 1544.83 987.05 1544.83 987.06 1410.05 1121.84 1410.05 1121.83 1410.05 1121.84 1416.28 1128.06 1416.28 1128.06 1557.28 987.06 1557.28 987.05 1554.17 990.16 1551.06 993.28"/>
              <polygon class="cls-2" points="1551.06 980.83 1554.17 983.94 1557.28 987.05 2121.3 423.03 2115.08 416.81 1551.06 980.83"/>
              <polygon class="cls-2" points="1551.06 993.28 1554.17 990.16 1557.28 987.05 1554.17 983.94 1551.06 980.83 1544.83 987.05 1551.06 993.28"/>
              <polygon class="cls-2" points="1544.83 1269.07 1551.06 1262.84 1416.28 1128.06 1410.05 1134.28 1544.83 1269.07"/>
              <polygon class="cls-2" points="1406.94 1124.95 1403.83 1128.06 1410.05 1134.28 1416.28 1128.06 1410.05 1121.84 1406.94 1124.95"/>
              <polygon class="cls-2" points="1410.05 1403.85 1544.83 1269.07 1544.83 1269.07 1410.05 1403.85 1410.05 1403.85"/>
              <polygon class="cls-2" points="2111.97 701.94 1551.06 1262.84 1554.17 1265.96 1557.28 1269.07 2121.3 705.05 2115.08 698.82 2111.97 701.94"/>
              <polygon class="cls-2" points="1551.06 1275.29 1554.17 1272.18 1557.28 1269.07 1554.17 1265.96 1551.06 1262.84 1544.83 1269.07 1551.06 1275.29"/>
            </g>
            <g>
              <path class="cls-2" d="m846.03,6.24l-134.78,134.78,141.01,141.01-3.11,3.11-137.89,137.89,141.01,141.01-3.11,3.11-137.89,137.89L147.24,1269.06h0S6.22,1410,6.22,1410H0s0-6.15,0-6.15H0v-.02h0s72.02-72.01,72.02-72.01l24.01-24.01,11.63-11.63,27.13-27.13L0,1134.28H0v-12.44H0s0,0,0,0l61.02-61.02,73.76-73.76L0,852.26H0v-12.44H0s0,0,0,0l134.78-134.78L0,570.25H0v-12.45H0s0,0,0,0l134.78-134.78L0,288.24H0v-12.45H0s0,0,0,0l134.78-134.78L0,6.23H0V0H0s0,0,0,0h6.23,0s134.78,134.78,134.78,134.78L275.79,0h12.45l-141.01,141.01h0S6.23,282.01,6.23,282.01l134.78,134.78L557.8,0h12.45L6.23,564.03l134.78,134.78L839.81,0h0s.02,0,.02,0h12.37l555.09,555.05,2.76,2.76h0s-.31-.31-.31-.31l.31.31-3.11,3.11-3.11,3.11,6.22,6.22-3.11-3.11L846.03,6.24ZM141.01,1275.28l-6.22-6.22,6.22,6.22h0ZM705.03,429.25L6.23,1128.06l134.78,134.78,698.8-698.8-134.78-134.78Zm0-282.01L147.23,705.04h0s-80.04,80.04-80.04,80.04l-60.97,60.97,134.78,134.78L839.81,282.02l-134.78-134.78Z"/>
              <path class="cls-2" d="m1557.28,1269.07h0s-141.01,140.93-141.01,140.93h-12.46l-275.25-275.19-282.87-282.18-134.43,134.43,141.01,141.01h0s282,281.94,282,281.94h-12.44s-270.79-270.72-270.79-270.72l-4.99-4.99-134.77,134.77,140.93,140.93h-12.4l-134.76-134.7-33.94,33.92-100.83,100.78h-12.46l138.5-138.42,143.52-143.52-.62-.62-.35.35-134.16-134.16-20.5,20.49-395.95,395.88h-12.45l401.44-401.36,21.23-21.23-.62-.62,141.01-141.01.62.62.35-.35-134.78-134.78L147.24,1269.06h0s564.02-564.02,564.02-564.02l141.01,141.01h0s557.8,557.8,557.8,557.8h0s0,0,0,0l134.78-134.78h0s0,0,0,0l6.22,6.22,3.11-3.11,3.11-3.11Zm-469.18-174.72l-242.07-242.07-.34.34,242.41,241.72Z"/>
              <polygon class="cls-2" points="2820.1 6.23 2820.1 0 2820.1 0 2820.1 0 2813.94 0 2813.94 0 2820.1 6.23 2820.1 6.23"/>
              <polygon class="cls-2" points="2820.1 288.16 2820.1 275.79 2820.09 275.78 2814.47 270.15 2544.38 0 2544.37 0 2531.93 0 2531.92 0 2820.1 288.24 2820.1 288.16"/>
              <path class="cls-2" d="m2256.36,852.5l1.66,1.66-1.66-1.66h0Z"/>
            </g>
            <path class="cls-2" d="m2820.1,1403.84v6.16h-6.17l-548.91-549.39-8.66-8.66-134.78,134.78,134.2,134.74.27-.27,3.11,3.11,285.21,285.69h-12.45s-275.56-276.04-275.56-276.04l-134.78,134.78,140.75,141.26h-12.6l-134.68-134.72-134.8,134.72h-12.45l281.72-282.27-134.47-134.47-365.86,365.8-50.95,50.94h-12.46l403.85-403.77,19.5-19.5-.31-.31,140.7-140.7-134.47-134.47-557.8,557.8h0s558.11-558.11,558.11-558.11l-3.4-3.4-3.11-3.11,141.01-141.01-141.01-141.01,140.73-140.73-140.69-140.69-557.83,557.83-134.78-134.78h0s134.78,134.78,134.78,134.78l557.83-557.83-.04-.04L2249.73,0h12.65s557.71,557.79,557.71,557.79v12.45S2306.18,56.28,2306.18,56.28l-50.07-50.07-134.78,134.78,134.74,134.74h0s564.03,564.09,564.03,564.09v12.45l-3.12-3.19-561.17-561.17-134.51,134.51,698.8,699.42v12.39l-564.02-564.58-134.78,134.78,698.8,699.42Zm-144.07-977.73l140.95,140.96v-.02s-140.95-140.93-140.95-140.93Z"/>
          </g>
          <g>
            <g>
              <polygon class="cls-2" points="4236.38 282.02 4276.42 241.98 4236.38 282.02 4236.38 282.02"/>
              <polygon class="cls-2" points="4230.15 275.79 3954.36 0 3954.36 0 4230.15 275.8 4230.15 275.79"/>
              <polygon class="cls-2" points="4364.93 423.03 4230.15 288.24 4230.15 288.24 3941.91 0 3941.91 0 4364.93 423.03 4364.93 423.03"/>
              <polygon class="cls-2" points="3659.9 0 3659.91 .01 3659.92 0 3659.9 0"/>
              <polygon class="cls-2" points="4230.15 288.24 4223.93 282.02 4227.04 278.91 4230.15 275.8 3954.36 0 3941.91 0 4230.15 288.24 4230.15 288.24"/>
              <polygon class="cls-2" points="4236.38 282.02 4236.38 282.02 4276.42 241.98 4377.38 141.01 4377.38 141.01 4371.15 147.24 4364.93 141.01 4230.15 275.79 4230.15 275.8 4236.38 282.02 4236.38 282.02"/>
              <polygon class="cls-2" points="4518.34 0 4505.88 0 4382.94 123 4371.15 134.79 4236.37 0 4236.38 0 4236.37 0 4223.92 0 4364.93 141.01 4230.15 275.79 4364.93 141.01 4371.16 134.79 4377.37 141 4276.42 241.98 4377.38 141.01 4377.38 141.01 4518.34 0"/>
              <polygon class="cls-2" points="4377.38 141.01 4371.16 134.79 4364.93 141.01 4371.15 147.24 4377.38 141.01"/>
              <polygon class="cls-2" points="4230.15 288.24 4364.93 423.03 4371.16 416.8 4236.38 282.02 4230.15 288.24"/>
              <polygon class="cls-2" points="4230.15 275.8 4227.04 278.91 4223.93 282.02 4230.15 288.24 4236.38 282.02 4230.15 275.8"/>
              <polygon class="cls-2" points="3669.25 278.92 4230.15 839.82 4230.15 839.82 3531.35 141.02 3666.13 6.24 4364.93 705.04 4364.93 705.04 4230.15 570.26 4227.04 567.15 3659.91 .01 3518.9 141.02 3659.91 282.03 3666.14 275.8 3669.25 278.92"/>
              <polygon class="cls-2" points="4230.15 557.81 4364.93 423.03 4364.93 423.03 4230.15 557.81 4230.15 557.81"/>
              <polygon class="cls-2" points="4377.38 423.03 4236.38 564.03 4800.41 0 4800.41 0 4377.38 423.03 4377.38 423.03"/>
              <polygon class="cls-2" points="4377.38 423.03 4371.16 429.25 4364.93 423.03 4364.93 423.03 4364.93 423.03 4230.15 557.81 4230.15 557.81 4230.15 557.81 4236.38 564.03 4236.38 564.03 4377.38 423.03 4377.38 423.03"/>
              <polygon class="cls-2" points="4787.96 0 4787.96 0 4787.9 0 4403.95 384 4371.16 416.8 4236.38 282.02 4236.38 282.02 4371.16 416.8 4377.38 423.03 4800.41 0 4787.96 0"/>
              <polygon class="cls-2" points="4371.16 429.25 4377.38 423.03 4371.16 416.8 4364.93 423.03 4371.16 429.25"/>
              <polygon class="cls-2" points="4364.93 705.04 4371.16 698.82 4236.38 564.03 4230.15 570.26 4364.93 705.04"/>
              <polygon class="cls-2" points="4227.04 560.92 4223.93 564.03 4230.15 570.26 4236.38 564.03 4230.15 557.81 4227.04 560.92"/>
              <polygon class="cls-2" points="4377.39 987.06 4377.39 987.06 4236.38 1128.06 4377.39 987.06"/>
              <polygon class="cls-2" points="3669.25 560.93 4230.15 1121.84 4230.16 1121.83 3531.35 423.03 3666.14 288.25 4364.94 987.05 4364.94 987.05 4230.15 852.27 4227.04 849.16 3659.91 282.03 3518.9 423.03 3659.91 564.04 3666.14 557.82 3669.25 560.93"/>
              <polygon class="cls-2" points="4230.15 852.27 4223.93 846.05 4227.04 842.93 4230.15 839.82 3669.25 278.92 3666.14 275.8 3659.91 282.03 4227.04 849.16 4230.15 852.27"/>
              <polygon class="cls-2" points="4364.93 705.04 4364.93 705.04 4230.15 839.82 4230.15 839.82 4364.93 705.04"/>
              <polygon class="cls-2" points="4377.38 705.04 4935.18 147.25 5069.96 282.03 4371.16 980.83 4236.38 846.05 4236.38 846.05 4371.16 980.83 4935.18 416.81 4941.4 423.03 5079.3 285.14 5082.41 282.03 4941.4 141.02 4377.38 705.04 4377.38 705.04"/>
              <polygon class="cls-2" points="4371.16 711.26 4364.93 705.04 4364.93 705.04 4364.93 705.04 4230.15 839.82 4230.15 839.82 4230.15 839.82 4236.38 846.05 4236.38 846.05 4377.38 705.04 4377.38 705.04 4374.27 708.15 4371.16 711.26"/>
              <polygon class="cls-2" points="4371.16 698.82 4374.27 701.93 4377.38 705.04 4941.4 141.02 4935.18 134.8 4371.16 698.82"/>
              <polygon class="cls-2" points="4371.16 711.26 4374.27 708.15 4377.38 705.04 4374.27 701.93 4371.16 698.82 4364.93 705.04 4371.16 711.26"/>
              <polygon class="cls-2" points="4364.94 987.05 4371.16 980.83 4236.38 846.05 4230.15 852.27 4364.94 987.05"/>
              <polygon class="cls-2" points="4227.04 842.93 4223.93 846.05 4230.15 852.27 4236.38 846.05 4230.15 839.82 4227.04 842.93"/>
              <polygon class="cls-2" points="3669.25 842.94 4230.16 1403.85 4230.16 1403.85 3531.36 705.05 3666.14 570.27 4364.94 1269.07 4364.94 1269.07 4230.16 1134.28 4227.04 1131.17 3659.91 564.04 3518.91 705.05 3659.91 846.06 3666.14 839.83 3669.25 842.94"/>
              <polygon class="cls-2" points="4230.16 1134.28 4223.93 1128.06 4227.04 1124.95 4230.15 1121.84 3669.25 560.93 3666.14 557.82 3659.91 564.04 4227.04 1131.17 4230.16 1134.28"/>
              <polygon class="cls-2" points="4377.39 987.06 4935.18 429.26 5069.96 564.04 4371.16 1262.84 4236.38 1128.06 4236.38 1128.06 4371.16 1262.84 4932.07 701.94 4935.18 698.82 4941.41 705.05 5079.3 567.15 5082.41 564.04 4941.4 423.03 4377.38 987.05 4377.39 987.06"/>
              <polygon class="cls-2" points="4364.94 987.06 4364.94 987.05 4230.16 1121.83 4230.16 1121.84 4364.94 987.06"/>
              <polygon class="cls-2" points="4371.16 993.28 4364.94 987.05 4364.94 987.05 4364.94 987.06 4230.16 1121.84 4230.16 1121.83 4230.15 1121.84 4236.38 1128.06 4236.38 1128.06 4377.39 987.06 4377.38 987.05 4374.27 990.16 4371.16 993.28"/>
              <polygon class="cls-2" points="4371.16 980.83 4374.27 983.94 4377.38 987.05 4941.4 423.03 4935.18 416.81 4371.16 980.83"/>
              <polygon class="cls-2" points="4371.16 993.28 4374.27 990.16 4377.38 987.05 4374.27 983.94 4371.16 980.83 4364.94 987.05 4371.16 993.28"/>
              <polygon class="cls-2" points="4364.94 1269.07 4371.16 1262.84 4236.38 1128.06 4230.16 1134.28 4364.94 1269.07"/>
              <polygon class="cls-2" points="4227.04 1124.95 4223.93 1128.06 4230.16 1134.28 4236.38 1128.06 4230.15 1121.84 4227.04 1124.95"/>
              <polygon class="cls-2" points="4230.16 1403.85 4364.94 1269.07 4364.94 1269.07 4230.16 1403.85 4230.16 1403.85"/>
              <polygon class="cls-2" points="4932.07 701.94 4371.16 1262.84 4374.28 1265.96 4377.39 1269.07 4941.41 705.05 4935.18 698.82 4932.07 701.94"/>
              <polygon class="cls-2" points="4371.16 1275.29 4374.27 1272.18 4377.39 1269.07 4374.28 1265.96 4371.16 1262.84 4364.94 1269.07 4371.16 1275.29"/>
            </g>
            <g>
              <path class="cls-2" d="m3666.13,6.24l-134.78,134.78,141.01,141.01-3.11,3.11-137.89,137.89,141.01,141.01-3.11,3.11-137.89,137.89-564.02,564.02h0s-141.01,140.94-141.01,140.94h-6.22s0-6.15,0-6.15h0v-.02h0s0,0,0,0h0l72.02-72.02,24.01-24.01,11.63-11.63,27.13-27.13-134.79-134.79h0v-12.44h0s0,0,0,0l61.02-61.02,73.76-73.76-134.79-134.79h0v-12.44h0s0,0,0,0l134.78-134.78-134.78-134.78h0v-12.45h0s0,0,0,0l134.78-134.78-134.78-134.78h0v-12.45h0s0,0,0,0l134.78-134.78L2820.1,6.23h0V0h0s0,0,0,0h6.23,0s134.78,134.78,134.78,134.78L3095.89,0h12.45l-141.01,141.01h0s-141.01,141.01-141.01,141.01l134.78,134.78L3377.9,0h12.45l-564.03,564.03,134.78,134.78L3659.91,0h0s.02,0,.02,0h12.37l555.09,555.05,2.76,2.76h0s-.31-.31-.31-.31l.31.31-3.11,3.11-3.11,3.11,6.22,6.22-3.11-3.11L3666.13,6.24Zm-705.02,1269.05l-6.22-6.22,6.22,6.22h0Zm564.02-846.03l-698.8,698.8,134.78,134.78,698.8-698.8-134.78-134.78Zm0-282.01l-557.8,557.8h0s-80.04,80.04-80.04,80.04l-60.97,60.97,134.78,134.78,698.8-698.8-134.78-134.78Z"/>
              <path class="cls-2" d="m4377.39,1269.07h0s-141.01,140.93-141.01,140.93h-12.46l-275.25-275.19-282.87-282.18-134.43,134.43,141.01,141.01h0s281.99,281.94,281.99,281.94h-12.44s-270.79-270.72-270.79-270.72l-4.99-4.99-134.77,134.77,140.93,140.93h-12.4l-134.76-134.7-33.94,33.92-100.83,100.78h-12.46l138.5-138.42,143.52-143.52-.62-.62-.35.35-134.16-134.16-20.5,20.49-395.95,395.88h-12.45l401.44-401.36,21.23-21.23-.62-.62,141.01-141.01.62.62.35-.35-134.78-134.78-557.8,557.8h0s564.02-564.02,564.02-564.02l141.01,141.01h0s557.8,557.8,557.8,557.8h0s0,0,0,0l134.78-134.78h0s0,0,0,0l6.22,6.22,3.11-3.11,3.11-3.11Zm-469.18-174.72l-242.07-242.07-.34.34,242.41,241.72Z"/>
              <polygon class="cls-2" points="5640.21 6.23 5640.21 0 5640.21 0 5640.21 0 5634.04 0 5634.04 0 5640.21 6.23 5640.21 6.23"/>
              <polygon class="cls-2" points="5640.21 288.16 5640.21 275.79 5640.2 275.78 5634.57 270.15 5364.48 0 5364.48 0 5352.03 0 5352.03 0 5640.21 288.24 5640.21 288.16"/>
              <path class="cls-2" d="m5076.47,852.5l1.66,1.66-1.66-1.66h0Z"/>
            </g>
            <path class="cls-2" d="m5640.21,1403.84v6.16h-6.17l-548.91-549.39-8.66-8.66-134.78,134.78,134.2,134.74.27-.27,3.11,3.11,285.21,285.69h-12.45s-275.56-276.04-275.56-276.04l-134.78,134.78,140.75,141.26h-12.6l-134.68-134.72-134.8,134.72h-12.45l281.72-282.27-134.47-134.47-365.86,365.8-50.95,50.94h-12.46l403.85-403.77,19.5-19.5-.31-.31,140.7-140.7-134.47-134.47-557.8,557.8h0s558.11-558.11,558.11-558.11l-3.4-3.4-3.11-3.11,141.01-141.01-141.01-141.01,140.73-140.73-140.69-140.69-557.83,557.83-134.78-134.78h0s134.78,134.78,134.78,134.78l557.83-557.83-.04-.04L5069.83,0h12.65s557.71,557.79,557.71,557.79v12.45S5126.29,56.28,5126.29,56.28l-50.07-50.07-134.78,134.78,134.74,134.74h0s564.03,564.09,564.03,564.09v12.45l-3.12-3.19-561.17-561.17-134.51,134.51,698.8,699.42v12.39l-564.02-564.58-134.78,134.78,698.8,699.42Zm-144.07-977.73l140.95,140.96v-.02s-140.95-140.93-140.95-140.93Z"/>
          </g>
        </g>
        <g>
          <g>
            <g>
              <polygon class="cls-2" points="1416.27 1692.02 1456.31 1651.98 1416.27 1692.02 1416.27 1692.02"/>
              <polygon class="cls-2" points="1410.05 1685.79 1134.25 1410 1134.25 1410 1410.05 1685.8 1410.05 1685.79"/>
              <polygon class="cls-2" points="1544.83 1833.03 1410.05 1698.24 1410.05 1698.24 1121.8 1410 1121.8 1410 1544.83 1833.03 1544.83 1833.03"/>
              <polygon class="cls-2" points="839.79 1410 839.81 1410.01 839.82 1410 839.79 1410"/>
              <polygon class="cls-2" points="1410.05 1698.24 1403.82 1692.02 1406.94 1688.91 1410.05 1685.8 1134.25 1410 1121.8 1410 1410.05 1698.24 1410.05 1698.24"/>
              <polygon class="cls-2" points="1416.27 1692.02 1416.27 1692.02 1456.31 1651.98 1557.28 1551.01 1557.28 1551.01 1551.05 1557.24 1544.83 1551.01 1410.05 1685.79 1410.05 1685.8 1416.27 1692.02 1416.27 1692.02"/>
              <polygon class="cls-2" points="1698.23 1410 1685.78 1410 1562.83 1533 1551.05 1544.79 1416.27 1410.01 1416.28 1410 1416.26 1410 1403.81 1410 1544.83 1551.01 1410.05 1685.79 1544.83 1551.01 1551.05 1544.79 1557.26 1551 1456.31 1651.98 1557.28 1551.01 1557.28 1551.01 1698.23 1410"/>
              <polygon class="cls-2" points="1557.28 1551.01 1551.05 1544.79 1544.83 1551.01 1551.05 1557.24 1557.28 1551.01"/>
              <polygon class="cls-2" points="1410.05 1698.24 1544.83 1833.03 1551.05 1826.8 1416.27 1692.02 1410.05 1698.24"/>
              <polygon class="cls-2" points="1410.05 1685.8 1406.94 1688.91 1403.82 1692.02 1410.05 1698.24 1416.27 1692.02 1410.05 1685.8"/>
              <polygon class="cls-2" points="849.14 1688.92 1410.05 2249.82 1410.05 2249.82 711.25 1551.02 846.03 1416.24 1544.83 2115.04 1544.83 2115.04 1410.05 1980.26 1406.94 1977.15 839.81 1410.01 698.8 1551.02 839.81 1692.03 846.03 1685.8 849.14 1688.92"/>
              <polygon class="cls-2" points="1410.05 1967.81 1544.83 1833.03 1544.83 1833.03 1410.05 1967.81 1410.05 1967.81"/>
              <polygon class="cls-2" points="1557.28 1833.03 1416.27 1974.03 1980.31 1410 1980.3 1410 1557.28 1833.03 1557.28 1833.03"/>
              <polygon class="cls-2" points="1557.28 1833.03 1551.05 1839.25 1544.83 1833.03 1544.83 1833.03 1544.83 1833.03 1410.05 1967.81 1410.05 1967.81 1410.05 1967.81 1416.27 1974.03 1416.27 1974.03 1557.28 1833.03 1557.28 1833.03"/>
              <polygon class="cls-2" points="1967.86 1410 1967.85 1410 1967.8 1410 1583.85 1794 1551.05 1826.8 1416.27 1692.02 1416.27 1692.02 1551.05 1826.8 1557.28 1833.03 1980.3 1410 1967.86 1410"/>
              <polygon class="cls-2" points="1551.05 1839.25 1557.28 1833.03 1551.05 1826.8 1544.83 1833.03 1551.05 1839.25"/>
              <polygon class="cls-2" points="1544.83 2115.04 1551.06 2108.82 1416.27 1974.03 1410.05 1980.26 1544.83 2115.04"/>
              <polygon class="cls-2" points="1406.94 1970.92 1403.82 1974.03 1410.05 1980.26 1416.27 1974.03 1410.05 1967.81 1406.94 1970.92"/>
              <polygon class="cls-2" points="1557.28 2397.06 1557.28 2397.06 1416.28 2538.06 1557.28 2397.06"/>
              <polygon class="cls-2" points="849.15 1970.93 1410.05 2531.84 1410.05 2531.83 711.25 1833.03 846.03 1698.25 1544.83 2397.05 1544.83 2397.05 1410.05 2262.27 1406.94 2259.16 839.81 1692.03 698.8 1833.03 839.81 1974.04 846.03 1967.82 849.15 1970.93"/>
              <polygon class="cls-2" points="1410.05 2262.27 1403.83 2256.05 1406.94 2252.93 1410.05 2249.82 849.14 1688.92 846.03 1685.8 839.81 1692.03 1406.94 2259.16 1410.05 2262.27"/>
              <polygon class="cls-2" points="1544.83 2115.04 1544.83 2115.04 1410.05 2249.82 1410.05 2249.82 1544.83 2115.04"/>
              <polygon class="cls-2" points="1557.28 2115.04 2115.08 1557.25 2249.86 1692.03 1551.06 2390.83 1416.28 2256.05 1416.27 2256.05 1551.06 2390.83 2115.08 1826.81 2121.3 1833.03 2259.19 1695.14 2262.31 1692.03 2121.3 1551.02 1557.28 2115.04 1557.28 2115.04"/>
              <polygon class="cls-2" points="1551.05 2121.26 1544.83 2115.04 1544.83 2115.04 1544.83 2115.04 1410.05 2249.82 1410.05 2249.82 1410.05 2249.82 1416.27 2256.05 1416.28 2256.05 1557.28 2115.04 1557.28 2115.04 1554.17 2118.15 1551.05 2121.26"/>
              <polygon class="cls-2" points="1551.06 2108.82 1554.17 2111.93 1557.28 2115.04 2121.3 1551.02 2115.08 1544.8 1551.06 2108.82"/>
              <polygon class="cls-2" points="1551.05 2121.26 1554.17 2118.15 1557.28 2115.04 1554.17 2111.93 1551.06 2108.82 1544.83 2115.04 1551.05 2121.26"/>
              <polygon class="cls-2" points="1544.83 2397.05 1551.06 2390.83 1416.27 2256.05 1410.05 2262.27 1544.83 2397.05"/>
              <polygon class="cls-2" points="1406.94 2252.93 1403.83 2256.05 1410.05 2262.27 1416.27 2256.05 1410.05 2249.82 1406.94 2252.93"/>
              <polygon class="cls-2" points="849.15 2252.94 1410.05 2813.85 1410.05 2813.85 711.25 2115.05 846.03 1980.27 1544.83 2679.07 1544.83 2679.07 1410.05 2544.28 1406.94 2541.17 839.81 1974.04 698.8 2115.05 839.81 2256.06 846.03 2249.83 849.15 2252.94"/>
              <polygon class="cls-2" points="1410.05 2544.28 1403.83 2538.06 1406.94 2534.95 1410.05 2531.84 849.15 1970.93 846.03 1967.82 839.81 1974.04 1406.94 2541.17 1410.05 2544.28"/>
              <polygon class="cls-2" points="1557.28 2397.06 2115.08 1839.26 2249.86 1974.04 1551.06 2672.84 1416.28 2538.06 1416.28 2538.06 1551.06 2672.84 2111.97 2111.94 2115.08 2108.82 2121.3 2115.05 2259.2 1977.15 2262.31 1974.04 2121.3 1833.03 1557.28 2397.05 1557.28 2397.06"/>
              <polygon class="cls-2" points="1544.83 2397.06 1544.83 2397.05 1410.05 2531.83 1410.05 2531.84 1544.83 2397.06"/>
              <polygon class="cls-2" points="1551.06 2403.28 1544.83 2397.05 1544.83 2397.05 1544.83 2397.06 1410.05 2531.84 1410.05 2531.83 1410.05 2531.84 1416.28 2538.06 1416.28 2538.06 1557.28 2397.06 1557.28 2397.05 1554.17 2400.16 1551.06 2403.28"/>
              <polygon class="cls-2" points="1551.06 2390.83 1554.17 2393.94 1557.28 2397.05 2121.3 1833.03 2115.08 1826.81 1551.06 2390.83"/>
              <polygon class="cls-2" points="1551.06 2403.28 1554.17 2400.16 1557.28 2397.05 1554.17 2393.94 1551.06 2390.83 1544.83 2397.05 1551.06 2403.28"/>
              <polygon class="cls-2" points="1544.83 2679.07 1551.06 2672.84 1416.28 2538.06 1410.05 2544.28 1544.83 2679.07"/>
              <polygon class="cls-2" points="1406.94 2534.95 1403.83 2538.06 1410.05 2544.28 1416.28 2538.06 1410.05 2531.84 1406.94 2534.95"/>
              <polygon class="cls-2" points="1410.05 2813.85 1544.83 2679.07 1544.83 2679.07 1410.05 2813.85 1410.05 2813.85"/>
              <polygon class="cls-2" points="2111.97 2111.94 1551.06 2672.84 1554.17 2675.96 1557.28 2679.07 2121.3 2115.05 2115.08 2108.82 2111.97 2111.94"/>
              <polygon class="cls-2" points="1551.06 2685.29 1554.17 2682.18 1557.28 2679.07 1554.17 2675.96 1551.06 2672.84 1544.83 2679.07 1551.06 2685.29"/>
            </g>
            <g>
              <path class="cls-2" d="m846.03,1416.24l-134.78,134.78,141.01,141.01-3.11,3.11-137.89,137.89,141.01,141.01-3.11,3.11-137.89,137.89-564.02,564.02h0S6.22,2820,6.22,2820H0s0-6.15,0-6.15H0v-.02h0s72.02-72.01,72.02-72.01l24.01-24.01,11.63-11.63,27.13-27.13L0,2544.28H0v-12.44H0s0,0,0,0l61.02-61.02,73.76-73.76L0,2262.26H0v-12.44H0s0,0,0,0l134.78-134.78L0,1980.25H0v-12.45H0s0,0,0,0l134.78-134.78L0,1698.24H0v-12.45H0s0,0,0,0l134.78-134.78L0,1416.23H0v-6.23H0s0,0,0,0h6.23,0s134.78,134.78,134.78,134.78l134.78-134.78h12.45l-141.01,141.01h0S6.23,1692.01,6.23,1692.01l134.78,134.78,416.79-416.79h12.45L6.23,1974.03l134.78,134.78,698.8-698.8h0s.02,0,.02,0h12.37l555.09,555.05,2.76,2.76h0s-.31-.31-.31-.31l.31.31-3.11,3.11-3.11,3.11,6.22,6.22-3.11-3.11-560.91-560.91ZM141.01,2685.28l-6.22-6.22,6.22,6.22h0Zm564.02-846.03L6.23,2538.06l134.78,134.78,698.8-698.8-134.78-134.78Zm0-282.01l-557.8,557.8h0s-80.04,80.04-80.04,80.04l-60.97,60.97,134.78,134.78,698.8-698.8-134.78-134.78Z"/>
              <path class="cls-2" d="m1557.28,2679.07h0s-141.01,140.93-141.01,140.93h-12.46l-275.25-275.19-282.87-282.18-134.43,134.43,141.01,141.01h0s282,281.94,282,281.94h-12.44s-270.79-270.72-270.79-270.72l-4.99-4.99-134.77,134.77,140.93,140.93h-12.4l-134.76-134.7-33.94,33.92-100.83,100.78h-12.46l138.5-138.42,143.52-143.52-.62-.62-.35.35-134.16-134.16-20.5,20.49-395.95,395.88h-12.45l401.44-401.36,21.23-21.23-.62-.62,141.01-141.01.62.62.35-.35-134.78-134.78-557.8,557.8h0s564.02-564.02,564.02-564.02l141.01,141.01h0s557.8,557.8,557.8,557.8h0s0,0,0,0l134.78-134.78h0s0,0,0,0l6.22,6.22,3.11-3.11,3.11-3.11Zm-469.18-174.72l-242.07-242.07-.34.34,242.41,241.72Z"/>
              <polygon class="cls-2" points="2820.1 1416.23 2820.1 1410 2820.1 1410 2820.1 1410 2813.94 1410 2813.94 1410 2820.1 1416.23 2820.1 1416.23"/>
              <polygon class="cls-2" points="2820.1 1698.16 2820.1 1685.79 2820.09 1685.78 2814.47 1680.15 2544.38 1410 2544.37 1410 2531.93 1410 2531.92 1410 2820.1 1698.24 2820.1 1698.16"/>
              <path class="cls-2" d="m2256.36,2262.5l1.66,1.66-1.66-1.66h0Z"/>
            </g>
            <path class="cls-2" d="m2820.1,2813.84v6.16h-6.17l-548.91-549.39-8.66-8.66-134.78,134.78,134.2,134.74.27-.27,3.11,3.11,285.21,285.69h-12.45s-275.56-276.04-275.56-276.04l-134.78,134.78,140.75,141.26h-12.6l-134.68-134.72-134.8,134.72h-12.45l281.72-282.27-134.47-134.47-365.86,365.8-50.95,50.94h-12.46l403.85-403.77,19.5-19.5-.31-.31,140.7-140.7-134.47-134.47-557.8,557.8h0s558.11-558.11,558.11-558.11l-3.4-3.4-3.11-3.11,141.01-141.01-141.01-141.01,140.73-140.73-140.69-140.69-557.83,557.83-134.78-134.78h0s134.78,134.78,134.78,134.78l557.83-557.83-.04-.04,140.89-140.94h12.65s557.71,557.79,557.71,557.79v12.45s-513.91-513.97-513.91-513.97l-50.07-50.07-134.78,134.78,134.74,134.74h0s564.03,564.09,564.03,564.09v12.45l-3.12-3.19-561.17-561.17-134.51,134.51,698.8,699.42v12.39l-564.02-564.58-134.78,134.78,698.8,699.42Zm-144.07-977.73l140.95,140.96v-.02s-140.95-140.93-140.95-140.93Z"/>
          </g>
          <g>
            <g>
              <polygon class="cls-2" points="4236.38 1692.02 4276.42 1651.98 4236.38 1692.02 4236.38 1692.02"/>
              <polygon class="cls-2" points="4230.15 1685.79 3954.36 1410 3954.36 1410 4230.15 1685.8 4230.15 1685.79"/>
              <polygon class="cls-2" points="4364.93 1833.03 4230.15 1698.24 4230.15 1698.24 3941.91 1410 3941.91 1410 4364.93 1833.03 4364.93 1833.03"/>
              <polygon class="cls-2" points="3659.9 1410 3659.91 1410.01 3659.92 1410 3659.9 1410"/>
              <polygon class="cls-2" points="4230.15 1698.24 4223.93 1692.02 4227.04 1688.91 4230.15 1685.8 3954.36 1410 3941.91 1410 4230.15 1698.24 4230.15 1698.24"/>
              <polygon class="cls-2" points="4236.38 1692.02 4236.38 1692.02 4276.42 1651.98 4377.38 1551.01 4377.38 1551.01 4371.15 1557.24 4364.93 1551.01 4230.15 1685.79 4230.15 1685.8 4236.38 1692.02 4236.38 1692.02"/>
              <polygon class="cls-2" points="4518.34 1410 4505.88 1410 4382.94 1533 4371.15 1544.79 4236.37 1410.01 4236.38 1410 4236.37 1410 4223.92 1410 4364.93 1551.01 4230.15 1685.79 4364.93 1551.01 4371.16 1544.79 4377.37 1551 4276.42 1651.98 4377.38 1551.01 4377.38 1551.01 4518.34 1410"/>
              <polygon class="cls-2" points="4377.38 1551.01 4371.16 1544.79 4364.93 1551.01 4371.15 1557.24 4377.38 1551.01"/>
              <polygon class="cls-2" points="4230.15 1698.24 4364.93 1833.03 4371.16 1826.8 4236.38 1692.02 4230.15 1698.24"/>
              <polygon class="cls-2" points="4230.15 1685.8 4227.04 1688.91 4223.93 1692.02 4230.15 1698.24 4236.38 1692.02 4230.15 1685.8"/>
              <polygon class="cls-2" points="3669.25 1688.92 4230.15 2249.82 4230.15 2249.82 3531.35 1551.02 3666.13 1416.24 4364.93 2115.04 4364.93 2115.04 4230.15 1980.26 4227.04 1977.15 3659.91 1410.01 3518.9 1551.02 3659.91 1692.03 3666.14 1685.8 3669.25 1688.92"/>
              <polygon class="cls-2" points="4230.15 1967.81 4364.93 1833.03 4364.93 1833.03 4230.15 1967.81 4230.15 1967.81"/>
              <polygon class="cls-2" points="4377.38 1833.03 4236.38 1974.03 4800.41 1410 4800.41 1410 4377.38 1833.03 4377.38 1833.03"/>
              <polygon class="cls-2" points="4377.38 1833.03 4371.16 1839.25 4364.93 1833.03 4364.93 1833.03 4364.93 1833.03 4230.15 1967.81 4230.15 1967.81 4230.15 1967.81 4236.38 1974.03 4236.38 1974.03 4377.38 1833.03 4377.38 1833.03"/>
              <polygon class="cls-2" points="4787.96 1410 4787.96 1410 4787.9 1410 4403.95 1794 4371.16 1826.8 4236.38 1692.02 4236.38 1692.02 4371.16 1826.8 4377.38 1833.03 4800.41 1410 4787.96 1410"/>
              <polygon class="cls-2" points="4371.16 1839.25 4377.38 1833.03 4371.16 1826.8 4364.93 1833.03 4371.16 1839.25"/>
              <polygon class="cls-2" points="4364.93 2115.04 4371.16 2108.82 4236.38 1974.03 4230.15 1980.26 4364.93 2115.04"/>
              <polygon class="cls-2" points="4227.04 1970.92 4223.93 1974.03 4230.15 1980.26 4236.38 1974.03 4230.15 1967.81 4227.04 1970.92"/>
              <polygon class="cls-2" points="4377.39 2397.06 4377.39 2397.06 4236.38 2538.06 4377.39 2397.06"/>
              <polygon class="cls-2" points="3669.25 1970.93 4230.15 2531.84 4230.16 2531.83 3531.35 1833.03 3666.14 1698.25 4364.94 2397.05 4364.94 2397.05 4230.15 2262.27 4227.04 2259.16 3659.91 1692.03 3518.9 1833.03 3659.91 1974.04 3666.14 1967.82 3669.25 1970.93"/>
              <polygon class="cls-2" points="4230.15 2262.27 4223.93 2256.05 4227.04 2252.93 4230.15 2249.82 3669.25 1688.92 3666.14 1685.8 3659.91 1692.03 4227.04 2259.16 4230.15 2262.27"/>
              <polygon class="cls-2" points="4364.93 2115.04 4364.93 2115.04 4230.15 2249.82 4230.15 2249.82 4364.93 2115.04"/>
              <polygon class="cls-2" points="4377.38 2115.04 4935.18 1557.25 5069.96 1692.03 4371.16 2390.83 4236.38 2256.05 4236.38 2256.05 4371.16 2390.83 4935.18 1826.81 4941.4 1833.03 5079.3 1695.14 5082.41 1692.03 4941.4 1551.02 4377.38 2115.04 4377.38 2115.04"/>
              <polygon class="cls-2" points="4371.16 2121.26 4364.93 2115.04 4364.93 2115.04 4364.93 2115.04 4230.15 2249.82 4230.15 2249.82 4230.15 2249.82 4236.38 2256.05 4236.38 2256.05 4377.38 2115.04 4377.38 2115.04 4374.27 2118.15 4371.16 2121.26"/>
              <polygon class="cls-2" points="4371.16 2108.82 4374.27 2111.93 4377.38 2115.04 4941.4 1551.02 4935.18 1544.8 4371.16 2108.82"/>
              <polygon class="cls-2" points="4371.16 2121.26 4374.27 2118.15 4377.38 2115.04 4374.27 2111.93 4371.16 2108.82 4364.93 2115.04 4371.16 2121.26"/>
              <polygon class="cls-2" points="4364.94 2397.05 4371.16 2390.83 4236.38 2256.05 4230.15 2262.27 4364.94 2397.05"/>
              <polygon class="cls-2" points="4227.04 2252.93 4223.93 2256.05 4230.15 2262.27 4236.38 2256.05 4230.15 2249.82 4227.04 2252.93"/>
              <polygon class="cls-2" points="3669.25 2252.94 4230.16 2813.85 4230.16 2813.85 3531.36 2115.05 3666.14 1980.27 4364.94 2679.07 4364.94 2679.07 4230.16 2544.28 4227.04 2541.17 3659.91 1974.04 3518.91 2115.05 3659.91 2256.06 3666.14 2249.83 3669.25 2252.94"/>
              <polygon class="cls-2" points="4230.16 2544.28 4223.93 2538.06 4227.04 2534.95 4230.15 2531.84 3669.25 1970.93 3666.14 1967.82 3659.91 1974.04 4227.04 2541.17 4230.16 2544.28"/>
              <polygon class="cls-2" points="4377.39 2397.06 4935.18 1839.26 5069.96 1974.04 4371.16 2672.84 4236.38 2538.06 4236.38 2538.06 4371.16 2672.84 4932.07 2111.94 4935.18 2108.82 4941.41 2115.05 5079.3 1977.15 5082.41 1974.04 4941.4 1833.03 4377.38 2397.05 4377.39 2397.06"/>
              <polygon class="cls-2" points="4364.94 2397.06 4364.94 2397.05 4230.16 2531.83 4230.16 2531.84 4364.94 2397.06"/>
              <polygon class="cls-2" points="4371.16 2403.28 4364.94 2397.05 4364.94 2397.05 4364.94 2397.06 4230.16 2531.84 4230.16 2531.83 4230.15 2531.84 4236.38 2538.06 4236.38 2538.06 4377.39 2397.06 4377.38 2397.05 4374.27 2400.16 4371.16 2403.28"/>
              <polygon class="cls-2" points="4371.16 2390.83 4374.27 2393.94 4377.38 2397.05 4941.4 1833.03 4935.18 1826.81 4371.16 2390.83"/>
              <polygon class="cls-2" points="4371.16 2403.28 4374.27 2400.16 4377.38 2397.05 4374.27 2393.94 4371.16 2390.83 4364.94 2397.05 4371.16 2403.28"/>
              <polygon class="cls-2" points="4364.94 2679.07 4371.16 2672.84 4236.38 2538.06 4230.16 2544.28 4364.94 2679.07"/>
              <polygon class="cls-2" points="4227.04 2534.95 4223.93 2538.06 4230.16 2544.28 4236.38 2538.06 4230.15 2531.84 4227.04 2534.95"/>
              <polygon class="cls-2" points="4230.16 2813.85 4364.94 2679.07 4364.94 2679.07 4230.16 2813.85 4230.16 2813.85"/>
              <polygon class="cls-2" points="4932.07 2111.94 4371.16 2672.84 4374.28 2675.96 4377.39 2679.07 4941.41 2115.05 4935.18 2108.82 4932.07 2111.94"/>
              <polygon class="cls-2" points="4371.16 2685.29 4374.27 2682.18 4377.39 2679.07 4374.28 2675.96 4371.16 2672.84 4364.94 2679.07 4371.16 2685.29"/>
            </g>
            <g>
              <path class="cls-2" d="m3666.13,1416.24l-134.78,134.78,141.01,141.01-3.11,3.11-137.89,137.89,141.01,141.01-3.11,3.11-137.89,137.89-564.02,564.02h0s-141.01,140.94-141.01,140.94h-6.22s0-6.15,0-6.15h0v-.02h0s0,0,0,0h0l72.02-72.02,24.01-24.01,11.63-11.63,27.13-27.13-134.79-134.79h0v-12.44h0s0,0,0,0l61.02-61.02,73.76-73.76-134.79-134.79h0v-12.44h0s0,0,0,0l134.78-134.78-134.78-134.78h0v-12.45h0s0,0,0,0l134.78-134.78-134.78-134.78h0v-12.45h0s0,0,0,0l134.78-134.78-134.78-134.78h0v-6.23h0s0,0,0,0h6.23,0s134.78,134.78,134.78,134.78l134.78-134.78h12.45l-141.01,141.01h0s-141.01,141.01-141.01,141.01l134.78,134.78,416.79-416.79h12.45l-564.03,564.03,134.78,134.78,698.8-698.8h0s.02,0,.02,0h12.37l555.09,555.05,2.76,2.76h0s-.31-.31-.31-.31l.31.31-3.11,3.11-3.11,3.11,6.22,6.22-3.11-3.11-560.91-560.91Zm-705.02,1269.05l-6.22-6.22,6.22,6.22h0Zm564.02-846.03l-698.8,698.8,134.78,134.78,698.8-698.8-134.78-134.78Zm0-282.01l-557.8,557.8h0s-80.04,80.04-80.04,80.04l-60.97,60.97,134.78,134.78,698.8-698.8-134.78-134.78Z"/>
              <path class="cls-2" d="m4377.39,2679.07h0s-141.01,140.93-141.01,140.93h-12.46l-275.25-275.19-282.87-282.18-134.43,134.43,141.01,141.01h0s281.99,281.94,281.99,281.94h-12.44s-270.79-270.72-270.79-270.72l-4.99-4.99-134.77,134.77,140.93,140.93h-12.4l-134.76-134.7-33.94,33.92-100.83,100.78h-12.46l138.5-138.42,143.52-143.52-.62-.62-.35.35-134.16-134.16-20.5,20.49-395.95,395.88h-12.45l401.44-401.36,21.23-21.23-.62-.62,141.01-141.01.62.62.35-.35-134.78-134.78-557.8,557.8h0s564.02-564.02,564.02-564.02l141.01,141.01h0s557.8,557.8,557.8,557.8h0s0,0,0,0l134.78-134.78h0s0,0,0,0l6.22,6.22,3.11-3.11,3.11-3.11Zm-469.18-174.72l-242.07-242.07-.34.34,242.41,241.72Z"/>
              <polygon class="cls-2" points="5640.21 1416.23 5640.21 1410 5640.21 1410 5640.21 1410 5634.04 1410 5634.04 1410 5640.21 1416.23 5640.21 1416.23"/>
              <polygon class="cls-2" points="5640.21 1698.16 5640.21 1685.79 5640.2 1685.78 5634.57 1680.15 5364.48 1410 5364.48 1410 5352.03 1410 5352.03 1410 5640.21 1698.24 5640.21 1698.16"/>
              <path class="cls-2" d="m5076.47,2262.5l1.66,1.66-1.66-1.66h0Z"/>
            </g>
            <path class="cls-2" d="m5640.21,2813.84v6.16h-6.17l-548.91-549.39-8.66-8.66-134.78,134.78,134.2,134.74.27-.27,3.11,3.11,285.21,285.69h-12.45s-275.56-276.04-275.56-276.04l-134.78,134.78,140.75,141.26h-12.6l-134.68-134.72-134.8,134.72h-12.45l281.72-282.27-134.47-134.47-365.86,365.8-50.95,50.94h-12.46l403.85-403.77,19.5-19.5-.31-.31,140.7-140.7-134.47-134.47-557.8,557.8h0s558.11-558.11,558.11-558.11l-3.4-3.4-3.11-3.11,141.01-141.01-141.01-141.01,140.73-140.73-140.69-140.69-557.83,557.83-134.78-134.78h0s134.78,134.78,134.78,134.78l557.83-557.83-.04-.04,140.89-140.94h12.65s557.71,557.79,557.71,557.79v12.45s-513.91-513.97-513.91-513.97l-50.07-50.07-134.78,134.78,134.74,134.74h0s564.03,564.09,564.03,564.09v12.45l-3.12-3.19-561.17-561.17-134.51,134.51,698.8,699.42v12.39l-564.02-564.58-134.78,134.78,698.8,699.42Zm-144.07-977.73l140.95,140.96v-.02s-140.95-140.93-140.95-140.93Z"/>
          </g>
        </g>
      </g>
    </pattern>
  </defs>
  <g id="Layer_1-2" data-name="Layer 1">
    <rect class="cls-1" y="0" width="1300" height="515"/>
  </g>
</svg>