<?xml version="1.0" encoding="UTF-8"?>
<svg id="Layer_2" data-name="Layer 2" xmlns="http://www.w3.org/2000/svg" xmlns:xlink="http://www.w3.org/1999/xlink" viewBox="0 0 9072.21 3469.55">
  <defs>
    <style>
      .cls-1 {
        fill: url(#New_Pattern);
      }

      .cls-1, .cls-2, .cls-3 {
        stroke-width: 0px;
      }

      .cls-2 {
        fill: none;
      }

      .cls-4 {
        clip-path: url(#clippath);
      }

      .cls-3 {
        fill: #999;
        fill-rule: evenodd;
      }
    </style>
    <clipPath id="clippath">
      <rect class="cls-2" x="0" y="0" width="1382.19" height="1382.19"/>
    </clipPath>
    <pattern id="New_Pattern" data-name="New Pattern" x="0" y="0" width="1382.19" height="1382.19" patternTransform="translate(-350.65 6024.73) scale(.8)" patternUnits="userSpaceOnUse" viewBox="0 0 1382.19 1382.19">
      <g>
        <rect class="cls-2" x="0" y="0" width="1382.19" height="1382.19"/>
        <g class="cls-4">
          <path class="cls-3" d="m-537.43,27.62c-42.38,46.72-53.15,110.21-31.29,176.98,18.07,55.19,67.46,96.56,123.82,113.56,56.75,17.12,120.05,9.47,164.92-31.55,22.99-21.02,46.45-59.32,52.87-89.84,16.16-76.82-19.64-177.47-108.77-188.45-30.95-3.81-123.19-12.48-160.45,86.82-25.84,68.87,12.52,133.74,78.05,150.86,47.24,12.34,98.04-23.77,112.01-67.47,8.32-26.02,5.43-59.26-17.74-78.73-31.84-26.75-70.85-19.49-90.96,2.88-6.88,7.65-12.14,20.76-12.16,33.95-.02,14.55,5.92,28.73,19.82,36.95,7.81,4.62,17.9,2.03,22.52-5.78,4.62-7.81,2.03-17.9-5.78-22.52-3.1-1.83-3.69-5.36-3.68-8.6,0-4.6,1.33-9.34,3.73-12.01,10.03-11.15,29.49-13.02,45.36.31,12.69,10.66,12.13,29.29,7.57,43.54-9.14,28.6-41.46,53.74-72.38,45.67-46.69-12.2-73.99-58.43-55.58-107.49,28.96-77.18,101.59-68.7,125.65-65.74,69.41,8.55,93.2,89.22,80.61,149.05-5.18,24.62-24.33,55.38-42.88,72.34-36.19,33.09-87.46,38.14-133.23,24.34-46.16-13.93-87.26-47.11-102.06-92.31-17.85-54.5-10.2-106.52,24.39-144.65,6.1-6.72,5.59-17.13-1.13-23.22-6.72-6.1-17.13-5.59-23.22,1.13Z"/>
          <path class="cls-3" d="m-70.68-373.83c-10.34-16.88-13.74-37.13-11.26-56.56,6.53-50.77,40.02-89.05,91.72-95.8,31.42-4.1,59.51,7.44,76.76,27.13,17.77,20.29,24.61,49.3,11.78,80.19-5.55,13.39-10.08,26.5-19.1,38.12-14.87,19.14-31.34,33.87-49.15,44.99,5.71,2.32,11.52,4.43,17.42,6.3,37.91,12.05,79.02,14.59,108.84,1.37,18.68-8.29,38.41-17.76,53.79-31.47,6.77-6.04,17.16-5.44,23.21,1.33,6.03,6.77,5.44,17.17-1.33,23.21-17.88,15.94-40.59,27.34-62.34,36.98-36.19,16.04-86.1,14.53-132.14-.09-15.96-5.08-31.42-11.72-45.66-19.64-37.8,12.76-79.94,14.02-124.56,9.67-16.85-1.64-35.34-5.73-53.69-7.52-15.4-1.5-30.73-1.51-44.45,4.81-33.23,15.31-49.24,46.82-66.7,77-21.09,36.45-43.75,71.37-87,86.84-17.65,6.31-36.18,6.2-54.79,3.81-15.75-2.03-31.55-5.72-46.69-6.94-41.43-3.35-72.34,25.8-90.13,60.37-4.15,8.07-14.07,11.25-22.14,7.1-8.07-4.15-11.25-14.07-7.1-22.14,23.76-46.17,66.7-82.57,122.02-78.1,15.63,1.26,31.96,5.01,48.23,7.11,13.41,1.72,26.81,2.39,39.53-2.16,35.33-12.63,52.39-42.57,69.61-72.34,20.85-36.04,41.72-72.12,81.4-90.4,18.98-8.74,40.09-9.75,61.4-7.67,18.35,1.79,36.82,5.88,53.67,7.52,30.09,2.93,59.01,3.3,85.88-1.69-10.95-9.6-20.16-20.13-27.05-31.33Zm28.05-17.19c-6.42-10.48-8.23-23.12-6.69-35.18,4.55-35.4,27.31-62.68,63.35-67.38,37.82-4.94,68.9,26.03,53.92,62.11-4.42,10.65-7.51,21.31-14.7,30.55-17.14,22.07-36.84,37-58.51,46.68-15.74-10.44-28.83-22.85-37.37-36.77Z"/>
          <path class="cls-3" d="m-32.39-2.97c1.28,11.91.85,21.04-.67,26.39-1.86,6.53-5.4,10.51-8.99,12.86-1.69,1.1-7.99,3.88-18.26,1.91-31.51-6.04-171.09-51.09-230.38-75.2-15.3-6.22-25.8-11.64-29.49-14.68-6.1-5.03-7.11-10.62-7.18-13.95-.06-2.48.39-6.36,3.23-10.83,2.2-3.47,8.48-10.17,18.15-18.66,40.3-35.39,145.93-113.59,191.93-139.72,4.27-2.43,9.41-2.82,14-1.06,4.59,1.76,8.15,5.48,9.71,10.14C-74.54-178.55-38.06-55.68-32.39-2.97Zm-35.93-17.66c-9.25-49.92-32.09-128.6-46.84-175.13h0c-50.31,31.9-135.89,95.82-169.55,125.65C-237.21-49.77-111.8-8.65-65.34,3.27c-.52-6.71-1.43-15.54-2.98-23.9Z"/>
          <path class="cls-3" d="m-148.33,203.67c11.5-17.08,22.54-32.49,40.98-42.33,12.64-6.75,25.73-11.36,39.78-14.24,24.6-5.04,42.18-3.29,55.14,4.29,20.18,11.8,28.5,35.99,36.22,61.93,7.75,25.96,14.11,53.93,25,77.6,12.52,27.21,30.83,48.98,61.17,58.84,46.4,15.08,79.63-13.52,111.21-45.11,10.23-10.23,20.34-20.55,31.14-28.45,12.93-9.45,26.87-15.29,44.05-9.81,34.91,11.14,48.67,38.51,48.6,68.17-.04,32.37-15.37,67.32-38.15,89.93-6.45,6.39-6.49,16.81-.11,23.25,6.4,6.44,16.81,6.48,23.26.09,59.16-58.68,75.24-181.23-23.6-212.77-24.08-7.69-44.6-3.11-63.35,7.91-15.94,9.36-30.53,23.84-45.1,38.43-10.15,10.16-20.32,20.35-31.31,28.08-13.46,9.44-28.22,14.93-46.47,9-20.93-6.8-32.84-22.55-41.48-41.32-10.26-22.31-16.03-48.76-23.32-73.24-10.32-34.6-24.21-65.17-51.15-80.92-18.45-10.79-43.3-15.29-78.33-8.12-17.18,3.52-33.2,9.19-48.66,17.45-23.4,12.49-38.18,31.3-52.77,52.97-5.07,7.53-3.07,17.75,4.46,22.82,7.53,5.07,17.75,3.07,22.82-4.46Z"/>
          <path class="cls-3" d="m419.29,288.19c17.85,48.36,22.31,113.34-11.14,157.48-14.64,19.3-34.49,33.79-49.62,52.77-5.66,7.1-4.48,17.45,2.63,23.1,7.09,5.65,17.44,4.48,23.1-2.62,15.28-19.18,35.29-33.88,50.09-53.38,40.16-52.94,37.21-130.71,15.81-188.72-3.15-8.51-12.6-12.87-21.11-9.73-8.52,3.14-12.87,12.6-9.75,21.11Z"/>
          <path class="cls-3" d="m-251.4,402.28c-16.76-18.15-23.7-40.53-11.02-65.8,11.85-23.61,30.03-33.1,47.89-33.5,25.34-.56,52.31,18.96,61.76,50.56,5.63,18.81,5.51,39.37.91,59.56,48.85,2.58,80.41-36.23,87.6-84.08,1.35-8.98,9.73-15.17,18.7-13.82,8.97,1.35,15.16,9.72,13.81,18.7-10.28,68.37-58.99,120.75-131.24,111.18l-1.16,2.41c-14.49,29.5-37.79,54.97-63.55,68.66-73.31,38.96-142.61-32.53-117.77-98.19,3.21-8.48,12.71-12.76,21.2-9.57,8.48,3.22,12.77,12.71,9.55,21.21-14.88,39.32,27.68,80.86,71.58,57.53,19.1-10.15,36.18-28.85,47.57-50.39-19.88-7.36-41.79-19.23-55.84-34.48Zm32.34-14.85c-12.1-9.43-21.41-21.38-13.97-36.19,4.99-9.95,11.72-15.21,19.24-15.37,12.73-.29,24.78,11.24,29.53,27.1,4.08,13.66,3.77,28.52.35,43.16-11.91-4.32-24.79-10.64-35.15-18.7Z"/>
          <path class="cls-3" d="m664.88,129.53c-4.53-85.16-79.14-116.04-96.76-122.23-109.27-38.41-161.28,48.06-169.05,75.06-29.27,101.59,70.03,175.5,148.55,140.95,70.65-31.09,60.86-140.27-17.63-153.72-39.22-6.72-63.08,24.65-61,53.96,1.39,19.55,13.73,39,41.77,45.3,8.85,1.99,17.65-3.59,19.64-12.43,1.98-8.86-3.59-17.66-12.44-19.65-10.21-2.29-15.66-8.43-16.18-15.56-.76-10.69,8.35-21.66,22.66-19.21,46.54,7.97,51.82,72.77,9.92,91.21-55.71,24.51-124.48-29.67-103.7-101.74,5.76-20.04,45.45-81.65,126.54-53.14,13.49,4.74,71.36,27.76,74.83,92.95.48,9.06,8.23,16.03,17.28,15.55,9.06-.48,16.03-8.23,15.55-17.29Z"/>
          <path class="cls-3" d="m179.56-113.8c14.61-20.05,37.8-37.23,63-45.25,23.78-7.56,49.52-6.91,70.99,8.76,11.52,8.4,17.42,19.81,26,30.67,5.07,6.41,14.39,7.5,20.8,2.43,6.42-5.07,7.51-14.39,2.44-20.8-10.3-13.01-17.97-26.16-31.77-36.22-57.66-42.06-138.41-7.76-175.38,42.97-4.81,6.61-3.35,15.88,3.24,20.69,6.6,4.81,15.87,3.36,20.69-3.25Z"/>
          <path class="cls-3" d="m49.36,75.85c-27.99-37.93-25.09-94.85-3.38-151.58,31.18-81.48,100.04-161.64,154.11-179.89,7.75-2.62,16.16,1.55,18.77,9.29,2.61,7.74-1.55,16.15-9.3,18.77-48.34,16.32-108.05,89.57-135.92,162.42-17.66,46.17-23.23,92.54-.46,123.41,25.85,35.03,61.19,34.6,94.09,19.66-6.51-38.42-1.89-82.61,12.28-114.86,8.1-18.42,26.52-45.99,48.43-60.4,17.79-11.7,37.63-15.32,57.05-4.44,17.46,9.78,23.67,27.37,22.17,47.61-1.74,23.55-14.61,50.86-23.54,65.39-17.2,28-47.75,60.47-82.31,81.93,1,3.03,2.11,5.96,3.33,8.79,7.19,16.6,17.4,27.24,29.42,32.46,29.31,12.72,66.46-5.47,88.11-36.47,4.68-6.7,13.94-8.34,20.62-3.66,6.71,4.68,8.34,13.92,3.66,20.62-25.59,36.63-68.01,57.68-104.92,52.16-25.78-3.86-49.65-19.98-64.06-53.38-.96-2.19-1.85-4.44-2.68-6.74-44.27,18.56-90.83,15.84-125.47-31.1ZM206.67-25.02c6.36-14.43,20.45-36.29,37.58-47.57,8.25-5.42,17.31-8.38,26.33-3.34,6.92,3.88,7.69,11.56,7.1,19.58-1.39,18.81-12.11,40.47-19.25,52.08-13.65,22.24-36.87,47.76-63.65,66.37-3.22-29.93,1.13-62.61,11.89-87.12Z"/>
          <path class="cls-3" d="m844.75,1409.8c-42.38,46.72-53.15,110.21-31.29,176.98,18.07,55.19,67.46,96.56,123.82,113.56,56.75,17.12,120.05,9.47,164.92-31.55,22.99-21.02,46.45-59.32,52.87-89.84,16.16-76.82-19.64-177.47-108.77-188.45-30.95-3.81-123.19-12.48-160.45,86.82-25.84,68.87,12.52,133.74,78.05,150.86,47.24,12.34,98.04-23.77,112.01-67.47,8.32-26.02,5.43-59.26-17.74-78.73-31.84-26.75-70.85-19.49-90.96,2.88-6.88,7.65-12.14,20.76-12.16,33.95-.02,14.55,5.92,28.73,19.82,36.95,7.81,4.62,17.9,2.03,22.52-5.78,4.62-7.81,2.03-17.9-5.78-22.52-3.1-1.83-3.69-5.36-3.68-8.6,0-4.6,1.33-9.34,3.73-12.01,10.03-11.15,29.49-13.02,45.36.31,12.69,10.66,12.13,29.29,7.57,43.54-9.14,28.6-41.46,53.74-72.38,45.67-46.69-12.2-73.99-58.43-55.58-107.49,28.96-77.18,101.59-68.7,125.65-65.74,69.41,8.55,93.2,89.22,80.61,149.05-5.18,24.62-24.33,55.38-42.88,72.34-36.19,33.09-87.46,38.14-133.23,24.34-46.16-13.93-87.26-47.11-102.06-92.31-17.85-54.5-10.2-106.52,24.39-144.65,6.1-6.72,5.59-17.13-1.13-23.22-6.72-6.1-17.13-5.59-23.22,1.13Z"/>
          <path class="cls-3" d="m1311.5,1008.36c-10.34-16.88-13.74-37.13-11.26-56.56,6.53-50.77,40.02-89.05,91.72-95.8,31.42-4.1,59.51,7.44,76.76,27.13,17.77,20.29,24.61,49.3,11.78,80.19-5.55,13.39-10.08,26.5-19.1,38.12-14.87,19.14-31.34,33.87-49.15,44.99,5.71,2.32,11.52,4.43,17.42,6.3,37.91,12.05,79.02,14.59,108.84,1.37,18.68-8.29,38.41-17.76,53.79-31.47,6.77-6.04,17.16-5.44,23.21,1.33,6.03,6.77,5.44,17.17-1.33,23.21-17.88,15.94-40.59,27.34-62.34,36.98-36.19,16.04-86.1,14.53-132.14-.09-15.96-5.08-31.42-11.72-45.66-19.64-37.8,12.76-79.94,14.02-124.56,9.67-16.85-1.64-35.34-5.73-53.69-7.52-15.4-1.5-30.73-1.51-44.45,4.81-33.23,15.31-49.24,46.82-66.7,77-21.09,36.45-43.75,71.37-87,86.84-17.65,6.31-36.18,6.2-54.79,3.81-15.75-2.03-31.55-5.72-46.69-6.94-41.43-3.35-72.34,25.8-90.13,60.37-4.15,8.07-14.07,11.25-22.14,7.1-8.07-4.15-11.25-14.07-7.1-22.14,23.76-46.17,66.7-82.57,122.02-78.1,15.63,1.26,31.96,5.01,48.23,7.11,13.41,1.72,26.81,2.39,39.53-2.16,35.33-12.63,52.39-42.57,69.61-72.34,20.85-36.04,41.72-72.12,81.4-90.4,18.98-8.74,40.09-9.75,61.4-7.67,18.35,1.79,36.82,5.88,53.67,7.52,30.09,2.93,59.01,3.3,85.88-1.69-10.95-9.6-20.16-20.13-27.05-31.33Zm28.05-17.19c-6.42-10.48-8.23-23.12-6.69-35.18,4.55-35.4,27.31-62.68,63.35-67.38,37.82-4.94,68.9,26.03,53.92,62.11-4.42,10.65-7.51,21.31-14.7,30.55-17.14,22.07-36.84,37-58.51,46.68-15.74-10.44-28.83-22.85-37.37-36.77Z"/>
          <path class="cls-3" d="m1349.79,1379.21c1.28,11.91.85,21.04-.67,26.39-1.86,6.53-5.4,10.51-8.99,12.86-1.69,1.1-7.99,3.88-18.26,1.91-31.51-6.04-171.09-51.09-230.38-75.2-15.3-6.22-25.8-11.64-29.49-14.68-6.1-5.03-7.11-10.62-7.18-13.95-.06-2.48.39-6.36,3.23-10.83,2.2-3.47,8.48-10.17,18.15-18.66,40.3-35.39,145.93-113.59,191.93-139.72,4.27-2.43,9.41-2.82,14-1.06,4.59,1.76,8.15,5.48,9.71,10.14,15.8,47.23,52.29,170.11,57.95,222.81Zm-35.93-17.66c-9.25-49.92-32.09-128.6-46.84-175.13h0c-50.31,31.9-135.89,95.82-169.55,125.65,47.51,20.34,172.91,61.46,219.37,73.38-.52-6.71-1.43-15.54-2.98-23.9Z"/>
          <path class="cls-3" d="m1233.85,1585.86c11.5-17.08,22.54-32.49,40.98-42.33,12.64-6.75,25.73-11.36,39.78-14.24,24.6-5.04,42.18-3.29,55.14,4.29,20.18,11.8,28.5,35.99,36.22,61.93,7.75,25.96,14.11,53.93,25,77.6,12.52,27.21,30.83,48.98,61.17,58.84,46.4,15.08,79.63-13.52,111.21-45.11,10.23-10.23,20.34-20.55,31.14-28.45,12.93-9.45,26.87-15.29,44.05-9.81,34.91,11.14,48.67,38.51,48.6,68.17-.04,32.37-15.37,67.32-38.15,89.93-6.45,6.39-6.49,16.81-.11,23.25,6.4,6.44,16.81,6.48,23.26.09,59.16-58.68,75.24-181.23-23.6-212.77-24.08-7.69-44.6-3.11-63.35,7.91-15.94,9.36-30.53,23.84-45.1,38.43-10.15,10.16-20.32,20.35-31.31,28.08-13.46,9.44-28.22,14.93-46.47,9-20.93-6.8-32.84-22.55-41.48-41.32-10.26-22.31-16.03-48.76-23.32-73.24-10.32-34.6-24.21-65.17-51.15-80.92-18.45-10.79-43.3-15.29-78.33-8.12-17.18,3.52-33.2,9.19-48.66,17.45-23.4,12.49-38.18,31.3-52.77,52.97-5.07,7.53-3.07,17.75,4.46,22.82,7.53,5.07,17.75,3.07,22.82-4.46Z"/>
          <path class="cls-3" d="m1801.48,1670.38c17.85,48.36,22.31,113.34-11.14,157.48-14.64,19.3-34.49,33.79-49.62,52.77-5.66,7.1-4.48,17.45,2.63,23.1,7.09,5.65,17.44,4.48,23.1-2.62,15.28-19.18,35.29-33.88,50.09-53.38,40.16-52.94,37.21-130.71,15.81-188.72-3.15-8.51-12.6-12.87-21.12-9.73-8.52,3.14-12.87,12.6-9.75,21.11Z"/>
          <path class="cls-3" d="m1519.7,1154.87c38.28-17.89,73.23-20.19,102.97-12.32,45.07,11.92,78.67,47.48,94.08,91.31,49.28,140.15,21.29,276.36-88.1,322.15-81.78,34.23-179.31-31.87-203.74-157.62-10.28-52.99,2.48-118.76,27.68-168.98,17.66-35.19,41.59-62.6,67.11-74.53h0Zm13.91,29.79c-20.05,9.37-37.78,31.85-51.64,59.49-22.08,44-33.8,101.54-24.78,147.97,12.09,62.33,44.37,108.48,83.4,128.95,23.97,12.58,50.43,15.03,75.34,4.61,94.83-39.68,112.49-159.45,69.78-280.91-11.79-33.54-36.97-61.3-71.45-70.43-23.31-6.17-50.63-3.7-80.65,10.32h0Z"/>
          <path class="cls-3" d="m1130.78,1784.47c-16.76-18.15-23.7-40.53-11.02-65.8,11.85-23.61,30.03-33.1,47.89-33.5,25.34-.56,52.31,18.96,61.76,50.56,5.63,18.81,5.51,39.37.91,59.56,48.85,2.58,80.41-36.23,87.6-84.08,1.35-8.98,9.73-15.17,18.7-13.82,8.97,1.35,15.16,9.72,13.81,18.7-10.28,68.37-58.99,120.75-131.24,111.18l-1.16,2.41c-14.49,29.5-37.79,54.97-63.55,68.66-73.31,38.96-142.61-32.53-117.77-98.19,3.21-8.48,12.71-12.76,21.2-9.57,8.48,3.22,12.77,12.71,9.55,21.21-14.88,39.32,27.68,80.86,71.58,57.53,19.1-10.15,36.18-28.85,47.57-50.39-19.88-7.36-41.79-19.23-55.84-34.48Zm32.34-14.85c-12.1-9.43-21.41-21.38-13.97-36.19,4.99-9.95,11.72-15.21,19.24-15.37,12.73-.29,24.78,11.24,29.53,27.1,4.08,13.66,3.77,28.52.35,43.16-11.91-4.32-24.79-10.64-35.15-18.7Z"/>
          <path class="cls-3" d="m1794.52,1453.65c-39.46,114.99,104.33,180.38,172.33,110.32,53.76-55.39,3.61-152.86-74.17-135.79-38.87,8.53-49.17,46.58-36.21,72.94,8.65,17.59,27.39,30.97,55.75,26.26,8.95-1.49,15-9.96,13.52-18.91-1.5-8.95-9.97-15.01-18.92-13.52-10.32,1.72-17.68-1.92-20.84-8.33-4.73-9.62-.41-23.21,13.76-26.32,46.12-10.12,75.39,47.93,43.51,80.77-46.69,48.09-144.72,2.19-117.63-76.74,2.94-8.58-1.63-17.94-10.21-20.89-8.58-2.94-17.94,1.63-20.88,10.22Z"/>
          <path class="cls-3" d="m664.88,1511.71c-4.53-85.16-79.14-116.04-96.76-122.23-109.27-38.41-161.28,48.06-169.05,75.06-29.27,101.59,70.03,175.5,148.55,140.95,70.65-31.09,60.86-140.27-17.63-153.72-39.22-6.72-63.08,24.65-61,53.96,1.39,19.55,13.73,39,41.77,45.3,8.85,1.99,17.65-3.59,19.64-12.43,1.98-8.86-3.59-17.66-12.44-19.65-10.21-2.29-15.66-8.43-16.18-15.56-.76-10.69,8.35-21.66,22.66-19.21,46.54,7.97,51.82,72.77,9.92,91.21-55.71,24.51-124.48-29.67-103.7-101.74,5.76-20.04,45.45-81.65,126.54-53.14,13.49,4.74,71.36,27.76,74.83,92.95.48,9.06,8.23,16.03,17.28,15.55,9.06-.48,16.03-8.23,15.55-17.29Z"/>
          <path class="cls-3" d="m844.75,27.62c-42.38,46.72-53.15,110.21-31.29,176.98,18.07,55.19,67.46,96.56,123.82,113.56,56.75,17.12,120.05,9.47,164.92-31.55,22.99-21.02,46.45-59.32,52.87-89.84,16.16-76.82-19.64-177.47-108.77-188.45-30.95-3.81-123.19-12.48-160.45,86.82-25.84,68.87,12.52,133.74,78.05,150.86,47.24,12.34,98.04-23.77,112.01-67.47,8.32-26.02,5.43-59.26-17.74-78.73-31.84-26.75-70.85-19.49-90.96,2.88-6.88,7.65-12.14,20.76-12.16,33.95-.02,14.55,5.92,28.73,19.82,36.95,7.81,4.62,17.9,2.03,22.52-5.78,4.62-7.81,2.03-17.9-5.78-22.52-3.1-1.83-3.69-5.36-3.68-8.6,0-4.6,1.33-9.34,3.73-12.01,10.03-11.15,29.49-13.02,45.36.31,12.69,10.66,12.13,29.29,7.57,43.54-9.14,28.6-41.46,53.74-72.38,45.67-46.69-12.2-73.99-58.43-55.58-107.49,28.96-77.18,101.59-68.7,125.65-65.74,69.41,8.55,93.2,89.22,80.61,149.05-5.18,24.62-24.33,55.38-42.88,72.34-36.19,33.09-87.46,38.14-133.23,24.34-46.16-13.93-87.26-47.11-102.06-92.31-17.85-54.5-10.2-106.52,24.39-144.65,6.1-6.72,5.59-17.13-1.13-23.22-6.72-6.1-17.13-5.59-23.22,1.13Z"/>
          <path class="cls-3" d="m1311.5-373.83c-10.34-16.88-13.74-37.13-11.26-56.56,6.53-50.77,40.02-89.05,91.72-95.8,31.42-4.1,59.51,7.44,76.76,27.13,17.77,20.29,24.61,49.3,11.78,80.19-5.55,13.39-10.08,26.5-19.1,38.12-14.87,19.14-31.34,33.87-49.15,44.99,5.71,2.32,11.52,4.43,17.42,6.3,37.91,12.05,79.02,14.59,108.84,1.37,18.68-8.29,38.41-17.76,53.79-31.47,6.77-6.04,17.16-5.44,23.21,1.33,6.03,6.77,5.44,17.17-1.33,23.21-17.88,15.94-40.59,27.34-62.34,36.98-36.19,16.04-86.1,14.53-132.14-.09-15.96-5.08-31.42-11.72-45.66-19.64-37.8,12.76-79.94,14.02-124.56,9.67-16.85-1.64-35.34-5.73-53.69-7.52-15.4-1.5-30.73-1.51-44.45,4.81-33.23,15.31-49.24,46.82-66.7,77-21.09,36.45-43.75,71.37-87,86.84-17.65,6.31-36.18,6.2-54.79,3.81-15.75-2.03-31.55-5.72-46.69-6.94-41.43-3.35-72.34,25.8-90.13,60.37-4.15,8.07-14.07,11.25-22.14,7.1-8.07-4.15-11.25-14.07-7.1-22.14,23.76-46.17,66.7-82.57,122.02-78.1,15.63,1.26,31.96,5.01,48.23,7.11,13.41,1.72,26.81,2.39,39.53-2.16,35.33-12.63,52.39-42.57,69.61-72.34,20.85-36.04,41.72-72.12,81.4-90.4,18.98-8.74,40.09-9.75,61.4-7.67,18.35,1.79,36.82,5.88,53.67,7.52,30.09,2.93,59.01,3.3,85.88-1.69-10.95-9.6-20.16-20.13-27.05-31.33Zm28.05-17.19c-6.42-10.48-8.23-23.12-6.69-35.18,4.55-35.4,27.31-62.68,63.35-67.38,37.82-4.94,68.9,26.03,53.92,62.11-4.42,10.65-7.51,21.31-14.7,30.55-17.14,22.07-36.84,37-58.51,46.68-15.74-10.44-28.83-22.85-37.37-36.77Z"/>
          <path class="cls-3" d="m1349.79-2.97c1.28,11.91.85,21.04-.67,26.39-1.86,6.53-5.4,10.51-8.99,12.86-1.69,1.1-7.99,3.88-18.26,1.91-31.51-6.04-171.09-51.09-230.38-75.2-15.3-6.22-25.8-11.64-29.49-14.68-6.1-5.03-7.11-10.62-7.18-13.95-.06-2.48.39-6.36,3.23-10.83,2.2-3.47,8.48-10.17,18.15-18.66,40.3-35.39,145.93-113.59,191.93-139.72,4.27-2.43,9.41-2.82,14-1.06,4.59,1.76,8.15,5.48,9.71,10.14,15.8,47.23,52.29,170.11,57.95,222.81Zm-35.93-17.66c-9.25-49.92-32.09-128.6-46.84-175.13h0c-50.31,31.9-135.89,95.82-169.55,125.65,47.51,20.34,172.91,61.46,219.37,73.38-.52-6.71-1.43-15.54-2.98-23.9Z"/>
          <path class="cls-3" d="m1233.85,203.67c11.5-17.08,22.54-32.49,40.98-42.33,12.64-6.75,25.73-11.36,39.78-14.24,24.6-5.04,42.18-3.29,55.14,4.29,20.18,11.8,28.5,35.99,36.22,61.93,7.75,25.96,14.11,53.93,25,77.6,12.52,27.21,30.83,48.98,61.17,58.84,46.4,15.08,79.63-13.52,111.21-45.11,10.23-10.23,20.34-20.55,31.14-28.45,12.93-9.45,26.87-15.29,44.05-9.81,34.91,11.14,48.67,38.51,48.6,68.17-.04,32.37-15.37,67.32-38.15,89.93-6.45,6.39-6.49,16.81-.11,23.25,6.4,6.44,16.81,6.48,23.26.09,59.16-58.68,75.24-181.23-23.6-212.77-24.08-7.69-44.6-3.11-63.35,7.91-15.94,9.36-30.53,23.84-45.1,38.43-10.15,10.16-20.32,20.35-31.31,28.08-13.46,9.44-28.22,14.93-46.47,9-20.93-6.8-32.84-22.55-41.48-41.32-10.26-22.31-16.03-48.76-23.32-73.24-10.32-34.6-24.21-65.17-51.15-80.92-18.45-10.79-43.3-15.29-78.33-8.12-17.18,3.52-33.2,9.19-48.66,17.45-23.4,12.49-38.18,31.3-52.77,52.97-5.07,7.53-3.07,17.75,4.46,22.82,7.53,5.07,17.75,3.07,22.82-4.46Z"/>
          <path class="cls-3" d="m1801.48,288.19c17.85,48.36,22.31,113.34-11.14,157.48-14.64,19.3-34.49,33.79-49.62,52.77-5.66,7.1-4.48,17.45,2.63,23.1,7.09,5.65,17.44,4.48,23.1-2.62,15.28-19.18,35.29-33.88,50.09-53.38,40.16-52.94,37.21-130.71,15.81-188.72-3.15-8.51-12.6-12.87-21.12-9.73-8.52,3.14-12.87,12.6-9.75,21.11Z"/>
          <path class="cls-3" d="m1622.67-239.63c45.07,11.92,78.67,47.48,94.08,91.31,49.28,140.15,21.29,276.36-88.1,322.15-81.78,34.23-179.31-31.87-203.74-157.62-10.28-52.99,2.48-118.76,27.68-168.98,17.66-35.19,41.59-62.6,67.11-74.53,38.28-17.89,73.23-20.19,102.97-12.32Zm-140.69,101.6c-22.08,44-33.8,101.54-24.78,147.97,12.09,62.33,44.37,108.48,83.4,128.95,23.97,12.58,50.43,15.03,75.34,4.61,94.83-39.68,112.49-159.45,69.78-280.91-11.79-33.54-36.97-61.3-71.45-70.43-23.31-6.17-50.63-3.7-80.65,10.32-20.05,9.37-37.78,31.85-51.64,59.49Z"/>
          <path class="cls-3" d="m1130.78,402.28c-16.76-18.15-23.7-40.53-11.02-65.8,11.85-23.61,30.03-33.1,47.89-33.5,25.34-.56,52.31,18.96,61.76,50.56,5.63,18.81,5.51,39.37.91,59.56,48.85,2.58,80.41-36.23,87.6-84.08,1.35-8.98,9.73-15.17,18.7-13.82,8.97,1.35,15.16,9.72,13.81,18.7-10.28,68.37-58.99,120.75-131.24,111.18l-1.16,2.41c-14.49,29.5-37.79,54.97-63.55,68.66-73.31,38.96-142.61-32.53-117.77-98.19,3.21-8.48,12.71-12.76,21.2-9.57,8.48,3.22,12.77,12.71,9.55,21.21-14.88,39.32,27.68,80.86,71.58,57.53,19.1-10.15,36.18-28.85,47.57-50.39-19.88-7.36-41.79-19.23-55.84-34.48Zm32.34-14.85c-12.1-9.43-21.41-21.38-13.97-36.19,4.99-9.95,11.72-15.21,19.24-15.37,12.73-.29,24.78,11.24,29.53,27.1,4.08,13.66,3.77,28.52.35,43.16-11.91-4.32-24.79-10.64-35.15-18.7Z"/>
          <path class="cls-3" d="m1794.52,71.47c-39.46,114.99,104.33,180.38,172.33,110.32,53.76-55.39,3.61-152.86-74.17-135.79-38.87,8.53-49.17,46.58-36.21,72.94,8.65,17.59,27.39,30.97,55.75,26.26,8.95-1.49,15-9.96,13.52-18.91-1.5-8.95-9.97-15.01-18.92-13.52-10.32,1.72-17.68-1.92-20.84-8.33-4.73-9.62-.41-23.21,13.76-26.32,46.12-10.12,75.39,47.93,43.51,80.77-46.69,48.09-144.72,2.19-117.63-76.74,2.94-8.58-1.63-17.94-10.21-20.89-8.58-2.94-17.94,1.63-20.88,10.22Z"/>
          <path class="cls-3" d="m-537.43,1409.8c-42.38,46.72-53.15,110.21-31.29,176.98,18.07,55.19,67.46,96.56,123.82,113.56,56.75,17.12,120.05,9.47,164.92-31.55,22.99-21.02,46.45-59.32,52.87-89.84,16.16-76.82-19.64-177.47-108.77-188.45-30.95-3.81-123.19-12.48-160.45,86.82-25.84,68.87,12.52,133.74,78.05,150.86,47.24,12.34,98.04-23.77,112.01-67.47,8.32-26.02,5.43-59.26-17.74-78.73-31.84-26.75-70.85-19.49-90.96,2.88-6.88,7.65-12.14,20.76-12.16,33.95-.02,14.55,5.92,28.73,19.82,36.95,7.81,4.62,17.9,2.03,22.52-5.78,4.62-7.81,2.03-17.9-5.78-22.52-3.1-1.83-3.69-5.36-3.68-8.6,0-4.6,1.33-9.34,3.73-12.01,10.03-11.15,29.49-13.02,45.36.31,12.69,10.66,12.13,29.29,7.57,43.54-9.14,28.6-41.46,53.74-72.38,45.67-46.69-12.2-73.99-58.43-55.58-107.49,28.96-77.18,101.59-68.7,125.65-65.74,69.41,8.55,93.2,89.22,80.61,149.05-5.18,24.62-24.33,55.38-42.88,72.34-36.19,33.09-87.46,38.14-133.23,24.34-46.16-13.93-87.26-47.11-102.06-92.31-17.85-54.5-10.2-106.52,24.39-144.65,6.1-6.72,5.59-17.13-1.13-23.22-6.72-6.1-17.13-5.59-23.22,1.13Z"/>
          <path class="cls-3" d="m-70.68,1008.36c-10.34-16.88-13.74-37.13-11.26-56.56,6.53-50.77,40.02-89.05,91.72-95.8,31.42-4.1,59.51,7.44,76.76,27.13,17.77,20.29,24.61,49.3,11.78,80.19-5.55,13.39-10.08,26.5-19.1,38.12-14.87,19.14-31.34,33.87-49.15,44.99,5.71,2.32,11.52,4.43,17.42,6.3,37.91,12.05,79.02,14.59,108.84,1.37,18.68-8.29,38.41-17.76,53.79-31.47,6.77-6.04,17.16-5.44,23.21,1.33,6.03,6.77,5.44,17.17-1.33,23.21-17.88,15.94-40.59,27.34-62.34,36.98-36.19,16.04-86.1,14.53-132.14-.09-15.96-5.08-31.42-11.72-45.66-19.64-37.8,12.76-79.94,14.02-124.56,9.67-16.85-1.64-35.34-5.73-53.69-7.52-15.4-1.5-30.73-1.51-44.45,4.81-33.23,15.31-49.24,46.82-66.7,77-21.09,36.45-43.75,71.37-87,86.84-17.65,6.31-36.18,6.2-54.79,3.81-15.75-2.03-31.55-5.72-46.69-6.94-41.43-3.35-72.34,25.8-90.13,60.37-4.15,8.07-14.07,11.25-22.14,7.1-8.07-4.15-11.25-14.07-7.1-22.14,23.76-46.17,66.7-82.57,122.02-78.1,15.63,1.26,31.96,5.01,48.23,7.11,13.41,1.72,26.81,2.39,39.53-2.16,35.33-12.63,52.39-42.57,69.61-72.34,20.85-36.04,41.72-72.12,81.4-90.4,18.98-8.74,40.09-9.75,61.4-7.67,18.35,1.79,36.82,5.88,53.67,7.52,30.09,2.93,59.01,3.3,85.88-1.69-10.95-9.6-20.16-20.13-27.05-31.33Zm28.05-17.19c-6.42-10.48-8.23-23.12-6.69-35.18,4.55-35.4,27.31-62.68,63.35-67.38,37.82-4.94,68.9,26.03,53.92,62.11-4.42,10.65-7.51,21.31-14.7,30.55-17.14,22.07-36.84,37-58.51,46.68-15.74-10.44-28.83-22.85-37.37-36.77Z"/>
          <path class="cls-3" d="m-32.39,1379.21c1.28,11.91.85,21.04-.67,26.39-1.86,6.53-5.4,10.51-8.99,12.86-1.69,1.1-7.99,3.88-18.26,1.91-31.51-6.04-171.09-51.09-230.38-75.2-15.3-6.22-25.8-11.64-29.49-14.68-6.1-5.03-7.11-10.62-7.18-13.95-.06-2.48.39-6.36,3.23-10.83,2.2-3.47,8.48-10.17,18.15-18.66,40.3-35.39,145.93-113.59,191.93-139.72,4.27-2.43,9.41-2.82,14-1.06,4.59,1.76,8.15,5.48,9.71,10.14,15.8,47.23,52.29,170.11,57.95,222.81Zm-35.93-17.66c-9.25-49.92-32.09-128.6-46.84-175.13h0c-50.31,31.9-135.89,95.82-169.55,125.65,47.5,20.34,172.91,61.46,219.37,73.38-.52-6.71-1.43-15.54-2.98-23.9Z"/>
          <path class="cls-3" d="m-148.33,1585.86c11.5-17.08,22.54-32.49,40.98-42.33,12.64-6.75,25.73-11.36,39.78-14.24,24.6-5.04,42.18-3.29,55.14,4.29,20.18,11.8,28.5,35.99,36.22,61.93,7.75,25.96,14.11,53.93,25,77.6,12.52,27.21,30.83,48.98,61.17,58.84,46.4,15.08,79.63-13.52,111.21-45.11,10.23-10.23,20.34-20.55,31.14-28.45,12.93-9.45,26.87-15.29,44.05-9.81,34.91,11.14,48.67,38.51,48.6,68.17-.04,32.37-15.37,67.32-38.15,89.93-6.45,6.39-6.49,16.81-.11,23.25,6.4,6.44,16.81,6.48,23.26.09,59.16-58.68,75.24-181.23-23.6-212.77-24.08-7.69-44.6-3.11-63.35,7.91-15.94,9.36-30.53,23.84-45.1,38.43-10.15,10.16-20.32,20.35-31.31,28.08-13.46,9.44-28.22,14.93-46.47,9-20.93-6.8-32.84-22.55-41.48-41.32-10.26-22.31-16.03-48.76-23.32-73.24-10.32-34.6-24.21-65.17-51.15-80.92-18.45-10.79-43.3-15.29-78.33-8.12-17.18,3.52-33.2,9.19-48.66,17.45-23.4,12.49-38.18,31.3-52.77,52.97-5.07,7.53-3.07,17.75,4.46,22.82,7.53,5.07,17.75,3.07,22.82-4.46Z"/>
          <path class="cls-3" d="m419.29,1670.38c17.85,48.36,22.31,113.34-11.14,157.48-14.64,19.3-34.49,33.79-49.62,52.77-5.66,7.1-4.48,17.45,2.63,23.1,7.09,5.65,17.44,4.48,23.1-2.62,15.28-19.18,35.29-33.88,50.09-53.38,40.16-52.94,37.21-130.71,15.81-188.72-3.15-8.51-12.6-12.87-21.11-9.73-8.52,3.14-12.87,12.6-9.75,21.11Z"/>
          <path class="cls-3" d="m-251.4,1784.47c-16.76-18.15-23.7-40.53-11.02-65.8,11.85-23.61,30.03-33.1,47.89-33.5,25.34-.56,52.31,18.96,61.76,50.56,5.63,18.81,5.51,39.37.91,59.56,48.85,2.58,80.41-36.23,87.6-84.08,1.35-8.98,9.73-15.17,18.7-13.82,8.97,1.35,15.16,9.72,13.81,18.7-10.28,68.37-58.99,120.75-131.24,111.18l-1.16,2.41c-14.49,29.5-37.79,54.97-63.55,68.66-73.31,38.96-142.61-32.53-117.77-98.19,3.21-8.48,12.71-12.76,21.2-9.57,8.48,3.22,12.77,12.71,9.55,21.21-14.88,39.32,27.68,80.86,71.58,57.53,19.1-10.15,36.18-28.85,47.57-50.39-19.88-7.36-41.79-19.23-55.84-34.48Zm32.34-14.85c-12.1-9.43-21.41-21.38-13.97-36.19,4.99-9.95,11.72-15.21,19.24-15.37,12.73-.29,24.78,11.24,29.53,27.1,4.08,13.66,3.77,28.52.35,43.16-11.91-4.32-24.79-10.64-35.15-18.7Z"/>
          <path class="cls-3" d="m412.33,1453.65c-39.46,114.99,104.33,180.38,172.33,110.32,53.76-55.39,3.61-152.86-74.17-135.79-38.87,8.53-49.17,46.58-36.21,72.94,8.65,17.59,27.39,30.97,55.75,26.26,8.95-1.49,15-9.96,13.52-18.91-1.5-8.95-9.97-15.01-18.92-13.52-10.32,1.72-17.68-1.92-20.84-8.33-4.73-9.62-.41-23.21,13.76-26.32,46.12-10.12,75.39,47.93,43.51,80.77-46.69,48.09-144.72,2.19-117.63-76.74,2.94-8.58-1.63-17.94-10.21-20.89-8.58-2.94-17.94,1.63-20.88,10.22Z"/>
          <path class="cls-3" d="m-13.17,1171.05c-19.3,14.59-1.04,50.31,26.99,34.55,28.22-15.86-1.48-53.82-26.99-34.55Z"/>
          <path class="cls-3" d="m199.68,716.87c-37.93,41.81-47.65,98.64-28.07,158.4,16.17,49.39,60.33,86.45,110.77,101.67,50.83,15.33,107.51,8.42,147.7-28.32,20.6-18.83,41.59-53.14,47.34-80.47,14.5-68.93-17.86-159.11-97.83-168.96-27.77-3.42-110.49-11.1-143.93,78.01-23.29,62.06,11.28,120.51,70.34,135.94,42.73,11.16,88.72-21.41,101.36-60.93,7.58-23.69,4.82-53.94-16.28-71.66-29.08-24.43-64.71-17.7-83.09,2.74-6.34,7.06-11.23,19.13-11.24,31.29-.02,13.52,5.55,26.68,18.46,34.32,7.81,4.62,17.9,2.03,22.52-5.78,4.62-7.81,2.03-17.9-5.78-22.52-2.12-1.26-2.33-3.75-2.32-5.97,0-3.57.95-7.28,2.81-9.35,8.29-9.22,24.37-10.56,37.49.45,10.62,8.92,9.92,24.55,6.11,36.47-7.81,24.42-35.32,46.03-61.73,39.14-40.21-10.5-63.72-50.32-47.86-92.57,25.14-66.99,88.24-59.5,109.12-56.92,60.26,7.42,80.6,77.62,69.68,129.56-4.51,21.44-21.2,48.21-37.35,62.97-31.51,28.81-76.16,33.13-116.01,21.11-40.24-12.14-76.11-41.01-89.02-80.42-15.55-47.49-8.97-92.85,21.18-126.08,6.1-6.72,5.59-17.13-1.13-23.22-6.72-6.1-17.13-5.59-23.22,1.13Z"/>
          <path class="cls-3" d="m543.81,793.96c50.87,17.83,104.61,22.91,156.05,7.51,7.82-2.34,12.28-10.6,9.93-18.43-2.33-7.83-10.6-12.28-18.42-9.94-45.42,13.6-92.85,8.66-137.75-7.08-7.71-2.7-16.18,1.36-18.88,9.07-2.7,7.71,1.37,16.17,9.08,18.87Z"/>
          <path class="cls-3" d="m542.9,879.89c64.83,14.3,132.11,16.09,191.3-18.29,7.06-4.1,9.47-13.17,5.36-20.24-4.09-7.07-13.17-9.47-20.23-5.37-52.57,30.53-112.47,27.68-170.05,14.98-7.97-1.76-15.87,3.29-17.64,11.27-1.76,7.98,3.29,15.89,11.26,17.65Z"/>
          <path class="cls-3" d="m544.04,331.42c7.78-2.91,53.35-22.17,80.76-33.78l-1.15,102.94c-.06,4.93,2.34,9.56,6.41,12.36,4.06,2.8,9.25,3.39,13.83,1.57l86.18-34.05c-1.76,32.9-4.96,90.38-6.05,99.29-1,8.11,4.79,15.5,12.9,16.5,8.11.99,15.5-4.79,16.5-12.9,1.57-12.81,7.46-124.36,7.46-124.36.27-5.03-2.05-9.86-6.14-12.8-4.07-2.94-9.39-3.6-14.09-1.75l-87.14,34.43,1.14-103.55c.07-5-2.42-9.69-6.57-12.47-4.15-2.78-9.43-3.28-14.02-1.32,0,0-89.31,37.99-100.41,42.15-7.64,2.87-11.54,11.41-8.67,19.06,2.87,7.65,11.4,11.54,19.06,8.68Z"/>
          <path class="cls-3" d="m1043.66,884.69c2.78,8.76,21.74,60.87,32.96,91.61l-118.3-14.1c-5.05-.58-10.04,1.42-13.25,5.38-3.2,3.94-4.16,9.26-2.53,14.05l32.88,97.59c-36.87-5.9-103.96-16.74-114.15-19.06-7.97-1.8-15.91,3.21-17.71,11.18-1.81,7.98,3.21,15.91,11.18,17.71,14.38,3.27,140.22,23.28,140.22,23.28,5.12.8,10.29-1.11,13.64-5.07,3.34-3.95,4.38-9.37,2.72-14.27l-33.23-98.59,118.97,14.18c5.12.59,10.17-1.48,13.37-5.54,3.19-4.03,4.06-9.44,2.29-14.28,0,0-36.87-100.58-40.82-113.02-2.47-7.79-10.8-12.11-18.59-9.64-7.79,2.46-12.11,10.8-9.64,18.59Z"/>
          <path class="cls-3" d="m-21.72,750.2l110.64,14.37c4.82.64,9.65-1.15,12.91-4.76,3.26-3.63,4.53-8.6,3.41-13.35l-23.07-96.91,105.96,7.62c4.78.34,9.43-1.64,12.48-5.34,3.05-3.7,4.12-8.63,2.88-13.25l-25.58-95.41c32.62,3.84,91.51,10.85,100.47,12.57,8.03,1.54,15.79-3.73,17.32-11.75,1.54-8.04-3.72-15.8-11.75-17.34-12.71-2.44-124.28-15.44-124.28-15.44-4.87-.57-9.72,1.33-12.92,5.04-3.21,3.72-4.37,8.78-3.09,13.51l25.85,96.38-105.36-7.57c-4.71-.33-9.29,1.58-12.34,5.17-3.06,3.6-4.21,8.43-3.13,13.03l22.78,95.68-89.36-11.6c-8.1-1.06-15.54,4.67-16.59,12.77-1.06,8.11,4.67,15.54,12.77,16.59Z"/>
          <path class="cls-3" d="m658.7,688.12c1.28,11.91.85,21.04-.67,26.39-1.86,6.53-5.4,10.51-8.99,12.86-1.69,1.1-7.99,3.88-18.26,1.91-31.51-6.04-171.09-51.09-230.38-75.2-15.3-6.22-25.8-11.64-29.49-14.68-6.1-5.03-7.11-10.62-7.18-13.95-.05-2.48.39-6.36,3.23-10.83,2.2-3.47,8.48-10.17,18.15-18.66,40.3-35.39,145.93-113.59,191.93-139.72,4.27-2.43,9.41-2.82,14-1.06,4.59,1.76,8.15,5.48,9.71,10.14,15.8,47.23,52.29,170.11,57.95,222.81Zm-35.93-17.66c-9.25-49.92-32.09-128.6-46.84-175.13h0c-50.31,31.9-135.89,95.82-169.55,125.65,47.5,20.34,172.91,61.46,219.37,73.38-.52-6.71-1.43-15.54-2.98-23.9Z"/>
          <path class="cls-3" d="m1103.43,762.56c-39.46,114.99,104.33,180.38,172.33,110.32,53.76-55.39,3.61-152.86-74.17-135.79-38.87,8.53-49.17,46.58-36.21,72.94,8.65,17.59,27.39,30.97,55.75,26.26,8.95-1.49,15-9.96,13.52-18.91-1.5-8.95-9.97-15.01-18.92-13.52-10.32,1.72-17.68-1.92-20.84-8.33-4.73-9.62-.41-23.21,13.76-26.32,46.12-10.12,75.39,47.93,43.51,80.77-46.69,48.09-144.72,2.19-117.63-76.74,2.94-8.58-1.63-17.94-10.21-20.89-8.58-2.94-17.94,1.63-20.88,10.22Z"/>
          <path class="cls-3" d="m748.65,39.04c-26.85,71.11-52.25,152.58-28.85,229.21,2.39,7.82,10.67,12.22,18.49,9.84,7.82-2.39,12.22-10.67,9.84-18.49-21.48-70.32,3.59-144.85,28.23-210.1,2.89-7.65-.98-16.2-8.62-19.08-7.65-2.89-16.2.98-19.08,8.62Z"/>
          <path class="cls-3" d="m898.79,676.44c-22.98,10.17-47.56,11.41-71.33-3.96-30.83-19.92-39.72-56.49-35.11-97.58,6.12-54.57,35.61-117.09,53.57-147.94,9.79-16.83,20.34-34.04,33.97-48.02,5.71-5.86,15.09-5.97,20.94-.26,5.85,5.71,5.96,15.09.25,20.95-11.95,12.24-20.99,27.48-29.57,42.22-16.56,28.46-44.09,86.01-49.73,136.34-3.23,28.83.13,55.44,21.76,69.42,18.51,11.98,37.76,6.31,54.89-4.53,2.57-1.63,5.09-3.38,7.57-5.2-4.2-5.55-7.92-11.72-11.08-18.51-11.77-25.39-7.48-67.24,11.13-88.41,20.19-22.95,57.63-30.01,78.22-1.76,8.19,11.26,10.28,24.3,8.28,37.52-2.48,16.4-11.67,33.1-20.41,44.84-6.04,8.1-13.54,17.27-22.12,26.28,33.18,18.66,80.3,8.14,103.27-25.04,4.65-6.73,13.88-8.41,20.6-3.77,6.72,4.66,8.4,13.89,3.75,20.62-33.49,48.41-103.89,60.86-150.11,28.9-9.07,7.21-18.75,13.48-28.76,17.9Zm23-69.55c-7.5-16.16-5.35-42.9,6.51-56.38,8.33-9.47,23.55-15.53,32.05-3.88,4.48,6.16,3.81,13.67,1.79,20.86-2.76,9.84-8.47,19.29-13.74,26.37-5.5,7.38-12.37,15.85-20.24,24.13-2.38-3.4-4.51-7.08-6.37-11.11Z"/>
          <path class="cls-3" d="m709.29,571.98c-3.43,41.7,4.54,76.82,17.42,115.91,39.31,119.22,135.45,183.87,251.28,217.84,7.84,2.31,16.08-2.2,18.38-10.04,2.3-7.84-2.2-16.07-10.04-18.38-106.25-31.16-195.43-89.32-231.49-198.68-11.59-35.17-19.13-66.72-16.04-104.24.67-8.14-5.4-15.31-13.54-15.96-8.14-.67-15.3,5.4-15.97,13.54Z"/>
          <path class="cls-3" d="m1024.69,739.04c10.25,13.12,14.17,30.13,8.72,45.7-3.54,10.11-11.03,19.91-24.28,27.35-19.14,10.75-36.34,10.28-49.77,4.42-32.54-14.22-43.56-62.88-11.63-87.01,29.19-22.05,60.74-11.18,76.96,9.55Zm-53.47,50.34c6.35,2.76,14.36,1.98,23.4-3.11,5.67-3.18,9.32-6.98,10.84-11.3,2.29-6.54-.43-13.56-5.05-18.84-7.76-8.86-21.81-12.84-34.82-3.01-13.34,10.08-7.96,30.31,5.63,36.25Z"/>
          <path class="cls-3" d="m1283.63,209.48c24.88-18.8,51.78-9.51,65.6,8.16,8.82,11.28,12.11,25.93,7.43,39.32-3.03,8.64-9.4,17.07-20.74,23.44-16.3,9.16-30.96,8.66-42.4,3.67-27.89-12.18-37.26-53.92-9.89-74.6h0Zm21.75,47.45c4.35,1.9,9.82,1.15,16.03-2.34,3.77-2.11,6.29-4.53,7.3-7.42,1.48-4.22-.48-8.67-3.46-12.08-5.29-6.06-14.88-8.7-23.76-1.99-8.78,6.63-5.06,19.91,3.89,23.83Z"/>
          <path class="cls-3" d="m946.89,1289.46c10.25,13.12,14.17,30.13,8.72,45.7-3.54,10.11-11.03,19.91-24.28,27.35-19.14,10.75-36.34,10.28-49.77,4.42-32.54-14.22-43.56-62.88-11.63-87.01,29.19-22.05,60.74-11.18,76.96,9.55Zm-59.1,14.08c-13.34,10.08-7.96,30.31,5.63,36.25,6.35,2.76,14.36,1.98,23.4-3.11,5.67-3.18,9.32-6.98,10.84-11.3,2.29-6.54-.43-13.56-5.05-18.84-7.76-8.86-21.81-12.84-34.82-3.01h0Z"/>
          <path class="cls-3" d="m186.04,386.41c29.19-22.05,60.74-11.18,76.96,9.55,10.25,13.12,14.17,30.13,8.72,45.7-3.54,10.11-11.03,19.91-24.28,27.35-19.14,10.75-36.34,10.28-49.77,4.42-32.54-14.22-43.56-62.88-11.63-87.01h0Zm17.85,23.64c-13.34,10.08-7.96,30.31,5.63,36.25,6.35,2.76,14.36,1.98,23.4-3.11,5.67-3.18,9.32-6.98,10.84-11.3,2.29-6.54-.43-13.56-5.05-18.84-7.76-8.86-21.81-12.84-34.82-3.01h0Z"/>
          <path class="cls-3" d="m951.27,394.61c-19.3,14.59-1.04,50.31,26.99,34.55,28.22-15.86-1.48-53.82-26.99-34.55Z"/>
          <path class="cls-3" d="m74.25,476.75c-19.3,14.59-1.04,50.31,26.99,34.55,28.22-15.86-1.48-53.82-26.99-34.55Z"/>
          <path class="cls-3" d="m1201.6,49.6c-19.3,14.59-1.04,50.31,26.99,34.55,28.22-15.86-1.48-53.82-26.99-34.55Z"/>
          <path class="cls-3" d="m1369.01,1171.05c-19.3,14.59-1.04,50.31,26.99,34.55,28.22-15.86-1.48-53.82-26.99-34.55Z"/>
          <path class="cls-3" d="m267.37,621.33c-19.3,14.59-1.04,50.31,26.99,34.55,28.22-15.86-1.48-53.82-26.99-34.55Z"/>
          <path class="cls-3" d="m129.15,197.58c-19.3,14.59-1.04,50.31,26.99,34.55,28.22-15.86-1.48-53.82-26.99-34.55Z"/>
          <path class="cls-3" d="m946.82-48.37c-5.05,10.87-14.76,18.85-26.53,20.46-7.55,1.03-16.22-.43-25.23-6.41-12.86-8.54-17.91-19.57-18.53-29.86-1.54-25.32,25.92-48.02,51.65-35.56,23.2,11.24,26.46,34.55,18.65,51.38Zm-40.74-17.61c.16,2.58,2.13,4.85,5.35,6.98,1.78,1.19,3.35,1.95,4.85,1.74,1.99-.27,3.14-2.2,3.9-4.1,1.59-3.99.42-9.15-4.91-11.74-4.77-2.3-9.46,2.42-9.18,7.11Z"/>
          <path class="cls-3" d="m12.5,402.1c-42.57,72.61-138.48,134.29-218.61,160.67-7.76,2.55-11.99,10.93-9.44,18.69,2.56,7.76,10.93,11.99,18.7,9.44,86.31-28.41,189.05-95.61,234.9-173.82,4.14-7.05,1.77-16.13-5.28-20.26-7.05-4.13-16.13-1.77-20.26,5.28Z"/>
          <path class="cls-3" d="m-241.78,690.16c73.87-5.56,187.56-65.17,243.49-117.39,5.97-5.58,6.29-14.96.72-20.93-5.58-5.97-14.96-6.3-20.93-.72-51.86,48.42-156.99,104.35-225.5,109.5-8.15.61-14.27,7.73-13.66,15.88.61,8.15,7.73,14.27,15.88,13.65Z"/>
          <path class="cls-3" d="m-956.43,1280.02c113.37,1.63,172.12-12.43,274.01-59.06,34-15.56,68.25-30.41,95.9-56.48,5.95-5.61,6.22-14.99.62-20.93-5.61-5.95-14.99-6.23-20.93-.62-25.26,23.81-56.85,36.88-87.91,51.1-97.15,44.47-153.15,57.93-261.25,56.38-8.17-.12-14.9,6.42-15.02,14.59-.12,8.17,6.42,14.9,14.59,15.02Z"/>
          <path class="cls-3" d="m-947.36,1347.46c74.93.86,164.94-4.87,231.18-27.19,7.75-2.61,11.91-11.01,9.31-18.76-2.61-7.75-11.01-11.92-18.76-9.31-63.42,21.36-149.64,26.47-221.38,25.64-8.17-.09-14.88,6.46-14.98,14.64-.09,8.17,6.47,14.88,14.64,14.98Z"/>
          <path class="cls-3" d="m1394.68,402.1c-42.57,72.61-138.48,134.29-218.61,160.67-7.76,2.55-11.99,10.93-9.44,18.69,2.56,7.76,10.93,11.99,18.7,9.44,86.31-28.41,189.05-95.61,234.9-173.82,4.14-7.05,1.77-16.13-5.28-20.26-7.05-4.13-16.13-1.77-20.26,5.28Z"/>
          <path class="cls-3" d="m1328.47,747.06l142.74,17.52c4.82.59,9.61-1.21,12.85-4.84,3.23-3.6,4.48-8.57,3.37-13.3l-23.07-96.91,105.96,7.62c4.78.34,9.43-1.64,12.48-5.34,3.05-3.7,4.12-8.63,2.88-13.25l-25.58-95.41c32.62,3.84,91.51,10.85,100.47,12.57,8.03,1.54,15.79-3.73,17.32-11.75,1.54-8.04-3.72-15.8-11.75-17.34-12.71-2.44-124.28-15.44-124.28-15.44-4.87-.57-9.72,1.33-12.92,5.04-3.21,3.72-4.37,8.78-3.09,13.51l25.85,96.38-105.36-7.57c-4.71-.33-9.29,1.58-12.34,5.17-3.06,3.6-4.21,8.43-3.13,13.03l22.81,95.83-121.59-14.93c-8.11-.99-15.51,4.79-16.51,12.9-1,8.11,4.78,15.51,12.89,16.51Z"/>
          <path class="cls-3" d="m1140.4,690.16c73.87-5.56,187.56-65.17,243.49-117.39,5.97-5.58,6.29-14.96.72-20.93-5.58-5.97-14.96-6.3-20.93-.72-51.86,48.42-156.99,104.35-225.5,109.5-8.15.61-14.27,7.73-13.66,15.88.61,8.15,7.73,14.27,15.88,13.65Z"/>
          <path class="cls-3" d="m425.76,1280.02c113.37,1.63,172.12-12.43,274.01-59.06,34-15.56,68.25-30.41,95.9-56.48,5.95-5.61,6.22-14.99.62-20.93-5.61-5.95-14.99-6.23-20.93-.62-25.26,23.81-56.85,36.88-87.91,51.1-97.15,44.47-153.15,57.93-261.25,56.38-8.17-.12-14.9,6.42-15.02,14.59-.12,8.17,6.42,14.9,14.59,15.02Z"/>
          <path class="cls-3" d="m179.56,1268.38c14.61-20.05,37.8-37.23,63-45.25,23.78-7.56,49.52-6.91,70.99,8.76,11.52,8.4,17.42,19.81,26,30.67,5.07,6.41,14.39,7.5,20.8,2.43,6.42-5.07,7.51-14.39,2.44-20.8-10.3-13.01-17.97-26.16-31.77-36.22-57.66-42.06-138.41-7.76-175.38,42.97-4.81,6.61-3.35,15.88,3.24,20.69,6.6,4.81,15.87,3.36,20.69-3.25Z"/>
          <path class="cls-3" d="m49.36,1458.03c-27.99-37.93-25.09-94.85-3.38-151.58,31.18-81.48,100.04-161.64,154.11-179.89,7.75-2.62,16.16,1.55,18.77,9.29,2.61,7.74-1.55,16.15-9.3,18.77-48.34,16.32-108.05,89.57-135.92,162.42-17.66,46.17-23.23,92.54-.46,123.41,25.85,35.03,61.19,34.6,94.09,19.66-6.51-38.42-1.89-82.61,12.28-114.86,8.1-18.42,26.52-45.99,48.43-60.4,17.79-11.7,37.63-15.32,57.05-4.44,17.46,9.78,23.67,27.37,22.17,47.61-1.74,23.55-14.61,50.86-23.54,65.39-17.2,28-47.75,60.47-82.31,81.93,1,3.03,2.11,5.96,3.33,8.79,7.19,16.6,17.4,27.24,29.42,32.46,29.31,12.72,66.46-5.47,88.11-36.47,4.68-6.7,13.94-8.34,20.62-3.66,6.71,4.68,8.34,13.92,3.66,20.62-25.59,36.63-68.01,57.68-104.92,52.16-25.78-3.86-49.65-19.98-64.06-53.38-.96-2.19-1.85-4.44-2.68-6.74-44.27,18.56-90.83,15.84-125.47-31.1Zm157.31-100.87c6.36-14.43,20.45-36.29,37.58-47.57,8.25-5.42,17.31-8.38,26.33-3.34,6.92,3.88,7.69,11.56,7.1,19.58-1.39,18.81-12.11,40.47-19.25,52.08-13.65,22.24-36.87,47.76-63.65,66.37-3.22-29.93,1.13-62.61,11.89-87.12Z"/>
          <path class="cls-3" d="m434.83,1347.46c74.93.86,164.94-4.87,231.18-27.19,7.75-2.61,11.91-11.01,9.31-18.76-2.61-7.75-11.01-11.92-18.76-9.31-63.42,21.36-149.64,26.47-221.38,25.64-8.17-.09-14.88,6.46-14.98,14.64-.09,8.17,6.47,14.88,14.64,14.98Z"/>
          <path class="cls-3" d="m640.17,1036.35c-18.09-23.49-21.83-45.29-17.9-63.24,4.73-21.64,21.02-38.53,41.37-47.25,19.92-8.54,43.46-9.06,62.5.46,22.87,11.43,40.98,37.36,36.08,84.19-1.09,10.42-2.64,20.96-5.26,31.19,21.05-2.64,39.25-10.22,54.09-22.26,23.47-19.05,38.28-48.94,43.31-86.54,1.08-8.1,8.53-13.8,16.63-12.71,8.1,1.09,13.82,8.54,12.73,16.64-6.18,46.09-25.24,82.26-54.01,105.6-22.52,18.28-51.14,28.9-84.86,29.88-10.23,18.75-25.68,38.74-40.94,51.34-38.75,31.93-110.66,44.68-169.56,31.48-14.11-3.16-27.42-7.81-39.44-13.93-17.19,10.6-36.49,17.96-56.04,21.47-56.78,10.2-114.36-11.39-130.15-75.76-1.94-7.94,2.94-15.96,10.87-17.91,7.93-1.94,15.95,2.92,17.89,10.86,11.54,47.07,54.64,61.11,96.16,53.65,11.59-2.08,23.14-5.79,34-10.97-7.29-6.68-13.52-14.25-18.43-22.7-11.34-19.56-15.99-43.98-10.01-73.72,9.6-47.63,56.31-61.64,88.07-44.47,20.53,11.09,36.28,35.4,29.57,73.81-4.43,25.41-17.45,47.52-35.41,65.09,6.2,2.28,12.72,4.16,19.43,5.66,50,11.21,111.31,1.69,144.21-25.43,9.39-7.74,18.81-18.89,26.48-30.49-25.61-3.67-54.88-12.56-71.39-33.96Zm-165.33,48.64c-8.14-14.05-10.88-31.66-6.59-53.01,4.98-24.66,28.51-33.15,44.98-24.26,11.62,6.29,18.25,20.9,14.43,42.67-3.93,22.47-16.65,41.35-33.83,55.58-7.75-5.83-14.23-12.78-19-20.98Zm243.64-43.62c-19.07-2.46-42.38-6.94-54.85-23.09-11.22-14.57-14.87-27.7-12.44-38.84,2.7-12.31,12.54-21.39,24.12-26.35,11.98-5.14,26.14-6,37.6-.27,14.5,7.25,22.98,24.91,19.87,54.63-1.21,11.67-2.98,23.56-6.76,34.73-2.47-.21-4.99-.47-7.54-.8Z"/>
        </g>
      </g>
    </pattern>
  </defs>
  <g id="Layer_2-2" data-name="Layer 2">
    <rect class="cls-1" y="0" width="9072.21" height="3469.55"/>
  </g>
</svg>