<?xml version="1.0" encoding="UTF-8"?>
<svg id="Layer_2" data-name="Layer 2" xmlns="http://www.w3.org/2000/svg" viewBox="0 0 3974.07 1436.81">
  <defs>
    <style>
      .cls-1 {
        fill: #0f111a;
        stroke-width: 0px;
      }
    </style>
  </defs>
  <g id="_Layer_" data-name=" Layer ">
    <polygon class="cls-1" points="4.26 1434.62 4.71 1434.88 3.3 1435.69 3.3 1436.25 2.81 1435.97 1.4 1435.16 .91 1434.88 1.4 1434.6 1.4 1432.97 2.81 1433.78 3.3 1434.07 4.26 1434.62"/>
    <polygon class="cls-1" points="252.34 1434.62 252.78 1434.88 251.38 1435.69 251.38 1436.26 250.88 1435.98 249.48 1435.17 248.98 1434.88 248.53 1434.62 127.34 1364.65 126.79 1364.33 125.44 1363.55 124.9 1363.24 3.3 1293.04 2.7 1292.69 1.4 1291.94 .79 1291.59 1.4 1291.24 1.4 1289.74 2.7 1290.49 3.3 1290.84 4.6 1291.59 125.44 1361.35 126.8 1362.14 127.34 1362.45 128.7 1363.23 249.48 1432.97 250.89 1433.78 251.38 1434.07 252.34 1434.62"/>
    <polygon class="cls-1" points="500.42 1434.62 500.87 1434.88 499.47 1435.69 499.47 1436.27 498.97 1435.98 497.57 1435.17 497.06 1434.88 496.61 1434.62 375.43 1364.66 374.87 1364.33 373.53 1363.56 372.97 1363.24 251.38 1293.04 250.78 1292.69 249.48 1291.94 248.89 1291.6 127.34 1221.42 126.69 1221.04 125.44 1220.32 124.78 1219.95 3.3 1149.81 2.59 1149.4 1.4 1148.71 .69 1148.3 1.4 1147.89 1.4 1146.51 2.59 1147.2 3.3 1147.61 4.49 1148.3 125.44 1218.13 126.69 1218.85 127.34 1219.22 128.59 1219.94 249.48 1289.74 250.79 1290.5 251.38 1290.84 252.69 1291.59 373.53 1361.36 374.88 1362.14 375.43 1362.46 376.77 1363.23 497.57 1432.97 498.97 1433.78 499.47 1434.07 500.42 1434.62"/>
    <polygon class="cls-1" points="748.48 1434.62 748.95 1434.89 747.55 1435.69 747.55 1436.27 747.05 1435.98 745.65 1435.17 745.15 1434.88 744.69 1434.62 623.51 1364.66 622.96 1364.34 622.95 1364.34 621.61 1363.56 621.05 1363.24 499.47 1293.04 498.86 1292.69 497.57 1291.94 496.96 1291.59 375.43 1221.43 374.77 1221.05 373.53 1220.33 372.88 1219.95 251.38 1149.81 250.68 1149.4 249.48 1148.71 248.77 1148.3 127.34 1078.19 126.58 1077.75 125.44 1077.1 124.68 1076.66 3.3 1006.58 2.49 1006.11 1.4 1005.48 .59 1005.01 1.4 1004.54 1.4 1003.29 2.48 1003.92 3.3 1004.39 4.38 1005.01 125.44 1074.91 126.57 1075.56 127.34 1076 128.48 1076.66 249.48 1146.52 250.67 1147.21 251.38 1147.62 252.57 1148.31 373.53 1218.14 374.77 1218.86 375.43 1219.24 376.67 1219.95 497.57 1289.76 498.86 1290.5 499.47 1290.85 500.75 1291.59 500.76 1291.59 621.61 1361.37 622.95 1362.14 623.51 1362.47 624.85 1363.24 745.65 1432.98 747.04 1433.79 747.55 1434.08 748.48 1434.62"/>
    <polygon class="cls-1" points="996.62 1434.62 997.05 1434.87 995.64 1435.69 995.64 1436.25 995.15 1435.97 993.74 1435.16 993.25 1434.88 992.81 1434.62 871.6 1364.64 871.06 1364.33 869.7 1363.54 869.16 1363.23 747.55 1293.02 746.96 1292.68 745.65 1291.92 745.06 1291.58 623.51 1221.41 622.87 1221.03 621.61 1220.31 620.97 1219.94 499.47 1149.79 498.78 1149.39 497.57 1148.69 496.88 1148.3 375.43 1078.18 374.68 1077.75 373.53 1077.08 372.78 1076.65 251.38 1006.56 250.59 1006.1 249.48 1005.46 248.69 1005 127.34 934.94 126.49 934.45 125.44 933.84 124.6 933.36 3.3 863.33 2.4 862.81 1.4 862.23 .5 861.71 1.4 861.19 1.4 860.03 2.4 860.61 3.3 861.13 4.31 861.71 125.44 931.65 126.5 932.26 127.34 932.74 128.4 933.35 249.48 1003.26 250.59 1003.9 251.38 1004.36 252.49 1005 373.53 1074.88 374.69 1075.55 375.43 1075.98 376.59 1076.65 497.57 1146.5 498.79 1147.2 499.47 1147.59 500.69 1148.29 621.61 1218.11 622.87 1218.84 623.51 1219.21 624.77 1219.94 745.65 1289.72 746.97 1290.48 747.55 1290.82 748.87 1291.58 869.7 1361.34 871.06 1362.13 871.6 1362.44 872.96 1363.23 993.74 1432.96 995.16 1433.78 995.64 1434.06 996.62 1434.62"/>
    <polygon class="cls-1" points="1244.68 1434.62 1245.13 1434.88 1243.72 1435.7 1243.72 1436.26 1243.23 1435.98 1241.82 1435.17 1241.33 1434.89 1240.87 1434.62 1119.68 1364.65 1119.13 1364.33 1117.78 1363.55 1117.24 1363.24 995.64 1293.04 995.04 1292.69 993.74 1291.94 993.14 1291.59 871.6 1221.42 870.95 1221.04 869.7 1220.32 869.04 1219.95 747.55 1149.8 746.85 1149.4 745.65 1148.7 744.95 1148.3 623.51 1078.19 622.76 1077.76 621.61 1077.09 620.87 1076.66 499.47 1006.57 498.67 1006.11 497.57 1005.47 496.77 1005.01 375.43 934.96 374.57 934.46 373.53 933.86 372.67 933.36 251.38 863.34 250.48 862.82 249.48 862.24 248.58 861.72 127.34 791.72 126.38 791.17 125.44 790.63 124.48 790.07 3.3 720.11 2.29 719.52 1.4 719.01 .39 718.43 1.4 717.84 1.4 716.81 2.29 717.33 3.3 717.91 4.19 718.42 125.44 788.43 126.38 788.97 127.34 789.52 128.29 790.07 249.48 860.04 250.48 860.62 251.38 861.14 252.38 861.72 373.53 931.66 374.57 932.26 375.43 932.76 376.47 933.36 497.57 1003.28 498.67 1003.91 499.47 1004.37 500.57 1005.01 621.61 1074.89 622.77 1075.56 623.51 1075.99 624.67 1076.66 745.65 1146.51 746.86 1147.2 747.55 1147.6 748.75 1148.3 869.7 1218.13 870.95 1218.85 871.6 1219.22 872.85 1219.94 993.74 1289.74 995.04 1290.49 995.64 1290.84 996.94 1291.59 1117.78 1361.35 1119.14 1362.14 1119.68 1362.45 1121.04 1363.23 1241.82 1432.97 1243.23 1433.79 1243.72 1434.07 1244.68 1434.62"/>
    <polygon class="cls-1" points="1492.76 1434.62 1493.22 1434.88 1491.81 1435.7 1491.81 1436.26 1491.32 1435.98 1489.91 1435.16 1489.42 1434.88 1488.97 1434.62 1367.77 1364.65 1367.23 1364.33 1365.87 1363.55 1365.33 1363.24 1243.72 1293.03 1243.13 1292.69 1241.82 1291.93 1241.23 1291.59 1119.68 1221.41 1119.04 1221.04 1117.78 1220.31 1117.14 1219.94 995.64 1149.8 994.94 1149.4 993.74 1148.7 993.04 1148.3 871.6 1078.18 870.85 1077.75 869.7 1077.09 868.95 1076.65 747.55 1006.56 746.76 1006.11 745.65 1005.46 744.86 1005.01 623.51 934.95 622.66 934.46 621.61 933.85 620.76 933.36 499.47 863.33 498.57 862.81 497.57 862.24 496.67 861.72 375.43 791.72 374.47 791.17 373.53 790.62 372.58 790.07 251.38 720.1 250.38 719.52 249.48 719 248.48 718.42 127.34 648.48 126.29 647.88 125.44 647.39 124.39 646.78 3.3 576.87 2.19 576.23 1.4 575.77 .29 575.13 1.4 574.49 1.4 573.58 2.19 574.04 3.3 574.68 4.09 575.13 125.44 645.2 126.28 645.68 127.34 646.3 128.18 646.78 249.48 716.81 250.37 717.33 251.38 717.91 252.28 718.43 373.53 788.43 374.47 788.98 375.43 789.53 376.37 790.07 497.57 860.05 498.56 860.62 499.47 861.14 500.46 861.72 621.61 931.66 622.66 932.27 623.51 932.76 624.56 933.36 745.65 1003.28 746.76 1003.92 747.55 1004.37 748.66 1005.01 869.7 1074.9 870.85 1075.56 871.6 1075.99 872.74 1076.65 993.74 1146.51 994.94 1147.2 995.64 1147.61 996.84 1148.3 1117.78 1218.13 1119.03 1218.85 1119.68 1219.22 1120.93 1219.95 1241.82 1289.74 1243.13 1290.5 1243.72 1290.84 1245.03 1291.59 1365.87 1361.36 1367.22 1362.14 1367.77 1362.46 1369.12 1363.24 1489.91 1432.97 1491.31 1433.79 1491.32 1433.79 1491.81 1434.07 1492.76 1434.62"/>
    <polygon class="cls-1" points="1740.84 1434.62 1741.3 1434.89 1739.89 1435.7 1739.89 1436.27 1739.4 1435.99 1739.39 1435.99 1737.99 1435.17 1737.5 1434.89 1737.03 1434.62 1615.85 1364.66 1615.3 1364.34 1613.95 1363.56 1613.4 1363.24 1491.81 1293.04 1491.21 1292.69 1489.91 1291.94 1489.31 1291.6 1367.77 1221.43 1367.11 1221.05 1365.87 1220.33 1365.22 1219.95 1243.72 1149.81 1243.02 1149.4 1241.82 1148.71 1241.12 1148.31 1119.68 1078.19 1118.93 1077.76 1118.92 1077.76 1117.78 1077.1 1117.02 1076.66 995.64 1006.58 994.83 1006.11 993.74 1005.48 992.93 1005.01 871.6 934.96 870.74 934.47 869.7 933.87 868.85 933.37 747.55 863.34 746.65 862.82 745.65 862.25 744.75 861.72 623.51 791.73 622.55 791.17 621.61 790.63 620.65 790.08 499.47 720.11 498.46 719.53 497.57 719.02 496.56 718.43 375.43 648.5 374.36 647.88 373.53 647.4 372.46 646.79 251.38 576.88 250.27 576.24 249.48 575.78 248.37 575.14 127.34 505.26 126.17 504.59 125.44 504.17 124.28 503.5 3.3 433.65 2.08 432.95 1.4 432.55 .18 431.85 1.4 431.14 1.4 430.35 2.08 430.75 3.3 431.45 3.98 431.85 125.44 501.97 126.18 502.4 127.34 503.07 128.08 503.49 249.48 573.58 250.27 574.04 251.38 574.68 252.17 575.14 373.53 645.2 374.36 645.69 375.43 646.3 376.27 646.78 497.57 716.82 498.46 717.33 499.47 717.92 500.36 718.43 621.61 788.43 622.55 788.98 623.51 789.53 624.45 790.07 745.65 860.05 746.65 860.62 747.55 861.14 748.55 861.72 869.7 931.67 870.75 932.27 871.6 932.76 872.65 933.37 993.74 1003.28 994.84 1003.91 995.64 1004.38 996.73 1005.01 1117.78 1074.9 1118.93 1075.56 1119.68 1075.99 1120.83 1076.66 1241.82 1146.51 1243.02 1147.21 1243.72 1147.61 1244.92 1148.3 1365.87 1218.13 1367.12 1218.85 1367.77 1219.23 1369.02 1219.95 1489.91 1289.75 1491.21 1290.5 1491.81 1290.84 1493.11 1291.59 1613.95 1361.36 1615.31 1362.14 1615.85 1362.46 1617.21 1363.24 1737.99 1432.97 1739.4 1433.79 1739.89 1434.07 1740.84 1434.62"/>
    <polygon class="cls-1" points="1988.96 1434.62 1989.4 1434.88 1987.98 1435.7 1987.98 1436.25 1987.5 1435.98 1986.08 1435.16 1985.6 1434.88 1985.15 1434.62 1863.94 1364.64 1863.4 1364.33 1862.04 1363.54 1861.51 1363.24 1739.89 1293.02 1739.31 1292.69 1737.99 1291.92 1737.41 1291.59 1615.85 1221.41 1615.22 1221.04 1613.95 1220.31 1613.32 1219.94 1491.81 1149.79 1491.12 1149.39 1489.91 1148.69 1489.22 1148.3 1367.77 1078.18 1367.03 1077.75 1365.87 1077.08 1365.13 1076.65 1243.72 1006.56 1242.93 1006.1 1241.82 1005.46 1241.03 1005.01 1119.68 934.94 1118.84 934.46 1117.78 933.84 1116.94 933.36 995.64 863.33 994.75 862.82 993.74 862.23 992.85 861.72 871.6 791.71 870.65 791.17 869.7 790.62 868.75 790.07 747.55 720.09 746.56 719.52 745.65 719 744.66 718.42 623.51 648.48 622.47 647.87 621.61 647.38 620.57 646.78 499.47 576.86 498.37 576.23 497.57 575.77 496.47 575.13 375.43 505.25 374.28 504.58 373.53 504.15 372.38 503.49 251.38 433.63 250.18 432.94 249.48 432.53 248.28 431.84 127.34 362.01 126.09 361.29 125.44 360.92 124.19 360.19 3.3 290.4 2 289.65 1.4 289.3 .1 288.55 1.4 287.8 1.4 287.1 2 287.45 3.3 288.2 3.91 288.55 125.44 358.72 126.09 359.09 127.34 359.82 127.99 360.19 249.48 430.33 250.19 430.74 251.38 431.43 252.08 431.84 373.53 501.95 374.28 502.39 375.43 503.05 376.18 503.48 497.57 573.57 498.37 574.03 499.47 574.67 500.28 575.13 621.61 645.18 622.47 645.68 623.51 646.28 624.37 646.77 745.65 716.8 746.56 717.32 747.55 717.89 748.46 718.42 869.7 788.42 870.66 788.97 871.6 789.51 872.56 790.07 993.74 860.03 994.76 860.62 995.64 861.13 996.66 861.72 1117.78 931.65 1118.84 932.26 1119.68 932.74 1120.74 933.36 1241.82 1003.26 1242.93 1003.91 1242.94 1003.91 1243.72 1004.36 1244.84 1005 1365.87 1074.88 1367.03 1075.55 1367.77 1075.98 1368.93 1076.65 1489.91 1146.5 1491.13 1147.2 1491.81 1147.59 1493.03 1148.29 1613.95 1218.11 1615.22 1218.84 1615.23 1218.84 1615.85 1219.21 1617.12 1219.94 1737.99 1289.72 1739.31 1290.49 1739.89 1290.82 1741.22 1291.59 1862.04 1361.34 1863.41 1362.14 1863.94 1362.44 1865.31 1363.23 1986.08 1432.96 1987.51 1433.78 1987.98 1434.06 1988.96 1434.62"/>
    <polygon class="cls-1" points="2237.02 1434.62 2237.48 1434.88 2236.06 1435.7 2236.06 1436.25 2235.58 1435.98 2234.16 1435.16 2233.68 1434.88 2233.23 1434.62 2112.02 1364.64 2111.49 1364.33 2110.12 1363.54 2109.59 1363.24 1987.98 1293.03 1987.4 1292.69 1986.08 1291.93 1985.5 1291.59 1863.94 1221.41 1863.3 1221.04 1862.04 1220.31 1861.4 1219.95 1739.89 1149.79 1739.21 1149.4 1737.99 1148.69 1737.31 1148.3 1615.85 1078.18 1615.11 1077.75 1613.95 1077.08 1613.22 1076.65 1613.21 1076.65 1491.81 1006.56 1491.02 1006.11 1489.91 1005.46 1489.12 1005.01 1367.77 934.95 1366.92 934.46 1365.87 933.85 1365.02 933.36 1243.72 863.33 1242.83 862.81 1241.82 862.23 1240.93 861.72 1119.68 791.71 1118.74 791.17 1117.78 790.62 1116.85 790.08 1116.84 790.08 995.64 720.1 994.64 719.52 993.74 719 992.75 718.43 992.74 718.43 871.6 648.48 870.55 647.88 869.7 647.39 868.65 646.78 747.55 576.86 746.46 576.23 745.65 575.77 744.55 575.13 623.51 505.25 622.36 504.59 621.61 504.15 620.46 503.49 499.47 433.63 498.27 432.94 497.57 432.54 496.37 431.84 375.43 362.02 374.17 361.29 373.53 360.92 372.27 360.2 251.38 290.4 250.08 289.65 249.48 289.3 248.18 288.55 127.34 218.79 125.99 218.01 125.44 217.69 124.09 216.91 3.3 147.17 1.9 146.36 1.4 146.07 0 145.26 1.4 144.46 1.4 143.89 1.89 144.17 3.3 144.98 3.79 145.27 125.44 215.5 125.98 215.81 127.34 216.6 127.89 216.91 249.48 287.11 250.07 287.46 251.38 288.21 251.97 288.55 373.53 358.73 374.17 359.1 375.43 359.83 376.07 360.2 497.57 430.35 498.26 430.75 499.47 431.45 500.16 431.84 621.61 501.96 622.35 502.39 623.51 503.06 624.26 503.49 745.65 573.58 746.45 574.04 747.55 574.68 748.35 575.14 869.7 645.2 870.54 645.69 870.55 645.69 871.6 646.3 872.44 646.78 993.74 716.81 994.64 717.33 995.64 717.91 996.54 718.43 1117.78 788.43 1118.74 788.98 1119.68 789.52 1120.64 790.08 1241.82 860.04 1242.82 860.62 1243.72 861.14 1244.72 861.72 1365.87 931.66 1366.92 932.27 1367.77 932.76 1368.82 933.36 1489.91 1003.28 1491.01 1003.91 1491.81 1004.37 1492.91 1005.01 1613.95 1074.89 1615.11 1075.56 1615.85 1075.99 1617 1076.66 1617.01 1076.66 1737.99 1146.51 1739.2 1147.21 1739.89 1147.6 1741.1 1148.3 1862.04 1218.13 1863.3 1218.85 1863.94 1219.22 1865.2 1219.95 1986.08 1289.74 1987.39 1290.5 1987.98 1290.84 1989.29 1291.59 2110.12 1361.35 2111.49 1362.14 2112.02 1362.45 2113.38 1363.24 2234.16 1432.97 2235.57 1433.79 2235.58 1433.79 2236.06 1434.07 2237.02 1434.62"/>
    <polygon class="cls-1" points="2485.1 1434.62 2485.56 1434.89 2484.15 1435.7 2484.15 1436.26 2483.67 1435.98 2482.25 1435.16 2481.77 1434.88 2481.31 1434.62 2360.1 1364.64 2359.57 1364.34 2358.2 1363.54 2357.67 1363.24 2236.06 1293.03 2235.48 1292.69 2234.16 1291.93 2233.58 1291.6 2112.02 1221.41 2111.39 1221.04 2110.12 1220.31 2109.49 1219.95 1987.98 1149.8 1987.29 1149.4 1986.08 1148.7 1985.39 1148.3 1863.94 1078.18 1863.2 1077.75 1862.04 1077.09 1861.3 1076.66 1739.89 1006.56 1739.1 1006.11 1737.99 1005.46 1737.2 1005.01 1615.85 934.95 1615.01 934.46 1613.95 933.85 1613.11 933.37 1491.81 863.33 1490.91 862.82 1489.91 862.24 1489.01 861.72 1367.77 791.72 1366.82 791.17 1365.87 790.62 1364.92 790.07 1243.72 720.1 1242.73 719.53 1241.82 719 1240.83 718.43 1119.68 648.48 1118.63 647.88 1117.78 647.39 1116.74 646.78 1116.73 646.78 995.64 576.87 994.54 576.23 993.74 575.77 992.64 575.14 871.6 505.25 870.45 504.59 869.7 504.16 868.54 503.49 747.55 433.63 746.35 432.94 745.65 432.54 744.45 431.84 623.51 362.02 622.26 361.3 621.61 360.92 620.36 360.2 499.47 290.41 498.16 289.65 497.57 289.31 496.26 288.55 375.43 218.79 374.07 218.01 373.53 217.69 372.17 216.91 251.38 147.17 249.98 146.36 249.48 146.07 248.08 145.27 127.34 75.56 125.89 74.72 125.88 74.72 125.44 74.46 123.99 73.62 3.3 3.94 1.4 2.84 1.4 .66 3.3 1.75 7.09 3.94 125.44 72.27 125.88 72.53 127.34 73.37 127.78 73.62 249.48 143.89 249.97 144.17 251.38 144.98 251.88 145.27 373.53 215.51 374.06 215.81 375.43 216.6 375.96 216.91 497.57 287.12 498.16 287.46 499.47 288.22 500.05 288.55 500.06 288.55 621.61 358.73 622.25 359.11 622.26 359.11 623.51 359.83 624.15 360.2 745.65 430.35 746.34 430.75 747.55 431.45 748.25 431.85 869.7 501.97 870.44 502.4 871.6 503.07 872.34 503.49 993.74 573.58 994.53 574.04 995.64 574.68 996.43 575.14 1117.78 645.2 1118.63 645.69 1119.68 646.3 1120.52 646.78 1120.53 646.78 1241.82 716.81 1242.73 717.34 1243.72 717.91 1244.63 718.43 1365.87 788.43 1366.81 788.98 1367.77 789.53 1368.71 790.08 1368.72 790.08 1489.91 860.05 1490.91 860.62 1491.81 861.14 1492.81 861.72 1613.95 931.66 1615 932.27 1615.85 932.76 1616.9 933.37 1737.99 1003.28 1739.1 1003.92 1739.89 1004.37 1741 1005.01 1862.04 1074.9 1863.19 1075.56 1863.94 1075.99 1865.09 1076.66 1986.08 1146.51 1987.29 1147.21 1987.98 1147.61 1989.18 1148.31 1989.19 1148.31 2110.12 1218.13 2111.38 1218.85 2111.39 1218.85 2112.02 1219.22 2113.28 1219.95 2234.16 1289.74 2235.48 1290.5 2236.06 1290.84 2237.37 1291.6 2358.2 1361.35 2359.57 1362.14 2360.1 1362.45 2361.47 1363.24 2482.25 1432.97 2483.66 1433.79 2484.15 1434.07 2485.1 1434.62"/>
    <polygon class="cls-1" points="2733.18 1434.62 2733.64 1434.89 2732.23 1435.71 2732.23 1436.27 2731.74 1435.99 2730.33 1435.17 2729.85 1434.89 2729.84 1434.89 2729.37 1434.62 2608.19 1364.66 2607.65 1364.34 2606.29 1363.56 2605.75 1363.25 2484.15 1293.04 2483.55 1292.7 2482.25 1291.94 2481.65 1291.6 2360.1 1221.42 2359.46 1221.05 2358.2 1220.32 2357.56 1219.96 2236.06 1149.81 2235.37 1149.41 2234.16 1148.71 2233.47 1148.31 2112.02 1078.19 2111.27 1077.76 2110.12 1077.1 2109.38 1076.66 2109.37 1076.66 1987.98 1006.58 1987.18 1006.12 1986.08 1005.48 1985.28 1005.02 1863.94 934.96 1863.08 934.47 1862.04 933.87 1861.19 933.37 1739.89 863.34 1738.99 862.82 1737.99 862.25 1737.09 861.73 1615.85 791.73 1613.95 790.63 1613 790.08 1491.81 720.11 1490.8 719.53 1489.91 719.02 1488.9 718.43 1367.77 648.5 1366.72 647.89 1365.87 647.4 1364.82 646.79 1364.81 646.79 1243.72 576.88 1242.61 576.24 1241.82 575.78 1240.72 575.15 1119.68 505.26 1118.52 504.59 1117.78 504.17 1116.62 503.5 995.64 433.65 994.43 432.95 993.74 432.55 992.53 431.85 871.6 362.04 870.33 361.3 869.7 360.94 868.43 360.21 747.55 290.42 746.24 289.66 745.65 289.32 744.34 288.56 623.51 218.8 622.14 218.01 621.61 217.7 620.25 216.92 499.47 147.19 498.05 146.37 497.57 146.09 496.15 145.27 375.43 75.57 373.97 74.73 373.96 74.73 373.53 74.48 372.06 73.63 251.38 3.95 251.36 3.94 249.87 3.08 249.48 2.85 247.97 1.98 249.48 1.11 249.48 .66 249.87 .88 251.38 1.75 251.77 1.98 255.17 3.94 373.53 72.28 373.96 72.53 375.43 73.37 375.87 73.63 497.57 143.89 498.05 144.17 499.47 144.99 499.95 145.27 621.61 215.51 622.15 215.82 623.51 216.6 624.04 216.91 745.65 287.12 746.24 287.46 747.55 288.22 748.14 288.56 869.7 358.74 870.33 359.11 870.34 359.11 871.6 359.84 872.24 360.21 993.74 430.35 994.43 430.75 995.64 431.45 996.33 431.85 1117.78 501.97 1118.53 502.4 1119.68 503.07 1120.42 503.5 1120.43 503.5 1241.82 573.58 1242.62 574.05 1243.72 574.68 1244.52 575.14 1365.87 645.2 1366.72 645.69 1367.77 646.3 1368.62 646.79 1489.91 716.82 1490.8 717.34 1490.81 717.34 1491.81 717.92 1492.7 718.43 1613.95 788.43 1615.85 789.53 1616.8 790.08 1737.99 860.05 1738.99 860.63 1739.89 861.14 1740.89 861.72 1740.9 861.72 1862.04 931.67 1863.09 932.27 1863.94 932.76 1864.99 933.37 1986.08 1003.28 1987.18 1003.92 1987.98 1004.38 1989.08 1005.02 2110.12 1074.9 2111.28 1075.56 2112.02 1075.99 2113.18 1076.66 2234.16 1146.51 2235.37 1147.21 2236.06 1147.61 2237.27 1148.31 2358.2 1218.13 2359.47 1218.86 2360.1 1219.22 2361.36 1219.95 2482.25 1289.75 2483.56 1290.5 2484.15 1290.84 2485.46 1291.6 2606.29 1361.36 2607.65 1362.15 2608.19 1362.46 2609.55 1363.24 2609.56 1363.24 2730.33 1432.97 2731.75 1433.79 2732.23 1434.07 2733.18 1434.62"/>
    <polygon class="cls-1" points="2981.29 1434.62 2981.74 1434.88 2980.32 1435.71 2980.32 1436.26 2979.84 1435.98 2978.42 1435.16 2977.94 1434.89 2977.48 1434.62 2856.28 1364.65 2855.74 1364.34 2854.38 1363.55 2853.85 1363.24 2732.23 1293.03 2731.65 1292.69 2730.33 1291.93 2729.75 1291.59 2608.19 1221.41 2607.56 1221.05 2606.29 1220.31 2605.66 1219.95 2484.15 1149.8 2483.47 1149.4 2482.25 1148.7 2481.57 1148.31 2360.1 1078.18 2359.37 1077.76 2358.2 1077.08 2357.47 1076.66 2236.06 1006.56 2235.28 1006.11 2234.16 1005.46 2233.38 1005.01 2112.02 934.95 2111.18 934.46 2110.12 933.85 2109.28 933.37 1987.98 863.33 1987.09 862.82 1986.08 862.24 1985.19 861.72 1863.94 791.72 1862.04 790.62 1861.09 790.08 1739.89 720.1 1738.9 719.53 1737.99 719 1737 718.43 1615.85 648.48 1614.81 647.88 1613.95 647.39 1612.91 646.78 1612.9 646.78 1491.81 576.87 1490.72 576.24 1489.91 575.77 1488.82 575.14 1367.77 505.25 1366.62 504.59 1365.87 504.16 1364.72 503.49 1243.72 433.63 1242.52 432.94 1241.82 432.54 1240.63 431.85 1119.68 362.02 1118.43 361.3 1117.78 360.92 1116.53 360.2 995.64 290.41 994.34 289.65 993.74 289.31 992.43 288.55 871.6 218.79 870.24 218.01 869.7 217.69 868.34 216.91 747.55 147.17 746.15 146.36 745.65 146.07 744.25 145.26 623.51 75.56 622.06 74.72 622.05 74.72 621.61 74.46 620.15 73.62 499.47 3.94 497.97 3.07 497.96 3.07 497.57 2.84 496.07 1.98 497.57 1.11 497.57 .65 497.97 .88 499.47 1.74 499.87 1.97 503.27 3.94 621.61 72.26 622.05 72.52 623.51 73.36 623.96 73.62 745.65 143.88 746.15 144.17 746.16 144.17 747.55 144.97 748.05 145.26 869.7 215.5 870.25 215.81 871.6 216.59 872.14 216.91 993.74 287.11 994.34 287.46 995.64 288.21 996.24 288.55 1117.78 358.72 1118.43 359.1 1119.68 359.82 1120.33 360.2 1241.82 430.34 1242.53 430.75 1243.72 431.44 1244.42 431.84 1244.43 431.84 1365.87 501.96 1366.62 502.39 1367.77 503.06 1368.52 503.49 1489.91 573.57 1490.72 574.04 1491.81 574.67 1492.62 575.14 1613.95 645.19 1614.81 645.68 1615.85 646.29 1616.71 646.78 1737.99 716.8 1738.9 717.33 1739.89 717.9 1740.8 718.43 1862.04 788.42 1863 788.98 1863.94 789.52 1864.9 790.07 1986.08 860.04 1987.09 860.62 1987.98 861.13 1988.99 861.72 2110.12 931.65 2111.19 932.27 2112.02 932.75 2113.09 933.36 2234.16 1003.27 2235.28 1003.91 2236.06 1004.36 2237.18 1005.01 2358.2 1074.88 2359.38 1075.56 2360.1 1075.98 2361.27 1076.66 2482.25 1146.5 2483.47 1147.21 2484.15 1147.6 2485.37 1148.3 2606.29 1218.12 2607.56 1218.85 2608.19 1219.21 2609.46 1219.95 2730.33 1289.73 2731.65 1290.49 2731.66 1290.49 2732.23 1290.83 2733.56 1291.59 2854.38 1361.35 2855.75 1362.14 2856.28 1362.45 2857.65 1363.24 2978.42 1432.96 2979.85 1433.79 2980.32 1434.06 2981.29 1434.62"/>
    <polygon class="cls-1" points="3229.36 1434.62 3229.83 1434.89 3228.4 1435.71 3228.4 1436.25 3227.93 1435.98 3226.5 1435.16 3226.03 1434.89 3225.57 1434.62 3104.36 1364.64 3103.83 1364.34 3102.46 1363.54 3101.94 1363.24 2980.32 1293.03 2979.74 1292.69 2978.42 1291.93 2977.84 1291.6 2856.28 1221.41 2855.65 1221.05 2854.38 1220.31 2853.75 1219.95 2732.23 1149.79 2731.55 1149.4 2730.33 1148.69 2729.65 1148.3 2608.19 1078.18 2607.46 1077.76 2606.29 1077.08 2605.56 1076.66 2484.15 1006.56 2483.37 1006.11 2482.25 1005.46 2481.47 1005.01 2360.1 934.94 2359.27 934.46 2358.2 933.84 2357.37 933.37 2236.06 863.33 2235.18 862.82 2234.16 862.23 2233.28 861.72 2112.02 791.71 2111.08 791.17 2110.12 790.62 2109.18 790.08 1987.98 720.1 1986.99 719.53 1986.08 719 1985.09 718.43 1863.94 648.48 1862.89 647.88 1862.04 647.39 1861 646.78 1739.89 576.86 1738.8 576.23 1737.99 575.77 1736.9 575.14 1615.85 505.25 1614.71 504.59 1613.95 504.15 1612.82 503.5 1612.81 503.5 1491.81 433.63 1490.61 432.94 1489.91 432.54 1488.72 431.85 1367.77 362.02 1366.52 361.3 1365.87 360.92 1364.62 360.2 1243.72 290.4 1242.43 289.65 1241.82 289.3 1240.52 288.55 1119.68 218.79 1118.33 218.01 1117.78 217.69 1116.43 216.91 995.64 147.17 994.24 146.36 993.74 146.07 992.34 145.26 871.6 75.56 870.14 74.71 869.7 74.46 868.24 73.62 747.56 3.94 747.55 3.94 746.05 3.07 745.65 2.84 744.15 1.97 745.65 1.1 745.65 .65 746.04 .88 747.55 1.75 747.94 1.97 751.35 3.94 869.7 72.27 870.14 72.52 871.6 73.37 872.03 73.62 993.74 143.89 994.23 144.17 995.64 144.98 996.13 145.27 1117.78 215.5 1118.32 215.81 1119.68 216.6 1120.23 216.91 1241.82 287.11 1242.42 287.46 1243.72 288.21 1244.32 288.56 1365.87 358.73 1366.52 359.11 1367.77 359.83 1368.41 360.2 1489.91 430.35 1490.61 430.75 1491.81 431.45 1492.51 431.85 1613.95 501.96 1614.71 502.4 1615.85 503.06 1616.61 503.5 1737.99 573.58 1738.79 574.04 1739.89 574.68 1740.69 575.14 1862.04 645.2 1862.89 645.69 1863.94 646.3 1864.79 646.78 1986.08 716.81 1986.98 717.33 1987.98 717.91 1988.88 718.43 2110.12 788.43 2111.08 788.98 2112.02 789.52 2112.98 790.08 2234.16 860.04 2235.17 860.63 2236.06 861.14 2237.07 861.72 2358.2 931.66 2359.27 932.27 2360.1 932.75 2361.17 933.37 2482.25 1003.28 2483.36 1003.92 2484.15 1004.37 2485.26 1005.01 2606.29 1074.89 2607.45 1075.57 2607.46 1075.57 2608.19 1075.99 2609.36 1076.66 2730.33 1146.51 2731.55 1147.21 2732.23 1147.6 2733.44 1148.31 2733.45 1148.31 2854.38 1218.13 2855.64 1218.85 2856.28 1219.22 2857.54 1219.95 2978.42 1289.74 2979.74 1290.5 2980.32 1290.84 2981.63 1291.6 3102.46 1361.35 3103.83 1362.15 3104.36 1362.45 3105.73 1363.24 3226.5 1432.97 3227.92 1433.79 3228.4 1434.07 3229.36 1434.62"/>
    <polygon class="cls-1" points="3477.46 1434.62 3477.92 1434.89 3476.49 1435.71 3476.49 1436.26 3476.02 1435.99 3474.59 1435.16 3474.11 1434.89 3473.65 1434.62 3352.44 1364.64 3351.92 1364.34 3350.54 1363.54 3350.02 1363.24 3228.4 1293.03 3227.83 1292.69 3226.5 1291.93 3225.93 1291.6 3104.36 1221.41 3103.73 1221.05 3102.46 1220.31 3101.83 1219.95 2980.32 1149.8 2979.64 1149.4 2978.42 1148.7 2977.74 1148.31 2977.73 1148.31 2856.28 1078.18 2855.54 1077.76 2854.38 1077.09 2853.64 1076.66 2732.23 1006.56 2731.45 1006.11 2730.33 1005.46 2729.55 1005.02 2608.19 934.95 2607.36 934.47 2607.35 934.47 2606.29 933.85 2605.46 933.37 2484.15 863.33 2483.26 862.82 2482.25 862.24 2481.36 861.72 2360.1 791.71 2359.17 791.17 2358.2 790.62 2357.27 790.08 2236.06 720.1 2235.07 719.53 2234.16 719 2233.17 718.43 2112.02 648.48 2110.98 647.88 2110.12 647.39 2109.08 646.79 1987.98 576.87 1986.88 576.24 1986.08 575.77 1984.99 575.14 1863.94 505.25 1862.79 504.59 1862.04 504.16 1860.89 503.49 1739.89 433.63 1738.7 432.95 1737.99 432.54 1736.8 431.85 1615.85 362.02 1614.6 361.3 1613.95 360.92 1612.71 360.2 1612.7 360.2 1491.81 290.41 1490.51 289.65 1489.91 289.31 1488.61 288.56 1367.77 218.79 1366.42 218.01 1365.87 217.69 1364.51 216.91 1243.72 147.17 1242.32 146.36 1241.82 146.07 1240.42 145.27 1119.68 75.56 1118.23 74.72 1118.22 74.72 1117.78 74.46 1116.33 73.62 995.64 3.94 994.13 3.07 993.74 2.84 992.24 1.98 993.74 1.11 993.74 .65 994.14 .88 995.64 1.74 996.03 1.97 999.44 3.94 1117.78 72.26 1118.23 72.52 1119.68 73.36 1120.13 73.62 1241.82 143.88 1242.32 144.17 1242.33 144.17 1243.72 144.97 1244.22 145.26 1244.23 145.26 1365.87 215.5 1366.42 215.81 1367.77 216.59 1368.32 216.91 1489.91 287.11 1490.51 287.46 1491.81 288.21 1492.41 288.55 1613.95 358.72 1614.61 359.11 1615.85 359.82 1616.51 360.2 1737.99 430.34 1738.71 430.75 1739.89 431.44 1740.61 431.85 1862.04 501.96 1862.79 502.39 1863.94 503.06 1864.69 503.49 1986.08 573.57 1986.89 574.04 1987.98 574.67 1988.79 575.14 2110.12 645.19 2110.98 645.69 2112.02 646.29 2112.88 646.78 2234.16 716.8 2235.08 717.33 2236.06 717.9 2236.98 718.43 2358.2 788.42 2359.17 788.98 2360.1 789.51 2361.07 790.08 2482.25 860.04 2483.27 860.62 2484.15 861.13 2485.17 861.72 2606.29 931.65 2607.36 932.27 2608.19 932.75 2609.26 933.37 2730.33 1003.27 2731.46 1003.92 2732.23 1004.36 2733.35 1005.01 2854.38 1074.89 2855.55 1075.56 2856.28 1075.98 2857.45 1076.66 2978.42 1146.5 2979.64 1147.21 2980.32 1147.6 2981.54 1148.3 3102.46 1218.12 3103.74 1218.85 3104.36 1219.21 3105.63 1219.95 3226.5 1289.73 3227.83 1290.5 3228.4 1290.83 3229.73 1291.59 3350.54 1361.34 3351.92 1362.14 3352.44 1362.44 3353.83 1363.24 3474.59 1432.96 3476.02 1433.79 3476.49 1434.06 3477.46 1434.62"/>
    <polygon class="cls-1" points="3725.52 1434.62 3725.99 1434.89 3724.57 1435.71 3724.57 1436.27 3724.09 1435.99 3722.67 1435.17 3722.19 1434.9 3721.71 1434.62 3600.53 1364.66 3600 1364.35 3598.63 1363.56 3598.1 1363.25 3476.49 1293.04 3475.9 1292.7 3474.59 1291.94 3474 1291.6 3352.44 1221.42 3351.81 1221.06 3351.8 1221.06 3350.54 1220.32 3349.91 1219.96 3228.4 1149.81 3227.71 1149.41 3226.5 1148.71 3225.82 1148.31 3225.81 1148.31 3104.36 1078.19 3103.62 1077.76 3102.46 1077.1 3101.72 1076.67 2980.32 1006.58 2979.52 1006.12 2978.42 1005.48 2977.62 1005.02 2856.28 934.96 2855.43 934.47 2854.38 933.87 2853.53 933.38 2732.23 863.34 2731.34 862.83 2730.33 862.25 2729.44 861.73 2608.19 791.73 2606.29 790.63 2605.34 790.09 2484.15 720.11 2483.15 719.54 2482.25 719.02 2481.25 718.44 2360.1 648.49 2359.06 647.89 2358.2 647.4 2357.16 646.79 2236.06 576.88 2234.96 576.24 2234.16 575.78 2233.06 575.15 2112.02 505.26 2110.86 504.6 2110.12 504.17 2108.97 503.5 1987.98 433.65 1986.77 432.95 1986.08 432.55 1984.87 431.86 1863.94 362.04 1862.69 361.31 1862.04 360.94 1860.78 360.21 1739.89 290.42 1738.58 289.66 1737.99 289.32 1736.69 288.57 1615.85 218.8 1614.49 218.02 1613.95 217.7 1612.59 216.92 1491.81 147.19 1490.4 146.37 1489.91 146.09 1488.5 145.27 1367.77 75.57 1366.31 74.73 1366.3 74.73 1365.87 74.48 1364.4 73.63 1243.72 3.95 1243.7 3.94 1242.21 3.08 1241.82 2.85 1240.31 1.98 1241.82 1.11 1241.82 .66 1242.21 .88 1243.72 1.75 1244.11 1.98 1247.51 3.94 1365.87 72.28 1366.3 72.53 1367.77 73.37 1368.21 73.63 1489.91 143.89 1490.4 144.17 1491.81 144.99 1492.3 145.27 1613.95 215.51 1614.5 215.82 1615.85 216.6 1616.39 216.92 1737.99 287.12 1738.59 287.47 1739.89 288.22 1740.49 288.56 1862.04 358.74 1862.69 359.11 1863.94 359.84 1864.59 360.21 1986.08 430.35 1986.77 430.76 1986.78 430.76 1987.98 431.45 1988.67 431.85 1988.68 431.85 2110.12 501.97 2110.87 502.4 2112.02 503.07 2112.77 503.5 2234.16 573.58 2234.96 574.05 2236.06 574.68 2236.86 575.14 2358.2 645.2 2359.06 645.69 2360.1 646.3 2360.96 646.79 2482.25 716.82 2483.15 717.34 2484.15 717.92 2485.05 718.44 2606.29 788.43 2607.25 788.99 2608.19 789.53 2609.15 790.08 2730.33 860.05 2731.34 860.63 2732.23 861.14 2733.24 861.73 2854.38 931.67 2855.44 932.28 2856.28 932.76 2857.34 933.37 2978.42 1003.28 2979.53 1003.92 2980.32 1004.38 2981.43 1005.02 3102.46 1074.9 3103.62 1075.57 3104.36 1075.99 3105.52 1076.66 3105.53 1076.66 3226.5 1146.51 3227.72 1147.21 3228.4 1147.61 3229.62 1148.31 3350.54 1218.13 3351.81 1218.86 3352.44 1219.22 3353.71 1219.96 3474.59 1289.75 3475.9 1290.5 3475.91 1290.5 3476.49 1290.84 3477.81 1291.6 3598.63 1361.36 3600 1362.15 3600.53 1362.46 3601.9 1363.25 3722.67 1432.97 3724.1 1433.8 3724.57 1434.07 3725.52 1434.62"/>
    <polygon class="cls-1" points="3974.07 1434.89 3972.66 1435.7 3972.66 1436.26 3972.18 1435.98 3970.76 1435.16 3970.28 1434.89 3969.81 1434.62 3969.81 1434.61 3848.61 1364.64 3848.09 1364.34 3846.71 1363.54 3846.2 1363.25 3724.57 1293.03 3724 1292.7 3722.67 1291.93 3722.1 1291.6 3600.53 1221.41 3599.91 1221.05 3598.63 1220.31 3598 1219.95 3476.49 1149.8 3475.81 1149.4 3474.59 1148.7 3473.91 1148.31 3352.44 1078.18 3351.72 1077.76 3350.54 1077.08 3349.82 1076.66 3228.4 1006.56 3227.62 1006.11 3226.5 1005.46 3225.72 1005.02 3104.36 934.95 3103.53 934.47 3102.46 933.85 3101.63 933.37 2980.32 863.33 2979.44 862.82 2978.42 862.24 2977.54 861.73 2856.28 791.72 2855.34 791.18 2854.38 790.62 2853.44 790.08 2732.23 720.1 2731.25 719.53 2730.33 719 2729.35 718.43 2608.19 648.48 2607.15 647.89 2606.29 647.39 2605.25 646.79 2484.15 576.87 2483.06 576.24 2482.25 575.77 2481.16 575.14 2360.1 505.25 2358.96 504.59 2358.2 504.15 2357.07 503.5 2236.06 433.63 2234.87 432.95 2234.16 432.54 2232.97 431.85 2112.02 362.02 2110.78 361.3 2110.12 360.92 2108.87 360.2 1987.98 290.41 1986.69 289.66 1986.08 289.31 1984.79 288.56 1863.94 218.79 1862.59 218.01 1862.04 217.69 1860.69 216.92 1739.89 147.17 1738.49 146.36 1737.99 146.07 1736.6 145.27 1615.85 75.56 1614.4 74.72 1613.95 74.46 1612.5 73.62 1491.81 3.94 1490.31 3.07 1490.3 3.07 1489.91 2.84 1488.41 1.98 1489.91 1.11 1489.91 .66 1490.3 .88 1491.81 1.75 1492.2 1.98 1495.6 3.94 1613.95 72.27 1614.39 72.53 1615.85 73.37 1616.3 73.63 1737.99 143.89 1738.49 144.17 1739.89 144.98 1740.39 145.27 1862.04 215.51 1862.59 215.82 1863.94 216.6 1864.48 216.92 1986.08 287.12 1986.68 287.47 1987.98 288.22 1988.58 288.57 1988.59 288.57 2110.12 358.73 2110.77 359.11 2112.02 359.83 2112.67 360.21 2234.16 430.35 2234.87 430.76 2236.06 431.45 2236.76 431.85 2358.2 501.96 2358.96 502.4 2360.1 503.06 2360.86 503.5 2482.25 573.58 2483.05 574.05 2484.15 574.68 2484.95 575.14 2606.29 645.2 2607.15 645.69 2608.19 646.3 2609.05 646.79 2730.33 716.81 2731.24 717.34 2732.23 717.91 2733.14 718.44 2854.38 788.43 2855.33 788.99 2855.34 788.99 2856.28 789.53 2857.24 790.08 2978.42 860.05 2979.43 860.63 2980.32 861.14 2981.33 861.73 3102.46 931.66 3103.52 932.28 3104.36 932.76 3105.42 933.37 3226.5 1003.28 3227.62 1003.92 3228.4 1004.37 3229.52 1005.02 3350.54 1074.89 3351.71 1075.57 3352.44 1075.99 3353.61 1076.66 3474.59 1146.51 3475.81 1147.21 3476.49 1147.61 3477.71 1148.31 3598.63 1218.13 3599.9 1218.86 3600.53 1219.22 3601.8 1219.96 3722.67 1289.74 3723.99 1290.5 3724 1290.5 3724.57 1290.84 3725.9 1291.6 3846.71 1361.35 3848.09 1362.15 3848.61 1362.45 3849.99 1363.25 3969.81 1432.43 3970.76 1432.97 3972.18 1433.79 3972.66 1434.07 3974.07 1434.89"/>
    <polygon class="cls-1" points="3972.66 1290.84 3973.98 1291.6 3972.66 1292.36 3972.66 1293.03 3972.09 1292.7 3972.08 1292.7 3970.76 1291.93 3970.19 1291.6 3969.81 1291.38 3848.61 1221.41 3848 1221.05 3846.71 1220.31 3846.09 1219.95 3724.57 1149.79 3723.9 1149.41 3722.67 1148.69 3722 1148.31 3600.53 1078.18 3599.81 1077.76 3598.63 1077.08 3597.91 1076.66 3476.49 1006.56 3475.71 1006.11 3474.59 1005.46 3473.81 1005.02 3352.44 934.94 3351.62 934.47 3350.54 933.84 3349.72 933.37 3228.4 863.33 3227.52 862.82 3226.5 862.23 3225.62 861.72 3104.36 791.71 3103.43 791.18 3102.46 790.62 3101.53 790.08 2980.32 720.1 2979.34 719.53 2978.42 719 2977.44 718.43 2856.28 648.48 2855.24 647.88 2854.38 647.39 2853.34 646.79 2732.23 576.86 2731.15 576.24 2730.33 575.77 2729.25 575.14 2608.19 505.25 2607.05 504.59 2606.29 504.15 2605.15 503.5 2484.15 433.63 2482.96 432.95 2482.25 432.54 2481.06 431.85 2360.1 362.01 2358.86 361.3 2358.2 360.92 2356.97 360.2 2236.06 290.4 2234.77 289.66 2234.16 289.3 2232.87 288.56 2112.02 218.79 2110.69 218.01 2110.68 218.01 2110.12 217.69 2108.78 216.92 1987.98 147.17 1986.58 146.36 1986.08 146.07 1984.69 145.27 1863.94 75.56 1862.49 74.72 1862.04 74.46 1860.59 73.62 1739.9 3.94 1739.89 3.94 1738.4 3.07 1738.39 3.07 1737.99 2.84 1736.5 1.98 1737.99 1.11 1737.99 .65 1738.39 .88 1739.89 1.75 1740.29 1.98 1743.69 3.94 1862.04 72.27 1862.49 72.53 1863.94 73.37 1864.38 73.62 1986.08 143.89 1986.58 144.17 1987.98 144.98 1988.48 145.27 2110.12 215.5 2110.68 215.82 2112.02 216.6 2112.58 216.92 2234.16 287.11 2234.76 287.46 2236.06 288.21 2236.67 288.56 2358.2 358.73 2358.86 359.11 2360.1 359.83 2360.76 360.21 2482.25 430.35 2482.96 430.76 2484.15 431.45 2484.85 431.85 2606.29 501.96 2607.05 502.4 2608.19 503.06 2608.95 503.5 2730.33 573.58 2731.14 574.05 2732.23 574.68 2733.04 575.14 2854.38 645.2 2855.24 645.69 2856.28 646.3 2857.14 646.79 2978.42 716.81 2979.33 717.34 2980.32 717.91 2981.23 718.44 3102.46 788.43 3103.42 788.99 3103.43 788.99 3104.36 789.52 3105.33 790.08 3226.5 860.04 3227.52 860.63 3228.4 861.14 3229.42 861.73 3350.54 931.66 3351.61 932.28 3352.44 932.75 3353.51 933.37 3474.59 1003.28 3475.71 1003.92 3476.49 1004.37 3477.61 1005.02 3598.63 1074.89 3599.8 1075.57 3600.53 1075.99 3601.7 1076.66 3722.67 1146.51 3723.89 1147.21 3724.57 1147.6 3725.8 1148.31 3846.71 1218.12 3847.99 1218.86 3848.61 1219.22 3849.89 1219.96 3969.81 1289.19 3970.76 1289.74 3972.08 1290.51 3972.09 1290.51 3972.66 1290.84"/>
    <polygon class="cls-1" points="3972.66 1147.61 3973.88 1148.31 3972.66 1149.02 3972.66 1149.81 3971.98 1149.41 3970.76 1148.71 3970.08 1148.31 3969.81 1148.16 3848.61 1078.19 3847.88 1077.77 3846.71 1077.09 3845.98 1076.67 3724.57 1006.57 3723.79 1006.12 3722.67 1005.47 3721.89 1005.02 3600.53 934.96 3599.69 934.47 3598.63 933.86 3597.79 933.38 3476.49 863.34 3475.6 862.83 3474.59 862.25 3473.7 861.73 3352.44 791.72 3351.5 791.18 3350.54 790.63 3349.6 790.09 3228.4 720.11 3227.41 719.54 3226.5 719.01 3225.51 718.44 3104.36 648.49 3103.32 647.89 3102.46 647.4 3101.42 646.8 2980.32 576.88 2979.22 576.25 2978.42 575.78 2977.33 575.15 2856.28 505.26 2855.13 504.6 2854.38 504.17 2853.23 503.5 2732.23 433.64 2731.04 432.96 2730.33 432.55 2729.13 431.86 2608.19 362.03 2606.94 361.31 2606.29 360.93 2605.04 360.21 2484.15 290.42 2482.84 289.66 2482.25 289.32 2480.95 288.57 2360.1 218.8 2358.75 218.02 2358.2 217.7 2356.85 216.92 2236.06 147.18 2234.67 146.38 2234.16 146.08 2232.76 145.28 2112.02 75.57 2110.57 74.73 2110.56 74.73 2110.12 74.47 2108.67 73.63 1987.98 3.95 1987.96 3.94 1986.47 3.08 1986.08 2.85 1984.58 1.99 1986.08 1.11 1986.08 .66 1986.48 .89 1987.98 1.75 1988.37 1.98 1991.77 3.94 2110.12 72.27 2110.57 72.53 2112.02 73.37 2112.47 73.63 2234.16 143.89 2234.67 144.18 2236.06 144.98 2236.57 145.28 2358.2 215.5 2358.75 215.82 2360.1 216.6 2360.66 216.92 2482.25 287.12 2482.85 287.47 2484.15 288.22 2484.75 288.56 2606.29 358.73 2606.95 359.11 2608.19 359.83 2608.84 360.21 2730.33 430.35 2731.04 430.76 2732.23 431.45 2732.94 431.86 2854.38 501.97 2855.13 502.4 2856.28 503.07 2857.03 503.5 2978.42 573.58 2979.23 574.05 2980.32 574.68 2981.13 575.15 3102.46 645.2 3103.32 645.7 3104.36 646.3 3105.22 646.79 3226.5 716.81 3227.42 717.34 3228.4 717.91 3229.32 718.44 3350.54 788.43 3351.51 788.99 3352.44 789.52 3353.41 790.08 3474.59 860.05 3475.6 860.63 3476.49 861.14 3477.5 861.73 3598.63 931.66 3599.7 932.28 3600.53 932.76 3601.6 933.37 3722.67 1003.28 3723.79 1003.92 3724.57 1004.37 3725.69 1005.02 3846.71 1074.89 3847.88 1075.57 3848.61 1075.99 3849.79 1076.67 3969.81 1145.96 3970.76 1146.51 3971.98 1147.21 3972.66 1147.61"/>
    <polygon class="cls-1" points="3972.66 1004.38 3973.78 1005.02 3972.66 1005.67 3972.66 1006.58 3971.87 1006.12 3970.76 1005.48 3969.97 1005.03 3969.81 1004.93 3848.61 934.96 3847.78 934.48 3846.71 933.86 3845.88 933.38 3724.57 863.34 3723.68 862.83 3722.67 862.25 3721.79 861.73 3721.78 861.73 3600.53 791.73 3599.59 791.19 3598.63 790.63 3597.69 790.09 3476.49 720.11 3475.49 719.54 3474.59 719.02 3473.59 718.44 3352.44 648.49 3351.4 647.9 3350.54 647.4 3349.5 646.8 3228.4 576.88 3227.31 576.25 3226.5 575.78 3225.41 575.15 3104.36 505.26 3103.21 504.6 3102.46 504.17 3101.32 503.51 2980.32 433.65 2979.12 432.96 2978.42 432.55 2977.22 431.86 2856.28 362.04 2855.03 361.31 2854.38 360.94 2853.12 360.21 2732.23 290.42 2730.93 289.66 2730.33 289.32 2729.03 288.57 2608.19 218.8 2606.83 218.02 2606.29 217.7 2604.94 216.92 2484.15 147.19 2482.74 146.37 2482.25 146.09 2480.84 145.28 2360.1 75.57 2358.66 74.73 2358.2 74.47 2356.75 73.63 2236.06 3.95 2236.04 3.94 2234.55 3.08 2234.16 2.85 2232.66 1.99 2234.16 1.12 2234.16 .66 2234.56 .89 2236.06 1.75 2236.46 1.98 2239.85 3.94 2358.2 72.27 2358.66 72.54 2360.1 73.37 2360.56 73.63 2482.25 143.89 2482.74 144.18 2482.75 144.18 2484.15 144.99 2484.64 145.27 2484.65 145.27 2606.29 215.51 2606.84 215.82 2608.19 216.6 2608.74 216.92 2730.33 287.12 2730.94 287.47 2732.23 288.22 2732.83 288.57 2854.38 358.74 2855.03 359.11 2856.28 359.84 2856.93 360.21 2978.42 430.35 2979.12 430.76 2980.32 431.45 2981.02 431.86 3102.46 501.97 3103.22 502.41 3104.36 503.07 3105.12 503.5 3226.5 573.58 3227.31 574.05 3228.4 574.68 3229.21 575.15 3350.54 645.2 3351.41 645.7 3352.44 646.3 3353.3 646.8 3353.31 646.8 3474.59 716.82 3475.5 717.34 3476.49 717.92 3477.4 718.44 3598.63 788.43 3599.59 788.99 3600.53 789.53 3601.49 790.09 3722.67 860.05 3723.69 860.63 3724.57 861.14 3725.59 861.73 3846.71 931.66 3847.78 932.28 3848.61 932.76 3849.68 933.38 3969.81 1002.73 3970.76 1003.28 3971.87 1003.93 3972.66 1004.38"/>
    <polygon class="cls-1" points="3973.67 861.74 3972.66 862.32 3972.66 863.35 3971.76 862.84 3970.76 862.26 3969.86 861.74 3969.81 861.71 3848.61 791.73 3847.67 791.19 3846.71 790.64 3845.77 790.09 3724.57 720.12 3723.58 719.54 3722.67 719.02 3721.68 718.45 3600.53 648.5 3599.48 647.9 3598.63 647.41 3597.58 646.8 3476.49 576.89 3475.39 576.25 3474.59 575.79 3473.49 575.16 3352.44 505.27 3351.3 504.61 3350.54 504.17 3349.39 503.51 3228.4 433.65 3227.2 432.96 3226.5 432.56 3225.3 431.87 3104.36 362.04 3103.11 361.32 3102.46 360.94 3101.21 360.22 2980.32 290.43 2979.01 289.67 2978.42 289.33 2977.11 288.57 2856.28 218.81 2854.92 218.02 2854.38 217.71 2853.02 216.93 2732.23 147.19 2730.82 146.38 2730.33 146.09 2728.92 145.28 2608.19 75.58 2606.73 74.73 2606.29 74.48 2604.83 73.63 2604.82 73.63 2484.15 3.96 2484.11 3.94 2482.64 3.09 2482.25 2.86 2480.74 1.99 2482.25 1.12 2482.25 .67 2482.64 .89 2484.15 1.76 2484.55 1.99 2487.92 3.94 2606.29 72.28 2606.73 72.54 2608.19 73.38 2608.63 73.63 2730.33 143.9 2730.83 144.18 2732.23 144.99 2732.72 145.28 2854.38 215.52 2854.92 215.83 2856.28 216.61 2856.82 216.92 2978.42 287.13 2979.01 287.47 2980.32 288.23 2980.92 288.57 3102.46 358.74 3103.11 359.12 3104.36 359.84 3105.01 360.22 3226.5 430.36 3227.21 430.77 3228.4 431.46 3229.1 431.86 3350.54 501.97 3351.3 502.41 3352.44 503.07 3353.2 503.51 3474.59 573.59 3475.39 574.06 3476.49 574.69 3477.29 575.15 3477.3 575.15 3598.63 645.21 3599.48 645.7 3600.53 646.31 3601.38 646.8 3722.67 716.82 3723.58 717.35 3724.57 717.92 3725.48 718.44 3846.71 788.44 3847.67 788.99 3848.61 789.53 3849.57 790.09 3969.81 859.51 3970.76 860.06 3971.77 860.64 3972.66 861.15 3973.67 861.74"/>
    <polygon class="cls-1" points="3972.66 717.9 3973.59 718.43 3972.66 718.97 3972.66 720.1 3971.68 719.53 3970.76 719 3969.81 718.45 3969.78 718.44 3848.61 648.48 3847.59 647.89 3846.71 647.38 3845.69 646.79 3724.57 576.86 3723.49 576.24 3722.67 575.77 3721.59 575.15 3600.53 505.25 3599.4 504.6 3598.63 504.15 3597.5 503.5 3476.49 433.63 3475.31 432.95 3474.59 432.54 3473.41 431.85 3352.44 362.01 3351.21 361.31 3350.54 360.92 3349.31 360.21 3228.4 290.4 3227.12 289.66 3226.5 289.3 3225.22 288.56 3104.36 218.79 3103.03 218.01 3102.46 217.69 3101.12 216.92 2980.32 147.17 2978.93 146.37 2978.42 146.07 2977.03 145.27 2856.28 75.56 2854.83 74.72 2854.38 74.46 2852.94 73.63 2732.24 3.94 2732.23 3.94 2730.74 3.08 2730.33 2.84 2728.84 1.98 2730.33 1.12 2730.33 .64 2730.74 .88 2732.23 1.74 2732.65 1.98 2736.04 3.94 2854.38 72.26 2854.84 72.53 2856.28 73.36 2856.74 73.62 2978.42 143.88 2978.94 144.17 2980.32 144.97 2980.83 145.27 3102.46 215.49 3103.03 215.82 3104.36 216.59 3104.93 216.92 3226.5 287.1 3227.12 287.46 3228.4 288.2 3229.02 288.56 3350.54 358.72 3351.22 359.11 3352.44 359.82 3353.12 360.21 3474.59 430.34 3475.31 430.75 3476.49 431.44 3477.21 431.85 3598.63 501.95 3599.41 502.4 3600.53 503.05 3601.31 503.5 3722.67 573.57 3723.49 574.05 3723.5 574.05 3724.57 574.67 3725.4 575.14 3846.71 645.18 3847.59 645.69 3848.61 646.28 3849.49 646.79 3969.81 716.25 3970.76 716.8 3971.69 717.34 3972.66 717.9"/>
    <polygon class="cls-1" points="3972.66 574.68 3973.47 575.15 3972.66 575.62 3972.66 576.88 3971.57 576.25 3970.76 575.78 3969.81 575.23 3969.67 575.15 3848.61 505.26 3847.47 504.6 3846.71 504.16 3845.58 503.51 3724.57 433.64 3723.38 432.96 3722.67 432.55 3721.48 431.86 3600.53 362.03 3599.29 361.31 3598.63 360.93 3597.39 360.22 3476.49 290.42 3475.19 289.67 3474.59 289.32 3473.3 288.57 3352.44 218.8 3351.1 218.02 3350.54 217.7 3349.2 216.92 3228.4 147.18 3227.01 146.38 3226.5 146.08 3225.1 145.28 3104.36 75.57 3102.91 74.73 3102.46 74.47 3101.01 73.63 2980.32 3.95 2980.3 3.94 2978.81 3.08 2978.42 2.85 2976.92 1.99 2978.42 1.12 2978.42 .66 2978.82 .89 2980.32 1.75 2980.72 1.98 2984.11 3.94 3102.46 72.27 3102.92 72.53 3104.36 73.37 3104.81 73.63 3226.5 143.89 3227.01 144.18 3228.4 144.98 3228.91 145.28 3350.54 215.5 3351.1 215.82 3352.44 216.6 3353 216.92 3474.59 287.12 3475.2 287.47 3476.49 288.22 3477.1 288.57 3598.63 358.73 3599.29 359.12 3600.53 359.83 3601.19 360.21 3601.2 360.21 3722.67 430.35 3723.39 430.76 3724.57 431.45 3725.29 431.86 3846.71 501.96 3847.48 502.41 3848.61 503.06 3849.38 503.5 3969.81 573.04 3970.76 573.58 3971.57 574.05 3972.66 574.68"/>
    <polygon class="cls-1" points="3972.66 431.45 3973.37 431.86 3972.66 432.27 3972.66 433.64 3971.47 432.96 3970.76 432.55 3969.81 432 3969.57 431.86 3848.61 362.02 3847.38 361.31 3846.71 360.93 3845.48 360.22 3724.57 290.41 3723.28 289.67 3722.67 289.31 3721.38 288.57 3600.53 218.8 3599.19 218.02 3598.63 217.7 3597.29 216.93 3476.49 147.18 3475.1 146.38 3474.59 146.08 3473.19 145.28 3352.44 75.56 3351 74.73 3350.54 74.46 3349.1 73.63 3228.4 3.95 3228.4 3.94 3228.39 3.94 3226.9 3.08 3226.5 2.85 3225.01 1.99 3226.5 1.13 3226.5 .65 3226.91 .89 3228.4 1.75 3228.81 1.98 3232.2 3.94 3350.54 72.27 3351 72.53 3352.44 73.36 3352.91 73.63 3474.59 143.89 3475.1 144.18 3476.49 144.98 3477 145.28 3598.63 215.5 3599.19 215.83 3600.53 216.6 3601.09 216.92 3722.67 287.11 3723.29 287.47 3724.57 288.21 3725.19 288.57 3846.71 358.73 3847.38 359.12 3848.61 359.83 3849.28 360.21 3849.29 360.21 3969.81 429.8 3970.76 430.35 3971.47 430.76 3972.66 431.45"/>
    <polygon class="cls-1" points="3972.66 288.22 3973.27 288.57 3972.66 288.93 3972.66 290.42 3971.37 289.67 3971.36 289.67 3970.76 289.32 3969.81 288.78 3969.46 288.58 3848.61 218.8 3847.27 218.03 3846.71 217.7 3845.37 216.93 3724.57 147.19 3723.17 146.38 3722.67 146.09 3721.28 145.29 3600.53 75.57 3599.08 74.74 3598.63 74.48 3597.18 73.64 3476.49 3.96 3476.46 3.94 3474.99 3.09 3474.59 2.86 3473.08 1.99 3474.59 1.12 3474.59 .66 3474.99 .89 3476.49 1.76 3476.89 1.99 3480.27 3.94 3598.63 72.28 3599.08 72.54 3600.53 73.37 3600.99 73.64 3722.67 143.89 3723.18 144.19 3724.57 144.99 3725.08 145.28 3846.71 215.51 3847.27 215.83 3848.61 216.6 3849.17 216.93 3969.81 286.58 3970.76 287.13 3971.36 287.48 3971.37 287.48 3972.66 288.22"/>
    <polygon class="cls-1" points="3972.66 144.98 3973.17 145.28 3972.66 145.58 3972.66 147.17 3971.28 146.37 3970.76 146.07 3969.81 145.53 3969.38 145.28 3969.37 145.28 3848.61 75.55 3847.18 74.73 3846.71 74.45 3845.29 73.63 3724.58 3.94 3724.57 3.94 3723.09 3.08 3722.67 2.84 3721.19 1.98 3722.67 1.13 3722.67 .65 3723.08 .89 3724.57 1.75 3724.99 1.99 3728.37 3.94 3846.71 72.27 3847.18 72.54 3848.61 73.36 3849.08 73.63 3969.81 143.34 3970.76 143.89 3971.27 144.18 3972.66 144.98"/>
    <polygon class="cls-1" points="251.38 1.75 251.77 1.98 251.38 2.2 249.87 3.08 249.48 3.3 248.37 3.94 127.78 73.62 127.34 73.88 125.89 74.72 125.88 74.72 125.44 74.97 3.79 145.27 3.3 145.55 1.9 146.36 1.4 146.65 1.4 146.07 0 145.26 1.4 144.46 1.89 144.17 3.3 143.36 123.99 73.62 125.44 72.78 125.88 72.53 127.34 71.69 244.58 3.94 247.97 1.98 249.48 1.11 249.87 .88 251.38 .01 251.38 1.75"/>
    <polygon class="cls-1" points="499.47 1.74 499.87 1.97 499.47 2.21 497.97 3.07 497.96 3.07 497.57 3.3 496.47 3.94 375.87 73.63 375.43 73.88 373.97 74.73 373.96 74.73 373.53 74.98 251.88 145.27 251.38 145.56 249.98 146.36 249.48 146.65 127.89 216.91 127.34 217.23 125.99 218.01 125.44 218.33 3.91 288.55 3.3 288.9 2 289.65 1.4 290 1.4 289.3 .1 288.55 1.4 287.8 2 287.45 3.3 286.7 124.09 216.91 125.44 216.13 125.98 215.81 127.34 215.03 248.08 145.27 249.48 144.46 249.97 144.17 251.38 143.36 372.06 73.63 373.53 72.78 373.96 72.53 375.43 71.68 492.67 3.94 496.06 1.98 496.07 1.98 497.57 1.11 497.97 .88 499.47 .01 499.47 1.74"/>
    <polygon class="cls-1" points="747.55 1.75 747.94 1.97 747.55 2.2 746.05 3.07 745.65 3.3 744.54 3.94 623.96 73.62 623.51 73.87 622.06 74.72 622.05 74.72 621.61 74.97 499.95 145.27 499.47 145.55 498.05 146.37 497.57 146.64 375.96 216.91 375.43 217.22 374.07 218.01 373.53 218.32 251.97 288.55 251.38 288.9 250.08 289.65 249.48 289.99 127.99 360.19 127.34 360.57 126.09 361.29 125.44 361.67 3.98 431.85 3.3 432.24 2.08 432.95 1.4 433.34 1.4 432.55 .18 431.85 1.4 431.14 2.08 430.75 3.3 430.05 124.19 360.19 125.44 359.47 126.09 359.09 127.34 358.37 248.18 288.55 249.48 287.8 250.07 287.46 251.38 286.7 372.17 216.91 373.53 216.12 374.06 215.81 375.43 215.02 496.15 145.27 497.57 144.45 498.05 144.17 499.47 143.35 620.15 73.62 621.61 72.77 622.05 72.52 623.51 71.68 740.74 3.94 744.15 1.97 745.65 1.1 746.04 .88 747.55 0 747.55 1.75"/>
    <polygon class="cls-1" points="995.64 1.74 996.03 1.97 995.64 2.2 994.13 3.07 993.74 3.29 992.62 3.94 872.03 73.62 871.6 73.87 870.14 74.71 869.7 74.97 748.05 145.26 747.55 145.55 746.15 146.36 745.65 146.65 624.04 216.91 623.51 217.22 622.14 218.01 621.61 218.32 500.06 288.55 500.05 288.55 499.47 288.89 498.16 289.65 497.57 289.99 376.07 360.2 375.43 360.57 374.17 361.29 373.53 361.66 252.08 431.84 251.38 432.24 250.18 432.94 249.48 433.34 128.08 503.49 127.34 503.92 126.17 504.59 125.44 505.01 4.09 575.13 3.3 575.59 2.19 576.23 1.4 576.69 1.4 575.77 .29 575.13 1.4 574.49 2.19 574.04 3.3 573.4 124.28 503.5 125.44 502.82 126.18 502.4 127.34 501.72 248.28 431.84 249.48 431.15 250.19 430.74 251.38 430.05 372.27 360.2 373.53 359.47 374.17 359.1 375.43 358.37 496.26 288.55 497.57 287.8 498.16 287.46 499.47 286.7 620.25 216.92 621.61 216.13 622.15 215.82 623.51 215.03 744.25 145.26 745.65 144.46 746.15 144.17 746.16 144.17 747.55 143.36 868.24 73.62 869.7 72.78 870.14 72.52 871.6 71.68 988.83 3.94 992.23 1.98 992.24 1.98 993.74 1.11 994.14 .88 995.64 .01 995.64 1.74"/>
    <polygon class="cls-1" points="1243.72 1.75 1244.11 1.98 1243.72 2.2 1242.21 3.08 1241.82 3.3 1240.71 3.94 1120.13 73.62 1119.68 73.88 1118.23 74.72 1118.22 74.72 1117.78 74.97 996.13 145.27 995.64 145.55 994.24 146.36 993.74 146.65 872.14 216.91 871.6 217.22 870.24 218.01 869.7 218.32 748.14 288.56 747.55 288.9 746.24 289.66 745.65 290 624.15 360.2 623.51 360.57 622.26 361.3 621.61 361.67 500.16 431.84 499.47 432.24 498.27 432.94 497.57 433.34 376.18 503.48 375.43 503.92 374.28 504.58 373.53 505.01 252.17 575.14 251.38 575.59 250.27 576.24 249.48 576.69 128.18 646.78 127.34 647.27 126.29 647.88 125.44 648.37 4.19 718.42 3.3 718.94 2.29 719.52 1.4 720.04 1.4 719.01 .39 718.43 1.4 717.84 2.29 717.33 3.3 716.74 124.39 646.78 125.44 646.17 126.28 645.68 127.34 645.07 248.37 575.14 249.48 574.5 250.27 574.04 251.38 573.4 372.38 503.49 373.53 502.82 374.28 502.39 375.43 501.72 496.37 431.84 497.57 431.15 498.26 430.75 499.47 430.05 620.36 360.2 621.61 359.48 622.25 359.11 622.26 359.11 623.51 358.38 744.34 288.56 745.65 287.8 746.24 287.46 747.55 286.71 868.34 216.91 869.7 216.13 870.25 215.81 871.6 215.03 992.34 145.26 993.74 144.45 994.23 144.17 995.64 143.36 1116.33 73.62 1117.78 72.78 1118.23 72.52 1119.68 71.68 1236.92 3.94 1240.31 1.98 1241.82 1.11 1242.21 .88 1243.72 .01 1243.72 1.75"/>
    <polygon class="cls-1" points="1491.81 1.75 1492.2 1.98 1491.81 2.21 1490.31 3.07 1490.3 3.07 1489.91 3.3 1488.81 3.94 1368.21 73.63 1367.77 73.88 1366.31 74.73 1366.3 74.73 1365.87 74.98 1244.23 145.26 1244.22 145.26 1243.72 145.56 1242.32 146.36 1241.82 146.65 1120.23 216.91 1119.68 217.23 1118.33 218.01 1117.78 218.33 996.24 288.55 995.64 288.9 994.34 289.65 993.74 290 872.24 360.21 871.6 360.57 870.33 361.3 869.7 361.67 748.25 431.85 747.55 432.25 746.35 432.94 745.65 433.35 624.26 503.49 623.51 503.92 622.36 504.59 621.61 505.02 500.28 575.13 499.47 575.6 498.37 576.23 497.57 576.69 376.27 646.78 375.43 647.27 374.36 647.88 373.53 648.37 252.28 718.43 251.38 718.95 250.38 719.52 249.48 720.04 128.29 790.07 127.34 790.62 126.38 791.17 125.44 791.72 4.31 861.71 3.3 862.29 2.4 862.81 1.4 863.39 1.4 862.23 .5 861.71 1.4 861.19 2.4 860.61 3.3 860.09 124.48 790.07 125.44 789.52 126.38 788.97 127.34 788.42 248.48 718.42 249.48 717.85 250.37 717.33 251.38 716.75 372.46 646.79 373.53 646.17 374.36 645.69 375.43 645.07 496.47 575.13 497.57 574.5 498.37 574.03 499.47 573.4 620.46 503.49 621.61 502.82 622.35 502.39 623.51 501.73 744.45 431.84 745.65 431.15 746.34 430.75 747.55 430.05 868.43 360.21 869.7 359.47 870.33 359.11 870.34 359.11 871.6 358.38 992.43 288.55 993.74 287.8 994.34 287.46 995.64 286.7 1116.43 216.91 1117.78 216.13 1118.32 215.81 1119.68 215.03 1240.42 145.27 1241.82 144.46 1242.32 144.17 1242.33 144.17 1243.72 143.36 1364.4 73.63 1365.87 72.78 1366.3 72.53 1367.77 71.68 1485 3.94 1488.4 1.98 1488.41 1.98 1489.91 1.11 1490.3 .88 1491.81 .01 1491.81 1.75"/>
    <polygon class="cls-1" points="1739.89 1.75 1740.29 1.98 1739.89 2.21 1738.4 3.07 1738.39 3.07 1737.99 3.31 1736.9 3.94 1616.3 73.63 1615.85 73.88 1614.4 74.72 1613.95 74.98 1492.3 145.27 1491.81 145.56 1490.4 146.37 1489.91 146.65 1368.32 216.91 1367.77 217.23 1366.42 218.01 1365.87 218.33 1244.32 288.56 1243.72 288.91 1242.43 289.65 1241.82 290 1120.33 360.2 1119.68 360.58 1118.43 361.3 1117.78 361.68 996.33 431.85 995.64 432.25 994.43 432.95 993.74 433.35 872.34 503.49 871.6 503.92 870.45 504.59 869.7 505.02 748.35 575.14 747.55 575.6 746.46 576.23 745.65 576.7 624.37 646.77 623.51 647.27 622.47 647.87 621.61 648.37 500.36 718.43 499.47 718.94 498.46 719.53 497.57 720.04 376.37 790.07 375.43 790.61 374.47 791.17 373.53 791.71 252.38 861.72 251.38 862.29 250.48 862.82 249.48 863.39 128.4 933.35 127.34 933.96 126.49 934.45 125.44 935.06 4.38 1005.01 3.3 1005.64 2.49 1006.11 1.4 1006.73 1.4 1005.48 .59 1005.01 1.4 1004.54 2.48 1003.92 3.3 1003.44 124.6 933.36 125.44 932.87 126.5 932.26 127.34 931.77 248.58 861.72 249.48 861.2 250.48 860.62 251.38 860.1 372.58 790.07 373.53 789.52 374.47 788.98 375.43 788.42 496.56 718.43 497.57 717.85 498.46 717.33 499.47 716.75 620.57 646.78 621.61 646.17 622.47 645.68 623.51 645.08 744.55 575.13 745.65 574.5 746.45 574.04 747.55 573.4 868.54 503.49 869.7 502.82 870.44 502.4 871.6 501.73 992.53 431.85 993.74 431.15 994.43 430.75 995.64 430.05 1116.53 360.2 1117.78 359.48 1118.43 359.1 1119.68 358.38 1240.52 288.55 1241.82 287.81 1242.42 287.46 1243.72 286.71 1364.51 216.91 1365.87 216.13 1366.42 215.81 1367.77 215.03 1488.5 145.27 1489.91 144.46 1490.4 144.17 1491.81 143.36 1612.5 73.62 1613.95 72.78 1614.39 72.53 1615.85 71.69 1733.09 3.94 1736.49 1.98 1736.5 1.98 1737.99 1.11 1738.39 .88 1739.89 .01 1739.89 1.75"/>
    <polygon class="cls-1" points="1987.98 1.75 1988.37 1.98 1987.98 2.21 1986.47 3.08 1986.08 3.3 1984.98 3.94 1864.38 73.62 1863.94 73.88 1862.49 74.72 1862.04 74.98 1740.39 145.27 1739.89 145.56 1738.49 146.36 1737.99 146.65 1616.39 216.92 1615.85 217.23 1614.49 218.02 1613.95 218.33 1492.41 288.55 1491.81 288.9 1490.51 289.65 1489.91 290 1368.41 360.2 1367.77 360.57 1366.52 361.3 1365.87 361.67 1244.43 431.84 1244.42 431.84 1243.72 432.25 1242.52 432.94 1241.82 433.35 1120.43 503.5 1120.42 503.5 1119.68 503.92 1118.52 504.59 1117.78 505.02 996.43 575.14 995.64 575.6 994.54 576.23 993.74 576.69 872.44 646.78 871.6 647.27 870.55 647.88 869.7 648.37 748.46 718.42 747.55 718.95 746.56 719.52 745.65 720.05 624.45 790.07 623.51 790.62 622.55 791.17 621.61 791.72 500.46 861.72 499.47 862.29 498.57 862.81 497.57 863.39 376.47 933.36 375.43 933.96 374.57 934.46 373.53 935.06 252.49 1005 251.38 1005.64 250.59 1006.1 249.48 1006.74 128.48 1076.66 127.34 1077.31 126.58 1077.75 125.44 1078.41 4.49 1148.3 3.3 1148.99 2.59 1149.4 1.4 1150.09 1.4 1148.71 .69 1148.3 1.4 1147.89 2.59 1147.2 3.3 1146.79 124.68 1076.66 125.44 1076.22 126.57 1075.56 127.34 1075.12 248.69 1005 249.48 1004.55 250.59 1003.9 251.38 1003.45 372.67 933.36 373.53 932.87 374.57 932.26 375.43 931.77 496.67 861.72 497.57 861.2 498.56 860.62 499.47 860.1 620.65 790.08 621.61 789.52 622.55 788.98 623.51 788.43 744.66 718.42 745.65 717.85 746.56 717.32 747.55 716.75 868.65 646.78 869.7 646.17 870.54 645.69 870.55 645.69 871.6 645.08 992.64 575.14 993.74 574.5 994.53 574.04 995.64 573.4 1116.62 503.5 1117.78 502.83 1118.53 502.4 1119.68 501.73 1240.63 431.85 1241.82 431.16 1242.53 430.75 1243.72 430.06 1364.62 360.2 1365.87 359.48 1366.52 359.11 1367.77 358.38 1488.61 288.56 1489.91 287.81 1490.51 287.46 1491.81 286.71 1612.59 216.92 1613.95 216.14 1614.5 215.82 1615.85 215.04 1736.6 145.27 1737.99 144.46 1738.49 144.17 1739.89 143.37 1860.59 73.62 1862.04 72.79 1862.49 72.53 1863.94 71.69 1981.19 3.94 1984.57 1.99 1984.58 1.99 1986.08 1.11 1986.48 .89 1987.98 .02 1987.98 1.75"/>
    <polygon class="cls-1" points="2236.06 1.75 2236.46 1.98 2236.06 2.21 2234.55 3.08 2234.16 3.31 2233.07 3.94 2112.47 73.63 2112.02 73.88 2110.57 74.73 2110.56 74.73 2110.12 74.98 1988.48 145.27 1987.98 145.56 1986.58 146.36 1986.08 146.65 1864.48 216.92 1863.94 217.23 1862.59 218.01 1862.04 218.33 1740.49 288.56 1739.89 288.91 1738.58 289.66 1737.99 290.01 1616.51 360.2 1615.85 360.58 1614.6 361.3 1613.95 361.68 1492.51 431.85 1491.81 432.25 1490.61 432.94 1489.91 433.35 1368.52 503.49 1367.77 503.92 1366.62 504.59 1365.87 505.02 1244.52 575.14 1243.72 575.6 1242.61 576.24 1241.82 576.7 1120.53 646.78 1120.52 646.78 1119.68 647.28 1118.63 647.88 1117.78 648.37 996.54 718.43 995.64 718.95 994.64 719.52 993.74 720.05 872.56 790.07 871.6 790.62 869.7 791.72 748.55 861.72 747.55 862.3 746.65 862.82 745.65 863.4 624.56 933.36 623.51 933.97 622.66 934.46 621.61 935.07 500.57 1005.01 499.47 1005.64 498.67 1006.11 497.57 1006.74 376.59 1076.65 375.43 1077.31 374.68 1077.75 373.53 1078.41 252.57 1148.31 251.38 1148.99 250.68 1149.4 249.48 1150.09 128.59 1219.94 127.34 1220.67 126.69 1221.04 125.44 1221.76 4.6 1291.59 3.3 1292.34 2.7 1292.69 1.4 1293.44 1.4 1291.94 .79 1291.59 1.4 1291.24 2.7 1290.49 3.3 1290.14 124.78 1219.95 125.44 1219.57 126.69 1218.85 127.34 1218.47 248.77 1148.3 249.48 1147.89 250.67 1147.21 251.38 1146.8 372.78 1076.65 373.53 1076.22 374.69 1075.55 375.43 1075.12 496.77 1005.01 497.57 1004.55 498.67 1003.91 499.47 1003.45 620.76 933.36 621.61 932.87 622.66 932.27 623.51 931.78 744.75 861.72 745.65 861.2 746.65 860.62 747.55 860.1 868.75 790.07 869.7 789.52 870.66 788.97 871.6 788.43 992.74 718.43 992.75 718.43 993.74 717.85 994.64 717.33 995.64 716.75 1116.73 646.78 1116.74 646.78 1117.78 646.18 1118.63 645.69 1119.68 645.08 1240.72 575.15 1241.82 574.51 1242.62 574.05 1243.72 573.41 1364.72 503.49 1365.87 502.83 1366.62 502.39 1367.77 501.73 1488.72 431.85 1489.91 431.16 1490.61 430.75 1491.81 430.06 1612.7 360.2 1612.71 360.2 1613.95 359.49 1614.61 359.11 1615.85 358.39 1736.69 288.57 1737.99 287.81 1738.59 287.47 1739.89 286.72 1860.69 216.92 1862.04 216.14 1862.59 215.82 1863.94 215.04 1984.69 145.27 1986.08 144.46 1986.58 144.17 1987.98 143.37 2108.67 73.63 2110.12 72.79 2110.57 72.53 2112.02 71.69 2229.28 3.94 2232.66 1.99 2234.16 1.12 2234.56 .89 2236.06 .02 2236.06 1.75"/>
    <polygon class="cls-1" points="2484.55 1.99 2484.15 2.22 2482.64 3.09 2482.25 3.32 2481.18 3.94 2360.56 73.63 2360.1 73.9 2358.66 74.73 2358.2 75 2236.57 145.28 2236.06 145.57 2234.67 146.38 2234.16 146.67 2112.58 216.92 2112.02 217.24 2110.69 218.01 2110.68 218.01 2110.12 218.34 1988.59 288.57 1988.58 288.57 1987.98 288.92 1986.69 289.66 1986.08 290.01 1864.59 360.21 1863.94 360.59 1862.69 361.31 1862.04 361.69 1740.61 431.85 1739.89 432.27 1738.7 432.95 1737.99 433.36 1616.61 503.5 1615.85 503.94 1614.71 504.59 1613.95 505.03 1492.62 575.14 1491.81 575.61 1490.72 576.24 1489.91 576.71 1368.62 646.79 1367.77 647.28 1366.72 647.89 1365.87 648.38 1244.63 718.43 1243.72 718.96 1242.73 719.53 1241.82 720.06 1120.64 790.08 1119.68 790.63 1118.74 791.17 1117.78 791.73 996.66 861.72 995.64 862.3 994.75 862.82 993.74 863.4 872.65 933.37 871.6 933.97 870.74 934.47 869.7 935.07 748.66 1005.01 747.55 1005.65 746.76 1006.11 745.65 1006.75 624.67 1076.66 623.51 1077.32 622.76 1077.76 621.61 1078.42 500.69 1148.29 499.47 1149 498.78 1149.39 497.57 1150.09 376.67 1219.95 375.43 1220.67 374.77 1221.05 373.53 1221.77 252.69 1291.59 251.38 1292.35 250.78 1292.69 249.48 1293.44 128.7 1363.23 127.34 1364.02 126.79 1364.33 125.44 1365.12 5.15 1434.62 4.71 1434.88 3.3 1435.69 2.81 1435.97 1.4 1436.79 1.4 1435.16 .91 1434.88 1.4 1434.6 2.81 1433.78 3.3 1433.5 124.9 1363.24 125.44 1362.92 126.8 1362.14 127.34 1361.83 248.89 1291.6 249.48 1291.25 250.79 1290.5 251.38 1290.15 372.88 1219.95 373.53 1219.57 374.77 1218.86 375.43 1218.48 496.88 1148.3 497.57 1147.9 498.79 1147.2 499.47 1146.8 620.87 1076.66 621.61 1076.23 622.77 1075.56 623.51 1075.13 744.86 1005.01 745.65 1004.56 746.76 1003.92 747.55 1003.46 868.85 933.37 869.7 932.88 870.75 932.27 871.6 931.78 992.85 861.72 993.74 861.21 994.76 860.62 995.64 860.11 1116.84 790.08 1116.85 790.08 1117.78 789.53 1118.74 788.98 1119.68 788.44 1240.83 718.43 1241.82 717.86 1242.73 717.34 1243.72 716.76 1364.81 646.79 1364.82 646.79 1365.87 646.18 1366.72 645.69 1367.77 645.09 1488.82 575.14 1489.91 574.51 1490.72 574.04 1491.81 573.41 1612.81 503.5 1612.82 503.5 1613.95 502.84 1614.71 502.4 1615.85 501.74 1736.8 431.85 1737.99 431.17 1738.71 430.75 1739.89 430.07 1860.78 360.21 1862.04 359.49 1862.69 359.11 1863.94 358.39 1984.79 288.56 1986.08 287.82 1986.68 287.47 1987.98 286.72 2108.78 216.92 2110.12 216.14 2110.68 215.82 2112.02 215.05 2232.76 145.28 2234.16 144.47 2234.67 144.18 2236.06 143.37 2356.75 73.63 2358.2 72.8 2358.66 72.54 2360.1 71.7 2477.37 3.94 2480.74 1.99 2482.25 1.12 2482.64 .89 2484.15 .02 2484.15 1.76 2484.55 1.99"/>
    <polygon class="cls-1" points="2732.65 1.98 2732.23 2.22 2730.74 3.08 2730.33 3.32 2729.25 3.94 2608.63 73.63 2608.19 73.89 2606.73 74.73 2606.29 74.99 2484.65 145.27 2484.64 145.27 2484.15 145.56 2482.74 146.37 2482.25 146.66 2360.66 216.92 2360.1 217.24 2358.75 218.02 2358.2 218.34 2236.67 288.56 2236.06 288.91 2234.77 289.66 2234.16 290.01 2112.67 360.21 2112.02 360.58 2110.78 361.3 2110.12 361.68 1988.68 431.85 1988.67 431.85 1987.98 432.26 1986.77 432.95 1986.08 433.35 1864.69 503.49 1863.94 503.93 1862.79 504.59 1862.04 505.02 1740.69 575.14 1739.89 575.6 1738.8 576.23 1737.99 576.7 1616.71 646.78 1615.85 647.28 1614.81 647.88 1613.95 648.37 1492.7 718.43 1491.81 718.95 1490.8 719.53 1489.91 720.05 1368.72 790.08 1368.71 790.08 1367.77 790.62 1366.82 791.17 1365.87 791.72 1244.72 861.72 1243.72 862.3 1242.83 862.81 1241.82 863.4 1120.74 933.36 1119.68 933.97 1118.84 934.46 1117.78 935.07 996.73 1005.01 995.64 1005.64 994.83 1006.11 993.74 1006.74 872.74 1076.65 871.6 1077.31 870.85 1077.75 869.7 1078.41 748.75 1148.3 747.55 1148.99 746.85 1149.4 745.65 1150.09 624.77 1219.94 623.51 1220.66 622.87 1221.03 621.61 1221.76 500.76 1291.59 500.75 1291.59 499.47 1292.34 498.86 1292.69 497.57 1293.43 376.77 1363.23 375.43 1364.01 374.87 1364.33 373.53 1365.11 253.22 1434.62 252.78 1434.88 251.38 1435.69 250.88 1435.98 249.48 1436.78 249.48 1435.17 248.98 1434.88 249.43 1434.62 249.48 1434.59 250.89 1433.78 251.38 1433.5 372.97 1363.24 373.53 1362.91 374.88 1362.14 375.43 1361.82 496.96 1291.59 497.57 1291.24 498.86 1290.5 499.47 1290.14 620.97 1219.94 621.61 1219.57 622.87 1218.84 623.51 1218.47 744.95 1148.3 745.65 1147.9 746.86 1147.2 747.55 1146.8 868.95 1076.65 869.7 1076.22 870.85 1075.56 871.6 1075.12 992.93 1005.01 993.74 1004.55 994.84 1003.91 995.64 1003.45 1116.94 933.36 1117.78 932.87 1118.84 932.26 1119.68 931.78 1240.93 861.72 1241.82 861.2 1242.82 860.62 1243.72 860.1 1364.92 790.07 1365.87 789.52 1366.81 788.98 1367.77 788.43 1488.9 718.43 1489.91 717.85 1490.8 717.34 1490.81 717.34 1491.81 716.75 1612.9 646.78 1612.91 646.78 1613.95 646.18 1614.81 645.68 1615.85 645.08 1736.9 575.14 1737.99 574.51 1738.79 574.04 1739.89 573.41 1860.89 503.49 1862.04 502.83 1862.79 502.39 1863.94 501.73 1984.87 431.86 1986.08 431.16 1986.77 430.76 1986.78 430.76 1987.98 430.06 2108.87 360.2 2110.12 359.48 2110.77 359.11 2112.02 358.39 2232.87 288.56 2234.16 287.81 2234.76 287.46 2236.06 286.71 2356.85 216.92 2358.2 216.14 2358.75 215.82 2360.1 215.04 2480.84 145.28 2482.25 144.46 2482.74 144.18 2482.75 144.18 2484.15 143.36 2604.82 73.63 2604.83 73.63 2606.29 72.79 2606.73 72.54 2608.19 71.69 2725.44 3.94 2728.84 1.98 2730.33 1.12 2730.74 .88 2732.23 .02 2732.23 1.74 2732.65 1.98"/>
    <polygon class="cls-1" points="2980.72 1.98 2980.32 2.21 2978.81 3.08 2978.42 3.31 2977.33 3.94 2856.74 73.62 2856.28 73.88 2854.83 74.72 2854.38 74.98 2732.72 145.28 2732.23 145.56 2730.82 146.38 2730.33 146.66 2608.74 216.92 2608.19 217.24 2606.83 218.02 2606.29 218.33 2484.75 288.56 2484.15 288.91 2482.84 289.66 2482.25 290.01 2360.76 360.21 2360.1 360.59 2358.86 361.3 2358.2 361.68 2236.76 431.85 2236.06 432.26 2234.87 432.95 2234.16 433.36 2112.77 503.5 2112.02 503.93 2110.86 504.6 2110.12 505.03 1988.79 575.14 1987.98 575.6 1986.88 576.24 1986.08 576.7 1864.79 646.78 1863.94 647.28 1862.89 647.88 1862.04 648.37 1740.8 718.43 1739.89 718.95 1738.9 719.53 1737.99 720.05 1616.8 790.08 1614.9 791.18 1613.95 791.72 1492.81 861.72 1491.81 862.3 1490.91 862.82 1489.91 863.4 1368.82 933.36 1367.77 933.97 1366.92 934.46 1365.87 935.07 1244.84 1005 1243.72 1005.65 1242.93 1006.1 1241.82 1006.75 1120.83 1076.66 1119.68 1077.32 1118.93 1077.76 1118.92 1077.76 1117.78 1078.42 996.84 1148.3 995.64 1148.99 994.94 1149.4 993.74 1150.09 872.85 1219.94 871.6 1220.67 870.95 1221.04 869.7 1221.76 748.87 1291.58 747.55 1292.34 746.96 1292.68 745.65 1293.44 624.85 1363.24 623.51 1364.02 622.96 1364.34 622.95 1364.34 621.61 1365.11 501.32 1434.62 500.87 1434.88 499.47 1435.69 498.97 1435.98 497.57 1436.79 497.57 1435.17 497.06 1434.88 497.52 1434.62 497.57 1434.59 498.97 1433.78 499.47 1433.49 621.05 1363.24 621.61 1362.92 622.95 1362.14 623.51 1361.82 745.06 1291.58 745.65 1291.24 746.97 1290.48 747.55 1290.15 869.04 1219.95 869.7 1219.57 870.95 1218.85 871.6 1218.47 993.04 1148.3 993.74 1147.89 994.94 1147.2 995.64 1146.8 1117.02 1076.66 1117.78 1076.22 1118.93 1075.56 1119.68 1075.13 1241.03 1005.01 1241.82 1004.55 1242.93 1003.91 1242.94 1003.91 1243.72 1003.45 1365.02 933.36 1365.87 932.87 1366.92 932.27 1367.77 931.78 1489.01 861.72 1489.91 861.2 1490.91 860.62 1491.81 860.1 1613 790.08 1613.95 789.53 1615.85 788.43 1737 718.43 1737.99 717.86 1738.9 717.33 1739.89 716.76 1861 646.78 1862.04 646.18 1862.89 645.69 1863.94 645.08 1984.99 575.14 1986.08 574.51 1986.89 574.04 1987.98 573.41 2108.97 503.5 2110.12 502.84 2110.87 502.4 2112.02 501.74 2232.97 431.85 2234.16 431.16 2234.87 430.76 2236.06 430.07 2356.97 360.2 2358.2 359.49 2358.86 359.11 2360.1 358.39 2480.95 288.57 2482.25 287.81 2482.85 287.47 2484.15 286.72 2604.94 216.92 2606.29 216.14 2606.84 215.82 2608.19 215.04 2728.92 145.28 2730.33 144.47 2730.83 144.18 2732.23 143.37 2852.94 73.63 2854.38 72.79 2854.84 72.53 2856.28 71.69 2973.54 3.94 2976.92 1.99 2978.42 1.12 2978.82 .89 2980.32 .02 2980.32 1.75 2980.72 1.98"/>
    <polygon class="cls-1" points="3228.81 1.98 3228.4 2.22 3226.9 3.08 3226.5 3.32 3225.42 3.94 3104.81 73.63 3104.36 73.89 3102.91 74.73 3102.46 74.99 2980.83 145.27 2980.32 145.56 2978.93 146.37 2978.42 146.66 2856.82 216.92 2856.28 217.24 2854.92 218.02 2854.38 218.33 2732.83 288.57 2732.23 288.91 2730.93 289.66 2730.33 290.01 2608.84 360.21 2608.19 360.59 2606.94 361.31 2606.29 361.68 2484.85 431.85 2484.15 432.26 2482.96 432.95 2482.25 433.36 2360.86 503.5 2360.1 503.94 2358.96 504.59 2358.2 505.03 2236.86 575.14 2236.06 575.61 2234.96 576.24 2234.16 576.71 2112.88 646.78 2112.02 647.28 2110.98 647.88 2110.12 648.38 1988.88 718.43 1987.98 718.95 1986.99 719.53 1986.08 720.05 1864.9 790.07 1863.94 790.63 1862.99 791.17 1862.04 791.72 1740.9 861.72 1740.89 861.72 1739.89 862.3 1738.99 862.82 1737.99 863.4 1616.9 933.37 1615.85 933.98 1615.01 934.46 1613.95 935.07 1492.91 1005.01 1491.81 1005.65 1491.02 1006.11 1489.91 1006.75 1368.93 1076.65 1367.77 1077.32 1367.03 1077.75 1365.87 1078.42 1244.92 1148.3 1243.72 1149 1243.02 1149.4 1241.82 1150.1 1120.93 1219.95 1119.68 1220.67 1119.04 1221.04 1117.78 1221.77 996.94 1291.59 995.64 1292.34 995.04 1292.69 993.74 1293.44 872.96 1363.23 871.6 1364.02 871.06 1364.33 869.7 1365.11 749.41 1434.62 748.95 1434.89 747.55 1435.69 747.05 1435.98 745.65 1436.79 745.65 1435.17 745.15 1434.88 745.61 1434.62 745.65 1434.59 747.04 1433.79 747.55 1433.5 869.16 1363.23 869.7 1362.92 871.06 1362.13 871.6 1361.82 993.14 1291.59 993.74 1291.24 995.04 1290.49 995.64 1290.15 1117.14 1219.94 1117.78 1219.57 1119.03 1218.85 1119.68 1218.47 1241.12 1148.31 1241.82 1147.9 1243.02 1147.21 1243.72 1146.8 1365.13 1076.65 1365.87 1076.22 1367.03 1075.55 1367.77 1075.13 1489.12 1005.01 1489.91 1004.55 1491.01 1003.91 1491.81 1003.45 1613.11 933.37 1613.95 932.88 1615 932.27 1615.85 931.78 1737.09 861.73 1737.99 861.21 1738.99 860.63 1739.89 860.11 1861.09 790.08 1862.04 789.53 1863 788.98 1863.94 788.43 1985.09 718.43 1986.08 717.86 1986.98 717.33 1987.98 716.76 2109.08 646.79 2110.12 646.19 2110.98 645.69 2112.02 645.09 2233.06 575.15 2234.16 574.51 2234.96 574.05 2236.06 573.42 2357.07 503.5 2358.2 502.84 2358.96 502.4 2360.1 501.74 2481.06 431.85 2482.25 431.16 2482.96 430.76 2484.15 430.07 2605.04 360.21 2606.29 359.49 2606.95 359.11 2608.19 358.39 2729.03 288.57 2730.33 287.82 2730.94 287.47 2732.23 286.72 2853.02 216.93 2854.38 216.14 2854.92 215.83 2856.28 215.04 2977.03 145.27 2978.42 144.47 2978.94 144.17 2980.32 143.37 3101.01 73.63 3102.46 72.8 3102.92 72.53 3104.36 71.7 3221.63 3.94 3225.01 1.99 3226.5 1.13 3226.91 .89 3228.4 .03 3228.4 1.75 3228.81 1.98"/>
    <polygon class="cls-1" points="3476.89 1.99 3476.49 2.22 3474.99 3.09 3474.59 3.32 3473.52 3.94 3352.91 73.63 3352.44 73.9 3351 74.73 3350.54 75 3228.91 145.28 3228.4 145.57 3227.01 146.38 3226.5 146.67 3104.93 216.92 3104.36 217.24 3103.03 218.01 3102.46 218.34 2980.92 288.57 2980.32 288.92 2979.01 289.67 2978.42 290.01 2856.93 360.21 2856.28 360.59 2855.03 361.31 2854.38 361.69 2732.94 431.86 2732.23 432.27 2731.04 432.96 2730.33 433.36 2608.95 503.5 2608.19 503.94 2607.05 504.59 2606.29 505.03 2484.95 575.14 2484.15 575.61 2483.06 576.24 2482.25 576.71 2360.96 646.79 2360.1 647.29 2359.06 647.89 2358.2 648.38 2236.98 718.43 2236.06 718.96 2235.07 719.53 2234.16 720.06 2112.98 790.08 2112.02 790.63 2111.08 791.17 2110.12 791.73 1988.99 861.72 1987.98 862.3 1987.09 862.82 1986.08 863.4 1864.99 933.37 1863.94 933.97 1863.08 934.47 1862.04 935.07 1741 1005.01 1739.89 1005.65 1739.1 1006.11 1737.99 1006.75 1617.01 1076.66 1617 1076.66 1615.85 1077.32 1615.11 1077.75 1613.95 1078.42 1493.03 1148.29 1491.81 1149 1491.12 1149.39 1489.91 1150.09 1369.02 1219.95 1367.77 1220.67 1367.11 1221.05 1365.87 1221.77 1245.03 1291.59 1243.72 1292.35 1243.13 1292.69 1241.82 1293.44 1121.04 1363.23 1119.68 1364.02 1119.13 1364.33 1117.78 1365.12 997.49 1434.62 997.05 1434.87 995.64 1435.69 995.15 1435.97 993.74 1436.79 993.74 1435.16 993.25 1434.88 993.7 1434.62 993.74 1434.6 995.16 1433.78 995.64 1433.5 1117.24 1363.24 1117.78 1362.92 1119.14 1362.14 1119.68 1361.83 1241.23 1291.59 1241.82 1291.25 1243.13 1290.5 1243.72 1290.15 1365.22 1219.95 1365.87 1219.57 1367.12 1218.85 1367.77 1218.48 1489.22 1148.3 1489.91 1147.9 1491.13 1147.2 1491.81 1146.8 1613.21 1076.65 1613.22 1076.65 1613.95 1076.23 1615.11 1075.56 1615.85 1075.13 1737.2 1005.01 1737.99 1004.56 1739.1 1003.92 1739.89 1003.46 1861.19 933.37 1862.04 932.88 1863.09 932.27 1863.94 931.78 1985.19 861.72 1986.08 861.21 1987.09 860.62 1987.98 860.11 2109.18 790.08 2110.12 789.53 2111.08 788.98 2112.02 788.44 2233.17 718.43 2234.16 717.86 2235.08 717.33 2236.06 716.76 2357.16 646.79 2358.2 646.19 2359.06 645.69 2360.1 645.09 2481.16 575.14 2482.25 574.51 2483.05 574.05 2484.15 573.41 2605.15 503.5 2606.29 502.84 2607.05 502.4 2608.19 501.74 2729.13 431.86 2730.33 431.17 2731.04 430.76 2732.23 430.07 2853.12 360.21 2854.38 359.49 2855.03 359.11 2856.28 358.39 2977.11 288.57 2978.42 287.82 2979.01 287.47 2980.32 286.72 3101.12 216.92 3102.46 216.14 3103.03 215.82 3104.36 215.05 3225.1 145.28 3226.5 144.47 3227.01 144.18 3228.4 143.37 3349.1 73.63 3350.54 72.8 3351 72.53 3352.44 71.7 3469.71 3.94 3473.08 1.99 3474.59 1.12 3474.99 .89 3476.49 .02 3476.49 1.76 3476.89 1.99"/>
    <polygon class="cls-1" points="3724.99 1.99 3724.57 2.23 3723.09 3.08 3722.67 3.33 3721.61 3.94 3600.99 73.64 3600.53 73.9 3599.08 74.74 3598.63 75 3477 145.28 3476.49 145.57 3475.1 146.38 3474.59 146.67 3353 216.92 3352.44 217.25 3351.1 218.02 3350.54 218.35 3229.02 288.56 3228.4 288.92 3227.12 289.66 3226.5 290.02 3105.01 360.22 3104.36 360.59 3103.11 361.32 3102.46 361.69 2981.02 431.86 2980.32 432.27 2979.12 432.96 2978.42 433.36 2857.03 503.5 2856.28 503.94 2855.13 504.6 2854.38 505.03 2733.04 575.14 2732.23 575.61 2731.15 576.24 2730.33 576.71 2609.05 646.79 2608.19 647.29 2607.15 647.89 2606.29 648.38 2485.05 718.44 2484.15 718.96 2483.15 719.54 2482.25 720.06 2361.07 790.08 2360.1 790.64 2359.17 791.17 2358.2 791.73 2237.07 861.72 2236.06 862.31 2235.18 862.82 2234.16 863.41 2113.09 933.36 2112.02 933.98 2111.18 934.46 2110.12 935.08 1989.08 1005.02 1987.98 1005.65 1987.18 1006.12 1986.08 1006.75 1865.09 1076.66 1863.94 1077.32 1863.2 1077.75 1862.04 1078.42 1741.1 1148.3 1739.89 1149 1739.21 1149.4 1737.99 1150.1 1617.12 1219.94 1615.85 1220.67 1615.22 1221.04 1613.95 1221.77 1493.11 1291.59 1491.81 1292.35 1491.21 1292.69 1489.91 1293.44 1369.12 1363.24 1367.77 1364.02 1367.23 1364.33 1365.87 1365.12 1245.58 1434.62 1245.13 1434.88 1243.72 1435.7 1243.23 1435.98 1241.82 1436.79 1241.82 1435.17 1241.33 1434.89 1241.79 1434.62 1241.82 1434.6 1243.23 1433.79 1243.72 1433.51 1365.33 1363.24 1365.87 1362.92 1367.22 1362.14 1367.77 1361.83 1489.31 1291.6 1489.91 1291.25 1491.21 1290.5 1491.81 1290.15 1613.32 1219.94 1613.95 1219.58 1615.22 1218.84 1615.23 1218.84 1615.85 1218.48 1737.31 1148.3 1737.99 1147.91 1739.2 1147.21 1739.89 1146.81 1861.3 1076.66 1862.04 1076.23 1863.19 1075.56 1863.94 1075.13 1985.28 1005.02 1986.08 1004.56 1987.18 1003.92 1987.98 1003.46 2109.28 933.37 2110.12 932.88 2111.19 932.27 2112.02 931.79 2233.28 861.72 2234.16 861.21 2235.17 860.63 2236.06 860.11 2357.27 790.08 2358.2 789.54 2359.17 788.98 2360.1 788.44 2481.25 718.44 2482.25 717.86 2483.15 717.34 2484.15 716.76 2605.25 646.79 2606.29 646.19 2607.15 645.69 2608.19 645.09 2729.25 575.14 2730.33 574.52 2731.14 574.05 2732.23 573.42 2853.23 503.5 2854.38 502.84 2855.13 502.4 2856.28 501.74 2977.22 431.86 2978.42 431.17 2979.12 430.76 2980.32 430.07 3101.21 360.22 3102.46 359.49 3103.11 359.12 3104.36 358.4 3225.22 288.56 3226.5 287.82 3227.12 287.46 3228.4 286.72 3349.2 216.92 3350.54 216.15 3351.1 215.82 3352.44 215.05 3473.19 145.28 3474.59 144.47 3475.1 144.18 3476.49 143.37 3597.18 73.64 3598.63 72.8 3599.08 72.54 3600.53 71.7 3717.8 3.94 3721.19 1.98 3722.67 1.13 3723.08 .89 3724.57 .03 3724.57 1.75 3724.99 1.99"/>
    <polygon class="cls-1" points="3972.66 .03 3972.66 2.22 3970.76 3.32 3969.69 3.94 3849.08 73.63 3848.61 73.9 3847.18 74.73 3846.71 75 3725.08 145.28 3724.57 145.57 3723.17 146.38 3722.67 146.67 3601.09 216.92 3600.53 217.25 3599.19 218.02 3598.63 218.34 3477.1 288.57 3476.49 288.92 3475.19 289.67 3474.59 290.02 3353.12 360.21 3352.44 360.6 3351.21 361.31 3350.54 361.69 3229.1 431.86 3228.4 432.27 3227.2 432.96 3226.5 433.37 3105.12 503.5 3104.36 503.94 3103.21 504.6 3102.46 505.04 2981.13 575.15 2980.32 575.61 2979.22 576.25 2978.42 576.71 2857.14 646.79 2856.28 647.29 2855.24 647.88 2854.38 648.38 2733.14 718.44 2732.23 718.96 2731.25 719.53 2730.33 720.06 2609.15 790.08 2608.19 790.64 2607.24 791.18 2606.29 791.73 2485.17 861.72 2484.15 862.31 2483.26 862.82 2482.25 863.41 2361.17 933.37 2360.1 933.99 2359.27 934.46 2358.2 935.08 2237.18 1005.01 2236.06 1005.66 2235.28 1006.11 2234.16 1006.76 2113.18 1076.66 2112.02 1077.33 2111.27 1077.76 2110.12 1078.43 1989.19 1148.31 1989.18 1148.31 1987.98 1149 1987.29 1149.4 1986.08 1150.1 1865.2 1219.95 1863.94 1220.68 1863.3 1221.04 1862.04 1221.77 1741.22 1291.59 1739.89 1292.35 1739.31 1292.69 1737.99 1293.45 1617.21 1363.24 1615.85 1364.03 1615.3 1364.34 1613.95 1365.12 1493.68 1434.62 1493.22 1434.88 1491.81 1435.7 1491.32 1435.98 1489.91 1436.8 1489.91 1435.16 1489.42 1434.88 1489.87 1434.62 1489.91 1434.6 1491.31 1433.79 1491.32 1433.79 1491.81 1433.5 1613.4 1363.24 1613.95 1362.93 1615.31 1362.14 1615.85 1361.83 1737.41 1291.59 1737.99 1291.25 1739.31 1290.49 1739.89 1290.16 1861.4 1219.95 1862.04 1219.58 1863.3 1218.85 1863.94 1218.48 1985.39 1148.3 1986.08 1147.9 1987.29 1147.21 1987.98 1146.81 2109.37 1076.66 2109.38 1076.66 2110.12 1076.23 2111.28 1075.56 2112.02 1075.14 2233.38 1005.01 2234.16 1004.56 2235.28 1003.91 2236.06 1003.46 2357.37 933.37 2358.2 932.89 2359.27 932.27 2360.1 931.79 2481.36 861.72 2482.25 861.21 2483.27 860.62 2484.15 860.11 2605.34 790.09 2606.29 789.54 2607.25 788.99 2608.19 788.44 2729.35 718.43 2730.33 717.87 2731.24 717.34 2732.23 716.77 2853.34 646.79 2854.38 646.19 2855.24 645.69 2856.28 645.09 2977.33 575.15 2978.42 574.52 2979.23 574.05 2980.32 573.42 3101.32 503.51 3102.46 502.85 3103.22 502.41 3104.36 501.75 3225.3 431.87 3226.5 431.17 3227.21 430.77 3228.4 430.08 3349.31 360.21 3350.54 359.5 3351.22 359.11 3352.44 358.4 3473.3 288.57 3474.59 287.82 3475.2 287.47 3476.49 286.73 3597.29 216.93 3598.63 216.15 3599.19 215.83 3600.53 215.05 3721.28 145.29 3722.67 144.48 3723.18 144.19 3724.57 143.38 3845.29 73.63 3846.71 72.81 3847.18 72.54 3848.61 71.71 3965.9 3.94 3970.76 1.13 3972.66 .03"/>
    <polygon class="cls-1" points="3973.17 145.28 3972.66 145.58 3971.28 146.37 3970.76 146.67 3969.81 147.22 3849.17 216.93 3848.61 217.25 3847.27 218.03 3846.71 218.35 3725.19 288.57 3724.57 288.93 3723.28 289.67 3722.67 290.02 3601.2 360.21 3601.19 360.21 3600.53 360.6 3599.29 361.31 3598.63 361.7 3477.21 431.85 3476.49 432.27 3475.31 432.95 3474.59 433.37 3353.2 503.51 3352.44 503.95 3351.3 504.61 3350.54 505.04 3229.21 575.15 3228.4 575.62 3227.31 576.25 3226.5 576.72 3105.22 646.79 3104.36 647.29 3103.32 647.89 3102.46 648.39 2981.23 718.44 2980.32 718.96 2979.34 719.53 2978.42 720.06 2857.24 790.08 2856.28 790.63 2855.34 791.18 2854.38 791.73 2733.24 861.73 2732.23 862.31 2731.34 862.83 2730.33 863.41 2609.26 933.37 2608.19 933.98 2607.36 934.47 2607.35 934.47 2606.29 935.08 2485.26 1005.01 2484.15 1005.66 2483.37 1006.11 2482.25 1006.75 2361.27 1076.66 2360.1 1077.33 2359.37 1077.76 2358.2 1078.43 2237.27 1148.31 2236.06 1149.01 2235.37 1149.41 2234.16 1150.1 2113.28 1219.95 2112.02 1220.68 2111.39 1221.04 2110.12 1221.78 1989.29 1291.59 1987.98 1292.35 1987.4 1292.69 1986.08 1293.45 1865.31 1363.23 1863.94 1364.02 1863.4 1364.33 1862.04 1365.12 1741.76 1434.62 1741.3 1434.89 1739.89 1435.7 1739.4 1435.99 1739.39 1435.99 1737.99 1436.8 1737.99 1435.17 1737.5 1434.89 1737.97 1434.62 1737.99 1434.61 1739.4 1433.79 1739.89 1433.51 1861.51 1363.24 1862.04 1362.93 1863.41 1362.14 1863.94 1361.83 1985.5 1291.59 1986.08 1291.26 1987.39 1290.5 1987.98 1290.16 2109.49 1219.95 2110.12 1219.58 2111.38 1218.85 2111.39 1218.85 2112.02 1218.49 2233.47 1148.31 2234.16 1147.91 2235.37 1147.21 2236.06 1146.81 2357.47 1076.66 2358.2 1076.24 2359.38 1075.56 2360.1 1075.14 2481.47 1005.01 2482.25 1004.56 2483.36 1003.92 2484.15 1003.46 2605.46 933.37 2606.29 932.89 2607.36 932.27 2608.19 931.79 2729.44 861.73 2730.33 861.22 2731.34 860.63 2732.23 860.12 2853.44 790.08 2854.38 789.54 2855.33 788.99 2855.34 788.99 2856.28 788.44 2977.44 718.43 2978.42 717.87 2979.33 717.34 2980.32 716.77 3101.42 646.8 3102.46 646.19 3103.32 645.7 3104.36 645.1 3225.41 575.15 3226.5 574.52 3227.31 574.05 3228.4 573.42 3349.39 503.51 3350.54 502.85 3351.3 502.41 3352.44 501.75 3473.41 431.85 3474.59 431.17 3475.31 430.75 3476.49 430.07 3597.39 360.22 3598.63 359.5 3599.29 359.12 3600.53 358.4 3721.38 288.57 3722.67 287.83 3723.29 287.47 3724.57 286.73 3845.37 216.93 3846.71 216.15 3847.27 215.83 3848.61 215.06 3969.37 145.28 3969.38 145.28 3969.81 145.02 3970.76 144.48 3971.27 144.18 3972.66 143.38 3972.66 144.98 3973.17 145.28"/>
    <polygon class="cls-1" points="3973.27 288.57 3972.66 288.93 3971.37 289.67 3971.36 289.67 3970.76 290.02 3969.81 290.57 3849.29 360.21 3849.28 360.21 3848.61 360.6 3847.38 361.31 3846.71 361.7 3725.29 431.86 3724.57 432.28 3723.38 432.96 3722.67 433.37 3601.31 503.5 3600.53 503.95 3599.4 504.6 3598.63 505.04 3477.3 575.15 3477.29 575.15 3476.49 575.62 3475.39 576.25 3474.59 576.72 3353.31 646.8 3353.3 646.8 3352.44 647.3 3351.4 647.9 3350.54 648.39 3229.32 718.44 3228.4 718.97 3227.41 719.54 3226.5 720.07 3105.33 790.08 3104.36 790.64 3103.43 791.18 3102.46 791.74 2981.33 861.73 2980.32 862.31 2979.44 862.82 2978.42 863.41 2857.34 933.37 2856.28 933.98 2855.43 934.47 2854.38 935.08 2733.35 1005.01 2732.23 1005.66 2731.45 1006.11 2730.33 1006.76 2609.36 1076.66 2608.19 1077.33 2607.46 1077.76 2606.29 1078.43 2485.37 1148.3 2484.15 1149.01 2483.47 1149.4 2482.25 1150.1 2361.36 1219.95 2360.1 1220.68 2359.46 1221.05 2358.2 1221.78 2237.37 1291.6 2236.06 1292.36 2235.48 1292.69 2234.16 1293.45 2113.38 1363.24 2112.02 1364.03 2111.49 1364.33 2110.12 1365.13 1989.85 1434.62 1989.4 1434.88 1987.98 1435.7 1987.5 1435.98 1986.08 1436.8 1986.08 1435.16 1985.6 1434.88 1986.06 1434.62 1986.08 1434.61 1987.51 1433.78 1987.98 1433.51 2109.59 1363.24 2110.12 1362.93 2111.49 1362.14 2112.02 1361.84 2233.58 1291.6 2234.16 1291.26 2235.48 1290.5 2236.06 1290.16 2357.56 1219.96 2358.2 1219.59 2359.47 1218.86 2360.1 1218.49 2481.57 1148.31 2482.25 1147.91 2483.47 1147.21 2484.15 1146.81 2605.56 1076.66 2606.29 1076.24 2607.45 1075.57 2607.46 1075.57 2608.19 1075.14 2729.55 1005.02 2730.33 1004.57 2731.46 1003.92 2732.23 1003.47 2853.53 933.38 2854.38 932.89 2855.44 932.28 2856.28 931.79 2977.54 861.73 2978.42 861.22 2979.43 860.63 2980.32 860.12 3101.53 790.08 3102.46 789.54 3103.42 788.99 3103.43 788.99 3104.36 788.45 3225.51 718.44 3226.5 717.87 3227.42 717.34 3228.4 716.77 3349.5 646.8 3350.54 646.2 3351.41 645.7 3352.44 645.1 3473.49 575.16 3474.59 574.52 3475.39 574.06 3476.49 573.42 3597.5 503.5 3598.63 502.85 3599.41 502.4 3600.53 501.75 3721.48 431.86 3722.67 431.18 3723.39 430.76 3724.57 430.08 3845.48 360.22 3846.71 359.5 3847.38 359.12 3848.61 358.41 3969.46 288.58 3969.81 288.38 3970.76 287.83 3971.36 287.48 3971.37 287.48 3972.66 286.73 3972.66 288.22 3973.27 288.57"/>
    <polygon class="cls-1" points="3973.37 431.86 3972.66 432.27 3971.47 432.96 3970.76 433.37 3969.81 433.91 3849.38 503.5 3848.61 503.95 3847.47 504.6 3846.71 505.04 3725.4 575.14 3724.57 575.62 3723.49 576.24 3722.67 576.72 3601.38 646.8 3600.53 647.29 3599.48 647.9 3598.63 648.39 3477.4 718.44 3476.49 718.96 3475.49 719.54 3474.59 720.06 3353.41 790.08 3352.44 790.64 3351.5 791.18 3350.54 791.74 3229.42 861.73 3228.4 862.31 3227.52 862.82 3226.5 863.41 3105.42 933.37 3104.36 933.99 3103.53 934.47 3102.46 935.08 2981.43 1005.02 2980.32 1005.66 2979.52 1006.12 2978.42 1006.76 2857.45 1076.66 2856.28 1077.33 2855.54 1077.76 2854.38 1078.43 2733.45 1148.31 2733.44 1148.31 2732.23 1149.01 2731.55 1149.4 2730.33 1150.11 2609.46 1219.95 2608.19 1220.68 2607.56 1221.05 2606.29 1221.78 2485.46 1291.6 2484.15 1292.35 2483.55 1292.7 2482.25 1293.45 2361.47 1363.24 2360.1 1364.03 2359.57 1364.34 2358.2 1365.13 2237.94 1434.62 2237.48 1434.88 2236.06 1435.7 2235.58 1435.98 2234.16 1436.8 2234.16 1435.16 2233.68 1434.88 2234.13 1434.62 2234.16 1434.6 2235.57 1433.79 2235.58 1433.79 2236.06 1433.51 2357.67 1363.24 2358.2 1362.93 2359.57 1362.14 2360.1 1361.83 2481.65 1291.6 2482.25 1291.25 2483.56 1290.5 2484.15 1290.16 2605.66 1219.95 2606.29 1219.58 2607.56 1218.85 2608.19 1218.48 2729.65 1148.3 2730.33 1147.91 2731.55 1147.21 2732.23 1146.81 2853.64 1076.66 2854.38 1076.23 2855.55 1075.56 2856.28 1075.14 2977.62 1005.02 2978.42 1004.56 2979.53 1003.92 2980.32 1003.46 3101.63 933.37 3102.46 932.89 3103.52 932.28 3104.36 931.79 3225.62 861.72 3226.5 861.22 3227.52 860.63 3228.4 860.12 3349.6 790.09 3350.54 789.55 3351.51 788.99 3352.44 788.45 3473.59 718.44 3474.59 717.87 3475.5 717.34 3476.49 716.77 3597.58 646.8 3598.63 646.2 3599.48 645.7 3600.53 645.1 3721.59 575.15 3722.67 574.52 3723.49 574.05 3723.5 574.05 3724.57 573.43 3845.58 503.51 3846.71 502.85 3847.48 502.41 3848.61 501.75 3969.57 431.86 3969.81 431.72 3970.76 431.17 3971.47 430.76 3972.66 430.08 3972.66 431.45 3973.37 431.86"/>
    <polygon class="cls-1" points="3973.47 575.15 3972.66 575.62 3971.57 576.25 3970.76 576.72 3969.81 577.27 3849.49 646.79 3848.61 647.3 3847.59 647.89 3846.71 648.39 3725.48 718.44 3724.57 718.97 3723.58 719.54 3722.67 720.07 3601.49 790.09 3600.53 790.64 3599.59 791.19 3598.63 791.74 3477.5 861.73 3476.49 862.31 3475.6 862.83 3474.59 863.41 3353.51 933.37 3352.44 933.99 3351.62 934.47 3350.54 935.09 3229.52 1005.02 3228.4 1005.66 3227.62 1006.11 3226.5 1006.76 3105.53 1076.66 3105.52 1076.66 3104.36 1077.34 3103.62 1077.76 3102.46 1078.43 2981.54 1148.3 2980.32 1149.01 2979.64 1149.4 2978.42 1150.11 2857.54 1219.95 2856.28 1220.68 2855.65 1221.05 2854.38 1221.78 2733.56 1291.59 2732.23 1292.36 2731.65 1292.69 2730.33 1293.46 2609.56 1363.24 2609.55 1363.24 2608.19 1364.03 2607.65 1364.34 2606.29 1365.13 2486.03 1434.62 2485.56 1434.89 2484.15 1435.7 2483.67 1435.98 2482.25 1436.8 2482.25 1435.16 2481.77 1434.88 2482.22 1434.62 2482.25 1434.6 2483.66 1433.79 2484.15 1433.51 2605.75 1363.25 2606.29 1362.93 2607.65 1362.15 2608.19 1361.83 2729.75 1291.59 2730.33 1291.26 2731.65 1290.49 2731.66 1290.49 2732.23 1290.16 2853.75 1219.95 2854.38 1219.58 2855.64 1218.85 2856.28 1218.48 2977.73 1148.31 2977.74 1148.31 2978.42 1147.91 2979.64 1147.21 2980.32 1146.81 3101.72 1076.67 3102.46 1076.24 3103.62 1075.57 3104.36 1075.14 3225.72 1005.02 3226.5 1004.57 3227.62 1003.92 3228.4 1003.47 3349.72 933.37 3350.54 932.89 3351.61 932.28 3352.44 931.8 3473.7 861.73 3474.59 861.22 3475.6 860.63 3476.49 860.12 3597.69 790.09 3598.63 789.55 3599.59 788.99 3600.53 788.45 3721.68 718.45 3722.67 717.87 3723.58 717.35 3724.57 716.78 3845.69 646.79 3846.71 646.2 3847.59 645.69 3848.61 645.1 3969.67 575.15 3969.81 575.07 3970.76 574.52 3971.57 574.05 3972.66 573.43 3972.66 574.68 3973.47 575.15"/>
    <polygon class="cls-1" points="3973.59 718.43 3972.66 718.97 3971.68 719.53 3970.76 720.07 3969.81 720.62 3849.57 790.09 3848.61 790.65 3847.67 791.19 3846.71 791.74 3725.59 861.73 3724.57 862.32 3723.68 862.83 3722.67 863.42 3601.6 933.37 3600.53 933.99 3599.69 934.47 3598.63 935.09 3477.61 1005.02 3476.49 1005.66 3475.71 1006.11 3474.59 1006.76 3353.61 1076.66 3352.44 1077.34 3351.72 1077.76 3350.54 1078.44 3229.62 1148.31 3228.4 1149.01 3227.71 1149.41 3226.5 1150.11 3105.63 1219.95 3104.36 1220.68 3103.73 1221.05 3102.46 1221.78 2981.63 1291.6 2980.32 1292.36 2979.74 1292.69 2978.42 1293.45 2857.65 1363.24 2856.28 1364.03 2855.74 1364.34 2854.38 1365.13 2734.11 1434.62 2733.64 1434.89 2732.23 1435.71 2731.74 1435.99 2730.33 1436.8 2730.33 1435.17 2729.85 1434.89 2730.32 1434.62 2730.33 1434.62 2730.33 1434.61 2731.75 1433.79 2732.23 1433.52 2853.85 1363.24 2854.38 1362.93 2855.75 1362.14 2856.28 1361.84 2977.84 1291.6 2978.42 1291.26 2979.74 1290.5 2980.32 1290.16 3101.83 1219.95 3102.46 1219.59 3103.74 1218.85 3104.36 1218.49 3225.81 1148.31 3225.82 1148.31 3226.5 1147.92 3227.72 1147.21 3228.4 1146.82 3349.82 1076.66 3350.54 1076.25 3351.71 1075.57 3352.44 1075.15 3473.81 1005.02 3474.59 1004.57 3475.71 1003.92 3476.49 1003.47 3597.79 933.38 3598.63 932.89 3599.7 932.28 3600.53 931.8 3721.78 861.73 3721.79 861.73 3722.67 861.22 3723.69 860.63 3724.57 860.12 3845.77 790.09 3846.71 789.55 3847.67 788.99 3848.61 788.45 3969.78 718.44 3969.81 718.42 3970.76 717.87 3971.69 717.34 3972.66 716.77 3972.66 717.9 3973.59 718.43"/>
    <polygon class="cls-1" points="3973.67 861.74 3972.66 862.32 3971.76 862.84 3970.76 863.42 3969.81 863.97 3849.68 933.38 3848.61 934 3847.78 934.48 3846.71 935.09 3725.69 1005.02 3724.57 1005.67 3723.79 1006.12 3722.67 1006.77 3601.7 1076.66 3600.53 1077.34 3599.81 1077.76 3598.63 1078.44 3477.71 1148.31 3476.49 1149.01 3475.81 1149.4 3474.59 1150.11 3353.71 1219.96 3352.44 1220.69 3351.81 1221.06 3351.8 1221.06 3350.54 1221.79 3229.73 1291.59 3228.4 1292.36 3227.83 1292.69 3226.5 1293.46 3105.73 1363.24 3104.36 1364.03 3103.83 1364.34 3102.46 1365.13 2982.2 1434.62 2981.74 1434.88 2980.32 1435.71 2979.84 1435.98 2978.42 1436.8 2978.42 1435.16 2977.94 1434.89 2978.41 1434.62 2978.42 1434.62 2978.42 1434.61 2979.85 1433.79 2980.32 1433.51 3101.94 1363.24 3102.46 1362.94 3103.83 1362.15 3104.36 1361.84 3225.93 1291.6 3226.5 1291.27 3227.83 1290.5 3228.4 1290.17 3349.91 1219.96 3350.54 1219.59 3351.81 1218.86 3352.44 1218.5 3473.91 1148.31 3474.59 1147.92 3475.81 1147.21 3476.49 1146.82 3597.91 1076.66 3598.63 1076.24 3599.8 1075.57 3600.53 1075.15 3721.89 1005.02 3722.67 1004.57 3723.79 1003.92 3724.57 1003.47 3845.88 933.38 3846.71 932.9 3847.78 932.28 3848.61 931.8 3969.81 861.77 3969.86 861.74 3970.76 861.22 3971.77 860.64 3972.66 860.12 3972.66 861.15 3973.67 861.74"/>
    <polygon class="cls-1" points="3973.78 1005.02 3972.66 1005.67 3971.87 1006.12 3970.76 1006.77 3969.81 1007.32 3849.79 1076.67 3848.61 1077.35 3847.88 1077.77 3846.71 1078.44 3725.8 1148.31 3724.57 1149.02 3723.9 1149.41 3722.67 1150.12 3601.8 1219.96 3600.53 1220.69 3599.91 1221.05 3598.63 1221.79 3477.81 1291.6 3476.49 1292.36 3475.9 1292.7 3474.59 1293.46 3353.83 1363.24 3352.44 1364.04 3351.92 1364.34 3350.54 1365.14 3230.29 1434.62 3229.83 1434.89 3228.4 1435.71 3227.93 1435.98 3226.5 1436.81 3226.5 1435.16 3226.03 1434.89 3226.49 1434.62 3226.5 1434.62 3226.5 1434.61 3227.92 1433.79 3228.4 1433.52 3350.02 1363.24 3350.54 1362.94 3351.92 1362.14 3352.44 1361.84 3474 1291.6 3474.59 1291.26 3475.9 1290.5 3475.91 1290.5 3476.49 1290.17 3598 1219.95 3598.63 1219.59 3599.9 1218.86 3600.53 1218.49 3722 1148.31 3722.67 1147.92 3723.89 1147.21 3724.57 1146.82 3845.98 1076.67 3846.71 1076.25 3847.88 1075.57 3848.61 1075.15 3969.81 1005.12 3969.97 1005.03 3970.76 1004.57 3971.87 1003.93 3972.66 1003.47 3972.66 1004.38 3973.78 1005.02"/>
    <polygon class="cls-1" points="3973.88 1148.31 3972.66 1149.02 3971.98 1149.41 3970.76 1150.11 3969.81 1150.66 3849.89 1219.96 3848.61 1220.7 3848 1221.05 3846.71 1221.79 3725.9 1291.6 3724.57 1292.37 3724 1292.7 3722.67 1293.47 3601.9 1363.25 3600.53 1364.04 3600 1364.35 3598.63 1365.14 3478.38 1434.62 3477.92 1434.89 3476.49 1435.71 3476.02 1435.99 3474.59 1436.81 3474.59 1435.16 3474.11 1434.89 3474.58 1434.62 3474.59 1434.62 3474.59 1434.61 3476.02 1433.79 3476.49 1433.52 3598.1 1363.25 3598.63 1362.94 3600 1362.15 3600.53 1361.84 3722.1 1291.6 3722.67 1291.27 3723.99 1290.5 3724 1290.5 3724.57 1290.17 3846.09 1219.95 3846.71 1219.6 3847.99 1218.86 3848.61 1218.5 3969.81 1148.47 3970.08 1148.31 3970.76 1147.92 3971.98 1147.21 3972.66 1146.82 3972.66 1147.61 3973.88 1148.31"/>
    <polygon class="cls-1" points="3973.98 1291.6 3972.66 1292.36 3972.09 1292.7 3972.08 1292.7 3970.76 1293.46 3969.81 1294.01 3849.99 1363.25 3848.61 1364.04 3848.09 1364.34 3846.71 1365.14 3726.46 1434.62 3725.99 1434.89 3724.57 1435.71 3724.09 1435.99 3722.67 1436.81 3722.67 1435.17 3722.19 1434.9 3722.67 1434.62 3724.1 1433.8 3724.57 1433.52 3846.2 1363.25 3846.71 1362.95 3848.09 1362.15 3848.61 1361.85 3969.81 1291.82 3970.19 1291.6 3970.76 1291.27 3972.08 1290.51 3972.09 1290.51 3972.66 1290.17 3972.66 1290.84 3973.98 1291.6"/>
    <polygon class="cls-1" points="3974.07 1434.89 3972.66 1435.7 3972.18 1435.98 3970.76 1436.8 3970.76 1435.16 3970.28 1434.89 3970.76 1434.61 3972.18 1433.79 3972.66 1433.51 3972.66 1434.07 3974.07 1434.89"/>
    <polygon class="cls-1" points="3.3 1.75 3.3 1436.25 2.81 1435.97 1.4 1436.79 1.4 .66 3.3 1.75"/>
    <rect class="cls-1" x="125.44" y="3.94" width="1.9" height="1430.68"/>
    <polygon class="cls-1" points="251.38 .01 251.38 1436.26 250.88 1435.98 249.48 1436.78 249.48 .66 249.87 .88 251.38 .01"/>
    <rect class="cls-1" x="373.53" y="3.94" width="1.9" height="1430.68"/>
    <polygon class="cls-1" points="499.47 .01 499.47 1436.27 498.97 1435.98 497.57 1436.79 497.57 .65 497.97 .88 499.47 .01"/>
    <rect class="cls-1" x="621.61" y="3.94" width="1.9" height="1430.68"/>
    <polygon class="cls-1" points="747.55 0 747.55 1436.27 747.05 1435.98 745.65 1436.79 745.65 .65 746.04 .88 747.55 0"/>
    <rect class="cls-1" x="869.7" y="3.94" width="1.9" height="1430.68"/>
    <polygon class="cls-1" points="995.64 .01 995.64 1436.25 995.15 1435.97 993.74 1436.79 993.74 .65 994.14 .88 995.64 .01"/>
    <rect class="cls-1" x="1117.78" y="3.94" width="1.9" height="1430.68"/>
    <polygon class="cls-1" points="1243.72 .01 1243.72 1436.26 1243.23 1435.98 1241.82 1436.79 1241.82 .66 1242.21 .88 1243.72 .01"/>
    <rect class="cls-1" x="1365.87" y="3.94" width="1.9" height="1430.68"/>
    <polygon class="cls-1" points="1491.81 .01 1491.81 1436.26 1491.32 1435.98 1489.91 1436.8 1489.91 .66 1490.3 .88 1491.81 .01"/>
    <rect class="cls-1" x="1613.95" y="3.94" width="1.9" height="1430.68"/>
    <polygon class="cls-1" points="1739.89 .01 1739.89 1436.27 1739.4 1435.99 1739.39 1435.99 1737.99 1436.8 1737.99 .65 1738.39 .88 1739.89 .01"/>
    <rect class="cls-1" x="1862.04" y="3.94" width="1.9" height="1430.68"/>
    <polygon class="cls-1" points="1987.98 .02 1987.98 1436.25 1987.5 1435.98 1986.08 1436.8 1986.08 .66 1986.48 .89 1987.98 .02"/>
    <rect class="cls-1" x="2110.12" y="3.94" width="1.9" height="1430.68"/>
    <polygon class="cls-1" points="2236.06 .02 2236.06 1436.25 2235.58 1435.98 2234.16 1436.8 2234.16 .66 2234.56 .89 2236.06 .02"/>
    <rect class="cls-1" x="2358.2" y="3.94" width="1.9" height="1430.68"/>
    <polygon class="cls-1" points="2484.15 .02 2484.15 1436.26 2483.67 1435.98 2482.25 1436.8 2482.25 .67 2482.64 .89 2484.15 .02"/>
    <rect class="cls-1" x="2606.29" y="3.94" width="1.9" height="1430.68"/>
    <polygon class="cls-1" points="2732.23 .02 2732.23 1436.27 2731.74 1435.99 2730.33 1436.8 2730.33 .64 2730.74 .88 2732.23 .02"/>
    <rect class="cls-1" x="2854.38" y="3.94" width="1.9" height="1430.68"/>
    <polygon class="cls-1" points="2980.32 .02 2980.32 1436.26 2979.84 1435.98 2978.42 1436.8 2978.42 .66 2978.82 .89 2980.32 .02"/>
    <rect class="cls-1" x="3102.46" y="3.94" width="1.9" height="1430.68"/>
    <polygon class="cls-1" points="3228.4 .03 3228.4 1436.25 3227.93 1435.98 3226.5 1436.81 3226.5 .65 3226.91 .89 3228.4 .03"/>
    <rect class="cls-1" x="3350.54" y="3.94" width="1.9" height="1430.68"/>
    <polygon class="cls-1" points="3476.49 .02 3476.49 1436.26 3476.02 1435.99 3474.59 1436.81 3474.59 .66 3474.99 .89 3476.49 .02"/>
    <rect class="cls-1" x="3598.63" y="3.94" width="1.9" height="1430.68"/>
    <polygon class="cls-1" points="3724.57 .03 3724.57 1436.27 3724.09 1435.99 3722.67 1436.81 3722.67 .65 3723.08 .89 3724.57 .03"/>
    <rect class="cls-1" x="3846.71" y="3.94" width="1.9" height="1430.68"/>
    <polygon class="cls-1" points="3972.66 .03 3972.66 1436.26 3972.18 1435.98 3970.76 1436.8 3970.76 1.13 3972.66 .03"/>
  </g>
</svg>