<?xml version="1.0" encoding="UTF-8"?>
<svg id="Layer_2" data-name="Layer 2" xmlns="http://www.w3.org/2000/svg" viewBox="0 0 1921.06 1082.84">
  <defs>
    <style>
      .cls-1 {
        stroke-width: .76px;
      }

      .cls-1, .cls-2 {
        fill: none;
        stroke: #0f111a;
        stroke-linecap: round;
        stroke-linejoin: round;
      }

      .cls-2 {
        stroke-width: 1.52px;
      }
    </style>
  </defs>
  <g id="Layer_1-2" data-name="Layer 1">
    <g>
      <path class="cls-1" d="m.76,395.89c19.25-4.69,38.49-9.53,57.78-13.98,5.85-1.35,11.83-1.88,17.76-2.39,29.89-2.58,55.98,11.73,80.89,31.57,14.09,11.22,28.3,22.19,42.66,32.82,22.42,16.6,46.26,18.65,71.09,11.92,15.59-4.23,31.29-8.6,47.1-10.31,18.87-2.05,37.1,4.79,54.09,15.16,14.4,8.79,27.89,20.18,41.88,30.17,24.6,17.56,51.41,27.35,78.25,36.08,60.51,19.69,100.92,67.84,122.67,144.47,7.53,26.55,13.94,53.88,26.57,77.43,15.06,28.08,35.52,46.82,60.5,54.71,27.82,8.78,56.3,13.94,84.32,21.7,17.35,4.81,34.76,10.11,51.5,17.69,32.94,14.92,66.41,27.16,100.54,35.8,32.42,8.2,65.18,13.94,97.7,21.46,35.33,8.17,70.92,10.74,106.65,9.02,17.22-.83,34.37-4.43,51.55-6.77,17.18-2.35,34.34-4.99,51.55-6.93,11.81-1.33,23.69-1.73,35.54-2.44,28.08-1.69,55.33,6.04,82.65,12.88,28.2,7.07,56.67,10.06,85.3,7.88,7.21-.55,14.58-4.13,21.27-8.1,11.52-6.84,13.94-17.27,6.08-30.03-7.89-12.79-16.86-24.82-26.6-35.15-16.06-17.06-33.59-31.31-54.06-37.76-15.68-4.94-31.32-4-47.12-.15-23.03,5.6-46.07,12.44-69.33,14.84-30.17,3.11-59.83-5.8-88.77-16.18-43.8-15.72-85.27-39.14-122.64-73.68-23.43-21.66-46.14-44.68-69.42-66.64-20.66-19.49-44.37-30.58-68.44-39.71-33.25-12.62-64.13-30.06-87.94-64.7-12.39-18.04-24.55-36.39-37.39-53.85-22.27-30.28-47.9-54.28-77.19-71.77-37.65-22.48-77.77-33.91-117.34-48-36.25-12.91-69.24-35.02-98.55-65.76-28.64-30.04-56.41-61.54-84.53-92.46-19.92-21.9-41.43-40.53-63.84-57.78-17.05-13.13-34.06-27.41-48.69-44.71-18.43-21.79-18.9-45.82-5.58-74.47,8.81-18.94,20.43-34.67,34.57-46.97"/>
      <path class="cls-2" d="m1920.3,365.4c-43.64,4.04-86.84,12.29-129.76,23.35-18.87,4.86-38.25,6.97-56.78,13.41-25.53,8.87-48.09,26.82-67.47,50.22-28.11,33.94-53.68,70.97-70.32,117.05-7.88,21.82-12.9,44.47-12.65,69.16.25,24.12,1.04,47.94,5.24,71.6,1.58,8.89,1.21,18.89.06,28.02-2.38,18.82-19.87,31.78-35.36,28.28-32.59-7.36-59.73-28.05-83.57-57.49-9.5-11.73-19.58-22.63-29.27-34.09-21.6-25.54-44.66-24.46-69.4-8.38-20.09,13.06-40.57,25.2-61.32,36.31-19.23,10.29-39.48,15.63-60.36,16.72-29.73,1.54-58.86-2.39-87.09-15.33-33.95-15.56-63.05-40.47-82.39-81.11-12.33-25.93-13.99-44.76-.14-66.48,4.55-7.13,10.37-12.93,15.91-18.84,12.63-13.47,26.57-25.16,37.94-40.24,22.01-29.19,38.41-62.79,43.21-105.15,2.6-22.92.54-43.8-6.49-64.58-12.43-36.75-42.34-46.66-68.42-30.32-43.48,27.24-70.56,72.92-83.53,133.54-4.49,20.98-8.17,42.26-12.54,63.28-4.95,23.75-18.03,35.58-35.51,39.81-35.42,8.59-66.47-4.44-93.21-35.24-17.36-19.99-33.89-41.25-50.74-62.02-22.82-28.12-50.16-46.31-79.18-59.47-39.06-17.71-78.94-32.29-118.04-49.83-33.26-14.92-64.83-34.52-92.59-64.06-38.71-41.2-73.62-87.36-105.44-137.58-5.37-8.48-8.8-19.69-11.57-30.34-4.84-18.56,2.62-32.88,12.36-44.29,24.96-29.25,57.39-27.82,85.03-5.69,19.2,15.38,36.53,34.78,55.35,51.06,24.77,21.41,51.71,34.68,81.62,39.37,34.36,5.39,67.21-1.82,99.5-14.9,25.41-10.3,50.29-22.64,72.2-43.96,19.39-18.87,25.36-45.98,16.75-76.46"/>
      <path class="cls-1" d="m1920.3,351.33c-31.68-.04-63.03,4.27-94.22,11.59-23.01,5.4-46.28,8.89-69.28,14.36-34.76,8.26-65.11,28.48-91.65,59.51-26.19,30.63-49.2,64.73-68.28,103.37-14.97,30.33-26.2,62.64-27.61,99.61-.55,14.46-.79,28.97-1.9,43.37-.85,11.03-1.56,22.58-4.62,32.68-4.31,14.21-19.92,19.72-34.35,14.23-16.31-6.2-30.56-17.18-42.63-32.86-13.44-17.44-26.55-35.33-40.05-52.69-20.06-25.79-38.37-26.86-60.27-12.59-23.39,15.25-45.4,34.17-68.66,49.81-22.68,15.24-47.06,22.69-72.76,24.02-23.02,1.19-45.6-.85-67.51-9.86-27.65-11.38-53.4-27.68-71.06-59.7-18.83-34.14-16.16-54.31,3.62-84.18,10.45-15.78,22.33-29.92,33.64-44.71,22.61-29.58,38.11-64.77,45.1-105.6,6.04-35.27,4.31-69.56-12.13-100.86-18.39-35.02-44.5-38.46-69.31-25.35-29.81,15.76-52.27,44.32-71.3,78.11-17.26,30.65-27.71,65.37-37.42,100.84-3.58,13.06-7.86,26.6-14.32,37.31-15.3,25.38-36.35,29.42-59.25,22.57-23.04-6.9-40.86-25.21-57.81-45.65-15.79-19.05-31.22-38.82-48.12-56.04-23.49-23.94-51.04-38.25-78.96-50.54-38.03-16.74-76.47-31.86-114.57-48.36-34.44-14.92-65.96-37.49-92.26-70.5-24.87-31.22-48.43-64.3-71.99-97.28-5.93-8.29-10.52-18.79-14.23-29.19-9.77-27.39-1.59-50.14,20.24-59.84,19.35-8.59,36.34.43,52.32,12.22,17.53,12.93,33.75,28.94,50.84,42.94,22.13,18.12,46.3,29.94,71.97,35.02,29.4,5.82,58.94,3.77,87.92-4.65,33.96-9.87,67.32-22.8,98.64-43.29,14.8-9.68,29.16-20.91,37.24-41.01,7.3-18.17,8.87-37.21,1.01-56.19"/>
      <path class="cls-1" d="m1920.3,334.92c-30.64.96-61.21,2.91-91.54,9.34-26.64,5.65-53.53,9.63-79.92,16.79-33.89,9.2-62.32,32.84-88.12,62.84-24.58,28.57-45.51,61.28-65.75,95.03-23.82,39.72-37.96,85.11-47.06,133.73-1.19,6.35-2.32,12.92-4.52,18.7-6.23,16.32-17.86,20.73-31.01,13.03-15.69-9.19-26.09-26.27-37.34-42.22-8.7-12.34-17.31-24.89-26.71-36.26-18.73-22.64-41.83-19.17-61.12-3.41-18.28,14.94-35.53,32.07-53.46,47.78-24.35,21.33-50.89,37.51-79.98,40.52-41.51,4.29-81.79-1.38-116.54-37.84-27.15-28.48-30.71-63.86-8.76-98.79,14.38-22.88,29.46-45.16,42.44-69.37,16.64-31.03,27.38-65.38,30.84-104.06,3.07-34.32-1.61-65.01-15.46-93.88-19.43-40.49-50.37-49.23-82.6-29.08-34.01,21.27-59.34,55.94-81.02,95.86-14.67,27-24.48,57.28-35.69,86.69-5.24,13.75-11.42,27.81-19.62,38.45-18.03,23.41-39.46,21.24-61.02,8.55-17.2-10.13-31.13-26.57-44.28-43.56-31.35-40.51-67.8-68.95-109.45-86.64-40.39-17.15-80.63-34.96-120.88-52.7-48.34-21.3-88.11-58.83-121.02-110.01-13.39-20.82-27.82-40.52-36.17-65.89-6.58-19.99-4.92-31.64,9.8-40.59,4.15-2.52,10.05-1.28,14.95-.22,17.54,3.77,32.11,16.65,47.1,28.02,26.5,20.1,54.23,36.68,84.49,42.93,24.94,5.15,50.07,5.54,75.54.93,43.15-7.8,84.52-23.7,125.12-43.21,16.67-8.01,33.09-18.79,45.45-37.05,15.12-22.34,19.92-48.25,15.02-77.35-.1-.62-1.68-.81-2.57-1.2"/>
      <path class="cls-1" d="m.76,374.78c10.07-2.35,20.08-5.39,30.23-6.87,15.05-2.2,30.2-3.33,45.31-4.85,29.8-3,56.02,10.41,80.9,30.42,14.96,12.04,29.74,24.72,45.42,34.91,17.99,11.69,37.05,17.68,57.68,12.29,19.38-5.06,38.98-9.43,58.64-11.63,25.43-2.84,48.44,9.01,70.18,25.46,9.78,7.4,19.39,15.26,29.36,22.19,23.8,16.54,49.43,26.19,75.5,34.1,47.54,14.44,85.95,47.19,111.63,102.27,10.68,22.92,18.36,48.53,25.91,73.69,9.74,32.43,21.35,62.71,43.79,83.06,17.92,16.25,38.15,25.31,59.51,29.28,47.92,8.89,94.39,25.01,140.53,44.1,26.5,10.97,54.29,16.73,81.65,23.84,20.01,5.2,40.22,9.18,60.42,12.95,17.71,3.31,35.5,6.08,53.32,8.17,13.57,1.59,27.3,3.13,40.86,2.21,27.66-1.87,55.29-5.27,81.75-17.37,3.99-1.82,7.83-4.34,11.55-7.01,10.19-7.32,11.02-16.96,1.71-25.57-6.04-5.59-12.78-10-19.49-14.16-22.44-13.9-45.16-27-67.47-41.22-33.59-21.42-64.56-48.57-93.21-79.85-33.34-36.39-70.68-61.6-112.09-77.25-27.85-10.52-52.85-28.59-73.61-55.25-13.35-17.14-25.23-36.31-37.46-54.92-22.96-34.94-50.9-60.63-82.66-79.77-33.57-20.24-69.38-30.72-104.95-41.8-38.75-12.07-73.61-34.09-104.69-66.19-27.82-28.74-54.86-58.84-81.81-89.02-23.31-26.1-48.62-47.93-75.55-66.86-19.68-13.83-40.24-25.88-56.13-47.83-16.05-22.17-19.22-41.53-9.65-70.43,7.72-23.33,20.46-41.12,36.39-55.13"/>
      <path class="cls-1" d="m1920.3,318.5c-18.66.78-37.4.44-55.97,2.58-38.7,4.45-77.53,8.3-115.52,19.81-31.28,9.48-58.62,29.81-82.58,57.46-47.79,55.16-89.38,117.42-121.88,189.78-3.47,7.72-7.89,14.7-11.45,22.36-8.77,18.82-24.36,20.97-37.29,5.7-8.73-10.31-16.05-22.78-25.14-32.43-9.3-9.87-19.27-19.8-30.21-25.53-16.35-8.56-32.93-1.37-46.71,10.45-19.82,17.01-38.29,36.81-57.05,55.9-20.72,21.09-42.72,38.9-68.49,46.72-35.74,10.85-70.36,8.02-103.11-16.2-12.55-9.28-22.71-20.88-28.46-38.76-5.38-16.71-2.84-32.74,3.86-46.74,10.65-22.25,22.95-43.11,34.4-64.71,17.07-32.19,30.97-66.47,36.36-105.53,6.46-46.86,4.55-92.06-17.65-132.49-13.89-25.29-31.51-42.95-56-41.75-17.12.84-32.65,10.55-47.16,22.93-39.27,33.51-68.7,78.89-92.39,131.4-9.38,20.79-18.7,41.64-28.47,62.11-18.58,38.91-47.74,39.77-72.66,17.32-17.72-15.97-33.98-34.78-50.81-52.47-24.8-26.08-52.91-43.91-82.68-57.36-39.61-17.9-79.31-35.5-119.08-52.77-46.32-20.12-85.2-53.91-113.6-106.88-4.78-8.91-8.83-18.98-11.44-29.3-3.53-13.94,3.04-22.14,13.96-18.59,9.83,3.2,19.52,7.21,29.35,10.44,24.26,7.96,48.3,18.34,72.94,22.69,21.24,3.75,43.07,2.42,64.84-.96,30.24-4.69,59.61-13.81,88.76-24.29,26.4-9.49,52.94-18.4,77.51-35.74,24.16-17.05,40.58-40.99,45.86-76.61,1.68-11.37.83-23.39.99-35.12,0-.37-1.66-.78-2.55-1.17"/>
      <path class="cls-1" d="m1920.3,381.82c-28.84,1.16-57.06,8.03-85.35,15-22.34,5.51-44.97,9.09-67.51,13.08-35.36,6.25-67.66,21.12-95.21,52.62-23.07,26.37-42.69,56.07-58.61,90.41-19,41.01-22.5,84.42-13.21,130.2,3.35,16.49,7.61,32.68,10.44,49.31,1.88,11.04,3.19,22.74,2.52,33.91-.74,12.28-8.2,19.29-16.57,23.41-14.05,6.91-28.16,5.17-42.67,1.48-34.15-8.68-62.08-32.67-88.83-60.03-11.85-12.12-23.1-25.46-35.68-36.08-22.17-18.72-45.17-13.66-68.35-1.63-21.96,11.4-44.06,22.75-66.69,31.44-23.6,9.06-48.36,11.25-72.76,8.27-45.82-5.59-88.65-22.87-125.4-61.69-21.46-22.67-39.21-49.51-52.1-81.2-10.33-25.39-24.27-37.9-46.49-35.28-13.52,1.59-27.25.88-40.86.18-32.77-1.68-61.88-16.13-86.17-45.66-20.03-24.36-39.49-49.54-59.65-73.71-17.01-20.38-37.3-34.4-58.67-44.32-45.32-21.05-91.02-40.74-136.81-59.97-37.59-15.79-70.94-41.44-100.18-75.51-31.71-36.95-61.96-76.1-92.52-114.74-6.94-8.78-13.53-18.59-18.57-29.33-11.76-25.02-11.08-43.54,5.05-65.61,13.45-18.41,29.24-31.43,48.13-35.88,15.54-3.66,30.97-2.55,46.29,6.29,21.49,12.39,38.99,31.74,56.68,50.92,25.98,28.17,54.87,48.72,88.11,55.63,15.32,3.19,31.36,1.36,47.03.37,30.75-1.94,59.06-15.34,86.25-33.73,12.32-8.33,23.23-19.04,31.81-33.08,9.9-16.21,8.56-35.05,4.46-53.74-.25-1.14-2.25-1.61-3.43-2.39"/>
      <path class="cls-1" d="m1.65,5.45c4.44,1.95,8.79,4.53,13.35,5.75,17.14,4.58,34.27,9.41,51.55,12.82,18.27,3.6,36.68,6.15,55.09,8.24,13.87,1.58,27.83,1.91,41.76,2.44,9.18.35,18.37-.11,27.55.11,14.57.35,20.96,6.38,25.73,24.6,3.76,14.37,6.61,29.18,10.81,43.31,10.01,33.65,29,56.25,53.24,71.5,22.97,14.45,46.3,27.89,69.25,42.38,24.84,15.69,46.09,38.3,66.69,62.05,23.39,26.98,46.94,53.73,70.15,80.98,15.66,18.38,31.08,37.14,46.19,56.3,13.04,16.55,27.63,24.97,46.28,24.93,39.19-.08,78.18,3.6,115.55,21.8,35.33,17.21,65.17,44.59,89.74,82.14,19.87,30.38,37.85,63.06,62.19,87.97,17.04,17.43,36.74,27.42,56.89,36.34,24.95,11.06,49.3,23.73,70.24,45.66,16.51,17.29,31.96,35.92,41.65,61.07,8.71,22.62-1.67,31.94-14.12,35.09-18.26,4.64-36.44,5.21-55.14,2.92-22.1-2.71-43.65-7.53-64.83-15.83-19.58-7.67-38.89-16.84-58.72-23.06-18.96-5.95-38.45-8.94-57.7-13.26-17.94-4.02-35.89-7.92-52.44-18.75-20.9-13.68-34.78-35.6-44.55-63.25-13.05-36.91-21.58-76.87-40.01-110.15-21.35-38.54-43.59-76.27-71.84-106.82-6.95-7.52-15.2-9.47-23.97-10.77-24.02-3.58-48.5-1.06-72.06-11.26-17.78-7.7-33.7-19.84-49.65-32.03-15.53-11.87-31.15-23.32-48.94-27.92-15.63-4.04-31.38-3.35-47.09-.11-21.03,4.34-41.97,10.16-63.12,12.45-19.33,2.09-37.43-7.13-54.12-19.62-17.45-13.05-34.07-28.07-51.7-40.66-18.36-13.11-38.52-18.76-59.44-18.97-14.51-.15-29.03-.33-43.54.06-13.93.38-27.85,1.48-41.77,2.26"/>
      <path class="cls-1" d="m.76,353.68c17.18-2.35,34.33-5.5,51.55-6.87,36.17-2.88,71.42.48,103.16,27.8,16.11,13.87,32.48,27.72,49.86,38.36,17.05,10.44,35.25,16.69,54.97,11.37,19.92-5.37,40.15-9.36,60.4-11.74,26.05-3.06,50.34,7.24,71.81,25.79,34.21,29.55,71.5,47.36,111.2,58.52,45.06,12.67,79.31,46.86,105.88,95.85,14.28,26.33,22.99,56.01,31.91,85.68,6.47,21.51,13.91,42.2,25.69,59.88,18.29,27.44,42.31,40.93,68.54,46.46,46.82,9.87,92.87,22.71,137.82,43.29,26.54,12.15,54.44,18.55,82.51,22.92,24.66,3.84,49.1,10.43,73.8,13.57,27.79,3.53,55.81,5.82,83.48-2.18,5.52-1.6,10.95-4.67,15.96-8.2,7.03-4.96,8.86-15.1,3.44-23.08-5.7-8.39-12.54-15.61-19.42-22.4-40.18-39.66-80.45-79.17-120.84-118.45-19.67-19.13-41.82-31.9-64.84-42.29-21.65-9.77-43.6-18.23-63.22-34.91-16.55-14.06-30.7-31.21-43.39-50.7-22.24-34.15-43.88-68.88-73.7-92.78-23.78-19.07-48.87-33.77-75.66-43-27.38-9.43-55.25-16.45-82.56-26.23-31-11.09-57.7-33.72-82.61-59.71-27.07-28.24-54.04-56.75-79.91-86.86-29.45-34.27-63.07-59.11-97.86-81.98-12.8-8.42-25.31-17.86-37.3-28.15-19.69-16.91-29.44-41.02-26.68-72.52,1.55-17.69,8.52-32.5,17.02-45.51,6.1-9.35,14.02-16.64,21.13-24.84"/>
      <path class="cls-1" d="m1920.3,302.09c-.89,0-1.78-.04-2.67,0-32.29,1.56-64.63,2.09-96.85,5.03-23.79,2.17-47.68,5.69-71.04,11.85-26.56,7.01-50.27,23.98-72.05,45.26-33.26,32.51-62.06,71.09-89,112.4-15.57,23.88-32.44,46.29-48.77,69.29-1.57,2.21-3.44,4.09-5.32,5.87-19.5,18.53-25.3,15.48-43.45-.13-6.12-5.26-11.45-12.18-16.94-18.63-18.98-22.3-39.7-21.3-61.34-8.17-19.44,11.8-36.31,28.59-52.46,46.84-14.38,16.24-28.78,32.46-43.57,48.03-22.55,23.74-48.01,37.25-77.25,39.06-20.77,1.29-40.08-2.23-58.76-15.29-28.88-20.2-31.83-50.4-16.73-84.61,13.36-30.3,28.34-59.45,40.54-90.52,16.03-40.79,24.66-84.81,21.38-131.1-3.36-47.43-17.63-88.51-46.93-118.36-21.57-21.98-45.06-20.11-68.31-5.78-30.89,19.05-55.42,49.14-78.3,81.85-25.23,36.07-43.77,78.45-65.08,118.24-11.65,21.76-26.32,39.51-49.54,34.29-12.83-2.89-23.51-11.55-33.71-21.27-16.48-15.68-31.9-33.52-49.14-47.53-16.5-13.42-34.21-25-52.34-34.05-34.86-17.4-70.49-32.07-105.6-48.59-27.45-12.91-54.98-25.96-78.2-50.35-8.65-9.09-16.98-18.69-21.4-32.75-2.6-8.27-.7-15.72,6.3-17.31,10.22-2.32,20.69-3.36,31.07-3.66,18.95-.55,37.95.74,56.86-.44,15.16-.94,30.39-3.28,45.3-7,26.2-6.54,52.39-13.49,78.18-22.35,24-8.25,47.97-17.5,71.04-29.39,34.73-17.91,57.2-51.41,64.9-100.46,1.26-8.03,1.47-16.38,1.73-24.6.06-1.9-1.64-3.9-2.53-5.85"/>
      <path class="cls-2" d="m.76,334.92c28.14-1.56,56.27-3.51,84.43-4.57,24.02-.9,46.08,8.7,66.62,24.56,15.83,12.22,30.88,26.42,47.27,37.09,19.88,12.94,40.65,21.82,63.89,15.95,21.69-5.48,43.72-9.33,65.73-11.75,24.88-2.73,47.2,9.04,68.47,25.34,16.27,12.46,32.43,25.99,49.88,34.69,19.65,9.79,40.51,15.96,61.18,21.43,27.85,7.37,52,23.35,72.79,48.43,20.62,24.87,38.88,52.52,51.4,85.66,8.63,22.84,16.12,46.5,23.17,70.29,15.23,51.4,44.45,79.04,84.54,89.05,28.14,7.03,56.49,12.91,84.36,21.47,21.95,6.75,43.26,17.05,64.95,25.36,22.93,8.79,46.35,14.14,70.19,16.56,19.28,1.95,38.49,5.82,57.78,6.55,13.88.52,28.29-.4,41.64-4.92,14.2-4.8,19.99-16.78,7.97-34.37-11.76-17.22-24.2-33.8-37.32-49.21-15.71-18.46-32.22-35.76-48.8-52.87-21.11-21.79-46.03-33.58-71.07-44.51-18.27-7.97-36.09-17.3-52.3-30.82-19.4-16.18-34.75-38.47-48.92-61.99-25.98-43.1-55.4-80.46-94.22-103.21-24.83-14.55-50.69-24.03-77.33-30.47-19.6-4.73-39.37-8.79-58.6-15.5-25.16-8.78-46.71-27.61-66.63-49.07-36.16-38.96-71.69-78.93-107.65-118.23-24.02-26.25-51.84-44.01-79.95-61.01-20.22-12.23-41.16-23.43-57.6-43.62-27.03-33.2-33.03-86.7-4.54-125.13,4.24-5.72,9.41-10.25,14.15-15.33"/>
      <path class="cls-1" d="m.76,890.68c15.95.61,31.67-1.51,47.1-7.02,26.93-9.63,34.66-37.49,31.15-66.85-3.46-28.92-13.09-54.71-22.11-80.98-8.99-26.16-17.67-52.64-24.78-79.76-7.34-28.04-6.93-57.28-4.04-86.68,1.66-16.84,3.55-33.21,8.08-49.27,11.51-40.76,43.69-65.41,79.25-52.82,18.44,6.53,34.29,19.67,50.66,31.7,12.27,9.01,24.5,18.33,37.37,25.65,23.11,13.14,46.91,11.95,71.06,3.98,15.14-4.99,30.15-10.48,46.15-11.25,20.24-.97,39.14,5.06,56.75,16.08,32.61,20.39,66.38,36.34,100.52,51.36,18.47,8.13,36.15,18.46,51.69,34.85,19.76,20.83,32,47.83,39.8,78.77,5.17,20.52,9.93,41.26,14.23,62.13,9.63,46.85,33.36,75.86,66.75,92.5,22.05,10.99,44.93,17.55,68.39,21.35,48.71,7.89,96.09,23.36,142.21,45.56,26.18,12.6,53.41,19.15,80.85,24.73,28.78,5.86,57.42,12.94,86.23,18.48,17.66,3.39,35.49,5.66,53.31,7.05,28.41,2.22,56.86,4.34,85.31,4.6,35.24.32,70.5-2.12,105.75-1.82,27.8.24,55.31,5.58,82.68,12.45,26.83,6.74,53.9,11.82,80.84,17.81,24.01,5.34,48.34,9.11,71.86,17.03,15.47,5.21,30.19,15.46,44.44,25.46,14.77,10.36,28.55,23.18,42.81,34.8.92.75,2.34.46,3.52.66"/>
      <path class="cls-2" d="m1919.41,443.96c-26.36,9.38-52.6,19.46-79.14,27.89-16.82,5.34-33.94,8.67-51.5,8.79-19.26.13-38.92.07-57.67,5.02-26.32,6.95-47.69,26.98-65.06,54.36-9.41,14.84-16.34,31.08-21.39,49.27-8.67,31.19-5.32,60.97,7.62,87.7,11.3,23.35,25.89,43.9,38.68,66.02,9.77,16.9,19.89,33.63,28.31,51.68,15.35,32.93,2.25,60.41-17.47,74-15.3,10.54-31.52,16.11-48.14,19.32-19.4,3.74-39.04,6.52-58.62,7-27.84.69-54.44-7.23-78.2-27.78-27.55-23.83-54.74-48.45-82.77-71.25-19.03-15.48-40.21-24.7-62.95-22.25-14.61,1.57-29.04,6.03-43.57,9.07-15.39,3.22-30.75,6.92-46.22,9.28-43.13,6.58-84.56-5.21-125.26-22.28-42.9-17.99-80.38-48.95-115.66-85.3-16.89-17.4-34.02-34.96-52.6-48.79-14.67-10.92-31.49-17.27-47.77-23.85-27.69-11.19-55.58-21.84-78.01-47.34-12.34-14.03-24.04-29.37-34.65-45.68-31.96-49.12-69.67-87.29-116.62-107.48-34.38-14.79-69.24-27.69-103.93-41.23-40.69-15.87-76.06-44.27-108.39-79.79-29.41-32.3-58.04-65.92-88.21-96.94-22.65-23.28-47.46-42.84-70.79-65.02-14.48-13.77-22.57-32.67-19.59-57.26,2.1-17.38,10.6-30.48,18.77-43.21,7.26-11.31,15.32-22.1,26.49-27.15"/>
      <path class="cls-1" d="m.76,916.47c18.66-.78,37.39-.6,55.97-2.63,16.41-1.8,32.14-8.11,41.56-28.04,2.94-6.22,4.02-14.57,4.53-22.11,2.72-40.27-9.25-75.85-21.19-111.37-10.74-31.93-23.71-62.82-29.19-97.35-6.65-41.87-5.57-83.27,7.88-123.07,8.56-25.33,24.74-38.51,44.43-38.95,12.38-.28,25.45,6.71,37.18,13.53,19.73,11.47,38.27,26.49,57.99,38.02,22.89,13.38,46.75,13.98,71.04,5.19,15.16-5.48,30.63-10.09,46.2-12.81,21.69-3.79,42.13,4.42,62.21,14.83,35.43,18.37,71.18,35.67,106.58,54.15,39.6,20.66,63.59,59.33,73.87,113.6,4.85,25.56,9.66,51.25,16.16,76.12,6.89,26.36,20.88,45.2,39.62,59.01,27.3,20.12,57.01,28.82,87.2,36.08,29.32,7.05,59,12.21,87.88,21.65,26.84,8.78,52.59,23.28,79.27,33.09,20.94,7.7,42.5,12.67,63.93,17.79,19.74,4.71,39.65,8.22,59.53,11.82,15.07,2.73,30.22,4.6,45.31,7.15,26.26,4.43,52.56,7.47,79.1,7.18,17.17-.19,34.36,2.09,51.54,2,26.07-.15,52.14-2.03,78.2-2.03,38.39,0,76.19,7.06,113.79,17.21,28.85,7.79,58.01,13.61,87.06,20.14,28.53,6.41,57.72,9.68,83.49,29.43,10.01,7.67,19.59,16.33,29.36,24.53"/>
      <path class="cls-1" d="m1.65,422.86c3.85-2.34,7.54-5.53,11.58-6.89,16.22-5.44,32.49-10.74,48.86-15.3,29.79-8.28,57.5.36,83.49,19.92,17.07,12.85,33.9,26.28,50.66,39.85,14.24,11.53,30.15,16.73,46.25,16.92,13.9.17,27.98-3.98,41.73-7.79,28.76-7.96,57.06-10.55,84.45,7.24,11.89,7.72,23.97,15,35.5,23.56,26.52,19.69,55.43,30.62,84.5,40.8,56.41,19.76,95.69,64.02,115.6,137.25,5.92,21.78,12.44,43.33,19.57,64.46,11.29,33.45,31.83,54.38,56.81,67.92,22.98,12.46,47.51,16.59,71.92,21.44,25.25,5.02,50.29,11.36,74.72,21.88,25.83,11.12,51.8,22.16,78.23,30.27,30.19,9.27,60.94,15.35,91.46,22.68,20.12,4.83,40.22,10.01,60.45,13.89,13.8,2.65,27.81,4.25,41.75,4.69,23.68.75,47.42,1.12,71.08-.06,21.36-1.07,42.64-5.05,64-6.55,15.36-1.08,30.8.14,46.2-.29,28.54-.79,56.49,4.87,84.46,11.56,18.48,4.42,37.23,7.55,55.97,9.37,26.31,2.56,52.71,3.41,79.08,4.94,28.75,1.67,53.68,15.97,76.51,38.54,17.75,17.54,36.19,33.93,58.56,40.04,17.73,4.84,35.39,3.93,53.36,1.58,15.55-2.03,31.37-.57,47.07-.39,31.95.37,61.91,13.22,91.45,27.26,16.78,7.98,32.67,19.24,48.98,28.93,1.04.62,2.35.45,3.54.64"/>
      <path class="cls-1" d="m.76,944.61c19.85,0,39.71.54,59.54-.2,11.87-.45,23.87-1.78,35.51-4.74,19.61-4.99,31.72-26.74,32.1-53.68.53-38.11-9.64-72.46-20.48-106.71-10.49-33.15-22.08-65.84-30.76-99.81-8.88-34.73-10.63-70.49-1.44-106.62,11.97-47.08,37.87-54.12,67.64-39.47,17.96,8.84,34.93,21.15,52.55,31.26,25.82,14.8,52.19,14.51,79.11,4.98,16.36-5.79,32.99-11.14,49.76-13.89,22.15-3.63,42.74,7.42,63.01,17.38,28.04,13.77,55.63,29.15,83.61,43.12,42.83,21.38,68.58,60.68,76.66,120.8,3.51,26.15,8.4,52.33,15.25,77.25,6.85,24.92,20.61,43.35,38.6,56.71,26.18,19.44,54.73,28.32,83.64,36.07,40.09,10.73,81.14,15.68,119.94,34.13,17.02,8.1,33.47,18.54,50.76,25.33,19.17,7.53,38.84,13.62,58.61,17.6,26.78,5.39,53.85,8.4,80.83,12.02,20.12,2.7,40.31,4.39,60.42,7.17,63.3,8.75,126.79,3.15,190.18,4.52,40.45.88,79.95,9.27,119.12,22.15,26.14,8.6,52.62,15.5,79.07,22.34,15.57,4.02,31.65,4.97,46.99,10.01,11.99,3.94,23.18,12.07,34.76,18.25,1.07.57,2.35.44,3.54.64"/>
      <path class="cls-1" d="m1919.41,427.55c-27.25,8.21-54.56,16.11-81.74,24.73-18.74,5.94-37.63,8.57-56.88,9.6-19.7,1.05-39.55,1.57-58.7,10.08-25.57,11.36-45.74,32.21-63.09,58.74-11.41,17.45-20.01,36.83-25.82,58.63-7.77,29.16-4.71,56.79,4.38,84.54,8.75,26.72,23.22,48.13,35.65,71.48,5.28,9.93,10.64,19.9,15.05,30.52,15.78,37.94,7.03,64.05-21.3,78.25-27.47,13.76-56,15.16-85.28,11.2-38.53-5.21-70.47-29.42-102.19-55.46-19.41-15.93-38.62-32.44-58.76-46.63-18.17-12.81-38.53-13.99-58.48-9.43-23.85,5.45-47.23,15.37-71.19,18.95-21.94,3.28-44.38,1.11-66.59.58-23.52-.56-46.23-8.37-68.36-17.78-38.08-16.18-72.04-42.79-103.21-75.83-20.71-21.96-39.78-47.47-64.92-60.73-17.88-9.43-36.49-16.64-55.04-23.61-30.87-11.6-59.45-28.07-81.76-59.9-12.52-17.86-25.44-35.22-38.17-52.81-25-34.55-55.17-59-88.96-74.68-35.42-16.44-71.33-31.28-107.5-44.61-48.32-17.81-88.94-52.26-126.15-95.24-39.81-45.99-79.73-91.81-123.38-131.58-7.66-6.98-13.9-16.77-20.52-25.61-9.64-12.87-11.84-37.68-4.65-54.02,10.55-23.97,24.28-43.11,42.83-56.15"/>
      <path class="cls-1" d="m1.65,565.9c.17-32.5,4.72-62.87,22.14-88.03,15.21-21.97,34.05-33.07,56.04-37.62,28.72-5.95,52.06,10.86,75.59,28.26,18.5,13.67,36.73,28.38,56.12,39.43,17.71,10.1,36.82,8.61,55.87,3.13,18.15-5.23,35.99-12.51,55.05-12.35,17.74.15,33.91,5.74,49.81,15.47,31.87,19.5,63.84,38.94,97.76,51.47,19.95,7.37,39.13,16.72,56.77,30.84,32.57,26.09,49.12,67.06,59.67,113.59,6.19,27.28,11.83,54.91,24.76,78.63,13.52,24.82,31.95,40.03,53.33,50.51,23.32,11.43,47.45,17.06,72.01,21.13,41.73,6.92,82.1,21.4,121.79,39.6,30,13.76,61.04,21.85,92.38,28.4,26.16,5.47,52.09,12.88,78.25,18.4,16.16,3.41,32.6,4.48,48.84,7.32,33.38,5.83,66.92,4.95,100.43,4.45,25.78-.38,51.55-3.34,77.31-3.01,22.53.29,45.16,2.16,67.51,5.86,29.17,4.83,58.03,12.69,87.14,18.23,21.23,4.04,42.64,6.44,63.97,9.56,32.54,4.75,62.64,18.56,90.71,40.89,15.31,12.18,30.86,24.23,47.16,33.77,17.34,10.15,35.88,12.4,55.01,7.72,12.81-3.13,26.02-3.51,39.06-4.96,8.58-.95,17.25-2.91,25.76-2.12,21.85,2.02,43.79,4.29,64.05,17.19,1.38.88,3.5-.25,5.28-.45"/>
      <path class="cls-2" d="m.76,454.51c18.76-15.62,39-26.94,60.46-33.82,24.16-7.75,47.99-4.93,70.1,10.56,21.67,15.18,42.73,31.87,64.06,47.89,24.22,18.19,49.86,19,76.45,11.89,16.45-4.4,33.07-8.38,49.76-10.4,18.23-2.2,35.37,5.75,51.46,16.26,27.03,17.66,54,35.37,82.72,47.88,20.1,8.75,40.88,15.37,60.28,26.27,27.77,15.6,50.74,40.17,63.94,77.06,9,25.17,17.61,50.88,23.9,77.38,14.54,61.3,46.43,95.8,92.74,108.7,24.09,6.71,48.69,10.25,72.79,16.9,22.41,6.18,44.94,12.77,66.59,22.4,41.28,18.37,83.18,32.36,126.27,40.87,21.18,4.18,41.98,11.7,63.15,15.92,21.78,4.35,43.76,7.57,65.74,9.37,24.53,2,49.17,2.84,73.74,2.4,40.89-.74,81.77-4.39,122.64-3.88,22.83.28,45.66,6.05,68.42,10.09,21.09,3.74,42.01,9.16,63.12,12.61,28.08,4.59,56.39,6.89,84.37,12.23,23.55,4.49,44.79,18.05,64.99,34.68,13.83,11.38,27.81,23.02,42.76,31.25,11.54,6.36,24.68,10.39,37.15,10.54,26.65.32,53.32-2.38,79.97-4.17,22.62-1.52,44.36,5.1,65.68,13.31,15.51,5.97,30.29,15.3,45.42,23.02.72.37,1.76-.32,2.64-.51"/>
      <path class="cls-1" d="m1920.3,412.3c-18.07,3.91-36.22,7.28-54.19,11.86-22.3,5.68-44.38,12.86-66.7,18.39-8.98,2.22-18.32,2.22-27.52,2.51-38.24,1.21-72.08,16.07-100.61,51.39-16.43,20.34-30.76,42.48-41.45,68.37-15.14,36.65-16.89,75.28-4.27,113.47,6.91,20.9,16.87,40.04,25.47,59.97,6.46,14.96,13.49,29.43,16.13,46.87,2.49,16.47-.82,30.02-10.78,39.95-13.46,13.43-29.3,17.25-45.36,18.51-40.54,3.18-77.52-12.88-111.88-39.84-23.23-18.22-45.57-38.4-68.56-57.17-13.77-11.24-29.56-18.59-45.22-16.88-18.88,2.06-37.39,10.04-56.03,15.63-19.97,6-39.81,11.99-60.41,14.45-42.42,5.07-82.98-4.29-122.64-22.79-29.46-13.74-55.93-34.73-79.97-60.93-14.74-16.06-29.01-32.85-43.6-49.16-19.79-22.12-43.69-31.42-68.38-38.9-21.03-6.37-42.64-11.27-61.29-26.91-11.29-9.47-22.84-18.93-32.73-30.67-12.73-15.12-23.85-32.59-35.77-48.91-27.85-38.1-60.79-66.15-98.69-83.01-33.46-14.89-67.45-27.74-101.25-41.26-48.41-19.36-90.98-51.9-128.98-95.98-38.82-45.03-78.77-88.37-117.96-132.85-5.82-6.61-10.94-14.83-15.05-23.42-7.34-15.32-8.09-31.23-1.19-48.03,10.64-25.93,26.44-43.86,46.35-56.18"/>
      <path class="cls-1" d="m1920.3,395.89c-19.25,3.91-38.56,7.4-57.75,11.85-15.78,3.66-31.34,9.07-47.14,12.58-12.92,2.87-26.01,4.59-39.08,5.96-38.21,4.01-73.5,16.83-103.25,51.42-21.43,24.92-39.59,52.78-53.12,85.87-16.69,40.81-17.79,82.8-4.41,125.41,7.06,22.47,15.43,44.25,22,66.94,11.29,38.97-4.83,55.86-29.2,61.91-30.44,7.56-58.53-3.76-86.25-19.56-31.25-17.81-57.36-45.93-85.33-70.39-15.38-13.45-32.23-23.42-51.43-19.91-11.08,2.02-22.07,5.44-32.87,9.31-20.53,7.36-40.71,16.6-61.4,23.02-22.12,6.86-44.55,8.27-67.53,5.57-24.43-2.87-47.99-8.96-71.05-19.35-32.59-14.68-61.01-38.51-86.15-69.25-9.83-12.01-19.49-24.38-28.39-37.56-17.45-25.82-39.69-37.91-64.95-43.44-23.85-5.22-48.37-7.95-70.15-23.46-12.27-8.74-24.71-17.87-35.38-29.52-12.03-13.14-22.31-29.13-33.1-44.2-17.11-23.91-35.85-45-57.78-60.96-42.2-30.71-88.12-47.82-134.19-64.5-48.95-17.72-94.16-45.21-132.4-90.27-24.71-29.13-49.24-58.52-73.77-87.93-15.2-18.23-30.56-36.27-45.26-55.2-17.35-22.34-20.14-50.24-3.77-75.07,9.51-14.42,20.12-26.52,33.04-34.93,5.71-3.71,11.81-6.35,17.74-9.48"/>
      <path class="cls-2" d="m1418.2.76c-6.52,39.47-12.97,78.97-19.57,118.42-4.93,29.47-6.22,58.86-3.93,89.17,2.31,30.6,5.97,60.67,12.08,90.18,5.62,27.18,12.39,53.95,18.51,80.96,3.71,16.36,8.24,32.57,10.38,49.3,2.11,16.55-3.18,31.75-12.27,43.12-12.48,15.62-25.97,29.84-38.95,44.76-18.99,21.83-38.07,43.55-56.85,65.7-20.64,24.36-42.72,45.3-70.25,53.84-17.7,5.49-35.57,4.97-52.33-3.79-24.8-12.95-33.67-37.41-21.29-72.31,8.2-23.1,17.78-45.32,26.5-68.11,12.25-32.04,22.38-65.49,26.38-100.87,8.33-73.69-5.52-139.16-47.84-190.82-20.3-24.78-44.7-27.76-70.01-14.19-22.34,11.98-40.69,31.98-58.73,52.59-36.53,41.75-63.86,93.62-92.59,144.07-6.58,11.56-15,22-23.95,30.38-18.1,16.93-36.2,8.27-53.06-4.61-11.77-8.99-22.83-19.7-33.82-30.34-26.52-25.65-56.55-41.7-87.15-56.13-33.59-15.84-67.65-30.1-99.46-51.8-7.78-5.31-15.32-11.63-22.08-18.92-3.45-3.73-6.73-10.56-6.87-16.13-.19-7.87,5.4-11.21,11.11-12.95,17.22-5.27,34.36-10.93,51.56-16.33,34.95-10.98,69.88-22.04,104.87-32.79,26.85-8.25,53.42-17.58,78.19-34.08,36.25-24.15,55.25-64.55,62.16-116.06.98-7.33,1.24-14.84,1.83-22.26"/>
      <path class="cls-2" d="m.76,984.48c12.44-2.34,24.83-5.47,37.34-6.83,15.05-1.64,30.2-1.71,45.31-2.56,12.44-.7,25.02-.27,37.29-2.62,19.25-3.69,31.57-24.55,32.27-53.63.97-40.12-9.16-76.37-19.89-112.52-11.43-38.52-24.58-76.19-35.13-115.11-7.64-28.19-10.69-57.79-3.95-87.81,6.96-31.02,26.3-49.87,55.19-36.38,18.28,8.54,36.6,16.98,55.11,24.55,21.79,8.91,43.73,7.27,65.75.26,20.33-6.47,40.68-13.87,61.36-16.92,11.47-1.69,24.01,3.06,35.41,7.71,35.89,14.65,70.83,32.67,105,53.44,36.22,22.02,54.73,59.98,61.38,110.38,3.12,23.62,6.61,47.3,11.64,70.3,9,41.17,30.92,67.09,60.21,83.36,31.97,17.76,65.75,27.24,99.61,34.63,45.01,9.83,88.23,26.42,129.6,51.16,24,14.35,48.82,23.99,74.74,28.94,8.79,1.68,17.75,2.01,26.65,2.43,20.73.97,41.48,1.26,62.2,2.49,34.37,2.04,68.72,4.72,103.09,6.9,16.87,1.07,33.77,2.31,50.65,2.23,24-.12,48-2.42,71.98-1.96,46.34.9,92.1,7.52,135.98,29.05,18,8.83,36.08,17.41,54.25,25.64,2.6,1.18,5.87-.2,8.84-.4"/>
      <path class="cls-1" d="m31.86,1081.79c-.3-10.16-1.99-20.67-.61-30.42,3.39-24.02,11.11-32.08,29.93-36.51,20.04-4.72,39.72-1.02,59.58,2.16,9.93,1.59,20.31,1.89,30.14-.13,12.1-2.49,19.77-13.2,24.2-28.82,6.26-22.06,5.41-44.6,3.19-66.88-4.97-49.96-22.09-94.72-36.15-140.78-8.16-26.72-16.26-53.56-22.93-80.97-4.75-19.53-7.35-39.73-4.07-60.93,2.97-19.16,13.99-36.93,32.25-36.72,15.41.18,29.88,5.32,44.37,10.12,30.97,10.24,61.17,8.55,91.66-3.49,15.58-6.15,31.79-10.65,47.95-12.78,19.29-2.54,38.04,4.47,55.91,13.78,25.07,13.06,50.13,26.28,74.62,41.11,32.06,19.42,49.62,53.76,55.25,99.42,2.85,23.15,5.58,46.42,9.89,69.13,8.12,42.73,27.89,73.4,57.5,94.05,26.94,18.8,56.38,26.43,85.4,36.08,28.08,9.33,56.54,16.81,84.34,27.38,29.83,11.34,56.72,32.18,84.53,49.99,22.15,14.19,45,25.76,70.17,25.86,23.11.09,46.21.32,69.32-.07,20.74-.35,41.47-2.19,62.21-2.09,31.7.15,63.39,1.99,95.09,2.01,30.21.01,60.46-2.93,90.63-1.74,29.39,1.16,58.93,4.21,87.06,17.32,7.7,3.59,14.83,9.29,22.3,13.8.92.56,2.33-.29,3.52-.48"/>
      <path class="cls-1" d="m1400.42.76c-2.37,20.71-3.54,41.82-7.36,62.06-8.31,44.01-14.35,88.32-11.95,133.72,1.32,25.14,4.43,50.21,7.91,75.02,5.01,35.72,11.35,71.1,16.66,106.75,6.31,42.3-2.01,78.45-26.54,107.93-25.72,30.91-50.29,63.56-76.73,93.34-18.13,20.41-39.54,33.59-64.63,32.12-16.22-.95-31.11-14.08-32.41-32.96-.78-11.42,1.96-23.94,5.08-35.01,8.56-30.4,18.74-60.01,27.16-90.47,7.7-27.87,12.12-56.71,13.84-86.65,2.24-38.76-3.06-75.24-14.72-110.15-12.5-37.42-29.02-71.28-56.74-92.65-18.64-14.37-38.58-12.83-57.62-3.21-20.78,10.5-38.29,28.61-55.29,47.56-36.08,40.22-64.52,89.41-94.23,137.19-7.55,12.14-15.93,23.62-24.88,33.95-20.01,23.08-36.63,19.13-57.52,4.53-20.75-14.51-39.87-33.13-60.73-47.32-18.47-12.57-38.47-21.15-57.56-32.19-17.35-10.03-34.56-20.58-51.49-31.79-5.33-3.53-9.78-9.63-14.25-15.09-4.15-5.07-3.8-10.7-.09-16.36,8.28-12.62,19.84-17.57,31.18-22.04,34.23-13.48,68.74-25.73,103.02-38.99,28.51-11.03,56.74-22.88,80.06-49.07,25.42-28.56,38.13-65.89,44.31-107.97,1.07-7.3,1.25-14.83,1.85-22.26"/>
      <path class="cls-1" d="m1385.32,1.93c-.89,1.95-2.33,3.79-2.58,5.88-2.8,23.42-5.56,46.86-8.04,70.34-2.27,21.46-4.43,42.95-6.17,64.49-1.07,13.22-2.46,26.69-1.63,39.83,1.91,30.18,4.92,60.24,7.81,90.3,3.05,31.69,5.71,63.5,10.04,94.9,2.23,16.2.47,31.5-1.35,46.94-2.74,23.32-12.57,42.77-24.1,59.52-20.65,30.01-42.9,58.19-69.16,79.84-9.81,8.09-20.26,14.4-32.8,13.5-8.39-.6-16.86-11.54-17.11-22.67-.55-24.76,6.26-47.23,10.97-70.33,8.55-41.93,16.66-83.83,16.01-127.83-.68-46.28-10.65-89.09-27.87-128.79-8.08-18.64-17.87-36.31-28.4-52.72-15.3-23.83-34.8-39.7-59.33-38.58-18.32.84-35.35,9.93-50.6,23.24-28.22,24.65-53.57,53.66-75.7,87.69-22.96,35.29-46.51,69.91-70.2,104.35-9.38,13.63-20.89,24.48-35.45,24.32-8.9-.1-18.68-1.89-26.5-7.05-28.55-18.85-56.43-39.46-84.59-59.36-10.63-7.51-21.33-14.85-31.98-22.31-1.52-1.07-3.11-2.11-4.43-3.54-15.39-16.68-14.17-27.81,3.48-41.13,18.18-13.73,38.19-20.71,57.82-29.17,31.8-13.7,64.08-25.46,91.65-52.56,22.45-22.07,37.87-50.45,46.73-84.75,5.49-21.28,8.54-43.66,12.69-65.55"/>
      <path class="cls-1" d="m1366.65.76c-2.67,25.01-5.48,50-7.96,75.05-2.28,23.02-4.3,46.1-6.22,69.18-.87,10.51-2.13,21.17-1.65,31.64,1.27,28.18,3.33,56.3,5.17,84.43,2.68,40.97,7.47,81.85,5.14,123.1-1.08,19.13-6.12,36.87-14.81,52.89-10.56,19.48-22.73,36.63-39.31,46.53-15.91,9.49-23.5-.18-23.59-19.68-.12-24.61,2.4-49.22,3.13-73.87.56-18.73,1.03-37.62-.16-56.24-1.06-16.56-3.89-33.05-6.95-49.24-7.12-37.74-21.06-71.6-36.48-104.26-11.17-23.65-24.33-45.46-41.59-62.3-13.76-13.42-29.87-20.09-46.21-19.24-20.72,1.07-40.1,10.9-57.86,26.15-30.81,26.46-57.9,58.24-81.7,95.1-17.98,27.85-35.6,56.16-54.45,82.96-7.64,10.87-17.5,19.78-27.44,26.92-13.76,9.87-29.29,7.52-42.29-1.36-19.2-13.11-36.95-29.93-55.3-45.2-.69-.58-1.19-1.55-1.79-2.32-16.68-21-15.75-32.45,5.5-47.68,24.18-17.33,49.64-31.56,74.48-47.32,34.92-22.15,58.96-57.65,71.8-105.59,6.99-26.08,12.04-53.06,17.96-79.64"/>
      <path class="cls-1" d="m216.71,1081.79c-2.37-20.71-4.97-41.39-7.02-62.16-1.11-11.25-1.55-22.64-1.82-33.99-1.1-45.26-10.81-87.57-23.91-129.05-13.35-42.26-26.14-84.87-38.1-127.85-5.04-18.14-7.94-37.71-4.6-57.3,4.09-24.04,13.24-29.99,31.02-31.4,10.3-.81,20.72,1.31,31.09,2.05,30.62,2.17,60.47-2.97,89.81-15.03,16.08-6.61,32.65-12.6,49.69-10.46,12.55,1.58,25.18,4.71,37.29,9.33,25.73,9.82,50.61,22.94,73.77,40.88,26.19,20.3,41.97,50.49,47.16,90.17,2.56,19.57,4.94,39.19,8.05,58.61,10.59,66.03,41.9,108.64,88.91,130.92,26.33,12.48,53.93,20.2,80.72,31.05,28.29,11.46,56.62,23.01,84.32,36.69,12.37,6.11,23.46,17.05,34.74,26.59,14.73,12.45,29.05,25.74,43.64,38.49,1.44,1.26,3.51,1.26,5.29,1.85"/>
      <path class="cls-1" d="m248.7,1081.79c-7.7-47.68-15.36-95.38-23.12-143.04-5.74-35.24-16.68-68.13-27.78-100.7-11.44-33.58-23.26-66.9-28.03-103.36-4.69-35.92,4.07-57.01,33.61-61.97,33.73-5.67,66.91-13.95,99.59-26.77,33.05-12.96,66.05-7.44,97.58,9.38,18.16,9.69,36.02,20.81,51.7,37.1,21.42,22.26,29.63,53.37,34.59,86.85,4.19,28.26,7.61,56.65,16.76,83.33,12.95,37.76,33.3,66.21,59.67,87.87,27.47,22.56,58.04,34.51,88.87,45.76,34.4,12.55,69.05,24.63,99.43,50.59,11.64,9.95,22.03,22.44,32.99,33.78"/>
      <path class="cls-1" d="m.76,20.69c14.52,3.13,29.03,6.22,43.54,9.39,24.89,5.44,49.75,11.08,74.66,16.35,12.7,2.69,25.5,4.46,38.2,7.16,22.88,4.85,39.26,21.48,48.84,49.21,15.37,44.53,42.31,71.6,75.51,90.47,25.54,14.52,51.12,29.4,75.42,47.14,24.66,18,44.41,44.68,63.38,72.13,12.27,17.76,25.48,34.39,38.07,51.77,3.63,5.01,7.21,10.43,9.63,16.49,1.9,4.77,3.69,11.59,2.49,16.1-2.12,7.99-9.1,7.67-13.76,5.69-11.22-4.78-22.62-9.93-32.85-17.51-30.13-22.3-61.65-32.68-96.09-24.37-16.58,4-33.35,6.86-49.73,11.95-32.29,10.02-60.81-1.04-88.1-23.49-15.85-13.05-32.37-24.73-48.84-36.42-15.45-10.97-32.53-14.26-49.73-15.15-16.56-.86-33.18.11-49.76-.28-13.63-.32-27.25-1.47-40.88-2.25"/>
      <path class="cls-1" d="m1913.19,1081.21c-1.18.2-2.9,1.16-3.48.47-18.26-21.98-40.77-34.22-63.29-45.18-27.04-13.16-54.65-24.9-82.64-33.8-18.95-6.03-38.95-7.23-58.55-8.48-15.64-.99-31.4,2.11-47.08,1.74-16.97-.4-32.48-8.7-44.23-24.65-13.36-18.14-12.79-30.79,7.04-40.23,14.05-6.68,29.42-8.82,44.3-12.16,26.35-5.91,52.43-12.43,74.65-34.07,13.01-12.67,24.77-26.82,22.85-50.42-1.33-16.37-8.69-30.2-16.81-42.05-19.94-29.12-41.05-56.86-61-85.97-8.62-12.58-16.67-26.33-23.03-41.02-14.1-32.57-12.3-65.2,2.38-97.19,16.66-36.31,40.79-59.09,72.12-66.21,14.67-3.34,30.15-.12,45.24-.71,12.75-.5,25.93.17,38.13-3.84,32.84-10.78,65.25-23.78,97.85-35.85.82-.3,1.77-.04,2.66-.04"/>
      <path class="cls-1" d="m1348.88.76c-3.26,26.97-6.62,53.91-9.75,80.91-2.81,24.2-5.48,48.44-8,72.69-3.09,29.68-5.9,59.41-8.99,89.09-.34,3.23-1.24,6.72-2.69,9.3-2.63,4.68-5.91,7.39-9.69,1.28-5.58-9.04-11.74-17.54-16.78-27.06-16.24-30.65-31.15-62.62-48.39-92.22-12.31-21.13-26.71-40.12-45.79-52.19-26.35-16.67-52.58-16.3-79.17-3.15-37.94,18.77-69.17,52.05-101.29,83.25-13.16,12.78-24.06,28.34-33.13,46.64-11.21,22.61-21.84,45.93-37.05,64.77-10.93,13.54-23.12,21.41-38.28,18.56-10.68-2.01-19.53-8.22-23.99-22.19-3.82-11.97-1.81-21.28,8.98-30.24,15.26-12.66,30.91-24.69,47.07-35.18,24.45-15.86,45.73-35.89,55.68-70.69,6.2-21.7,10.61-44.33,15.23-66.76,4.56-22.13,8.39-44.52,12.53-66.8"/>
      <path class="cls-1" d="m271.8,1081.79c-2.96-17.98-5.72-36.02-8.93-53.92-6.37-35.61-12.28-71.41-19.78-106.61-4.45-20.87-11.55-40.76-17.51-61.07-8.27-28.15-18.71-55.56-24.38-84.59-8.44-43.3-1.93-63.85,32.43-78.19,25.83-10.78,52.02-20.09,78.17-29.42,28.47-10.15,56.51-5.75,83.43,8.41,19.03,10,36.75,23.09,50.95,44.01,14.37,21.17,20.14,46.58,24.59,72.97,7.27,43.11,15.83,85.41,37.41,120.74,23.01,37.68,51.31,66.44,85.38,84.2,31.98,16.67,64.89,30.29,96.64,47.62,16.29,8.89,30.96,22.95,46.37,34.68"/>
      <path class="cls-2" d="m293.13,1081.79c-3.55-22.28-6.72-44.68-10.75-66.8-6.79-37.23-12.9-74.8-21.61-111.26-7.73-32.38-19.14-63.21-27.81-95.25-3.57-13.21-5.45-27.17-4.16-42.14,1.89-22,12.17-33.9,25.27-43.23,20.39-14.52,42.22-24.23,64.84-30.51,36.38-10.1,69.14,1.39,98.61,30.45,22.26,21.95,30.94,54.24,37.28,87.92,10.73,57,29.59,108.17,62.37,148.75,30.74,38.04,65.72,67.8,104.71,89.41,18.07,10.01,35.59,21.75,53.4,32.59.68.41,1.75-.31,2.64-.51"/>
      <path class="cls-1" d="m.76,34.76c14.52,3.13,29.07,5.98,43.54,9.44,25.21,6.03,50.28,13.11,75.57,18.53,31.78,6.81,58.2,24.07,74.6,62.33,16.97,39.6,44.01,62.33,74.63,79.87,23.09,13.23,46.16,26.77,68.32,42.45,15.96,11.29,29.81,27.24,37.4,50.07,4.14,12.47,2.39,18.79-7.99,24.28-10.57,5.59-21.78,9.15-32.81,13.12-18.02,6.48-36.18,12.31-54.18,18.88-32.41,11.83-60.87.01-88.1-23.29-16-13.7-32.67-26.3-49.79-37.39-13.12-8.5-27.79-11.47-42.53-12.06-21.33-.84-42.67-1.2-63.98-2.51-11.58-.71-23.11-2.98-34.66-4.54"/>
      <path class="cls-2" d="m1920.3,283.33c-25.77.78-51.55,1.23-77.31,2.44-23.41,1.1-46.84,2.38-70.2,4.74-34.73,3.51-65.93,20.32-94.19,46.79-35.08,32.86-67.04,70.5-97.98,109.9-12.08,15.38-26.08,28.34-39.93,41.04-7.77,7.12-17.46,5.39-22.07-.9-5.7-7.77-6.5-20.77-.76-31.54,5.31-9.95,11.34-19.36,17.72-28.17,16.97-23.45,32.72-47.87,43.58-77.41,10.82-29.46,18.44-60.11,20.15-92.71,1.48-28.06,3.34-56.5,1.42-84.34-2.05-29.6-7.4-59.01-13.06-87.91-5.59-28.56-13.36-56.37-20.17-84.51"/>
      <path class="cls-1" d="m.76,51.18c14.81,3.13,29.67,5.88,44.42,9.47,21.08,5.12,42.14,10.44,63.09,16.45,17.37,4.99,34.37,12.52,47.8,28.32,8.54,10.05,16.06,22.26,22.24,35.02,20.11,41.54,49.31,65.9,83.66,82.15,18.87,8.92,37.54,19.13,53.34,36.18,3.55,3.83,7.04,8.07,9.72,12.92,6.92,12.52,9.3,22.99-4.48,36.01-22.09,20.87-47.18,31.45-74.51,29.31-16.25-1.27-30.88-10.66-44.38-22.17-15.2-12.97-29.38-27.76-46.16-37.74-15.23-9.06-30.85-13.61-47.23-14.82-24.28-1.8-48.6-2.7-72.86-4.98-10.15-.95-20.17-4.36-30.21-6.92-1.31-.33-2.39-2.23-3.57-3.4"/>
      <path class="cls-1" d="m1544.39.76c10.96,36.74,22.63,73.15,32.62,110.34,6.14,22.83,8.52,46.97,10.4,71.35,3.44,44.61-1.44,87.15-14.78,127.74-14.62,44.46-37.61,79.33-73.64,94.76-19.57,8.38-31.91,1.43-44.39-17.22-17.97-26.86-27.51-59.37-35.37-92.73-9.05-38.44-14.45-77.87-13.41-118.36.8-31.1,6.19-60.99,14.02-90.35,6.59-24.71,12.07-49.93,17.81-75.02.74-3.22.1-6.99.1-10.51"/>
      <path class="cls-1" d="m315.35,1080.62c-8.59-52.37-16.26-105.05-26.12-157-5.76-30.34-15.3-59.42-22.62-89.28-2.6-10.59-4.36-21.73-5.33-32.79-2.44-27.85,8.23-46.01,25.55-59.97,17.64-14.22,37.13-20.96,56.97-21.31,16.58-.29,33.27,5.29,48.06,17.83,17.1,14.5,28.87,34.04,36.43,58.74,10.09,32.98,20.02,66.09,31.25,98.4,8.56,24.63,21.24,45.98,35.31,65.82,32.09,45.26,68.74,83.4,106.67,119.56"/>
      <path class="cls-1" d="m1507.95.76c2.37,4.3,4.87,8.48,7.09,12.92,10.12,20.28,20.1,40.68,30.25,60.94,24.13,48.15,33.22,101.74,28.91,158.24-3.96,51.95-19.48,97.13-54.67,126.75-21.06,17.73-48.7,14.25-65-14.04-18.33-31.81-28.38-67.8-32.66-106.82-1.91-17.45-3.16-35.13-3.53-52.74-.64-30.46,5.51-59.38,15.17-86.63,7.56-21.35,17.36-41.3,25.41-62.37,4.41-11.55,7.26-24.13,10.82-36.25"/>
      <path class="cls-2" d="m.76,72.28c23.4,4.3,46.9,7.85,70.17,13.15,16.16,3.68,32.02,8.94,47.26,18.12,19.11,11.51,32.12,30.19,42.53,53.14,6.21,13.69,12.32,27.45,18.69,41.01,7.51,15.99,18.38,26,31.93,31.8,15.23,6.52,30.48,13.2,45.25,21.3,7.38,4.05,14.43,10.39,20.37,17.51,8.65,10.36,7.57,21.66-2.56,30.11-16.66,13.9-34.35,11.85-50.39-.34-12.3-9.35-23.02-22.51-33.9-34.83-12.16-13.78-25.92-21.47-41.85-22.11-24.29-.96-48.62-.68-72.86-2.67-21.95-1.8-44.02-4.19-64.9-14.91-3.13-1.61-6.5-2.41-9.76-3.58"/>
      <path class="cls-1" d="m1919.41,767.57c-16.59,13.29-33.54,25.86-49.68,40.04-22.66,19.91-45.17,17.83-67.57.87-27.87-21.1-52.46-48.12-76.53-76.01-17.08-19.79-33.84-39.91-47.05-64.56-18.28-34.09-15.05-77.69,5.33-107.87,18.22-26.98,41.23-39.97,68.43-39.75,13.63.11,27.3,2.76,40.87,1.94,24.88-1.5,49.35-6.52,72.94-18.27,17.77-8.85,36.08-15.84,54.15-23.65"/>
      <path class="cls-1" d="m1587.93,1.93c2.67,8.99,6.29,17.7,7.83,27.02,6.32,38.19,12.74,76.39,17.66,114.92,2.75,21.54,2.67,43.71,3.83,65.6.62,11.72,1.75,23.46,1.66,35.17-.16,21.11-1.07,42.21-1.65,63.32-.05,1.95-.15,3.93.01,5.86,1.64,19.46,9.61,26.67,22.98,18.47,13.79-8.45,26.89-18.97,40.07-29.08,23.3-17.89,47.76-31.44,74.68-36.24,2.04-.36,4.14-.05,6.22-.05,29.62,0,59.25.6,88.86-.19,23.42-.62,46.81-2.94,70.21-4.5"/>
      <path class="cls-1" d="m339.34,1081.79c-3.26-24.23-6.05-48.59-9.87-72.67-8.89-55.97-17.77-111.96-27.59-167.65-11.18-63.48,27.13-86.42,60.49-74.72,19.17,6.72,32.67,24.66,41.79,47.75,10.29,26.04,20.15,52.36,30.28,78.52,11.13,28.76,25.16,55,41.87,78.43,23.26,32.6,47.31,64.2,70.95,96.33,2.92,3.97,5.37,8.55,8.03,12.85"/>
      <path class="cls-1" d="m1919.41,723.01c-18.96,12.51-37.59,25.98-56.95,37.3-31.84,18.61-62.88,11.03-91.27-11.92-26.79-21.66-51.7-46.74-72.42-79.04-30.75-47.93-14.56-104.85,30.51-123.2,5.31-2.16,11.21-2.32,16.84-2.42,16.59-.3,33.22-1.14,49.75.12,27.79,2.12,53.55-7.97,79.09-20.2,15.16-7.25,30.22-14.82,45.33-22.25"/>
      <path class="cls-1" d="m1611.93.76c3.55,24.62,7.46,49.17,10.58,73.88,5.04,39.8,9.41,79.74,14.37,119.56,1.91,15.34,3.82,30.84,7.24,45.66,4.87,21.12,14.87,28.02,30.87,22.23,16.71-6.05,32.96-14.7,49.86-19.4,19.53-5.43,39.53-6.2,59.5-1.74,7.87,1.76,15.97,2.05,23.98,2.44,20.14.98,40.29,2.49,60.43,2.15,17.19-.29,34.36-2.86,51.55-4.43"/>
      <path class="cls-1" d="m1920.3,684.32c-16.88,10.94-34,21.31-50.61,32.95-39.17,27.45-76.4,20.63-111.92-10.87-16.05-14.24-31.6-29.95-42.62-51.51-4.77-9.34-9.35-18.99-9.17-31.54.43-29.66,16.4-51.25,39.25-51.55,14.22-.19,28.45-.6,42.65.08,36.16,1.71,70.28-8.83,103.11-28.18,9.34-5.51,18.94-10.23,28.42-15.31"/>
      <path class="cls-1" d="m1636.81.76c1.18,8.99,2.72,17.93,3.49,26.98,2.54,30.07,4.08,60.32,7.42,90.23,2.44,21.91,5.99,43.68,14.71,63.48,6.98,15.85,16.03,25.38,30.37,24.52,13.92-.84,27.9-2.99,41.75-2,17.54,1.26,34.97,5.13,52.45,7.85,17.77,2.76,35.54,5.5,53.32,8.2,5.62.86,11.31,2.66,16.87,2.16,21.06-1.87,42.07-4.5,63.11-6.84"/>
      <path class="cls-1" d="m1327.55.76c-4.61,31.96-9.13,63.96-19.59,93.78-1.83,5.23-3.66,10.64-6.28,15.17-6.46,11.2-16.11,13.48-25.58,4.59-14.61-13.73-28.26-29.24-42.82-43.08-26.19-24.88-55.71-37.9-87.87-33.53-19.8,2.69-39.14,11.2-58.71,16.96-4.99,1.47-10.03,2.81-15.11,3.47-8.77,1.13-16.75-7.39-17.61-19.86-.75-10.85-.24-21.87-.04-32.81.02-1.2,1.66-2.35,2.55-3.52"/>
      <path class="cls-2" d="m1920.3,632.73c-21.61,9.1-39.56,27.03-58.65,42.22-14.23,11.32-29.57,19.45-46.2,18.42-25.49-1.59-46.66-15.75-61.27-44.27-7.23-14.11-4.15-26.53,7.98-32.64,4.79-2.41,9.98-3.99,15.08-4.68,9.73-1.31,19.54-1.81,29.32-2.48,37.16-2.55,73.75-8.14,106.67-33.95,2.14-1.68,4.71-2.41,7.08-3.58"/>
      <path class="cls-1" d="m1920.3,187.18c-12.74,1.95-25.44,4.65-38.22,5.65-12.4.97-25.2,2.61-37.25-.24-36.01-8.52-71.74-19.16-107.6-28.8-7.34-1.97-14.78-3.43-22.21-4.71-28.96-4.99-40.35-35.5-44.13-65.77-2.74-21.94-2.96-44.47-3.71-66.77-.29-8.55,1.04-17.19,1.63-25.79"/>
      <path class="cls-1" d="m505.53.76c10.76.92,18.66,9.86,26.55,17.77,18.11,18.17,35.24,38.07,53.53,55.9,22.58,22.01,47.85,34.95,76.31,37.97,41.28,4.37,78.7-8.47,112.9-38.91,11.61-10.34,19.64-23.59,22.28-42.23,1.62-11.44.42-21.58-5.41-30.5"/>
      <path class="cls-1" d="m369.56,1081.79c-2.07-20.32-4.28-40.62-6.18-60.98-1.67-17.95-3.42-35.91-4.37-53.94-1.07-20.28-1.45-40.63-1.78-60.96-.09-5.45.72-11.06,1.74-16.39,3.89-20.45,11.75-23.15,22.82-9.1,12.51,15.88,23.34,34.07,34.87,51.29,10.98,16.39,21.71,33.08,32.93,49.19,23.26,33.4,46.76,66.49,70.16,99.72"/>
      <path class="cls-1" d="m1919.41,1056c-23.95-22.23-50.34-38.12-77.25-52.98-20.89-11.53-42.85-20.32-61.39-38.46-1.71-1.68-3.77-2.83-5.29-4.76-7.64-9.73-10.1-17.29-2.5-29.03,17.74-27.4,40.03-46.95,66.55-56.01,9.16-3.13,19.5-1.33,29.22-.31,15.74,1.65,31.41,4.49,47.11,6.87,1.2.18,2.37.75,3.56,1.15"/>
      <path class="cls-1" d="m.76,107.46c18.37,0,36.74-.36,55.1.11,16.77.42,32.45,6.95,47.07,17.55,14.21,10.31,25.37,24.44,27.39,46.86.94,10.45-.85,20.89-9.6,25.72-6.14,3.38-12.25,7.89-18.68,9.17-35.31,6.99-68.48.05-97.67-29.13-1.28-1.28-1.83-3.82-2.72-5.78"/>
      <path class="cls-2" d="m1920.3,152.01c-8.29,1.56-16.74,2.28-24.85,4.86-20.24,6.43-40.89,6.68-60.33-.74-34.52-13.18-68.57-28.82-102.2-45.58-18.34-9.14-27.37-29.19-28.84-55.82-.96-17.39.62-33.9,3.91-50.42.28-1.38,1.7-2.37,2.58-3.55"/>
      <path class="cls-1" d="m530.41.76c11.53,3.23,18.41,15.43,26.54,24.8,15.94,18.35,31.32,37.51,49.87,51.43,19.31,14.49,39.91,22.36,62.21,23.59,23.71,1.31,46.03-4.92,67.57-17.67,13.81-8.17,26.02-19.38,33.46-36.64,5.95-13.79,8.19-29.49.28-44.34"/>
      <path class="cls-1" d="m549.96.76c4.15,3.52,8.81,6.31,12.35,10.68,16.23,19.96,32.12,40.54,51.69,54.85,17.57,12.85,36.41,19.94,56.82,20.26,21.36.34,41.47-4.68,59.49-20.22,11.02-9.5,20.28-20.93,22.43-39.73,1.05-9.19.48-17.2-3.72-24.65"/>
      <path class="cls-1" d="m1.65,866.06c4.44-1.95,8.78-4.65,13.35-5.74,34.44-8.22,44.18-37.57,34.79-77.57-5.96-25.41-15.7-48.28-25.13-71.4-8.92-21.87-17.35-43.93-22.02-68.1-1.01-5.23-.7-10.91-.99-16.38"/>
      <path class="cls-1" d="m1919.41,106.28c-17.5,5.92-34.92,11.56-53.33,10.78-20.84-.89-40.06-8.96-58.58-20.36-9.58-5.9-18.71-13.33-27.57-21.01-21.83-18.94-27.35-37.32-22.29-71.42.17-1.13.02-2.34.02-3.51"/>
      <path class="cls-2" d="m569.51.76c8.89,9.77,17.97,19.25,26.62,29.38,16.27,19.06,34.26,34.5,56.06,38.29,24.58,4.28,48.9,4.15,68.49-21.81,10.2-13.51,11.64-28.66,7.9-45.86"/>
      <path class="cls-1" d="m11.42.76c15.7,3.13,31.54,5.38,47.07,9.57,29.41,7.94,59.15,10.04,88.87,7.47,13.64-1.18,27.76-4.48,40.1-14.52,2.41-1.96,5.85-1.73,8.81-2.51"/>
      <path class="cls-1" d="m1168.48.76c19.63.5,37.72,9.33,56.03,17.43,12.52,5.54,25.28,10.52,38.21,13.97,14.62,3.9,23.52-7.59,30.24-23.14,1.33-3.07,3.49-5.52,5.27-8.26"/>
      <path class="cls-1" d="m590.84.76c8.29,8.99,16.26,18.58,24.96,26.83,15.29,14.52,32.2,24.37,51.46,23.35,9.73-.51,19.34-3.13,27.61-11.4,9.73-9.74,11.38-22.98,10.5-37.6-.03-.48-1.67-.79-2.56-1.18"/>
      <path class="cls-1" d="m1815.44,1.93c4.49,12.3,9.22,24.39,17.78,32.82,14.8,14.58,31.45,21.75,49.72,17.28,12.38-3.03,24.33-9.06,36.48-13.75"/>
      <path class="cls-1" d="m55.86.76c13.33,1.95,26.64,5.25,39.99,5.51,15.68.31,31.4-1.9,47.09-3.22,5.35-.45,10.67-1.51,16-2.29"/>
      <path class="cls-1" d="m1132.93,1081.21c33.77,0,67.54,0,101.31,0"/>
      <path class="cls-1" d="m67.41,1081.79c8.44-21.59,26.56-26.86,47.01-18.39,8.82,3.65,16.66,11.4,25,17.15.99.68,2.34.46,3.53.65"/>
      <path class="cls-2" d="m1.65,727.7c3.85,10.16,8.18,20.07,11.41,30.56,2.77,9.01,5.28,18.52,6.16,28.1,1.72,18.85-5.47,31.44-18.45,38.66"/>
      <path class="cls-1" d="m417.55,1081.79c.89-3.91,1.85-7.79,2.65-11.73,3.6-17.71,14.96-19.88,24.71-13.57,9.15,5.91,16.77,15.92,25.07,24.13"/>
      <path class="cls-1" d="m1920.3,1007.93c-6.81-9.38-14.39-18.01-20.22-28.35-5.68-10.07-3.98-17.27,4.3-24.26,4.65-3.93,10-6.4,15.04-9.52"/>
      <path class="cls-1" d="m621.05.76c10.07,5.47,19.85,12.47,30.3,15.98,10.05,3.38,16.09-3.25,18.58-15.98"/>
      <path class="cls-1" d="m651.27,517.83c2.93-15.39,8.45-22.25,21.3-20.67,11.99,1.47,24.39,4.5,35.45,10.54,26.44,14.44,48.03,38.3,65.8,67.68,18.18,30.05,35.34,61.19,53.5,91.26,15.39,25.49,34.04,45.29,58.52,54.24,5.64,2.06,10.84,6.53,15.97,10.5,1.66,1.28,2.44,4.52,3.63,6.87-2.37,1.56-4.89,4.75-7.08,4.39-6.89-1.14-13.93-2.61-20.41-5.75-17.6-8.54-35.63-10.88-54.26-10.61-21.02.3-42.16.1-63.07-2.42-33.37-4.02-58.24-25.41-71.1-67.69-11.64-38.26-23.26-76.52-34.55-114.96-2.05-6.98-2.49-14.79-3.68-22.21"/>
      <path class="cls-1" d="m1430.64,183.67c1.18-8.6,1.94-17.35,3.63-25.77,6.08-30.32,16.39-57.14,35.38-77.56,18.79-20.2,35.83-15.19,50.58,1.56,23.95,27.19,36.03,62.86,40.35,104.07,3.84,36.64-.38,70.8-13.54,103.21-10.03,24.7-23.06,44.22-45.26,50.7-14.7,4.29-26.11-2.77-36.39-14.49-13.07-14.9-20.42-35.29-25.58-56.26-6.7-27.17-10.23-55.42-9.17-84.3"/>
      <path class="cls-1" d="m613.06,488.51c2.89-13.64,10.19-18.41,20.42-20.17,26.9-4.62,51.48,5.56,75.53,19.09,36.8,20.7,62.75,58.15,87.33,98.18,13.96,22.73,29.26,44.25,45.33,64.41,15.24,19.11,35.28,27.81,54.89,36.63,21.68,9.75,43.12,20.18,60.4,41.09,8.44,10.2,17.03,20.43,16.93,37.48-.05,7.8-1.74,12.98-7.91,16.71-13.6,8.22-27.43,8.62-41.88,6.87-33.13-4.01-63.31-22.46-95.14-32.65-14.46-4.63-29.57-5.77-44.37-8.54-19.76-3.69-39.93-4.99-58.62-15.33-18.78-10.39-33.94-26.56-42.64-51.52-9.09-26.06-17.42-52.6-26.83-78.45-7.68-21.1-15.9-41.95-24.94-62.08-7.28-16.24-15.13-31.91-18.49-50.56"/>
      <path class="cls-1" d="m1069.84,425.2c2.55-16.54,7.38-31.61,17.86-42.05,4.49-4.47,9.73-9.15,15.06-10.33,13.85-3.08,23.66,5.87,22.74,27.74-1.15,27.3-14.93,47.64-36.13,53.88-5.78,1.7-13.97-5.19-16.78-14.05-1.4-4.41-1.87-9.33-2.75-14.02"/>
      <path class="cls-1" d="m1046.73,436.93c2.73-19.91,6.96-38.87,16.81-55.19,12.46-20.66,25.89-38.26,47.15-42.37,18.77-3.63,31.06,10.19,35.42,29.62,5.58,24.83.32,47.86-9.7,69.06-10.63,22.49-24.54,40.03-44.35,48.19-29.9,12.32-44.23-5.99-45.33-42.26-.06-1.95,0-3.91,0-5.86"/>
      <path class="cls-1" d="m1444.86,193.05c2.67-13.29,4.64-26.91,8.19-39.77,3.7-13.39,10.62-24.01,19.27-33.08,16.3-17.09,33.39-11.98,47.07,2.71,15.8,16.97,22.95,40.84,26.79,66.62,3.94,26.43.78,51.73-7.13,76.2-5.32,16.45-13.08,30.98-24.97,39.62-18.77,13.66-36.54,5.08-48.81-16.12-10.89-18.81-16.55-40.17-18.56-63.37-.91-10.5-1.24-21.1-1.83-31.65"/>
      <path class="cls-1" d="m1028.96,446.31c3.72-24.65,9.75-48.16,20.47-69.15,14.08-27.56,31.38-51.12,56.04-60.62,32.58-12.54,55.27,9.21,58.31,54.76,2.64,39.46-9.75,72.33-29.9,100.88-17.82,25.26-38.95,43.07-64.06,52.65-4.69,1.79-9.41,3.74-14.22,4.6-9.9,1.78-18.53-2.34-22.02-18.71-2.43-11.37-3.59-23.32-4.48-35.13-.71-9.29-.14-18.74-.14-28.12"/>
      <path class="cls-2" d="m1462.63,202.43c1.78-8.21,2.96-16.74,5.44-24.57,10.17-32.14,35.89-38.47,52.39-5.98,10.95,21.56,12,61.44,1.75,83.33-6.04,12.9-14.71,23.5-25.78,22.69-13.6-1-22.41-14.21-27.61-30.91-4.34-13.93-6.79-28.27-6.2-43.4"/>
      <path class="cls-1" d="m687.71,561.21c5.83-21.7,19.16-26.42,37.31-12.86,22.04,16.47,38.75,40.29,52.4,68.01,7.34,14.91,14.96,29.65,17.02,48.01,1.81,16.08-1.1,23.68-12.53,29.32-19.32,9.55-37.47,4.9-54.12-9.54-14.63-12.69-21.76-32.6-27.81-53.68-6.35-22.11-9.97-44.84-12.27-68.09"/>
      <path class="cls-1" d="m1374.65,854.33c4.12-6.83,8.83-3.3,13.28-1.01.92.47,1.23,2.97,1.82,4.53-1.18.78-2.53,2.48-3.53,2.18-3.92-1.17-7.73-2.96-11.58-4.53"/>
    </g>
  </g>
</svg>