<?xml version="1.0" encoding="UTF-8"?>
<svg id="Layer_2" data-name="Layer 2" xmlns="http://www.w3.org/2000/svg" viewBox="0 0 975.32 756.8">
  <defs>
    <style>
      .cls-1 {
        fill: #fff;
        stroke-width: 0px;
      }
    </style>
  </defs>
  <g id="Isolation_Mode" data-name="Isolation Mode">
    <g>
      <rect class="cls-1" x="931.47" y="12.78" width="43.85" height="3.99"/>
      <rect class="cls-1" x="931.47" y="80.02" width="43.85" height="3.99"/>
      <rect class="cls-1" x="931.47" y="147.25" width="43.85" height="3.99"/>
      <rect class="cls-1" x="931.47" y="214.48" width="43.85" height="3.99"/>
      <rect class="cls-1" x="931.47" y="281.71" width="43.85" height="3.99"/>
      <rect class="cls-1" x="931.47" y="348.95" width="43.85" height="3.99"/>
      <rect class="cls-1" x="931.47" y="416.18" width="43.85" height="3.99"/>
      <rect class="cls-1" x="931.47" y="483.41" width="43.85" height="3.99"/>
      <rect class="cls-1" x="931.47" y="550.65" width="43.85" height="3.99"/>
      <rect class="cls-1" x="931.47" y="617.88" width="43.85" height="3.99"/>
      <rect class="cls-1" x="931.47" y="685.11" width="43.85" height="3.99"/>
      <rect class="cls-1" x="931.47" y="752.35" width="43.85" height="3.99"/>
      <rect class="cls-1" x="884.44" y="-7.12" width="4.56" height="43.19" transform="translate(858.59 900.86) rotate(-89.12)"/>
      <rect class="cls-1" x="884.36" y="60.12" width="4.51" height="42.97" transform="translate(786.59 966.33) rotate(-88.81)"/>
      <rect class="cls-1" x="884.29" y="127.36" width="4.46" height="42.75" transform="translate(714.62 1031.05) rotate(-88.5)"/>
      <rect class="cls-1" x="884.21" y="194.6" width="4.41" height="42.53" transform="translate(642.65 1095.01) rotate(-88.19)"/>
      <rect class="cls-1" x="884.13" y="261.84" width="4.35" height="42.31" transform="translate(570.7 1158.22) rotate(-87.88)"/>
      <rect class="cls-1" x="884.06" y="329.08" width="4.3" height="42.1" transform="translate(498.86 1220.71) rotate(-87.57)"/>
      <rect class="cls-1" x="883.98" y="396.32" width="4.25" height="41.89" transform="translate(426.76 1282.3) rotate(-87.25)"/>
      <rect class="cls-1" x="883.91" y="463.55" width="4.2" height="41.67" transform="translate(354.78 1343.13) rotate(-86.92)"/>
      <rect class="cls-1" x="883.83" y="530.79" width="4.14" height="41.46" transform="translate(282.83 1403.17) rotate(-86.6)"/>
      <rect class="cls-1" x="883.76" y="598.03" width="4.09" height="41.25" transform="translate(210.92 1462.4) rotate(-86.28)"/>
      <rect class="cls-1" x="883.68" y="665.26" width="4.04" height="41.05" transform="translate(138.79 1520.59) rotate(-85.93)"/>
      <rect class="cls-1" x="883.6" y="732.5" width="3.99" height="40.84" transform="translate(67.01 1578.19) rotate(-85.6)"/>
      <rect class="cls-1" x="817.47" y="-7.1" width="5.14" height="42.53" transform="translate(780 833.35) rotate(-88.19)"/>
      <rect class="cls-1" x="817.32" y="60.15" width="5.03" height="42.1" transform="translate(703.94 896.85) rotate(-87.57)"/>
      <rect class="cls-1" x="817.17" y="127.39" width="4.93" height="41.67" transform="translate(627.62 958.72) rotate(-86.92)"/>
      <rect class="cls-1" x="817.02" y="194.63" width="4.82" height="41.25" transform="translate(551.2 1018.9) rotate(-86.26)"/>
      <rect class="cls-1" x="816.87" y="261.86" width="4.72" height="40.84" transform="translate(474.87 1077.41) rotate(-85.6)"/>
      <rect class="cls-1" x="816.71" y="329.1" width="4.61" height="40.43" transform="translate(398.62 1134.22) rotate(-84.92)"/>
      <rect class="cls-1" x="816.56" y="396.33" width="4.51" height="40.03" transform="translate(322.13 1189.07) rotate(-84.22)"/>
      <rect class="cls-1" x="816.41" y="463.56" width="4.4" height="39.63" transform="translate(245.77 1242.07) rotate(-83.51)"/>
      <rect class="cls-1" x="816.26" y="530.78" width="4.3" height="39.24" transform="translate(169.67 1293.29) rotate(-82.79)"/>
      <rect class="cls-1" x="816.11" y="598.01" width="4.2" height="38.85" transform="translate(93.66 1342.5) rotate(-82.06)"/>
      <rect class="cls-1" x="815.95" y="665.23" width="4.09" height="38.48" transform="translate(17.77 1389.62) rotate(-81.31)"/>
      <rect class="cls-1" x="815.8" y="732.44" width="3.99" height="38.11" transform="translate(-57.84 1434.72) rotate(-80.54)"/>
      <rect class="cls-1" x="750.51" y="-7.08" width="5.71" height="41.89" transform="translate(703.26 765.68) rotate(-87.24)"/>
      <rect class="cls-1" x="750.28" y="60.16" width="5.55" height="41.25" transform="translate(623.32 826.97) rotate(-86.26)"/>
      <rect class="cls-1" x="750.05" y="127.4" width="5.4" height="40.63" transform="translate(543.37 885.7) rotate(-85.26)"/>
      <rect class="cls-1" x="749.82" y="194.63" width="5.24" height="40.03" transform="translate(463.24 941.7) rotate(-84.23)"/>
      <rect class="cls-1" x="749.59" y="261.86" width="5.09" height="39.43" transform="translate(382.96 994.81) rotate(-83.16)"/>
      <rect class="cls-1" x="749.37" y="329.07" width="4.93" height="38.85" transform="translate(302.76 1044.95) rotate(-82.06)"/>
      <rect class="cls-1" x="749.14" y="396.29" width="4.77" height="38.29" transform="translate(222.77 1092.03) rotate(-80.93)"/>
      <rect class="cls-1" x="748.91" y="463.49" width="4.61" height="37.74" transform="translate(142.84 1135.71) rotate(-79.75)"/>
      <rect class="cls-1" x="748.68" y="530.68" width="4.46" height="37.21" transform="translate(63.5 1176.22) rotate(-78.55)"/>
      <rect class="cls-1" x="748.46" y="597.87" width="4.3" height="36.69" transform="translate(-15.26 1213.36) rotate(-77.33)"/>
      <rect class="cls-1" x="748.23" y="665.05" width="4.14" height="36.19" transform="translate(-93.53 1246.69) rotate(-76.05)"/>
      <rect class="cls-1" x="748" y="732.21" width="3.99" height="35.71" transform="translate(-171.03 1276.21) rotate(-74.74)"/>
      <rect class="cls-1" x="683.54" y="-7.07" width="6.29" height="41.25" transform="translate(628.41 697.9) rotate(-86.26)"/>
      <rect class="cls-1" x="683.24" y="60.17" width="6.08" height="40.43" transform="translate(545.51 756.86) rotate(-84.93)"/>
      <rect class="cls-1" x="682.93" y="127.39" width="5.87" height="39.63" transform="translate(462.17 812.07) rotate(-83.52)"/>
      <rect class="cls-1" x="682.63" y="194.61" width="5.66" height="38.85" transform="translate(378.85 863.38) rotate(-82.07)"/>
      <rect class="cls-1" x="682.33" y="261.81" width="5.45" height="38.11" transform="translate(295.41 910.43) rotate(-80.54)"/>
      <rect class="cls-1" x="682.02" y="329" width="5.24" height="37.38" transform="translate(212.22 953.03) rotate(-78.95)"/>
      <rect class="cls-1" x="681.72" y="396.17" width="5.03" height="36.69" transform="translate(129.65 991.09) rotate(-77.32)"/>
      <rect class="cls-1" x="681.41" y="463.33" width="4.82" height="36.03" transform="translate(47.65 1024.1) rotate(-75.61)"/>
      <rect class="cls-1" x="681.11" y="530.47" width="4.61" height="35.4" transform="translate(-33.15 1052.23) rotate(-73.86)"/>
      <rect class="cls-1" x="680.81" y="597.59" width="4.4" height="34.81" transform="translate(-112.7 1074.95) rotate(-72.03)"/>
      <rect class="cls-1" x="680.5" y="664.69" width="4.2" height="34.25" transform="translate(-190.58 1092.16) rotate(-70.14)"/>
      <rect class="cls-1" x="680.2" y="731.78" width="3.99" height="33.74" transform="translate(-266.25 1104.05) rotate(-68.2)"/>
      <rect class="cls-1" x="616.57" y="-7.07" width="6.86" height="40.63" transform="translate(555.54 630.04) rotate(-85.26)"/>
      <rect class="cls-1" x="616.19" y="60.16" width="6.6" height="39.63" transform="translate(470.1 686.48) rotate(-83.52)"/>
      <rect class="cls-1" x="615.81" y="127.37" width="6.34" height="38.66" transform="translate(384.26 737.94) rotate(-81.68)"/>
      <rect class="cls-1" x="615.43" y="194.56" width="6.08" height="37.74" transform="translate(298.51 784.11) rotate(-79.76)"/>
      <rect class="cls-1" x="615.06" y="261.72" width="5.82" height="36.86" transform="translate(212.92 824.49) rotate(-77.73)"/>
      <rect class="cls-1" x="614.68" y="328.86" width="5.56" height="36.03" transform="translate(128.04 858.78) rotate(-75.61)"/>
      <rect class="cls-1" x="614.3" y="395.97" width="5.29" height="35.25" transform="translate(44.35 886.69) rotate(-73.4)"/>
      <rect class="cls-1" x="613.92" y="463.06" width="5.03" height="34.53" transform="translate(-37.77 907.78) rotate(-71.09)"/>
      <rect class="cls-1" x="613.54" y="530.12" width="4.77" height="33.86" transform="translate(-117.54 922.1) rotate(-68.69)"/>
      <rect class="cls-1" x="613.16" y="597.15" width="4.51" height="33.26" transform="translate(-194.58 929) rotate(-66.19)"/>
      <rect class="cls-1" x="612.78" y="664.14" width="4.25" height="32.72" transform="translate(-267.97 928.93) rotate(-63.61)"/>
      <rect class="cls-1" x="612.4" y="731.1" width="3.99" height="32.25" transform="translate(-337.16 921.5) rotate(-60.95)"/>
      <rect class="cls-1" x="549.61" y="-7.07" width="7.44" height="40.03" transform="translate(484.72 562.15) rotate(-84.22)"/>
      <rect class="cls-1" x="549.15" y="60.14" width="7.13" height="38.85" transform="translate(397.52 615.98) rotate(-82.06)"/>
      <rect class="cls-1" x="548.7" y="127.32" width="6.81" height="37.74" transform="translate(310.06 663.5) rotate(-79.76)"/>
      <rect class="cls-1" x="548.24" y="194.47" width="6.5" height="36.69" transform="translate(222.87 704.18) rotate(-77.33)"/>
      <rect class="cls-1" x="547.79" y="261.58" width="6.18" height="35.71" transform="translate(136.38 737.41) rotate(-74.75)"/>
      <rect class="cls-1" x="547.33" y="328.66" width="5.87" height="34.81" transform="translate(51.37 762.78) rotate(-72.04)"/>
      <rect class="cls-1" x="546.88" y="395.69" width="5.56" height="33.99" transform="translate(-31.44 779.77) rotate(-69.18)"/>
      <rect class="cls-1" x="546.42" y="462.68" width="5.24" height="33.26" transform="translate(-111.11 788.15) rotate(-66.19)"/>
      <rect class="cls-1" x="545.97" y="529.62" width="4.93" height="32.62" transform="translate(-186.66 787.73) rotate(-63.08)"/>
      <rect class="cls-1" x="545.51" y="596.52" width="4.61" height="32.08" transform="translate(-256.99 778.72) rotate(-59.86)"/>
      <rect class="cls-1" x="545.06" y="663.36" width="4.3" height="31.65" transform="translate(-321.13 761.06) rotate(-56.53)"/>
      <rect class="cls-1" x="544.6" y="730.14" width="3.99" height="31.32" transform="translate(-378 735.53) rotate(-53.13)"/>
      <rect class="cls-1" x="482.64" y="-7.08" width="8.01" height="39.43" transform="translate(416.1 494.31) rotate(-83.16)"/>
      <rect class="cls-1" x="482.11" y="60.11" width="7.65" height="38.11" transform="translate(327.93 545.46) rotate(-80.53)"/>
      <rect class="cls-1" x="481.58" y="127.25" width="7.28" height="36.86" transform="translate(239.81 588.89) rotate(-77.74)"/>
      <rect class="cls-1" x="481.05" y="194.35" width="6.92" height="35.71" transform="translate(152.3 623.81) rotate(-74.75)"/>
      <rect class="cls-1" x="480.52" y="261.39" width="6.55" height="34.67" transform="translate(66.35 649.52) rotate(-71.56)"/>
      <rect class="cls-1" x="479.99" y="328.38" width="6.18" height="33.74" transform="translate(-16.92 665.51) rotate(-68.19)"/>
      <rect class="cls-1" x="479.45" y="395.31" width="5.82" height="32.93" transform="translate(-96.26 671.43) rotate(-64.65)"/>
      <rect class="cls-1" x="478.92" y="462.17" width="5.45" height="32.25" transform="translate(-170.34 667.15) rotate(-60.95)"/>
      <rect class="cls-1" x="478.39" y="528.96" width="5.08" height="31.71" transform="translate(-237.74 652.62) rotate(-57.09)"/>
      <rect class="cls-1" x="477.86" y="595.67" width="4.72" height="31.32" transform="translate(-296.98 628.71) rotate(-53.13)"/>
      <rect class="cls-1" x="477.33" y="662.31" width="4.35" height="31.09" transform="translate(-346.79 596.31) rotate(-49.09)"/>
      <rect class="cls-1" x="476.8" y="728.88" width="3.99" height="31.01" transform="translate(-386.12 556.58) rotate(-45)"/>
      <rect class="cls-1" x="415.67" y="-7.09" width="8.59" height="38.85" transform="translate(349.73 426.57) rotate(-82.06)"/>
      <rect class="cls-1" x="415.07" y="60.06" width="8.17" height="37.38" transform="translate(261.6 475.07) rotate(-78.96)"/>
      <rect class="cls-1" x="414.46" y="127.16" width="7.75" height="36.03" transform="translate(173.81 514.35) rotate(-75.62)"/>
      <rect class="cls-1" x="413.85" y="194.19" width="7.33" height="34.81" transform="translate(87.44 543.47) rotate(-72.03)"/>
      <rect class="cls-1" x="413.25" y="261.15" width="6.92" height="33.73" transform="translate(3.81 561.66) rotate(-68.2)"/>
      <rect class="cls-1" x="412.64" y="328.03" width="6.5" height="32.82" transform="translate(-75.46 568.44) rotate(-64.14)"/>
      <rect class="cls-1" x="412.03" y="394.82" width="6.08" height="32.08" transform="translate(-148.64 563.57) rotate(-59.87)"/>
      <rect class="cls-1" x="411.43" y="461.51" width="5.66" height="31.53" transform="translate(-213.84 547.2) rotate(-55.4)"/>
      <rect class="cls-1" x="410.82" y="528.11" width="5.24" height="31.17" transform="translate(-269.21 520.74) rotate(-50.82)"/>
      <rect class="cls-1" x="410.21" y="594.61" width="4.82" height="31.01" transform="translate(-313.26 485.25) rotate(-46.17)"/>
      <rect class="cls-1" x="409.61" y="661" width="4.41" height="31.07" transform="translate(-344.87 442.6) rotate(-41.49)"/>
      <rect class="cls-1" x="409" y="727.3" width="3.99" height="31.32" transform="translate(-363.59 395.23) rotate(-36.87)"/>
      <rect class="cls-1" x="348.71" y="-7.11" width="9.16" height="38.29" transform="translate(285.65 358.99) rotate(-80.92)"/>
      <rect class="cls-1" x="348.02" y="60" width="8.69" height="36.69" transform="translate(198.58 404.93) rotate(-77.32)"/>
      <rect class="cls-1" x="347.34" y="127.04" width="8.22" height="35.25" transform="translate(112.42 440.15) rotate(-73.4)"/>
      <rect class="cls-1" x="346.66" y="193.99" width="7.75" height="33.99" transform="translate(28.75 463.66) rotate(-69.18)"/>
      <rect class="cls-1" x="345.98" y="260.84" width="7.28" height="32.93" transform="translate(-50.65 474.58) rotate(-64.66)"/>
      <rect class="cls-1" x="345.29" y="327.58" width="6.81" height="32.08" transform="translate(-123.54 472.7) rotate(-59.87)"/>
      <rect class="cls-1" x="344.61" y="394.21" width="6.34" height="31.47" transform="translate(-187.64 458.22) rotate(-54.84)"/>
      <rect class="cls-1" x="343.93" y="460.7" width="5.87" height="31.11" transform="translate(-240.69 432.43) rotate(-49.67)"/>
      <rect class="cls-1" x="343.25" y="527.07" width="5.4" height="31.01" transform="translate(-280.87 397.07) rotate(-44.41)"/>
      <rect class="cls-1" x="342.56" y="593.31" width="4.93" height="31.17" transform="translate(-307.07 354.79) rotate(-39.17)"/>
      <rect class="cls-1" x="341.88" y="659.42" width="4.46" height="31.58" transform="translate(-318.87 308.09) rotate(-34.02)"/>
      <rect class="cls-1" x="341.2" y="725.41" width="3.99" height="32.25" transform="translate(-316.91 259.96) rotate(-29.05)"/>
      <rect class="cls-1" x="281.74" y="-7.14" width="9.74" height="37.74" transform="translate(224.1 291.68) rotate(-79.75)"/>
      <rect class="cls-1" x="280.98" y="59.93" width="9.22" height="36.03" transform="translate(139.14 335.22) rotate(-75.62)"/>
      <rect class="cls-1" x="280.22" y="126.9" width="8.69" height="34.53" transform="translate(55.99 366.68) rotate(-71.1)"/>
      <rect class="cls-1" x="279.46" y="193.75" width="8.17" height="33.26" transform="translate(-23.37 384.89) rotate(-66.2)"/>
      <rect class="cls-1" x="278.71" y="260.47" width="7.65" height="32.25" transform="translate(-96.46 389.26) rotate(-60.95)"/>
      <rect class="cls-1" x="277.95" y="327.05" width="7.12" height="31.53" transform="translate(-160.52 379.93) rotate(-55.41)"/>
      <rect class="cls-1" x="277.19" y="393.47" width="6.6" height="31.11" transform="translate(-212.85 358.1) rotate(-49.67)"/>
      <rect class="cls-1" x="276.43" y="459.74" width="6.08" height="31.01" transform="translate(-251.26 325.95) rotate(-43.83)"/>
      <rect class="cls-1" x="275.67" y="525.84" width="5.56" height="31.24" transform="translate(-274.39 286.36) rotate(-38.01)"/>
      <rect class="cls-1" x="274.92" y="591.79" width="5.03" height="31.78" transform="translate(-282.08 242.73) rotate(-32.35)"/>
      <rect class="cls-1" x="274.16" y="657.58" width="4.51" height="32.62" transform="translate(-275.13 198.14) rotate(-26.92)"/>
      <rect class="cls-1" x="273.4" y="723.24" width="3.99" height="33.74" transform="translate(-255.2 155.24) rotate(-21.8)"/>
      <rect class="cls-1" x="214.77" y="-7.18" width="10.31" height="37.21" transform="translate(165.12 224.72) rotate(-78.56)"/>
      <rect class="cls-1" x="213.94" y="59.84" width="9.74" height="35.4" transform="translate(83.48 266.15) rotate(-73.85)"/>
      <rect class="cls-1" x="213.11" y="126.72" width="9.16" height="33.86" transform="translate(4.75 294.25) rotate(-68.69)"/>
      <rect class="cls-1" x="212.27" y="193.46" width="8.59" height="32.62" transform="translate(-68.52 307.89) rotate(-63.08)"/>
      <rect class="cls-1" x="211.44" y="260.03" width="8.01" height="31.71" transform="translate(-133.22 306.89) rotate(-57.09)"/>
      <rect class="cls-1" x="210.6" y="326.41" width="7.44" height="31.17" transform="translate(-186.18 292.1) rotate(-50.82)"/>
      <rect class="cls-1" x="209.77" y="392.61" width="6.86" height="31.01" transform="translate(-224.7 265.81) rotate(-44.41)"/>
      <rect class="cls-1" x="208.93" y="458.61" width="6.29" height="31.24" transform="translate(-247.1 231.28) rotate(-38.02)"/>
      <rect class="cls-1" x="208.1" y="524.42" width="5.71" height="31.85" transform="translate(-253.01 192.19) rotate(-31.79)"/>
      <rect class="cls-1" x="207.27" y="590.05" width="5.14" height="32.82" transform="translate(-243.56 152.3) rotate(-25.87)"/>
      <rect class="cls-1" x="206.43" y="655.51" width="4.56" height="34.12" transform="translate(-220.8 114.51) rotate(-20.34)"/>
      <rect class="cls-1" x="205.6" y="720.83" width="3.99" height="35.71" transform="translate(-187.04 80.65) rotate(-15.25)"/>
      <rect class="cls-1" x="147.81" y="-7.23" width="10.89" height="36.69" transform="translate(108.75 158.19) rotate(-77.31)"/>
      <rect class="cls-1" x="146.9" y="59.72" width="10.26" height="34.81" transform="translate(31.77 197.95) rotate(-72.03)"/>
      <rect class="cls-1" x="145.99" y="126.51" width="9.64" height="33.26" transform="translate(-41.03 223.34) rotate(-66.2)"/>
      <rect class="cls-1" x="145.08" y="193.12" width="9.01" height="32.08" transform="translate(-106.4 233.5) rotate(-59.86)"/>
      <rect class="cls-1" x="144.17" y="259.51" width="8.38" height="31.32" transform="translate(-160.8 228.78) rotate(-53.13)"/>
      <rect class="cls-1" x="143.26" y="325.68" width="7.75" height="31.01" transform="translate(-200.89 211.05) rotate(-46.17)"/>
      <rect class="cls-1" x="142.35" y="391.61" width="7.12" height="31.17" transform="translate(-224.43 183.7) rotate(-39.18)"/>
      <rect class="cls-1" x="141.44" y="457.32" width="6.5" height="31.78" transform="translate(-230.73 150.84) rotate(-32.35)"/>
      <rect class="cls-1" x="140.53" y="522.81" width="5.87" height="32.82" transform="translate(-220.96 116.68) rotate(-25.88)"/>
      <rect class="cls-1" x="139.62" y="588.11" width="5.24" height="34.25" transform="translate(-197.09 84.28) rotate(-19.85)"/>
      <rect class="cls-1" x="138.71" y="653.24" width="4.61" height="36.03" transform="translate(-162.23 56.02) rotate(-14.37)"/>
      <rect class="cls-1" x="137.8" y="718.21" width="3.99" height="38.11" transform="translate(-119.29 33.01) rotate(-9.46)"/>
      <rect class="cls-1" x="80.84" y="-7.29" width="11.47" height="36.19" transform="translate(55.21 92.23) rotate(-76.05)"/>
      <rect class="cls-1" x="79.86" y="59.6" width="10.79" height="34.25" transform="translate(-15.87 130.84) rotate(-70.14)"/>
      <rect class="cls-1" x="78.87" y="126.28" width="10.11" height="32.72" transform="translate(-81.15 154.42) rotate(-63.61)"/>
      <rect class="cls-1" x="77.88" y="192.72" width="9.43" height="31.65" transform="translate(-136.92 162.45) rotate(-56.53)"/>
      <rect class="cls-1" x="76.9" y="258.92" width="8.75" height="31.08" transform="translate(-179.36 156.11) rotate(-49.08)"/>
      <rect class="cls-1" x="75.91" y="324.84" width="8.07" height="31.07" transform="translate(-205.47 138.43) rotate(-41.5)"/>
      <rect class="cls-1" x="74.93" y="390.49" width="7.39" height="31.58" transform="translate(-213.9 113.57) rotate(-34.03)"/>
      <rect class="cls-1" x="73.94" y="455.88" width="6.71" height="32.62" transform="translate(-205.42 86.17) rotate(-26.92)"/>
      <rect class="cls-1" x="72.95" y="521.05" width="6.03" height="34.12" transform="translate(-182.26 59.94) rotate(-20.34)"/>
      <rect class="cls-1" x="71.97" y="586" width="5.35" height="36.03" transform="translate(-147.64 37.45) rotate(-14.38)"/>
      <rect class="cls-1" x="70.98" y="650.78" width="4.67" height="38.29" transform="translate(-104.8 19.96) rotate(-9.08)"/>
      <rect class="cls-1" x="70" y="715.42" width="3.99" height="40.84" transform="translate(-56.3 7.7) rotate(-4.4)"/>
      <rect class="cls-1" x="13.88" y="-7.35" width="12.04" height="35.71" transform="translate(4.53 26.94) rotate(-74.75)"/>
      <rect class="cls-1" x="12.81" y="59.45" width="11.31" height="33.74" transform="translate(-59.25 65.12) rotate(-68.2)"/>
      <rect class="cls-1" x="11.75" y="126" width="10.58" height="32.25" transform="translate(-115.48 88) rotate(-60.95)"/>
      <rect class="cls-1" x="10.69" y="192.28" width="9.84" height="31.32" transform="translate(-160.1 95.66) rotate(-53.13)"/>
      <rect class="cls-1" x="9.63" y="258.24" width="9.11" height="31.01" transform="translate(-189.41 90.2) rotate(-45)"/>
      <rect class="cls-1" x="8.57" y="323.9" width="8.38" height="31.32" transform="translate(-201.17 75.55) rotate(-36.87)"/>
      <rect class="cls-1" x="7.5" y="389.24" width="7.65" height="32.25" transform="translate(-195.45 56.52) rotate(-29.06)"/>
      <rect class="cls-1" x="6.44" y="454.31" width="6.92" height="33.73" transform="translate(-174.25 37.36) rotate(-21.8)"/>
      <rect class="cls-1" x="5.38" y="519.13" width="6.18" height="35.71" transform="translate(-140.95 21.14) rotate(-15.25)"/>
      <rect class="cls-1" x="4.32" y="583.75" width="5.45" height="38.1" transform="translate(-98.93 9.35) rotate(-9.46)"/>
      <rect class="cls-1" x="3.26" y="648.19" width="4.72" height="40.84" transform="translate(-51.33 2.41) rotate(-4.4)"/>
      <rect class="cls-1" x="2.2" y="712.49" width="3.99" height="43.85"/>
    </g>
  </g>
</svg>