<?xml version="1.0" encoding="UTF-8"?><svg xmlns="http://www.w3.org/2000/svg" viewBox="0 0 137.08 164.38"><defs><style>.cls-1{mix-blend-mode:luminosity;}.cls-2{fill:#de1b3b;}.cls-3{mix-blend-mode:multiply;}.cls-4{isolation:isolate;}</style></defs><g class="cls-4"><g id="Layer_2"><g id="Layer_1-2"><g><g class="cls-3"><path class="cls-2" d="m89.27,11.37h0c-.67-1.08-1.99-1.46-2.95-.86-.18.11-.34.26-.47.42-.72-.71-1.77-.9-2.58-.39-.96.6-1.19,1.96-.52,3.03.33.52.81.88,1.33,1.04l-9.18,5.73c-1.92-5.52-4.34-10.78-5.75-13.68.14.02.28.04.43.04,1.27,0,2.29-.92,2.29-2.05,0-.95-.72-1.74-1.7-1.97.07-.2.11-.4.11-.62,0-1.13-1.03-2.05-2.29-2.05s-2.29.92-2.29,2.05c0,.22.04.42.11.62-.98.23-1.7,1.03-1.7,1.97,0,1.13,1.03,2.05,2.29,2.05.15,0,.29-.01.43-.04-1.41,2.9-3.83,8.16-5.75,13.68l-9.18-5.73c.52-.16,1-.52,1.33-1.04.67-1.07.44-2.43-.52-3.03-.8-.5-1.86-.31-2.58.39-.13-.16-.28-.31-.47-.42-.96-.6-2.28-.22-2.95.86h0s9.54,8.82,8.92,19.4h24.71c-.62-10.59,8.92-19.4,8.92-19.4Zm-29.02,16.86c-1.02-.45-1.87-1.3-2.29-2.43-.42-1.13-.34-2.32.13-3.34,1.02.45,1.87,1.3,2.29,2.42.42,1.13.34,2.32-.13,3.34Zm7.75,0c-1.17-1.15-1.9-2.75-1.9-4.52s.73-3.37,1.9-4.52c1.17,1.15,1.9,2.75,1.9,4.52s-.73,3.37-1.9,4.52Zm10.04-2.43c-.42,1.13-1.27,1.97-2.29,2.43-.47-1.01-.56-2.21-.13-3.34.42-1.13,1.27-1.97,2.29-2.42.47,1.01.56,2.21.13,3.34Z"/><rect class="cls-2" x="55.65" y="32.23" width="24.76" height="2.7"/></g><g class="cls-1"><path class="cls-2" d="m18.17,152.15v.21c-.6.02-1.09.15-1.47.37s-.71.57-1,1.04-.59,1.1-.9,1.89c-.35.9-.65,1.61-.9,2.14s-.47.95-.66,1.25-.37.57-.54.81c.06.05.36.33.92.83s1.03.94,1.42,1.29c.89.75,1.58,1.23,2.07,1.43s.99.31,1.48.33v.2h-3.81c-1.4-1.12-2.44-2-3.13-2.65-.46.61-1.17,1.27-2.12,1.97-.95.7-2.07,1.06-3.35,1.06-.69,0-1.33-.12-1.91-.35s-1.1-.58-1.54-1.02-.79-.94-1.03-1.49-.35-1.12-.35-1.72c0-1.16.35-2.19,1.06-3.1s1.57-1.7,2.59-2.36l-.17-.17c-.74-.83-1.32-1.59-1.74-2.29s-.63-1.42-.63-2.18.2-1.42.59-2.07c.39-.65.94-1.17,1.64-1.56s1.49-.59,2.36-.59c1.14,0,2.06.32,2.76.95s1.05,1.41,1.05,2.33c0,1.03-.4,1.95-1.2,2.75s-1.77,1.55-2.9,2.24c.42.48,1.07,1.17,1.95,2.08l1.77,1.86c.69.72,1.3,1.33,1.83,1.82.43-.67.9-1.62,1.4-2.85s.75-2.23.75-3c0-.51-.13-.83-.4-.99s-.6-.24-1.01-.26v-.21h5.11Zm-12.84,2.55c-1.69,1.13-2.53,2.47-2.53,4.01,0,.79.22,1.51.65,2.17s.99,1.17,1.69,1.53c.69.37,1.39.55,2.1.55.62,0,1.18-.11,1.7-.33.51-.22.94-.47,1.29-.76s.7-.61,1.06-.96c-.7-.67-1.24-1.19-1.61-1.56s-.76-.77-1.17-1.19-.84-.88-1.29-1.37c-.45-.49-1.08-1.18-1.89-2.09Zm1.1-1.42c.86-.55,1.56-1.14,2.1-1.75s.81-1.36.81-2.23c0-.52-.12-1.03-.37-1.51s-.6-.88-1.06-1.18-.99-.45-1.58-.45c-.81,0-1.44.24-1.86.72s-.64,1.05-.64,1.71c0,.45.13.96.4,1.54s.6,1.15,1,1.69.8,1.03,1.2,1.47Z"/><path class="cls-2" d="m28.01,146.15v-.21h10.8v2.74h-.2c-.05-.56-.25-1.06-.62-1.51s-.98-.67-1.86-.67h-4.32v8.15h4.03c.77,0,1.29-.16,1.56-.47s.46-.75.54-1.3h.2v4.08h-.2c-.05-.51-.22-.93-.51-1.26s-.82-.49-1.59-.49h-4.03v6.56c0,.59.17,1.07.51,1.44s.75.54,1.23.54h.26v.2h-5.8v-.2h.24c.49,0,.89-.18,1.22-.55s.48-.84.48-1.43v-13.61c0-.77-.17-1.3-.53-1.58s-.74-.42-1.17-.42h-.24Z"/><path class="cls-2" d="m42.26,146.2h-.24v-.26h6.23c1,0,1.85.15,2.55.46s1.24.7,1.62,1.18.66.98.83,1.51.25,1.05.25,1.56c0,.65-.14,1.28-.41,1.87s-.69,1.11-1.26,1.54-1.27.72-2.12.88v.05c1.07.52,2.07,1.56,2.98,3.1l1.62,2.75c.73,1.23,1.32,2.01,1.76,2.33s.88.51,1.31.55v.2h-3.27c-.14-.18-.27-.35-.39-.52s-.25-.34-.39-.53c-.08-.12-.2-.31-.36-.56s-.25-.39-.29-.42l-2.15-3.55c-.43-.72-.87-1.31-1.33-1.76s-.87-.78-1.26-.97-.74-.32-1.06-.37-.68-.07-1.11-.07v6.58c0,1.28.65,1.94,1.95,1.98v.2h-5.73v-.2c.36-.02.68-.08.95-.2s.51-.32.69-.61.27-.68.27-1.17v-13.61c0-.72-.17-1.22-.53-1.51s-.73-.44-1.15-.44Zm3.53,8.5h1.03c1.07,0,1.96-.15,2.64-.46s1.19-.75,1.5-1.33.46-1.28.46-2.11c0-.69-.14-1.37-.42-2.03s-.75-1.22-1.41-1.67-1.56-.68-2.68-.68c-.46,0-.83.04-1.12.11v8.17Z"/><path class="cls-2" d="m65.44,145.94v.21c-.54,0-.99.15-1.37.45s-.56.8-.56,1.5v13.65c0,.69.2,1.2.6,1.51s.84.47,1.33.47v.2h-5.7v-.2c.52,0,.97-.15,1.35-.46s.57-.81.57-1.52v-13.65c0-.75-.19-1.26-.57-1.54s-.83-.42-1.35-.42v-.21h5.7Z"/><path class="cls-2" d="m68.49,146.15v-.21h10.72v2.83h-.17c0-1.51-1.01-2.27-3.03-2.27h-3.75v8.17h3.3c.65,0,1.23-.11,1.75-.32s.81-.7.88-1.45h.18v4.08h-.18c-.07-.46-.21-.82-.42-1.07s-.41-.41-.6-.49-.38-.12-.53-.12c-.29-.05-.6-.07-.92-.07h-3.46v6.39c0,.48.09.9.27,1.25s.61.53,1.28.53h2.67c.64,0,1.17-.09,1.59-.28s.74-.45.98-.78.44-.74.6-1.21h.17l-.62,2.82h-10.72v-.2h.24c.38,0,.76-.15,1.12-.46s.55-.81.55-1.51v-13.56c0-.55-.12-1.03-.37-1.44s-.68-.61-1.3-.61h-.24Z"/><path class="cls-2" d="m101.14,145.94v.21c-.46.06-.82.14-1.08.26s-.47.35-.62.7-.22.84-.22,1.5v15.78h-.12l-13.81-15.41v11.06c0,.92.04,1.6.11,2.05s.18.77.32.96c.3.42.83.65,1.58.68v.2h-4.51v-.2c.5-.02.9-.13,1.18-.32s.48-.54.6-1.05.18-1.28.18-2.3v-11.74l-.6-.67c-.53-.6-.95-.98-1.27-1.14s-.71-.28-1.18-.36v-.21h3.38l13.61,15.24v-11.61c0-.87-.03-1.52-.1-1.95s-.25-.78-.55-1.04-.76-.4-1.4-.43v-.21h4.52Z"/><path class="cls-2" d="m104.12,146.15v-.21h6.92c.97,0,1.86.08,2.68.25s1.55.39,2.2.67,1.21.58,1.68.91.87.67,1.2,1.01c.57.57,1.05,1.2,1.45,1.9s.7,1.43.9,2.2c.2.77.3,1.57.3,2.39s-.1,1.6-.29,2.34-.48,1.43-.84,2.06-.8,1.2-1.31,1.72c-.51.51-1.1.98-1.78,1.39-.58.34-1.24.62-1.99.83s-1.76.32-3.04.32h-8.07v-.2h.24c.56,0,.98-.21,1.26-.64s.42-.87.42-1.34v-13.58c0-.46-.08-.84-.23-1.15s-.35-.53-.6-.67-.53-.21-.84-.21h-.24Zm3.77.65v14.25c0,.7.11,1.22.34,1.54s.57.54,1.04.64,1.16.15,2.08.15c1.3,0,2.4-.13,3.3-.38s1.76-.83,2.6-1.72c.62-.66,1.12-1.47,1.49-2.42s.56-2.1.56-3.46c0-1.07-.15-2.12-.45-3.17s-.76-1.98-1.38-2.79c-.69-.92-1.58-1.64-2.67-2.16-1.09-.52-2.4-.78-3.93-.78-.79,0-1.78.1-2.98.29Z"/><path class="cls-2" d="m134.12,149.4h-.2c-.11-.87-.49-1.63-1.14-2.29-.65-.66-1.5-.98-2.56-.98-.69,0-1.31.16-1.84.49s-.95.77-1.25,1.33c-.29.56-.44,1.2-.44,1.93,0,.56.09,1.06.26,1.5s.43.82.78,1.15.74.65,1.21.93,1.09.65,1.88,1.09c1.32.72,2.34,1.45,3.08,2.17s1.1,1.71,1.1,2.96c0,.77-.2,1.5-.59,2.22s-.99,1.3-1.79,1.75-1.79.68-2.97.68c-.74,0-1.4-.08-1.97-.24s-1.15-.38-1.73-.67c-.24-.08-.41-.12-.5-.12-.17,0-.28.06-.34.18s-.12.39-.21.79h-.21v-4.51h.21c.29,1.32.86,2.32,1.71,2.99.85.68,1.88,1.01,3.09,1.01.91,0,1.64-.17,2.19-.51s.93-.76,1.14-1.25.32-.98.32-1.47c0-1.01-.31-1.83-.92-2.47s-1.55-1.29-2.8-1.96c-.86-.47-1.5-.84-1.92-1.1s-.84-.6-1.26-1.01-.77-.91-1.02-1.47-.38-1.22-.38-1.95c0-.85.22-1.66.67-2.43s1.08-1.39,1.91-1.86,1.76-.7,2.8-.7c.79,0,1.6.13,2.43.4.13.07.31.1.53.1.27,0,.45-.18.55-.55h.2v3.85Z"/></g><g class="cls-3"><path class="cls-2" d="m51.03,130.56c-.53,0-1.03-.23-1.38-.62l-30.26-34.21v23.94c0,4.34,1.87,6.25,6.24,6.39.99.03,1.78.85,1.78,1.84v.81c0,1.02-.82,1.84-1.84,1.84H1.84c-1.02,0-1.84-.83-1.84-1.84v-.81c0-.99.77-1.8,1.76-1.84,1.26-.06,2.38-.29,3.32-.69.81-.34,1.47-.94,2.04-1.83.57-.9.86-2.2.86-3.87v-56.81c0-2.5-.53-4.14-1.58-4.87-1.29-.9-2.8-1.36-4.62-1.42-.99-.03-1.78-.85-1.78-1.84v-.86c0-1.02.82-1.84,1.84-1.84h23.73c1.02,0,1.84.83,1.84,1.84v.86c0,1-.79,1.81-1.78,1.84-4.38.14-6.24,2.02-6.24,6.29v23.19l25.46-25.46c.1-.17.22-.33.37-.47,1.77-1.62,1.79-2.37,1.79-2.4,0-.35-.07-.47-.07-.47-.86-.28-2.15-.51-3.88-.69-.94-.1-1.64-.89-1.64-1.83v-.86c0-1.02.82-1.84,1.84-1.84h20.68c1.02,0,1.84.83,1.84,1.84v.86c0,.97-.75,1.78-1.72,1.84-1.99.13-3.76.37-5.27.72-1.29.3-2.64,1.09-4.02,2.36-1.19,1.12-2.01,1.88-2.44,2.26-.41.36-.86.77-1.36,1.23l-24.23,23.94,29.33,33.15c2.69,3,4.41,4.1,5.38,4.49,1.52.61,3.52,1.07,5.95,1.35.93.11,1.63.9,1.63,1.83v.81c0,1.02-.82,1.84-1.84,1.84h-16.16Z"/><path class="cls-2" d="m107.44,132.54c-6.13,0-11.8-1.14-16.88-3.38-5.07-2.24-9.42-5.32-12.94-9.15-3.5-3.81-6.18-8.17-7.99-12.94-1.8-4.76-2.71-9.73-2.71-14.78,0-7.58,1.89-14.72,5.63-21.22,3.73-6.5,8.86-11.71,15.24-15.5,6.39-3.8,13.43-5.72,20.91-5.72,4.57,0,9.5.69,14.65,2.04l5.24,1.46c.86.17,1.59.26,2.16.26,1.03,0,1.41-.14,1.48-.17,0-.02.2-.29.38-1.1.19-.83.94-1.42,1.8-1.42h.81c.5,0,.98.2,1.33.57.35.36.53.85.51,1.35l-.71,17.89c-.04.99-.85,1.77-1.84,1.77h-.86c-.89,0-1.66-.64-1.82-1.52-.58-3.28-2.08-5.98-4.58-8.25-2.59-2.35-5.6-4.09-8.95-5.17-3.43-1.1-6.66-1.66-9.6-1.66-4,0-7.81.85-11.32,2.54-3.52,1.69-6.6,4.11-9.16,7.19-2.58,3.11-4.62,6.91-6.07,11.29-1.46,4.42-2.19,9.29-2.19,14.49s.71,9.75,2.12,14.03c1.39,4.24,3.44,7.96,6.1,11.06,2.64,3.08,5.73,5.44,9.19,7.02,3.47,1.58,7.38,2.38,11.64,2.38,3.58,0,7.58-.74,11.91-2.21,4.25-1.44,8.16-3.89,11.6-7.27.35-.35.82-.53,1.29-.53.24,0,.48.05.71.14.68.29,1.13.96,1.13,1.7v2.9c0,.57-.26,1.11-.71,1.46-4.61,3.57-8.9,6.23-12.77,7.91-3.96,1.72-8.92,2.59-14.73,2.59Z"/></g></g></g></g></g></svg>